G04 #@! TF.GenerationSoftware,KiCad,Pcbnew,(5.1.4-0-10_14)*
G04 #@! TF.CreationDate,2020-10-16T02:23:32-05:00*
G04 #@! TF.ProjectId,33,33332e6b-6963-4616-945f-706362585858,rev?*
G04 #@! TF.SameCoordinates,Original*
G04 #@! TF.FileFunction,Legend,Bot*
G04 #@! TF.FilePolarity,Positive*
%FSLAX46Y46*%
G04 Gerber Fmt 4.6, Leading zero omitted, Abs format (unit mm)*
G04 Created by KiCad (PCBNEW (5.1.4-0-10_14)) date 2020-10-16 02:23:32*
%MOMM*%
%LPD*%
G04 APERTURE LIST*
%ADD10C,0.300000*%
%ADD11C,0.400000*%
%ADD12C,0.381000*%
%ADD13C,0.150000*%
G04 APERTURE END LIST*
D10*
X179681142Y-84999857D02*
X179466857Y-85071285D01*
X179395428Y-85142714D01*
X179324000Y-85285571D01*
X179324000Y-85499857D01*
X179395428Y-85642714D01*
X179466857Y-85714142D01*
X179609714Y-85785571D01*
X180181142Y-85785571D01*
X180181142Y-84285571D01*
X179681142Y-84285571D01*
X179538285Y-84357000D01*
X179466857Y-84428428D01*
X179395428Y-84571285D01*
X179395428Y-84714142D01*
X179466857Y-84857000D01*
X179538285Y-84928428D01*
X179681142Y-84999857D01*
X180181142Y-84999857D01*
X178752571Y-84428428D02*
X178681142Y-84357000D01*
X178538285Y-84285571D01*
X178181142Y-84285571D01*
X178038285Y-84357000D01*
X177966857Y-84428428D01*
X177895428Y-84571285D01*
X177895428Y-84714142D01*
X177966857Y-84928428D01*
X178824000Y-85785571D01*
X177895428Y-85785571D01*
X172247642Y-85109857D02*
X172033357Y-85181285D01*
X171961928Y-85252714D01*
X171890500Y-85395571D01*
X171890500Y-85609857D01*
X171961928Y-85752714D01*
X172033357Y-85824142D01*
X172176214Y-85895571D01*
X172747642Y-85895571D01*
X172747642Y-84395571D01*
X172247642Y-84395571D01*
X172104785Y-84467000D01*
X172033357Y-84538428D01*
X171961928Y-84681285D01*
X171961928Y-84824142D01*
X172033357Y-84967000D01*
X172104785Y-85038428D01*
X172247642Y-85109857D01*
X172747642Y-85109857D01*
X170604785Y-84395571D02*
X170890500Y-84395571D01*
X171033357Y-84467000D01*
X171104785Y-84538428D01*
X171247642Y-84752714D01*
X171319071Y-85038428D01*
X171319071Y-85609857D01*
X171247642Y-85752714D01*
X171176214Y-85824142D01*
X171033357Y-85895571D01*
X170747642Y-85895571D01*
X170604785Y-85824142D01*
X170533357Y-85752714D01*
X170461928Y-85609857D01*
X170461928Y-85252714D01*
X170533357Y-85109857D01*
X170604785Y-85038428D01*
X170747642Y-84967000D01*
X171033357Y-84967000D01*
X171176214Y-85038428D01*
X171247642Y-85109857D01*
X171319071Y-85252714D01*
X138457642Y-65321571D02*
X138457642Y-63821571D01*
X138100500Y-63821571D01*
X137886214Y-63893000D01*
X137743357Y-64035857D01*
X137671928Y-64178714D01*
X137600500Y-64464428D01*
X137600500Y-64678714D01*
X137671928Y-64964428D01*
X137743357Y-65107285D01*
X137886214Y-65250142D01*
X138100500Y-65321571D01*
X138457642Y-65321571D01*
X137100500Y-63821571D02*
X136171928Y-63821571D01*
X136671928Y-64393000D01*
X136457642Y-64393000D01*
X136314785Y-64464428D01*
X136243357Y-64535857D01*
X136171928Y-64678714D01*
X136171928Y-65035857D01*
X136243357Y-65178714D01*
X136314785Y-65250142D01*
X136457642Y-65321571D01*
X136886214Y-65321571D01*
X137029071Y-65250142D01*
X137100500Y-65178714D01*
X130901142Y-65448571D02*
X130901142Y-63948571D01*
X130544000Y-63948571D01*
X130329714Y-64020000D01*
X130186857Y-64162857D01*
X130115428Y-64305714D01*
X130044000Y-64591428D01*
X130044000Y-64805714D01*
X130115428Y-65091428D01*
X130186857Y-65234285D01*
X130329714Y-65377142D01*
X130544000Y-65448571D01*
X130901142Y-65448571D01*
X129472571Y-64091428D02*
X129401142Y-64020000D01*
X129258285Y-63948571D01*
X128901142Y-63948571D01*
X128758285Y-64020000D01*
X128686857Y-64091428D01*
X128615428Y-64234285D01*
X128615428Y-64377142D01*
X128686857Y-64591428D01*
X129544000Y-65448571D01*
X128615428Y-65448571D01*
D11*
X136896428Y-86532142D02*
X137182142Y-86389285D01*
X137325000Y-86103571D01*
X137325000Y-83532142D01*
X135325000Y-86532142D02*
X135610714Y-86389285D01*
X135753571Y-86246428D01*
X135896428Y-85960714D01*
X135896428Y-85103571D01*
X135753571Y-84817857D01*
X135610714Y-84675000D01*
X135325000Y-84532142D01*
X134896428Y-84532142D01*
X134610714Y-84675000D01*
X134467857Y-84817857D01*
X134325000Y-85103571D01*
X134325000Y-85960714D01*
X134467857Y-86246428D01*
X134610714Y-86389285D01*
X134896428Y-86532142D01*
X135325000Y-86532142D01*
X131753571Y-86532142D02*
X131753571Y-83532142D01*
X131753571Y-86389285D02*
X132039285Y-86532142D01*
X132610714Y-86532142D01*
X132896428Y-86389285D01*
X133039285Y-86246428D01*
X133182142Y-85960714D01*
X133182142Y-85103571D01*
X133039285Y-84817857D01*
X132896428Y-84675000D01*
X132610714Y-84532142D01*
X132039285Y-84532142D01*
X131753571Y-84675000D01*
X129039285Y-86532142D02*
X129039285Y-84960714D01*
X129182142Y-84675000D01*
X129467857Y-84532142D01*
X130039285Y-84532142D01*
X130325000Y-84675000D01*
X129039285Y-86389285D02*
X129325000Y-86532142D01*
X130039285Y-86532142D01*
X130325000Y-86389285D01*
X130467857Y-86103571D01*
X130467857Y-85817857D01*
X130325000Y-85532142D01*
X130039285Y-85389285D01*
X129325000Y-85389285D01*
X129039285Y-85246428D01*
X127753571Y-86389285D02*
X127467857Y-86532142D01*
X126896428Y-86532142D01*
X126610714Y-86389285D01*
X126467857Y-86103571D01*
X126467857Y-85960714D01*
X126610714Y-85675000D01*
X126896428Y-85532142D01*
X127325000Y-85532142D01*
X127610714Y-85389285D01*
X127753571Y-85103571D01*
X127753571Y-84960714D01*
X127610714Y-84675000D01*
X127325000Y-84532142D01*
X126896428Y-84532142D01*
X126610714Y-84675000D01*
X125182142Y-86532142D02*
X125182142Y-83532142D01*
X123896428Y-86532142D02*
X123896428Y-84960714D01*
X124039285Y-84675000D01*
X124325000Y-84532142D01*
X124753571Y-84532142D01*
X125039285Y-84675000D01*
X125182142Y-84817857D01*
X122753571Y-83532142D02*
X120896428Y-83532142D01*
X121896428Y-84675000D01*
X121467857Y-84675000D01*
X121182142Y-84817857D01*
X121039285Y-84960714D01*
X120896428Y-85246428D01*
X120896428Y-85960714D01*
X121039285Y-86246428D01*
X121182142Y-86389285D01*
X121467857Y-86532142D01*
X122325000Y-86532142D01*
X122610714Y-86389285D01*
X122753571Y-86246428D01*
X119896428Y-83532142D02*
X118039285Y-83532142D01*
X119039285Y-84675000D01*
X118610714Y-84675000D01*
X118325000Y-84817857D01*
X118182142Y-84960714D01*
X118039285Y-85246428D01*
X118039285Y-85960714D01*
X118182142Y-86246428D01*
X118325000Y-86389285D01*
X118610714Y-86532142D01*
X119467857Y-86532142D01*
X119753571Y-86389285D01*
X119896428Y-86246428D01*
X114467857Y-86532142D02*
X114467857Y-84532142D01*
X114467857Y-83532142D02*
X114610714Y-83675000D01*
X114467857Y-83817857D01*
X114325000Y-83675000D01*
X114467857Y-83532142D01*
X114467857Y-83817857D01*
X113182142Y-86389285D02*
X112896428Y-86532142D01*
X112325000Y-86532142D01*
X112039285Y-86389285D01*
X111896428Y-86103571D01*
X111896428Y-85960714D01*
X112039285Y-85675000D01*
X112325000Y-85532142D01*
X112753571Y-85532142D01*
X113039285Y-85389285D01*
X113182142Y-85103571D01*
X113182142Y-84960714D01*
X113039285Y-84675000D01*
X112753571Y-84532142D01*
X112325000Y-84532142D01*
X112039285Y-84675000D01*
X108325000Y-84532142D02*
X108325000Y-86532142D01*
X108325000Y-84817857D02*
X108182142Y-84675000D01*
X107896428Y-84532142D01*
X107467857Y-84532142D01*
X107182142Y-84675000D01*
X107039285Y-84960714D01*
X107039285Y-86532142D01*
X105182142Y-86532142D02*
X105467857Y-86389285D01*
X105610714Y-86246428D01*
X105753571Y-85960714D01*
X105753571Y-85103571D01*
X105610714Y-84817857D01*
X105467857Y-84675000D01*
X105182142Y-84532142D01*
X104753571Y-84532142D01*
X104467857Y-84675000D01*
X104325000Y-84817857D01*
X104182142Y-85103571D01*
X104182142Y-85960714D01*
X104325000Y-86246428D01*
X104467857Y-86389285D01*
X104753571Y-86532142D01*
X105182142Y-86532142D01*
X103325000Y-84532142D02*
X102182142Y-84532142D01*
X102896428Y-83532142D02*
X102896428Y-86103571D01*
X102753571Y-86389285D01*
X102467857Y-86532142D01*
X102182142Y-86532142D01*
X99610714Y-86817857D02*
X97325000Y-86817857D01*
X96896428Y-83532142D02*
X95039285Y-83532142D01*
X96039285Y-84675000D01*
X95610714Y-84675000D01*
X95325000Y-84817857D01*
X95182142Y-84960714D01*
X95039285Y-85246428D01*
X95039285Y-85960714D01*
X95182142Y-86246428D01*
X95325000Y-86389285D01*
X95610714Y-86532142D01*
X96467857Y-86532142D01*
X96753571Y-86389285D01*
X96896428Y-86246428D01*
X94039285Y-83532142D02*
X92182142Y-83532142D01*
X93182142Y-84675000D01*
X92753571Y-84675000D01*
X92467857Y-84817857D01*
X92325000Y-84960714D01*
X92182142Y-85246428D01*
X92182142Y-85960714D01*
X92325000Y-86246428D01*
X92467857Y-86389285D01*
X92753571Y-86532142D01*
X93610714Y-86532142D01*
X93896428Y-86389285D01*
X94039285Y-86246428D01*
D12*
X155750000Y-55750000D02*
X153210000Y-55750000D01*
X155750000Y-53210000D02*
X155750000Y-55750000D01*
D13*
G36*
X168144635Y-59499030D02*
G01*
X168144635Y-59599030D01*
X168244635Y-59599030D01*
X168244635Y-59499030D01*
X168144635Y-59499030D01*
G37*
X168144635Y-59499030D02*
X168144635Y-59599030D01*
X168244635Y-59599030D01*
X168244635Y-59499030D01*
X168144635Y-59499030D01*
G36*
X168344635Y-59099030D02*
G01*
X168344635Y-59899030D01*
X168444635Y-59899030D01*
X168444635Y-59099030D01*
X168344635Y-59099030D01*
G37*
X168344635Y-59099030D02*
X168344635Y-59899030D01*
X168444635Y-59899030D01*
X168444635Y-59099030D01*
X168344635Y-59099030D01*
G36*
X167944635Y-59699030D02*
G01*
X167944635Y-59899030D01*
X168044635Y-59899030D01*
X168044635Y-59699030D01*
X167944635Y-59699030D01*
G37*
X167944635Y-59699030D02*
X167944635Y-59899030D01*
X168044635Y-59899030D01*
X168044635Y-59699030D01*
X167944635Y-59699030D01*
G36*
X167944635Y-59099030D02*
G01*
X167944635Y-59399030D01*
X168044635Y-59399030D01*
X168044635Y-59099030D01*
X167944635Y-59099030D01*
G37*
X167944635Y-59099030D02*
X167944635Y-59399030D01*
X168044635Y-59399030D01*
X168044635Y-59099030D01*
X167944635Y-59099030D01*
G36*
X167944635Y-59099030D02*
G01*
X167944635Y-59199030D01*
X168444635Y-59199030D01*
X168444635Y-59099030D01*
X167944635Y-59099030D01*
G37*
X167944635Y-59099030D02*
X167944635Y-59199030D01*
X168444635Y-59199030D01*
X168444635Y-59099030D01*
X167944635Y-59099030D01*
D12*
X170990000Y-83690000D02*
X170990000Y-50670000D01*
X153210000Y-83690000D02*
X170990000Y-83690000D01*
X153210000Y-50670000D02*
X153210000Y-83690000D01*
X170990000Y-50670000D02*
X153210000Y-50670000D01*
X155750000Y-53210000D02*
X153210000Y-53210000D01*
D13*
X214913000Y-110635000D02*
X214913000Y-115715000D01*
X214913000Y-115715000D02*
X216437000Y-115715000D01*
X216437000Y-115715000D02*
X216437000Y-110635000D01*
X216437000Y-110635000D02*
X214913000Y-110635000D01*
X214913000Y-115334000D02*
X216437000Y-115334000D01*
X216437000Y-115461000D02*
X214913000Y-115461000D01*
X214913000Y-115588000D02*
X216437000Y-115588000D01*
X216437000Y-115207000D02*
X214913000Y-115207000D01*
X214913000Y-115080000D02*
X216437000Y-115080000D01*
X214913000Y-114953000D02*
X216437000Y-114953000D01*
X212513000Y-110635000D02*
X212513000Y-115715000D01*
X212513000Y-115715000D02*
X214037000Y-115715000D01*
X214037000Y-115715000D02*
X214037000Y-110635000D01*
X214037000Y-110635000D02*
X212513000Y-110635000D01*
X212513000Y-115334000D02*
X214037000Y-115334000D01*
X214037000Y-115461000D02*
X212513000Y-115461000D01*
X212513000Y-115588000D02*
X214037000Y-115588000D01*
X214037000Y-115207000D02*
X212513000Y-115207000D01*
X212513000Y-115080000D02*
X214037000Y-115080000D01*
X212513000Y-114953000D02*
X214037000Y-114953000D01*
X165763000Y-110610000D02*
X165763000Y-115690000D01*
X165763000Y-115690000D02*
X167287000Y-115690000D01*
X167287000Y-115690000D02*
X167287000Y-110610000D01*
X167287000Y-110610000D02*
X165763000Y-110610000D01*
X165763000Y-115309000D02*
X167287000Y-115309000D01*
X167287000Y-115436000D02*
X165763000Y-115436000D01*
X165763000Y-115563000D02*
X167287000Y-115563000D01*
X167287000Y-115182000D02*
X165763000Y-115182000D01*
X165763000Y-115055000D02*
X167287000Y-115055000D01*
X165763000Y-114928000D02*
X167287000Y-114928000D01*
X140763000Y-110610000D02*
X140763000Y-115690000D01*
X140763000Y-115690000D02*
X142287000Y-115690000D01*
X142287000Y-115690000D02*
X142287000Y-110610000D01*
X142287000Y-110610000D02*
X140763000Y-110610000D01*
X140763000Y-115309000D02*
X142287000Y-115309000D01*
X142287000Y-115436000D02*
X140763000Y-115436000D01*
X140763000Y-115563000D02*
X142287000Y-115563000D01*
X142287000Y-115182000D02*
X140763000Y-115182000D01*
X140763000Y-115055000D02*
X142287000Y-115055000D01*
X140763000Y-114928000D02*
X142287000Y-114928000D01*
X107463000Y-110660000D02*
X107463000Y-115740000D01*
X107463000Y-115740000D02*
X108987000Y-115740000D01*
X108987000Y-115740000D02*
X108987000Y-110660000D01*
X108987000Y-110660000D02*
X107463000Y-110660000D01*
X107463000Y-115359000D02*
X108987000Y-115359000D01*
X108987000Y-115486000D02*
X107463000Y-115486000D01*
X107463000Y-115613000D02*
X108987000Y-115613000D01*
X108987000Y-115232000D02*
X107463000Y-115232000D01*
X107463000Y-115105000D02*
X108987000Y-115105000D01*
X107463000Y-114978000D02*
X108987000Y-114978000D01*
X88538000Y-110660000D02*
X88538000Y-115740000D01*
X88538000Y-115740000D02*
X90062000Y-115740000D01*
X90062000Y-115740000D02*
X90062000Y-110660000D01*
X90062000Y-110660000D02*
X88538000Y-110660000D01*
X88538000Y-115359000D02*
X90062000Y-115359000D01*
X90062000Y-115486000D02*
X88538000Y-115486000D01*
X88538000Y-115613000D02*
X90062000Y-115613000D01*
X90062000Y-115232000D02*
X88538000Y-115232000D01*
X88538000Y-115105000D02*
X90062000Y-115105000D01*
X88538000Y-114978000D02*
X90062000Y-114978000D01*
X229688000Y-92335000D02*
X229688000Y-97415000D01*
X229688000Y-97415000D02*
X231212000Y-97415000D01*
X231212000Y-97415000D02*
X231212000Y-92335000D01*
X231212000Y-92335000D02*
X229688000Y-92335000D01*
X229688000Y-97034000D02*
X231212000Y-97034000D01*
X231212000Y-97161000D02*
X229688000Y-97161000D01*
X229688000Y-97288000D02*
X231212000Y-97288000D01*
X231212000Y-96907000D02*
X229688000Y-96907000D01*
X229688000Y-96780000D02*
X231212000Y-96780000D01*
X229688000Y-96653000D02*
X231212000Y-96653000D01*
X226563000Y-92285000D02*
X226563000Y-97365000D01*
X226563000Y-97365000D02*
X228087000Y-97365000D01*
X228087000Y-97365000D02*
X228087000Y-92285000D01*
X228087000Y-92285000D02*
X226563000Y-92285000D01*
X226563000Y-96984000D02*
X228087000Y-96984000D01*
X228087000Y-97111000D02*
X226563000Y-97111000D01*
X226563000Y-97238000D02*
X228087000Y-97238000D01*
X228087000Y-96857000D02*
X226563000Y-96857000D01*
X226563000Y-96730000D02*
X228087000Y-96730000D01*
X226563000Y-96603000D02*
X228087000Y-96603000D01*
X207538000Y-92335000D02*
X207538000Y-97415000D01*
X207538000Y-97415000D02*
X209062000Y-97415000D01*
X209062000Y-97415000D02*
X209062000Y-92335000D01*
X209062000Y-92335000D02*
X207538000Y-92335000D01*
X207538000Y-97034000D02*
X209062000Y-97034000D01*
X209062000Y-97161000D02*
X207538000Y-97161000D01*
X207538000Y-97288000D02*
X209062000Y-97288000D01*
X209062000Y-96907000D02*
X207538000Y-96907000D01*
X207538000Y-96780000D02*
X209062000Y-96780000D01*
X207538000Y-96653000D02*
X209062000Y-96653000D01*
X188488000Y-92335000D02*
X188488000Y-97415000D01*
X188488000Y-97415000D02*
X190012000Y-97415000D01*
X190012000Y-97415000D02*
X190012000Y-92335000D01*
X190012000Y-92335000D02*
X188488000Y-92335000D01*
X188488000Y-97034000D02*
X190012000Y-97034000D01*
X190012000Y-97161000D02*
X188488000Y-97161000D01*
X188488000Y-97288000D02*
X190012000Y-97288000D01*
X190012000Y-96907000D02*
X188488000Y-96907000D01*
X188488000Y-96780000D02*
X190012000Y-96780000D01*
X188488000Y-96653000D02*
X190012000Y-96653000D01*
X169413000Y-92335000D02*
X169413000Y-97415000D01*
X169413000Y-97415000D02*
X170937000Y-97415000D01*
X170937000Y-97415000D02*
X170937000Y-92335000D01*
X170937000Y-92335000D02*
X169413000Y-92335000D01*
X169413000Y-97034000D02*
X170937000Y-97034000D01*
X170937000Y-97161000D02*
X169413000Y-97161000D01*
X169413000Y-97288000D02*
X170937000Y-97288000D01*
X170937000Y-96907000D02*
X169413000Y-96907000D01*
X169413000Y-96780000D02*
X170937000Y-96780000D01*
X169413000Y-96653000D02*
X170937000Y-96653000D01*
X150363000Y-92335000D02*
X150363000Y-97415000D01*
X150363000Y-97415000D02*
X151887000Y-97415000D01*
X151887000Y-97415000D02*
X151887000Y-92335000D01*
X151887000Y-92335000D02*
X150363000Y-92335000D01*
X150363000Y-97034000D02*
X151887000Y-97034000D01*
X151887000Y-97161000D02*
X150363000Y-97161000D01*
X150363000Y-97288000D02*
X151887000Y-97288000D01*
X151887000Y-96907000D02*
X150363000Y-96907000D01*
X150363000Y-96780000D02*
X151887000Y-96780000D01*
X150363000Y-96653000D02*
X151887000Y-96653000D01*
X131313000Y-92285000D02*
X131313000Y-97365000D01*
X131313000Y-97365000D02*
X132837000Y-97365000D01*
X132837000Y-97365000D02*
X132837000Y-92285000D01*
X132837000Y-92285000D02*
X131313000Y-92285000D01*
X131313000Y-96984000D02*
X132837000Y-96984000D01*
X132837000Y-97111000D02*
X131313000Y-97111000D01*
X131313000Y-97238000D02*
X132837000Y-97238000D01*
X132837000Y-96857000D02*
X131313000Y-96857000D01*
X131313000Y-96730000D02*
X132837000Y-96730000D01*
X131313000Y-96603000D02*
X132837000Y-96603000D01*
X112238000Y-92335000D02*
X112238000Y-97415000D01*
X112238000Y-97415000D02*
X113762000Y-97415000D01*
X113762000Y-97415000D02*
X113762000Y-92335000D01*
X113762000Y-92335000D02*
X112238000Y-92335000D01*
X112238000Y-97034000D02*
X113762000Y-97034000D01*
X113762000Y-97161000D02*
X112238000Y-97161000D01*
X112238000Y-97288000D02*
X113762000Y-97288000D01*
X113762000Y-96907000D02*
X112238000Y-96907000D01*
X112238000Y-96780000D02*
X113762000Y-96780000D01*
X112238000Y-96653000D02*
X113762000Y-96653000D01*
X93163000Y-92335000D02*
X93163000Y-97415000D01*
X93163000Y-97415000D02*
X94687000Y-97415000D01*
X94687000Y-97415000D02*
X94687000Y-92335000D01*
X94687000Y-92335000D02*
X93163000Y-92335000D01*
X93163000Y-97034000D02*
X94687000Y-97034000D01*
X94687000Y-97161000D02*
X93163000Y-97161000D01*
X93163000Y-97288000D02*
X94687000Y-97288000D01*
X94687000Y-96907000D02*
X93163000Y-96907000D01*
X93163000Y-96780000D02*
X94687000Y-96780000D01*
X93163000Y-96653000D02*
X94687000Y-96653000D01*
X74138000Y-92335000D02*
X74138000Y-97415000D01*
X74138000Y-97415000D02*
X75662000Y-97415000D01*
X75662000Y-97415000D02*
X75662000Y-92335000D01*
X75662000Y-92335000D02*
X74138000Y-92335000D01*
X74138000Y-97034000D02*
X75662000Y-97034000D01*
X75662000Y-97161000D02*
X74138000Y-97161000D01*
X74138000Y-97288000D02*
X75662000Y-97288000D01*
X75662000Y-96907000D02*
X74138000Y-96907000D01*
X74138000Y-96780000D02*
X75662000Y-96780000D01*
X74138000Y-96653000D02*
X75662000Y-96653000D01*
X229488000Y-72960000D02*
X229488000Y-78040000D01*
X229488000Y-78040000D02*
X231012000Y-78040000D01*
X231012000Y-78040000D02*
X231012000Y-72960000D01*
X231012000Y-72960000D02*
X229488000Y-72960000D01*
X229488000Y-77659000D02*
X231012000Y-77659000D01*
X231012000Y-77786000D02*
X229488000Y-77786000D01*
X229488000Y-77913000D02*
X231012000Y-77913000D01*
X231012000Y-77532000D02*
X229488000Y-77532000D01*
X229488000Y-77405000D02*
X231012000Y-77405000D01*
X229488000Y-77278000D02*
X231012000Y-77278000D01*
X226588000Y-72860000D02*
X226588000Y-77940000D01*
X226588000Y-77940000D02*
X228112000Y-77940000D01*
X228112000Y-77940000D02*
X228112000Y-72860000D01*
X228112000Y-72860000D02*
X226588000Y-72860000D01*
X226588000Y-77559000D02*
X228112000Y-77559000D01*
X228112000Y-77686000D02*
X226588000Y-77686000D01*
X226588000Y-77813000D02*
X228112000Y-77813000D01*
X228112000Y-77432000D02*
X226588000Y-77432000D01*
X226588000Y-77305000D02*
X228112000Y-77305000D01*
X226588000Y-77178000D02*
X228112000Y-77178000D01*
X207613000Y-72835000D02*
X207613000Y-77915000D01*
X207613000Y-77915000D02*
X209137000Y-77915000D01*
X209137000Y-77915000D02*
X209137000Y-72835000D01*
X209137000Y-72835000D02*
X207613000Y-72835000D01*
X207613000Y-77534000D02*
X209137000Y-77534000D01*
X209137000Y-77661000D02*
X207613000Y-77661000D01*
X207613000Y-77788000D02*
X209137000Y-77788000D01*
X209137000Y-77407000D02*
X207613000Y-77407000D01*
X207613000Y-77280000D02*
X209137000Y-77280000D01*
X207613000Y-77153000D02*
X209137000Y-77153000D01*
X188588000Y-72960000D02*
X188588000Y-78040000D01*
X188588000Y-78040000D02*
X190112000Y-78040000D01*
X190112000Y-78040000D02*
X190112000Y-72960000D01*
X190112000Y-72960000D02*
X188588000Y-72960000D01*
X188588000Y-77659000D02*
X190112000Y-77659000D01*
X190112000Y-77786000D02*
X188588000Y-77786000D01*
X188588000Y-77913000D02*
X190112000Y-77913000D01*
X190112000Y-77532000D02*
X188588000Y-77532000D01*
X188588000Y-77405000D02*
X190112000Y-77405000D01*
X188588000Y-77278000D02*
X190112000Y-77278000D01*
X159635000Y-87262000D02*
X164715000Y-87262000D01*
X164715000Y-87262000D02*
X164715000Y-85738000D01*
X164715000Y-85738000D02*
X159635000Y-85738000D01*
X159635000Y-85738000D02*
X159635000Y-87262000D01*
X164334000Y-87262000D02*
X164334000Y-85738000D01*
X164461000Y-85738000D02*
X164461000Y-87262000D01*
X164588000Y-87262000D02*
X164588000Y-85738000D01*
X164207000Y-85738000D02*
X164207000Y-87262000D01*
X164080000Y-87262000D02*
X164080000Y-85738000D01*
X163953000Y-87262000D02*
X163953000Y-85738000D01*
X134388000Y-73260000D02*
X134388000Y-78340000D01*
X134388000Y-78340000D02*
X135912000Y-78340000D01*
X135912000Y-78340000D02*
X135912000Y-73260000D01*
X135912000Y-73260000D02*
X134388000Y-73260000D01*
X134388000Y-77959000D02*
X135912000Y-77959000D01*
X135912000Y-78086000D02*
X134388000Y-78086000D01*
X134388000Y-78213000D02*
X135912000Y-78213000D01*
X135912000Y-77832000D02*
X134388000Y-77832000D01*
X134388000Y-77705000D02*
X135912000Y-77705000D01*
X134388000Y-77578000D02*
X135912000Y-77578000D01*
X131313000Y-73260000D02*
X131313000Y-78340000D01*
X131313000Y-78340000D02*
X132837000Y-78340000D01*
X132837000Y-78340000D02*
X132837000Y-73260000D01*
X132837000Y-73260000D02*
X131313000Y-73260000D01*
X131313000Y-77959000D02*
X132837000Y-77959000D01*
X132837000Y-78086000D02*
X131313000Y-78086000D01*
X131313000Y-78213000D02*
X132837000Y-78213000D01*
X132837000Y-77832000D02*
X131313000Y-77832000D01*
X131313000Y-77705000D02*
X132837000Y-77705000D01*
X131313000Y-77578000D02*
X132837000Y-77578000D01*
X112238000Y-73310000D02*
X112238000Y-78390000D01*
X112238000Y-78390000D02*
X113762000Y-78390000D01*
X113762000Y-78390000D02*
X113762000Y-73310000D01*
X113762000Y-73310000D02*
X112238000Y-73310000D01*
X112238000Y-78009000D02*
X113762000Y-78009000D01*
X113762000Y-78136000D02*
X112238000Y-78136000D01*
X112238000Y-78263000D02*
X113762000Y-78263000D01*
X113762000Y-77882000D02*
X112238000Y-77882000D01*
X112238000Y-77755000D02*
X113762000Y-77755000D01*
X112238000Y-77628000D02*
X113762000Y-77628000D01*
X93188000Y-73260000D02*
X93188000Y-78340000D01*
X93188000Y-78340000D02*
X94712000Y-78340000D01*
X94712000Y-78340000D02*
X94712000Y-73260000D01*
X94712000Y-73260000D02*
X93188000Y-73260000D01*
X93188000Y-77959000D02*
X94712000Y-77959000D01*
X94712000Y-78086000D02*
X93188000Y-78086000D01*
X93188000Y-78213000D02*
X94712000Y-78213000D01*
X94712000Y-77832000D02*
X93188000Y-77832000D01*
X93188000Y-77705000D02*
X94712000Y-77705000D01*
X93188000Y-77578000D02*
X94712000Y-77578000D01*
X74163000Y-73235000D02*
X74163000Y-78315000D01*
X74163000Y-78315000D02*
X75687000Y-78315000D01*
X75687000Y-78315000D02*
X75687000Y-73235000D01*
X75687000Y-73235000D02*
X74163000Y-73235000D01*
X74163000Y-77934000D02*
X75687000Y-77934000D01*
X75687000Y-78061000D02*
X74163000Y-78061000D01*
X74163000Y-78188000D02*
X75687000Y-78188000D01*
X75687000Y-77807000D02*
X74163000Y-77807000D01*
X74163000Y-77680000D02*
X75687000Y-77680000D01*
X74163000Y-77553000D02*
X75687000Y-77553000D01*
X229613000Y-54235000D02*
X229613000Y-59315000D01*
X229613000Y-59315000D02*
X231137000Y-59315000D01*
X231137000Y-59315000D02*
X231137000Y-54235000D01*
X231137000Y-54235000D02*
X229613000Y-54235000D01*
X229613000Y-58934000D02*
X231137000Y-58934000D01*
X231137000Y-59061000D02*
X229613000Y-59061000D01*
X229613000Y-59188000D02*
X231137000Y-59188000D01*
X231137000Y-58807000D02*
X229613000Y-58807000D01*
X229613000Y-58680000D02*
X231137000Y-58680000D01*
X229613000Y-58553000D02*
X231137000Y-58553000D01*
X226488000Y-54235000D02*
X226488000Y-59315000D01*
X226488000Y-59315000D02*
X228012000Y-59315000D01*
X228012000Y-59315000D02*
X228012000Y-54235000D01*
X228012000Y-54235000D02*
X226488000Y-54235000D01*
X226488000Y-58934000D02*
X228012000Y-58934000D01*
X228012000Y-59061000D02*
X226488000Y-59061000D01*
X226488000Y-59188000D02*
X228012000Y-59188000D01*
X228012000Y-58807000D02*
X226488000Y-58807000D01*
X226488000Y-58680000D02*
X228012000Y-58680000D01*
X226488000Y-58553000D02*
X228012000Y-58553000D01*
X207463000Y-56260000D02*
X207463000Y-61340000D01*
X207463000Y-61340000D02*
X208987000Y-61340000D01*
X208987000Y-61340000D02*
X208987000Y-56260000D01*
X208987000Y-56260000D02*
X207463000Y-56260000D01*
X207463000Y-60959000D02*
X208987000Y-60959000D01*
X208987000Y-61086000D02*
X207463000Y-61086000D01*
X207463000Y-61213000D02*
X208987000Y-61213000D01*
X208987000Y-60832000D02*
X207463000Y-60832000D01*
X207463000Y-60705000D02*
X208987000Y-60705000D01*
X207463000Y-60578000D02*
X208987000Y-60578000D01*
X188413000Y-54235000D02*
X188413000Y-59315000D01*
X188413000Y-59315000D02*
X189937000Y-59315000D01*
X189937000Y-59315000D02*
X189937000Y-54235000D01*
X189937000Y-54235000D02*
X188413000Y-54235000D01*
X188413000Y-58934000D02*
X189937000Y-58934000D01*
X189937000Y-59061000D02*
X188413000Y-59061000D01*
X188413000Y-59188000D02*
X189937000Y-59188000D01*
X189937000Y-58807000D02*
X188413000Y-58807000D01*
X188413000Y-58680000D02*
X189937000Y-58680000D01*
X188413000Y-58553000D02*
X189937000Y-58553000D01*
X172363000Y-54285000D02*
X172363000Y-59365000D01*
X172363000Y-59365000D02*
X173887000Y-59365000D01*
X173887000Y-59365000D02*
X173887000Y-54285000D01*
X173887000Y-54285000D02*
X172363000Y-54285000D01*
X172363000Y-58984000D02*
X173887000Y-58984000D01*
X173887000Y-59111000D02*
X172363000Y-59111000D01*
X172363000Y-59238000D02*
X173887000Y-59238000D01*
X173887000Y-58857000D02*
X172363000Y-58857000D01*
X172363000Y-58730000D02*
X173887000Y-58730000D01*
X172363000Y-58603000D02*
X173887000Y-58603000D01*
X149606000Y-54229000D02*
X149606000Y-59309000D01*
X149606000Y-59309000D02*
X151130000Y-59309000D01*
X151130000Y-59309000D02*
X151130000Y-54229000D01*
X151130000Y-54229000D02*
X149606000Y-54229000D01*
X149606000Y-58928000D02*
X151130000Y-58928000D01*
X151130000Y-59055000D02*
X149606000Y-59055000D01*
X149606000Y-59182000D02*
X151130000Y-59182000D01*
X151130000Y-58801000D02*
X149606000Y-58801000D01*
X149606000Y-58674000D02*
X151130000Y-58674000D01*
X149606000Y-58547000D02*
X151130000Y-58547000D01*
X131263000Y-54235000D02*
X131263000Y-59315000D01*
X131263000Y-59315000D02*
X132787000Y-59315000D01*
X132787000Y-59315000D02*
X132787000Y-54235000D01*
X132787000Y-54235000D02*
X131263000Y-54235000D01*
X131263000Y-58934000D02*
X132787000Y-58934000D01*
X132787000Y-59061000D02*
X131263000Y-59061000D01*
X131263000Y-59188000D02*
X132787000Y-59188000D01*
X132787000Y-58807000D02*
X131263000Y-58807000D01*
X131263000Y-58680000D02*
X132787000Y-58680000D01*
X131263000Y-58553000D02*
X132787000Y-58553000D01*
X112213000Y-54210000D02*
X112213000Y-59290000D01*
X112213000Y-59290000D02*
X113737000Y-59290000D01*
X113737000Y-59290000D02*
X113737000Y-54210000D01*
X113737000Y-54210000D02*
X112213000Y-54210000D01*
X112213000Y-58909000D02*
X113737000Y-58909000D01*
X113737000Y-59036000D02*
X112213000Y-59036000D01*
X112213000Y-59163000D02*
X113737000Y-59163000D01*
X113737000Y-58782000D02*
X112213000Y-58782000D01*
X112213000Y-58655000D02*
X113737000Y-58655000D01*
X112213000Y-58528000D02*
X113737000Y-58528000D01*
X93113000Y-56235000D02*
X93113000Y-61315000D01*
X93113000Y-61315000D02*
X94637000Y-61315000D01*
X94637000Y-61315000D02*
X94637000Y-56235000D01*
X94637000Y-56235000D02*
X93113000Y-56235000D01*
X93113000Y-60934000D02*
X94637000Y-60934000D01*
X94637000Y-61061000D02*
X93113000Y-61061000D01*
X93113000Y-61188000D02*
X94637000Y-61188000D01*
X94637000Y-60807000D02*
X93113000Y-60807000D01*
X93113000Y-60680000D02*
X94637000Y-60680000D01*
X93113000Y-60553000D02*
X94637000Y-60553000D01*
X74113000Y-54235000D02*
X74113000Y-59315000D01*
X74113000Y-59315000D02*
X75637000Y-59315000D01*
X75637000Y-59315000D02*
X75637000Y-54235000D01*
X75637000Y-54235000D02*
X74113000Y-54235000D01*
X74113000Y-58934000D02*
X75637000Y-58934000D01*
X75637000Y-59061000D02*
X74113000Y-59061000D01*
X74113000Y-59188000D02*
X75637000Y-59188000D01*
X75637000Y-58807000D02*
X74113000Y-58807000D01*
X74113000Y-58680000D02*
X75637000Y-58680000D01*
X74113000Y-58553000D02*
X75637000Y-58553000D01*
X157229476Y-57381904D02*
X157229476Y-56581904D01*
X157039000Y-56581904D01*
X156924714Y-56620000D01*
X156848523Y-56696190D01*
X156810428Y-56772380D01*
X156772333Y-56924761D01*
X156772333Y-57039047D01*
X156810428Y-57191428D01*
X156848523Y-57267619D01*
X156924714Y-57343809D01*
X157039000Y-57381904D01*
X157229476Y-57381904D01*
X156467571Y-56658095D02*
X156429476Y-56620000D01*
X156353285Y-56581904D01*
X156162809Y-56581904D01*
X156086619Y-56620000D01*
X156048523Y-56658095D01*
X156010428Y-56734285D01*
X156010428Y-56810476D01*
X156048523Y-56924761D01*
X156505666Y-57381904D01*
X156010428Y-57381904D01*
X157229476Y-67541904D02*
X157229476Y-66741904D01*
X157039000Y-66741904D01*
X156924714Y-66780000D01*
X156848523Y-66856190D01*
X156810428Y-66932380D01*
X156772333Y-67084761D01*
X156772333Y-67199047D01*
X156810428Y-67351428D01*
X156848523Y-67427619D01*
X156924714Y-67503809D01*
X157039000Y-67541904D01*
X157229476Y-67541904D01*
X156277095Y-66741904D02*
X156200904Y-66741904D01*
X156124714Y-66780000D01*
X156086619Y-66818095D01*
X156048523Y-66894285D01*
X156010428Y-67046666D01*
X156010428Y-67237142D01*
X156048523Y-67389523D01*
X156086619Y-67465714D01*
X156124714Y-67503809D01*
X156200904Y-67541904D01*
X156277095Y-67541904D01*
X156353285Y-67503809D01*
X156391380Y-67465714D01*
X156429476Y-67389523D01*
X156467571Y-67237142D01*
X156467571Y-67046666D01*
X156429476Y-66894285D01*
X156391380Y-66818095D01*
X156353285Y-66780000D01*
X156277095Y-66741904D01*
X157229476Y-65001904D02*
X157229476Y-64201904D01*
X157039000Y-64201904D01*
X156924714Y-64240000D01*
X156848523Y-64316190D01*
X156810428Y-64392380D01*
X156772333Y-64544761D01*
X156772333Y-64659047D01*
X156810428Y-64811428D01*
X156848523Y-64887619D01*
X156924714Y-64963809D01*
X157039000Y-65001904D01*
X157229476Y-65001904D01*
X156010428Y-65001904D02*
X156467571Y-65001904D01*
X156239000Y-65001904D02*
X156239000Y-64201904D01*
X156315190Y-64316190D01*
X156391380Y-64392380D01*
X156467571Y-64430476D01*
X157248523Y-61700000D02*
X157324714Y-61661904D01*
X157439000Y-61661904D01*
X157553285Y-61700000D01*
X157629476Y-61776190D01*
X157667571Y-61852380D01*
X157705666Y-62004761D01*
X157705666Y-62119047D01*
X157667571Y-62271428D01*
X157629476Y-62347619D01*
X157553285Y-62423809D01*
X157439000Y-62461904D01*
X157362809Y-62461904D01*
X157248523Y-62423809D01*
X157210428Y-62385714D01*
X157210428Y-62119047D01*
X157362809Y-62119047D01*
X156867571Y-62461904D02*
X156867571Y-61661904D01*
X156410428Y-62461904D01*
X156410428Y-61661904D01*
X156029476Y-62461904D02*
X156029476Y-61661904D01*
X155839000Y-61661904D01*
X155724714Y-61700000D01*
X155648523Y-61776190D01*
X155610428Y-61852380D01*
X155572333Y-62004761D01*
X155572333Y-62119047D01*
X155610428Y-62271428D01*
X155648523Y-62347619D01*
X155724714Y-62423809D01*
X155839000Y-62461904D01*
X156029476Y-62461904D01*
X157248523Y-59160000D02*
X157324714Y-59121904D01*
X157439000Y-59121904D01*
X157553285Y-59160000D01*
X157629476Y-59236190D01*
X157667571Y-59312380D01*
X157705666Y-59464761D01*
X157705666Y-59579047D01*
X157667571Y-59731428D01*
X157629476Y-59807619D01*
X157553285Y-59883809D01*
X157439000Y-59921904D01*
X157362809Y-59921904D01*
X157248523Y-59883809D01*
X157210428Y-59845714D01*
X157210428Y-59579047D01*
X157362809Y-59579047D01*
X156867571Y-59921904D02*
X156867571Y-59121904D01*
X156410428Y-59921904D01*
X156410428Y-59121904D01*
X156029476Y-59921904D02*
X156029476Y-59121904D01*
X155839000Y-59121904D01*
X155724714Y-59160000D01*
X155648523Y-59236190D01*
X155610428Y-59312380D01*
X155572333Y-59464761D01*
X155572333Y-59579047D01*
X155610428Y-59731428D01*
X155648523Y-59807619D01*
X155724714Y-59883809D01*
X155839000Y-59921904D01*
X156029476Y-59921904D01*
X157229476Y-70081904D02*
X157229476Y-69281904D01*
X157039000Y-69281904D01*
X156924714Y-69320000D01*
X156848523Y-69396190D01*
X156810428Y-69472380D01*
X156772333Y-69624761D01*
X156772333Y-69739047D01*
X156810428Y-69891428D01*
X156848523Y-69967619D01*
X156924714Y-70043809D01*
X157039000Y-70081904D01*
X157229476Y-70081904D01*
X156086619Y-69548571D02*
X156086619Y-70081904D01*
X156277095Y-69243809D02*
X156467571Y-69815238D01*
X155972333Y-69815238D01*
X156772333Y-72545714D02*
X156810428Y-72583809D01*
X156924714Y-72621904D01*
X157000904Y-72621904D01*
X157115190Y-72583809D01*
X157191380Y-72507619D01*
X157229476Y-72431428D01*
X157267571Y-72279047D01*
X157267571Y-72164761D01*
X157229476Y-72012380D01*
X157191380Y-71936190D01*
X157115190Y-71860000D01*
X157000904Y-71821904D01*
X156924714Y-71821904D01*
X156810428Y-71860000D01*
X156772333Y-71898095D01*
X156086619Y-71821904D02*
X156239000Y-71821904D01*
X156315190Y-71860000D01*
X156353285Y-71898095D01*
X156429476Y-72012380D01*
X156467571Y-72164761D01*
X156467571Y-72469523D01*
X156429476Y-72545714D01*
X156391380Y-72583809D01*
X156315190Y-72621904D01*
X156162809Y-72621904D01*
X156086619Y-72583809D01*
X156048523Y-72545714D01*
X156010428Y-72469523D01*
X156010428Y-72279047D01*
X156048523Y-72202857D01*
X156086619Y-72164761D01*
X156162809Y-72126666D01*
X156315190Y-72126666D01*
X156391380Y-72164761D01*
X156429476Y-72202857D01*
X156467571Y-72279047D01*
X157229476Y-75161904D02*
X157229476Y-74361904D01*
X157039000Y-74361904D01*
X156924714Y-74400000D01*
X156848523Y-74476190D01*
X156810428Y-74552380D01*
X156772333Y-74704761D01*
X156772333Y-74819047D01*
X156810428Y-74971428D01*
X156848523Y-75047619D01*
X156924714Y-75123809D01*
X157039000Y-75161904D01*
X157229476Y-75161904D01*
X156505666Y-74361904D02*
X155972333Y-74361904D01*
X156315190Y-75161904D01*
X157191380Y-77282857D02*
X156924714Y-77282857D01*
X156810428Y-77701904D02*
X157191380Y-77701904D01*
X157191380Y-76901904D01*
X156810428Y-76901904D01*
X156124714Y-76901904D02*
X156277095Y-76901904D01*
X156353285Y-76940000D01*
X156391380Y-76978095D01*
X156467571Y-77092380D01*
X156505666Y-77244761D01*
X156505666Y-77549523D01*
X156467571Y-77625714D01*
X156429476Y-77663809D01*
X156353285Y-77701904D01*
X156200904Y-77701904D01*
X156124714Y-77663809D01*
X156086619Y-77625714D01*
X156048523Y-77549523D01*
X156048523Y-77359047D01*
X156086619Y-77282857D01*
X156124714Y-77244761D01*
X156200904Y-77206666D01*
X156353285Y-77206666D01*
X156429476Y-77244761D01*
X156467571Y-77282857D01*
X156505666Y-77359047D01*
X156962809Y-79822857D02*
X156848523Y-79860952D01*
X156810428Y-79899047D01*
X156772333Y-79975238D01*
X156772333Y-80089523D01*
X156810428Y-80165714D01*
X156848523Y-80203809D01*
X156924714Y-80241904D01*
X157229476Y-80241904D01*
X157229476Y-79441904D01*
X156962809Y-79441904D01*
X156886619Y-79480000D01*
X156848523Y-79518095D01*
X156810428Y-79594285D01*
X156810428Y-79670476D01*
X156848523Y-79746666D01*
X156886619Y-79784761D01*
X156962809Y-79822857D01*
X157229476Y-79822857D01*
X156086619Y-79708571D02*
X156086619Y-80241904D01*
X156277095Y-79403809D02*
X156467571Y-79975238D01*
X155972333Y-79975238D01*
X156962809Y-82362857D02*
X156848523Y-82400952D01*
X156810428Y-82439047D01*
X156772333Y-82515238D01*
X156772333Y-82629523D01*
X156810428Y-82705714D01*
X156848523Y-82743809D01*
X156924714Y-82781904D01*
X157229476Y-82781904D01*
X157229476Y-81981904D01*
X156962809Y-81981904D01*
X156886619Y-82020000D01*
X156848523Y-82058095D01*
X156810428Y-82134285D01*
X156810428Y-82210476D01*
X156848523Y-82286666D01*
X156886619Y-82324761D01*
X156962809Y-82362857D01*
X157229476Y-82362857D01*
X156048523Y-81981904D02*
X156429476Y-81981904D01*
X156467571Y-82362857D01*
X156429476Y-82324761D01*
X156353285Y-82286666D01*
X156162809Y-82286666D01*
X156086619Y-82324761D01*
X156048523Y-82362857D01*
X156010428Y-82439047D01*
X156010428Y-82629523D01*
X156048523Y-82705714D01*
X156086619Y-82743809D01*
X156162809Y-82781904D01*
X156353285Y-82781904D01*
X156429476Y-82743809D01*
X156467571Y-82705714D01*
X167884809Y-82362857D02*
X167770523Y-82400952D01*
X167732428Y-82439047D01*
X167694333Y-82515238D01*
X167694333Y-82629523D01*
X167732428Y-82705714D01*
X167770523Y-82743809D01*
X167846714Y-82781904D01*
X168151476Y-82781904D01*
X168151476Y-81981904D01*
X167884809Y-81981904D01*
X167808619Y-82020000D01*
X167770523Y-82058095D01*
X167732428Y-82134285D01*
X167732428Y-82210476D01*
X167770523Y-82286666D01*
X167808619Y-82324761D01*
X167884809Y-82362857D01*
X168151476Y-82362857D01*
X167008619Y-81981904D02*
X167161000Y-81981904D01*
X167237190Y-82020000D01*
X167275285Y-82058095D01*
X167351476Y-82172380D01*
X167389571Y-82324761D01*
X167389571Y-82629523D01*
X167351476Y-82705714D01*
X167313380Y-82743809D01*
X167237190Y-82781904D01*
X167084809Y-82781904D01*
X167008619Y-82743809D01*
X166970523Y-82705714D01*
X166932428Y-82629523D01*
X166932428Y-82439047D01*
X166970523Y-82362857D01*
X167008619Y-82324761D01*
X167084809Y-82286666D01*
X167237190Y-82286666D01*
X167313380Y-82324761D01*
X167351476Y-82362857D01*
X167389571Y-82439047D01*
X167884809Y-77282857D02*
X167770523Y-77320952D01*
X167732428Y-77359047D01*
X167694333Y-77435238D01*
X167694333Y-77549523D01*
X167732428Y-77625714D01*
X167770523Y-77663809D01*
X167846714Y-77701904D01*
X168151476Y-77701904D01*
X168151476Y-76901904D01*
X167884809Y-76901904D01*
X167808619Y-76940000D01*
X167770523Y-76978095D01*
X167732428Y-77054285D01*
X167732428Y-77130476D01*
X167770523Y-77206666D01*
X167808619Y-77244761D01*
X167884809Y-77282857D01*
X168151476Y-77282857D01*
X167427666Y-76901904D02*
X166932428Y-76901904D01*
X167199095Y-77206666D01*
X167084809Y-77206666D01*
X167008619Y-77244761D01*
X166970523Y-77282857D01*
X166932428Y-77359047D01*
X166932428Y-77549523D01*
X166970523Y-77625714D01*
X167008619Y-77663809D01*
X167084809Y-77701904D01*
X167313380Y-77701904D01*
X167389571Y-77663809D01*
X167427666Y-77625714D01*
X167884809Y-74742857D02*
X167770523Y-74780952D01*
X167732428Y-74819047D01*
X167694333Y-74895238D01*
X167694333Y-75009523D01*
X167732428Y-75085714D01*
X167770523Y-75123809D01*
X167846714Y-75161904D01*
X168151476Y-75161904D01*
X168151476Y-74361904D01*
X167884809Y-74361904D01*
X167808619Y-74400000D01*
X167770523Y-74438095D01*
X167732428Y-74514285D01*
X167732428Y-74590476D01*
X167770523Y-74666666D01*
X167808619Y-74704761D01*
X167884809Y-74742857D01*
X168151476Y-74742857D01*
X166932428Y-75161904D02*
X167389571Y-75161904D01*
X167161000Y-75161904D02*
X167161000Y-74361904D01*
X167237190Y-74476190D01*
X167313380Y-74552380D01*
X167389571Y-74590476D01*
X167827666Y-64582857D02*
X168094333Y-64582857D01*
X168094333Y-65001904D02*
X168094333Y-64201904D01*
X167713380Y-64201904D01*
X167065761Y-64468571D02*
X167065761Y-65001904D01*
X167256238Y-64163809D02*
X167446714Y-64735238D01*
X166951476Y-64735238D01*
X168627666Y-61661904D02*
X168361000Y-62461904D01*
X168094333Y-61661904D01*
X167370523Y-62385714D02*
X167408619Y-62423809D01*
X167522904Y-62461904D01*
X167599095Y-62461904D01*
X167713380Y-62423809D01*
X167789571Y-62347619D01*
X167827666Y-62271428D01*
X167865761Y-62119047D01*
X167865761Y-62004761D01*
X167827666Y-61852380D01*
X167789571Y-61776190D01*
X167713380Y-61700000D01*
X167599095Y-61661904D01*
X167522904Y-61661904D01*
X167408619Y-61700000D01*
X167370523Y-61738095D01*
X166570523Y-62385714D02*
X166608619Y-62423809D01*
X166722904Y-62461904D01*
X166799095Y-62461904D01*
X166913380Y-62423809D01*
X166989571Y-62347619D01*
X167027666Y-62271428D01*
X167065761Y-62119047D01*
X167065761Y-62004761D01*
X167027666Y-61852380D01*
X166989571Y-61776190D01*
X166913380Y-61700000D01*
X166799095Y-61661904D01*
X166722904Y-61661904D01*
X166608619Y-61700000D01*
X166570523Y-61738095D01*
X168170523Y-56620000D02*
X168246714Y-56581904D01*
X168361000Y-56581904D01*
X168475285Y-56620000D01*
X168551476Y-56696190D01*
X168589571Y-56772380D01*
X168627666Y-56924761D01*
X168627666Y-57039047D01*
X168589571Y-57191428D01*
X168551476Y-57267619D01*
X168475285Y-57343809D01*
X168361000Y-57381904D01*
X168284809Y-57381904D01*
X168170523Y-57343809D01*
X168132428Y-57305714D01*
X168132428Y-57039047D01*
X168284809Y-57039047D01*
X167789571Y-57381904D02*
X167789571Y-56581904D01*
X167332428Y-57381904D01*
X167332428Y-56581904D01*
X166951476Y-57381904D02*
X166951476Y-56581904D01*
X166761000Y-56581904D01*
X166646714Y-56620000D01*
X166570523Y-56696190D01*
X166532428Y-56772380D01*
X166494333Y-56924761D01*
X166494333Y-57039047D01*
X166532428Y-57191428D01*
X166570523Y-57267619D01*
X166646714Y-57343809D01*
X166761000Y-57381904D01*
X166951476Y-57381904D01*
X168113380Y-54841904D02*
X168380047Y-54460952D01*
X168570523Y-54841904D02*
X168570523Y-54041904D01*
X168265761Y-54041904D01*
X168189571Y-54080000D01*
X168151476Y-54118095D01*
X168113380Y-54194285D01*
X168113380Y-54308571D01*
X168151476Y-54384761D01*
X168189571Y-54422857D01*
X168265761Y-54460952D01*
X168570523Y-54460952D01*
X167808619Y-54613333D02*
X167427666Y-54613333D01*
X167884809Y-54841904D02*
X167618142Y-54041904D01*
X167351476Y-54841904D01*
X167161000Y-54041904D02*
X166970523Y-54841904D01*
X166818142Y-54270476D01*
X166665761Y-54841904D01*
X166475285Y-54041904D01*
X167827666Y-67122857D02*
X168094333Y-67122857D01*
X168094333Y-67541904D02*
X168094333Y-66741904D01*
X167713380Y-66741904D01*
X167027666Y-66741904D02*
X167408619Y-66741904D01*
X167446714Y-67122857D01*
X167408619Y-67084761D01*
X167332428Y-67046666D01*
X167141952Y-67046666D01*
X167065761Y-67084761D01*
X167027666Y-67122857D01*
X166989571Y-67199047D01*
X166989571Y-67389523D01*
X167027666Y-67465714D01*
X167065761Y-67503809D01*
X167141952Y-67541904D01*
X167332428Y-67541904D01*
X167408619Y-67503809D01*
X167446714Y-67465714D01*
X167827666Y-69662857D02*
X168094333Y-69662857D01*
X168094333Y-70081904D02*
X168094333Y-69281904D01*
X167713380Y-69281904D01*
X167065761Y-69281904D02*
X167218142Y-69281904D01*
X167294333Y-69320000D01*
X167332428Y-69358095D01*
X167408619Y-69472380D01*
X167446714Y-69624761D01*
X167446714Y-69929523D01*
X167408619Y-70005714D01*
X167370523Y-70043809D01*
X167294333Y-70081904D01*
X167141952Y-70081904D01*
X167065761Y-70043809D01*
X167027666Y-70005714D01*
X166989571Y-69929523D01*
X166989571Y-69739047D01*
X167027666Y-69662857D01*
X167065761Y-69624761D01*
X167141952Y-69586666D01*
X167294333Y-69586666D01*
X167370523Y-69624761D01*
X167408619Y-69662857D01*
X167446714Y-69739047D01*
X167827666Y-72202857D02*
X168094333Y-72202857D01*
X168094333Y-72621904D02*
X168094333Y-71821904D01*
X167713380Y-71821904D01*
X167484809Y-71821904D02*
X166951476Y-71821904D01*
X167294333Y-72621904D01*
X167884809Y-79822857D02*
X167770523Y-79860952D01*
X167732428Y-79899047D01*
X167694333Y-79975238D01*
X167694333Y-80089523D01*
X167732428Y-80165714D01*
X167770523Y-80203809D01*
X167846714Y-80241904D01*
X168151476Y-80241904D01*
X168151476Y-79441904D01*
X167884809Y-79441904D01*
X167808619Y-79480000D01*
X167770523Y-79518095D01*
X167732428Y-79594285D01*
X167732428Y-79670476D01*
X167770523Y-79746666D01*
X167808619Y-79784761D01*
X167884809Y-79822857D01*
X168151476Y-79822857D01*
X167389571Y-79518095D02*
X167351476Y-79480000D01*
X167275285Y-79441904D01*
X167084809Y-79441904D01*
X167008619Y-79480000D01*
X166970523Y-79518095D01*
X166932428Y-79594285D01*
X166932428Y-79670476D01*
X166970523Y-79784761D01*
X167427666Y-80241904D01*
X166932428Y-80241904D01*
X160718604Y-54041904D02*
X160261461Y-54041904D01*
X160490032Y-54841904D02*
X160490032Y-54041904D01*
X160070985Y-54041904D02*
X159537651Y-54841904D01*
X159537651Y-54041904D02*
X160070985Y-54841904D01*
X159080508Y-54041904D02*
X159004318Y-54041904D01*
X158928128Y-54080000D01*
X158890032Y-54118095D01*
X158851937Y-54194285D01*
X158813842Y-54346666D01*
X158813842Y-54537142D01*
X158851937Y-54689523D01*
X158890032Y-54765714D01*
X158928128Y-54803809D01*
X159004318Y-54841904D01*
X159080508Y-54841904D01*
X159156699Y-54803809D01*
X159194794Y-54765714D01*
X159232889Y-54689523D01*
X159270985Y-54537142D01*
X159270985Y-54346666D01*
X159232889Y-54194285D01*
X159194794Y-54118095D01*
X159156699Y-54080000D01*
X159080508Y-54041904D01*
X157899556Y-54003809D02*
X158585270Y-55032380D01*
X157632889Y-54841904D02*
X157632889Y-54041904D01*
X157442413Y-54041904D01*
X157328128Y-54080000D01*
X157251937Y-54156190D01*
X157213842Y-54232380D01*
X157175747Y-54384761D01*
X157175747Y-54499047D01*
X157213842Y-54651428D01*
X157251937Y-54727619D01*
X157328128Y-54803809D01*
X157442413Y-54841904D01*
X157632889Y-54841904D01*
X156909080Y-54041904D02*
X156413842Y-54041904D01*
X156680508Y-54346666D01*
X156566223Y-54346666D01*
X156490032Y-54384761D01*
X156451937Y-54422857D01*
X156413842Y-54499047D01*
X156413842Y-54689523D01*
X156451937Y-54765714D01*
X156490032Y-54803809D01*
X156566223Y-54841904D01*
X156794794Y-54841904D01*
X156870985Y-54803809D01*
X156909080Y-54765714D01*
X167673333Y-59863809D02*
X167559047Y-59901904D01*
X167368571Y-59901904D01*
X167292380Y-59863809D01*
X167254285Y-59825714D01*
X167216190Y-59749523D01*
X167216190Y-59673333D01*
X167254285Y-59597142D01*
X167292380Y-59559047D01*
X167368571Y-59520952D01*
X167520952Y-59482857D01*
X167597142Y-59444761D01*
X167635238Y-59406666D01*
X167673333Y-59330476D01*
X167673333Y-59254285D01*
X167635238Y-59178095D01*
X167597142Y-59140000D01*
X167520952Y-59101904D01*
X167330476Y-59101904D01*
X167216190Y-59140000D01*
X166987619Y-59101904D02*
X166530476Y-59101904D01*
X166759047Y-59901904D02*
X166759047Y-59101904D01*
X214636904Y-112178171D02*
X213836904Y-112178171D01*
X213836904Y-112368647D01*
X213875000Y-112482933D01*
X213951190Y-112559123D01*
X214027380Y-112597219D01*
X214179761Y-112635314D01*
X214294047Y-112635314D01*
X214446428Y-112597219D01*
X214522619Y-112559123D01*
X214598809Y-112482933D01*
X214636904Y-112368647D01*
X214636904Y-112178171D01*
X213836904Y-112901980D02*
X213836904Y-113397219D01*
X214141666Y-113130552D01*
X214141666Y-113244838D01*
X214179761Y-113321028D01*
X214217857Y-113359123D01*
X214294047Y-113397219D01*
X214484523Y-113397219D01*
X214560714Y-113359123D01*
X214598809Y-113321028D01*
X214636904Y-113244838D01*
X214636904Y-113016266D01*
X214598809Y-112940076D01*
X214560714Y-112901980D01*
X213836904Y-114082933D02*
X213836904Y-113930552D01*
X213875000Y-113854361D01*
X213913095Y-113816266D01*
X214027380Y-113740076D01*
X214179761Y-113701980D01*
X214484523Y-113701980D01*
X214560714Y-113740076D01*
X214598809Y-113778171D01*
X214636904Y-113854361D01*
X214636904Y-114006742D01*
X214598809Y-114082933D01*
X214560714Y-114121028D01*
X214484523Y-114159123D01*
X214294047Y-114159123D01*
X214217857Y-114121028D01*
X214179761Y-114082933D01*
X214141666Y-114006742D01*
X214141666Y-113854361D01*
X214179761Y-113778171D01*
X214217857Y-113740076D01*
X214294047Y-113701980D01*
X212236904Y-112178171D02*
X211436904Y-112178171D01*
X211436904Y-112368647D01*
X211475000Y-112482933D01*
X211551190Y-112559123D01*
X211627380Y-112597219D01*
X211779761Y-112635314D01*
X211894047Y-112635314D01*
X212046428Y-112597219D01*
X212122619Y-112559123D01*
X212198809Y-112482933D01*
X212236904Y-112368647D01*
X212236904Y-112178171D01*
X211436904Y-112901980D02*
X211436904Y-113397219D01*
X211741666Y-113130552D01*
X211741666Y-113244838D01*
X211779761Y-113321028D01*
X211817857Y-113359123D01*
X211894047Y-113397219D01*
X212084523Y-113397219D01*
X212160714Y-113359123D01*
X212198809Y-113321028D01*
X212236904Y-113244838D01*
X212236904Y-113016266D01*
X212198809Y-112940076D01*
X212160714Y-112901980D01*
X211436904Y-114121028D02*
X211436904Y-113740076D01*
X211817857Y-113701980D01*
X211779761Y-113740076D01*
X211741666Y-113816266D01*
X211741666Y-114006742D01*
X211779761Y-114082933D01*
X211817857Y-114121028D01*
X211894047Y-114159123D01*
X212084523Y-114159123D01*
X212160714Y-114121028D01*
X212198809Y-114082933D01*
X212236904Y-114006742D01*
X212236904Y-113816266D01*
X212198809Y-113740076D01*
X212160714Y-113701980D01*
X165486904Y-112153171D02*
X164686904Y-112153171D01*
X164686904Y-112343647D01*
X164725000Y-112457933D01*
X164801190Y-112534123D01*
X164877380Y-112572219D01*
X165029761Y-112610314D01*
X165144047Y-112610314D01*
X165296428Y-112572219D01*
X165372619Y-112534123D01*
X165448809Y-112457933D01*
X165486904Y-112343647D01*
X165486904Y-112153171D01*
X164686904Y-112876980D02*
X164686904Y-113372219D01*
X164991666Y-113105552D01*
X164991666Y-113219838D01*
X165029761Y-113296028D01*
X165067857Y-113334123D01*
X165144047Y-113372219D01*
X165334523Y-113372219D01*
X165410714Y-113334123D01*
X165448809Y-113296028D01*
X165486904Y-113219838D01*
X165486904Y-112991266D01*
X165448809Y-112915076D01*
X165410714Y-112876980D01*
X164953571Y-114057933D02*
X165486904Y-114057933D01*
X164648809Y-113867457D02*
X165220238Y-113676980D01*
X165220238Y-114172219D01*
X140486904Y-112153171D02*
X139686904Y-112153171D01*
X139686904Y-112343647D01*
X139725000Y-112457933D01*
X139801190Y-112534123D01*
X139877380Y-112572219D01*
X140029761Y-112610314D01*
X140144047Y-112610314D01*
X140296428Y-112572219D01*
X140372619Y-112534123D01*
X140448809Y-112457933D01*
X140486904Y-112343647D01*
X140486904Y-112153171D01*
X139686904Y-112876980D02*
X139686904Y-113372219D01*
X139991666Y-113105552D01*
X139991666Y-113219838D01*
X140029761Y-113296028D01*
X140067857Y-113334123D01*
X140144047Y-113372219D01*
X140334523Y-113372219D01*
X140410714Y-113334123D01*
X140448809Y-113296028D01*
X140486904Y-113219838D01*
X140486904Y-112991266D01*
X140448809Y-112915076D01*
X140410714Y-112876980D01*
X139686904Y-113638885D02*
X139686904Y-114134123D01*
X139991666Y-113867457D01*
X139991666Y-113981742D01*
X140029761Y-114057933D01*
X140067857Y-114096028D01*
X140144047Y-114134123D01*
X140334523Y-114134123D01*
X140410714Y-114096028D01*
X140448809Y-114057933D01*
X140486904Y-113981742D01*
X140486904Y-113753171D01*
X140448809Y-113676980D01*
X140410714Y-113638885D01*
X107186904Y-112203171D02*
X106386904Y-112203171D01*
X106386904Y-112393647D01*
X106425000Y-112507933D01*
X106501190Y-112584123D01*
X106577380Y-112622219D01*
X106729761Y-112660314D01*
X106844047Y-112660314D01*
X106996428Y-112622219D01*
X107072619Y-112584123D01*
X107148809Y-112507933D01*
X107186904Y-112393647D01*
X107186904Y-112203171D01*
X106386904Y-112926980D02*
X106386904Y-113422219D01*
X106691666Y-113155552D01*
X106691666Y-113269838D01*
X106729761Y-113346028D01*
X106767857Y-113384123D01*
X106844047Y-113422219D01*
X107034523Y-113422219D01*
X107110714Y-113384123D01*
X107148809Y-113346028D01*
X107186904Y-113269838D01*
X107186904Y-113041266D01*
X107148809Y-112965076D01*
X107110714Y-112926980D01*
X106463095Y-113726980D02*
X106425000Y-113765076D01*
X106386904Y-113841266D01*
X106386904Y-114031742D01*
X106425000Y-114107933D01*
X106463095Y-114146028D01*
X106539285Y-114184123D01*
X106615476Y-114184123D01*
X106729761Y-114146028D01*
X107186904Y-113688885D01*
X107186904Y-114184123D01*
X88261904Y-112203171D02*
X87461904Y-112203171D01*
X87461904Y-112393647D01*
X87500000Y-112507933D01*
X87576190Y-112584123D01*
X87652380Y-112622219D01*
X87804761Y-112660314D01*
X87919047Y-112660314D01*
X88071428Y-112622219D01*
X88147619Y-112584123D01*
X88223809Y-112507933D01*
X88261904Y-112393647D01*
X88261904Y-112203171D01*
X87461904Y-112926980D02*
X87461904Y-113422219D01*
X87766666Y-113155552D01*
X87766666Y-113269838D01*
X87804761Y-113346028D01*
X87842857Y-113384123D01*
X87919047Y-113422219D01*
X88109523Y-113422219D01*
X88185714Y-113384123D01*
X88223809Y-113346028D01*
X88261904Y-113269838D01*
X88261904Y-113041266D01*
X88223809Y-112965076D01*
X88185714Y-112926980D01*
X88261904Y-114184123D02*
X88261904Y-113726980D01*
X88261904Y-113955552D02*
X87461904Y-113955552D01*
X87576190Y-113879361D01*
X87652380Y-113803171D01*
X87690476Y-113726980D01*
X229411904Y-93878171D02*
X228611904Y-93878171D01*
X228611904Y-94068647D01*
X228650000Y-94182933D01*
X228726190Y-94259123D01*
X228802380Y-94297219D01*
X228954761Y-94335314D01*
X229069047Y-94335314D01*
X229221428Y-94297219D01*
X229297619Y-94259123D01*
X229373809Y-94182933D01*
X229411904Y-94068647D01*
X229411904Y-93878171D01*
X228611904Y-94601980D02*
X228611904Y-95097219D01*
X228916666Y-94830552D01*
X228916666Y-94944838D01*
X228954761Y-95021028D01*
X228992857Y-95059123D01*
X229069047Y-95097219D01*
X229259523Y-95097219D01*
X229335714Y-95059123D01*
X229373809Y-95021028D01*
X229411904Y-94944838D01*
X229411904Y-94716266D01*
X229373809Y-94640076D01*
X229335714Y-94601980D01*
X228611904Y-95592457D02*
X228611904Y-95668647D01*
X228650000Y-95744838D01*
X228688095Y-95782933D01*
X228764285Y-95821028D01*
X228916666Y-95859123D01*
X229107142Y-95859123D01*
X229259523Y-95821028D01*
X229335714Y-95782933D01*
X229373809Y-95744838D01*
X229411904Y-95668647D01*
X229411904Y-95592457D01*
X229373809Y-95516266D01*
X229335714Y-95478171D01*
X229259523Y-95440076D01*
X229107142Y-95401980D01*
X228916666Y-95401980D01*
X228764285Y-95440076D01*
X228688095Y-95478171D01*
X228650000Y-95516266D01*
X228611904Y-95592457D01*
X226286904Y-93828171D02*
X225486904Y-93828171D01*
X225486904Y-94018647D01*
X225525000Y-94132933D01*
X225601190Y-94209123D01*
X225677380Y-94247219D01*
X225829761Y-94285314D01*
X225944047Y-94285314D01*
X226096428Y-94247219D01*
X226172619Y-94209123D01*
X226248809Y-94132933D01*
X226286904Y-94018647D01*
X226286904Y-93828171D01*
X225563095Y-94590076D02*
X225525000Y-94628171D01*
X225486904Y-94704361D01*
X225486904Y-94894838D01*
X225525000Y-94971028D01*
X225563095Y-95009123D01*
X225639285Y-95047219D01*
X225715476Y-95047219D01*
X225829761Y-95009123D01*
X226286904Y-94551980D01*
X226286904Y-95047219D01*
X226286904Y-95428171D02*
X226286904Y-95580552D01*
X226248809Y-95656742D01*
X226210714Y-95694838D01*
X226096428Y-95771028D01*
X225944047Y-95809123D01*
X225639285Y-95809123D01*
X225563095Y-95771028D01*
X225525000Y-95732933D01*
X225486904Y-95656742D01*
X225486904Y-95504361D01*
X225525000Y-95428171D01*
X225563095Y-95390076D01*
X225639285Y-95351980D01*
X225829761Y-95351980D01*
X225905952Y-95390076D01*
X225944047Y-95428171D01*
X225982142Y-95504361D01*
X225982142Y-95656742D01*
X225944047Y-95732933D01*
X225905952Y-95771028D01*
X225829761Y-95809123D01*
X207261904Y-93878171D02*
X206461904Y-93878171D01*
X206461904Y-94068647D01*
X206500000Y-94182933D01*
X206576190Y-94259123D01*
X206652380Y-94297219D01*
X206804761Y-94335314D01*
X206919047Y-94335314D01*
X207071428Y-94297219D01*
X207147619Y-94259123D01*
X207223809Y-94182933D01*
X207261904Y-94068647D01*
X207261904Y-93878171D01*
X206538095Y-94640076D02*
X206500000Y-94678171D01*
X206461904Y-94754361D01*
X206461904Y-94944838D01*
X206500000Y-95021028D01*
X206538095Y-95059123D01*
X206614285Y-95097219D01*
X206690476Y-95097219D01*
X206804761Y-95059123D01*
X207261904Y-94601980D01*
X207261904Y-95097219D01*
X206804761Y-95554361D02*
X206766666Y-95478171D01*
X206728571Y-95440076D01*
X206652380Y-95401980D01*
X206614285Y-95401980D01*
X206538095Y-95440076D01*
X206500000Y-95478171D01*
X206461904Y-95554361D01*
X206461904Y-95706742D01*
X206500000Y-95782933D01*
X206538095Y-95821028D01*
X206614285Y-95859123D01*
X206652380Y-95859123D01*
X206728571Y-95821028D01*
X206766666Y-95782933D01*
X206804761Y-95706742D01*
X206804761Y-95554361D01*
X206842857Y-95478171D01*
X206880952Y-95440076D01*
X206957142Y-95401980D01*
X207109523Y-95401980D01*
X207185714Y-95440076D01*
X207223809Y-95478171D01*
X207261904Y-95554361D01*
X207261904Y-95706742D01*
X207223809Y-95782933D01*
X207185714Y-95821028D01*
X207109523Y-95859123D01*
X206957142Y-95859123D01*
X206880952Y-95821028D01*
X206842857Y-95782933D01*
X206804761Y-95706742D01*
X188211904Y-93878171D02*
X187411904Y-93878171D01*
X187411904Y-94068647D01*
X187450000Y-94182933D01*
X187526190Y-94259123D01*
X187602380Y-94297219D01*
X187754761Y-94335314D01*
X187869047Y-94335314D01*
X188021428Y-94297219D01*
X188097619Y-94259123D01*
X188173809Y-94182933D01*
X188211904Y-94068647D01*
X188211904Y-93878171D01*
X187488095Y-94640076D02*
X187450000Y-94678171D01*
X187411904Y-94754361D01*
X187411904Y-94944838D01*
X187450000Y-95021028D01*
X187488095Y-95059123D01*
X187564285Y-95097219D01*
X187640476Y-95097219D01*
X187754761Y-95059123D01*
X188211904Y-94601980D01*
X188211904Y-95097219D01*
X187411904Y-95363885D02*
X187411904Y-95897219D01*
X188211904Y-95554361D01*
X169136904Y-93878171D02*
X168336904Y-93878171D01*
X168336904Y-94068647D01*
X168375000Y-94182933D01*
X168451190Y-94259123D01*
X168527380Y-94297219D01*
X168679761Y-94335314D01*
X168794047Y-94335314D01*
X168946428Y-94297219D01*
X169022619Y-94259123D01*
X169098809Y-94182933D01*
X169136904Y-94068647D01*
X169136904Y-93878171D01*
X168413095Y-94640076D02*
X168375000Y-94678171D01*
X168336904Y-94754361D01*
X168336904Y-94944838D01*
X168375000Y-95021028D01*
X168413095Y-95059123D01*
X168489285Y-95097219D01*
X168565476Y-95097219D01*
X168679761Y-95059123D01*
X169136904Y-94601980D01*
X169136904Y-95097219D01*
X168336904Y-95782933D02*
X168336904Y-95630552D01*
X168375000Y-95554361D01*
X168413095Y-95516266D01*
X168527380Y-95440076D01*
X168679761Y-95401980D01*
X168984523Y-95401980D01*
X169060714Y-95440076D01*
X169098809Y-95478171D01*
X169136904Y-95554361D01*
X169136904Y-95706742D01*
X169098809Y-95782933D01*
X169060714Y-95821028D01*
X168984523Y-95859123D01*
X168794047Y-95859123D01*
X168717857Y-95821028D01*
X168679761Y-95782933D01*
X168641666Y-95706742D01*
X168641666Y-95554361D01*
X168679761Y-95478171D01*
X168717857Y-95440076D01*
X168794047Y-95401980D01*
X150086904Y-93878171D02*
X149286904Y-93878171D01*
X149286904Y-94068647D01*
X149325000Y-94182933D01*
X149401190Y-94259123D01*
X149477380Y-94297219D01*
X149629761Y-94335314D01*
X149744047Y-94335314D01*
X149896428Y-94297219D01*
X149972619Y-94259123D01*
X150048809Y-94182933D01*
X150086904Y-94068647D01*
X150086904Y-93878171D01*
X149363095Y-94640076D02*
X149325000Y-94678171D01*
X149286904Y-94754361D01*
X149286904Y-94944838D01*
X149325000Y-95021028D01*
X149363095Y-95059123D01*
X149439285Y-95097219D01*
X149515476Y-95097219D01*
X149629761Y-95059123D01*
X150086904Y-94601980D01*
X150086904Y-95097219D01*
X149286904Y-95821028D02*
X149286904Y-95440076D01*
X149667857Y-95401980D01*
X149629761Y-95440076D01*
X149591666Y-95516266D01*
X149591666Y-95706742D01*
X149629761Y-95782933D01*
X149667857Y-95821028D01*
X149744047Y-95859123D01*
X149934523Y-95859123D01*
X150010714Y-95821028D01*
X150048809Y-95782933D01*
X150086904Y-95706742D01*
X150086904Y-95516266D01*
X150048809Y-95440076D01*
X150010714Y-95401980D01*
X131036904Y-93828171D02*
X130236904Y-93828171D01*
X130236904Y-94018647D01*
X130275000Y-94132933D01*
X130351190Y-94209123D01*
X130427380Y-94247219D01*
X130579761Y-94285314D01*
X130694047Y-94285314D01*
X130846428Y-94247219D01*
X130922619Y-94209123D01*
X130998809Y-94132933D01*
X131036904Y-94018647D01*
X131036904Y-93828171D01*
X130313095Y-94590076D02*
X130275000Y-94628171D01*
X130236904Y-94704361D01*
X130236904Y-94894838D01*
X130275000Y-94971028D01*
X130313095Y-95009123D01*
X130389285Y-95047219D01*
X130465476Y-95047219D01*
X130579761Y-95009123D01*
X131036904Y-94551980D01*
X131036904Y-95047219D01*
X130503571Y-95732933D02*
X131036904Y-95732933D01*
X130198809Y-95542457D02*
X130770238Y-95351980D01*
X130770238Y-95847219D01*
X111961904Y-93878171D02*
X111161904Y-93878171D01*
X111161904Y-94068647D01*
X111200000Y-94182933D01*
X111276190Y-94259123D01*
X111352380Y-94297219D01*
X111504761Y-94335314D01*
X111619047Y-94335314D01*
X111771428Y-94297219D01*
X111847619Y-94259123D01*
X111923809Y-94182933D01*
X111961904Y-94068647D01*
X111961904Y-93878171D01*
X111238095Y-94640076D02*
X111200000Y-94678171D01*
X111161904Y-94754361D01*
X111161904Y-94944838D01*
X111200000Y-95021028D01*
X111238095Y-95059123D01*
X111314285Y-95097219D01*
X111390476Y-95097219D01*
X111504761Y-95059123D01*
X111961904Y-94601980D01*
X111961904Y-95097219D01*
X111161904Y-95363885D02*
X111161904Y-95859123D01*
X111466666Y-95592457D01*
X111466666Y-95706742D01*
X111504761Y-95782933D01*
X111542857Y-95821028D01*
X111619047Y-95859123D01*
X111809523Y-95859123D01*
X111885714Y-95821028D01*
X111923809Y-95782933D01*
X111961904Y-95706742D01*
X111961904Y-95478171D01*
X111923809Y-95401980D01*
X111885714Y-95363885D01*
X92886904Y-93878171D02*
X92086904Y-93878171D01*
X92086904Y-94068647D01*
X92125000Y-94182933D01*
X92201190Y-94259123D01*
X92277380Y-94297219D01*
X92429761Y-94335314D01*
X92544047Y-94335314D01*
X92696428Y-94297219D01*
X92772619Y-94259123D01*
X92848809Y-94182933D01*
X92886904Y-94068647D01*
X92886904Y-93878171D01*
X92163095Y-94640076D02*
X92125000Y-94678171D01*
X92086904Y-94754361D01*
X92086904Y-94944838D01*
X92125000Y-95021028D01*
X92163095Y-95059123D01*
X92239285Y-95097219D01*
X92315476Y-95097219D01*
X92429761Y-95059123D01*
X92886904Y-94601980D01*
X92886904Y-95097219D01*
X92163095Y-95401980D02*
X92125000Y-95440076D01*
X92086904Y-95516266D01*
X92086904Y-95706742D01*
X92125000Y-95782933D01*
X92163095Y-95821028D01*
X92239285Y-95859123D01*
X92315476Y-95859123D01*
X92429761Y-95821028D01*
X92886904Y-95363885D01*
X92886904Y-95859123D01*
X73861904Y-93878171D02*
X73061904Y-93878171D01*
X73061904Y-94068647D01*
X73100000Y-94182933D01*
X73176190Y-94259123D01*
X73252380Y-94297219D01*
X73404761Y-94335314D01*
X73519047Y-94335314D01*
X73671428Y-94297219D01*
X73747619Y-94259123D01*
X73823809Y-94182933D01*
X73861904Y-94068647D01*
X73861904Y-93878171D01*
X73138095Y-94640076D02*
X73100000Y-94678171D01*
X73061904Y-94754361D01*
X73061904Y-94944838D01*
X73100000Y-95021028D01*
X73138095Y-95059123D01*
X73214285Y-95097219D01*
X73290476Y-95097219D01*
X73404761Y-95059123D01*
X73861904Y-94601980D01*
X73861904Y-95097219D01*
X73861904Y-95859123D02*
X73861904Y-95401980D01*
X73861904Y-95630552D02*
X73061904Y-95630552D01*
X73176190Y-95554361D01*
X73252380Y-95478171D01*
X73290476Y-95401980D01*
X229211904Y-74503171D02*
X228411904Y-74503171D01*
X228411904Y-74693647D01*
X228450000Y-74807933D01*
X228526190Y-74884123D01*
X228602380Y-74922219D01*
X228754761Y-74960314D01*
X228869047Y-74960314D01*
X229021428Y-74922219D01*
X229097619Y-74884123D01*
X229173809Y-74807933D01*
X229211904Y-74693647D01*
X229211904Y-74503171D01*
X228488095Y-75265076D02*
X228450000Y-75303171D01*
X228411904Y-75379361D01*
X228411904Y-75569838D01*
X228450000Y-75646028D01*
X228488095Y-75684123D01*
X228564285Y-75722219D01*
X228640476Y-75722219D01*
X228754761Y-75684123D01*
X229211904Y-75226980D01*
X229211904Y-75722219D01*
X228411904Y-76217457D02*
X228411904Y-76293647D01*
X228450000Y-76369838D01*
X228488095Y-76407933D01*
X228564285Y-76446028D01*
X228716666Y-76484123D01*
X228907142Y-76484123D01*
X229059523Y-76446028D01*
X229135714Y-76407933D01*
X229173809Y-76369838D01*
X229211904Y-76293647D01*
X229211904Y-76217457D01*
X229173809Y-76141266D01*
X229135714Y-76103171D01*
X229059523Y-76065076D01*
X228907142Y-76026980D01*
X228716666Y-76026980D01*
X228564285Y-76065076D01*
X228488095Y-76103171D01*
X228450000Y-76141266D01*
X228411904Y-76217457D01*
X226311904Y-74403171D02*
X225511904Y-74403171D01*
X225511904Y-74593647D01*
X225550000Y-74707933D01*
X225626190Y-74784123D01*
X225702380Y-74822219D01*
X225854761Y-74860314D01*
X225969047Y-74860314D01*
X226121428Y-74822219D01*
X226197619Y-74784123D01*
X226273809Y-74707933D01*
X226311904Y-74593647D01*
X226311904Y-74403171D01*
X226311904Y-75622219D02*
X226311904Y-75165076D01*
X226311904Y-75393647D02*
X225511904Y-75393647D01*
X225626190Y-75317457D01*
X225702380Y-75241266D01*
X225740476Y-75165076D01*
X226311904Y-76003171D02*
X226311904Y-76155552D01*
X226273809Y-76231742D01*
X226235714Y-76269838D01*
X226121428Y-76346028D01*
X225969047Y-76384123D01*
X225664285Y-76384123D01*
X225588095Y-76346028D01*
X225550000Y-76307933D01*
X225511904Y-76231742D01*
X225511904Y-76079361D01*
X225550000Y-76003171D01*
X225588095Y-75965076D01*
X225664285Y-75926980D01*
X225854761Y-75926980D01*
X225930952Y-75965076D01*
X225969047Y-76003171D01*
X226007142Y-76079361D01*
X226007142Y-76231742D01*
X225969047Y-76307933D01*
X225930952Y-76346028D01*
X225854761Y-76384123D01*
X207336904Y-74378171D02*
X206536904Y-74378171D01*
X206536904Y-74568647D01*
X206575000Y-74682933D01*
X206651190Y-74759123D01*
X206727380Y-74797219D01*
X206879761Y-74835314D01*
X206994047Y-74835314D01*
X207146428Y-74797219D01*
X207222619Y-74759123D01*
X207298809Y-74682933D01*
X207336904Y-74568647D01*
X207336904Y-74378171D01*
X207336904Y-75597219D02*
X207336904Y-75140076D01*
X207336904Y-75368647D02*
X206536904Y-75368647D01*
X206651190Y-75292457D01*
X206727380Y-75216266D01*
X206765476Y-75140076D01*
X206879761Y-76054361D02*
X206841666Y-75978171D01*
X206803571Y-75940076D01*
X206727380Y-75901980D01*
X206689285Y-75901980D01*
X206613095Y-75940076D01*
X206575000Y-75978171D01*
X206536904Y-76054361D01*
X206536904Y-76206742D01*
X206575000Y-76282933D01*
X206613095Y-76321028D01*
X206689285Y-76359123D01*
X206727380Y-76359123D01*
X206803571Y-76321028D01*
X206841666Y-76282933D01*
X206879761Y-76206742D01*
X206879761Y-76054361D01*
X206917857Y-75978171D01*
X206955952Y-75940076D01*
X207032142Y-75901980D01*
X207184523Y-75901980D01*
X207260714Y-75940076D01*
X207298809Y-75978171D01*
X207336904Y-76054361D01*
X207336904Y-76206742D01*
X207298809Y-76282933D01*
X207260714Y-76321028D01*
X207184523Y-76359123D01*
X207032142Y-76359123D01*
X206955952Y-76321028D01*
X206917857Y-76282933D01*
X206879761Y-76206742D01*
X188311904Y-74503171D02*
X187511904Y-74503171D01*
X187511904Y-74693647D01*
X187550000Y-74807933D01*
X187626190Y-74884123D01*
X187702380Y-74922219D01*
X187854761Y-74960314D01*
X187969047Y-74960314D01*
X188121428Y-74922219D01*
X188197619Y-74884123D01*
X188273809Y-74807933D01*
X188311904Y-74693647D01*
X188311904Y-74503171D01*
X188311904Y-75722219D02*
X188311904Y-75265076D01*
X188311904Y-75493647D02*
X187511904Y-75493647D01*
X187626190Y-75417457D01*
X187702380Y-75341266D01*
X187740476Y-75265076D01*
X187511904Y-75988885D02*
X187511904Y-76522219D01*
X188311904Y-76179361D01*
X163121028Y-88261904D02*
X163121028Y-87461904D01*
X162930552Y-87461904D01*
X162816266Y-87500000D01*
X162740076Y-87576190D01*
X162701980Y-87652380D01*
X162663885Y-87804761D01*
X162663885Y-87919047D01*
X162701980Y-88071428D01*
X162740076Y-88147619D01*
X162816266Y-88223809D01*
X162930552Y-88261904D01*
X163121028Y-88261904D01*
X161901980Y-88261904D02*
X162359123Y-88261904D01*
X162130552Y-88261904D02*
X162130552Y-87461904D01*
X162206742Y-87576190D01*
X162282933Y-87652380D01*
X162359123Y-87690476D01*
X161216266Y-87461904D02*
X161368647Y-87461904D01*
X161444838Y-87500000D01*
X161482933Y-87538095D01*
X161559123Y-87652380D01*
X161597219Y-87804761D01*
X161597219Y-88109523D01*
X161559123Y-88185714D01*
X161521028Y-88223809D01*
X161444838Y-88261904D01*
X161292457Y-88261904D01*
X161216266Y-88223809D01*
X161178171Y-88185714D01*
X161140076Y-88109523D01*
X161140076Y-87919047D01*
X161178171Y-87842857D01*
X161216266Y-87804761D01*
X161292457Y-87766666D01*
X161444838Y-87766666D01*
X161521028Y-87804761D01*
X161559123Y-87842857D01*
X161597219Y-87919047D01*
X134111904Y-74803171D02*
X133311904Y-74803171D01*
X133311904Y-74993647D01*
X133350000Y-75107933D01*
X133426190Y-75184123D01*
X133502380Y-75222219D01*
X133654761Y-75260314D01*
X133769047Y-75260314D01*
X133921428Y-75222219D01*
X133997619Y-75184123D01*
X134073809Y-75107933D01*
X134111904Y-74993647D01*
X134111904Y-74803171D01*
X134111904Y-76022219D02*
X134111904Y-75565076D01*
X134111904Y-75793647D02*
X133311904Y-75793647D01*
X133426190Y-75717457D01*
X133502380Y-75641266D01*
X133540476Y-75565076D01*
X133311904Y-76746028D02*
X133311904Y-76365076D01*
X133692857Y-76326980D01*
X133654761Y-76365076D01*
X133616666Y-76441266D01*
X133616666Y-76631742D01*
X133654761Y-76707933D01*
X133692857Y-76746028D01*
X133769047Y-76784123D01*
X133959523Y-76784123D01*
X134035714Y-76746028D01*
X134073809Y-76707933D01*
X134111904Y-76631742D01*
X134111904Y-76441266D01*
X134073809Y-76365076D01*
X134035714Y-76326980D01*
X131036904Y-74803171D02*
X130236904Y-74803171D01*
X130236904Y-74993647D01*
X130275000Y-75107933D01*
X130351190Y-75184123D01*
X130427380Y-75222219D01*
X130579761Y-75260314D01*
X130694047Y-75260314D01*
X130846428Y-75222219D01*
X130922619Y-75184123D01*
X130998809Y-75107933D01*
X131036904Y-74993647D01*
X131036904Y-74803171D01*
X131036904Y-76022219D02*
X131036904Y-75565076D01*
X131036904Y-75793647D02*
X130236904Y-75793647D01*
X130351190Y-75717457D01*
X130427380Y-75641266D01*
X130465476Y-75565076D01*
X130503571Y-76707933D02*
X131036904Y-76707933D01*
X130198809Y-76517457D02*
X130770238Y-76326980D01*
X130770238Y-76822219D01*
X111961904Y-74853171D02*
X111161904Y-74853171D01*
X111161904Y-75043647D01*
X111200000Y-75157933D01*
X111276190Y-75234123D01*
X111352380Y-75272219D01*
X111504761Y-75310314D01*
X111619047Y-75310314D01*
X111771428Y-75272219D01*
X111847619Y-75234123D01*
X111923809Y-75157933D01*
X111961904Y-75043647D01*
X111961904Y-74853171D01*
X111961904Y-76072219D02*
X111961904Y-75615076D01*
X111961904Y-75843647D02*
X111161904Y-75843647D01*
X111276190Y-75767457D01*
X111352380Y-75691266D01*
X111390476Y-75615076D01*
X111161904Y-76338885D02*
X111161904Y-76834123D01*
X111466666Y-76567457D01*
X111466666Y-76681742D01*
X111504761Y-76757933D01*
X111542857Y-76796028D01*
X111619047Y-76834123D01*
X111809523Y-76834123D01*
X111885714Y-76796028D01*
X111923809Y-76757933D01*
X111961904Y-76681742D01*
X111961904Y-76453171D01*
X111923809Y-76376980D01*
X111885714Y-76338885D01*
X92911904Y-74803171D02*
X92111904Y-74803171D01*
X92111904Y-74993647D01*
X92150000Y-75107933D01*
X92226190Y-75184123D01*
X92302380Y-75222219D01*
X92454761Y-75260314D01*
X92569047Y-75260314D01*
X92721428Y-75222219D01*
X92797619Y-75184123D01*
X92873809Y-75107933D01*
X92911904Y-74993647D01*
X92911904Y-74803171D01*
X92911904Y-76022219D02*
X92911904Y-75565076D01*
X92911904Y-75793647D02*
X92111904Y-75793647D01*
X92226190Y-75717457D01*
X92302380Y-75641266D01*
X92340476Y-75565076D01*
X92188095Y-76326980D02*
X92150000Y-76365076D01*
X92111904Y-76441266D01*
X92111904Y-76631742D01*
X92150000Y-76707933D01*
X92188095Y-76746028D01*
X92264285Y-76784123D01*
X92340476Y-76784123D01*
X92454761Y-76746028D01*
X92911904Y-76288885D01*
X92911904Y-76784123D01*
X73886904Y-74778171D02*
X73086904Y-74778171D01*
X73086904Y-74968647D01*
X73125000Y-75082933D01*
X73201190Y-75159123D01*
X73277380Y-75197219D01*
X73429761Y-75235314D01*
X73544047Y-75235314D01*
X73696428Y-75197219D01*
X73772619Y-75159123D01*
X73848809Y-75082933D01*
X73886904Y-74968647D01*
X73886904Y-74778171D01*
X73886904Y-75997219D02*
X73886904Y-75540076D01*
X73886904Y-75768647D02*
X73086904Y-75768647D01*
X73201190Y-75692457D01*
X73277380Y-75616266D01*
X73315476Y-75540076D01*
X73886904Y-76759123D02*
X73886904Y-76301980D01*
X73886904Y-76530552D02*
X73086904Y-76530552D01*
X73201190Y-76454361D01*
X73277380Y-76378171D01*
X73315476Y-76301980D01*
X229336904Y-55778171D02*
X228536904Y-55778171D01*
X228536904Y-55968647D01*
X228575000Y-56082933D01*
X228651190Y-56159123D01*
X228727380Y-56197219D01*
X228879761Y-56235314D01*
X228994047Y-56235314D01*
X229146428Y-56197219D01*
X229222619Y-56159123D01*
X229298809Y-56082933D01*
X229336904Y-55968647D01*
X229336904Y-55778171D01*
X229336904Y-56997219D02*
X229336904Y-56540076D01*
X229336904Y-56768647D02*
X228536904Y-56768647D01*
X228651190Y-56692457D01*
X228727380Y-56616266D01*
X228765476Y-56540076D01*
X228536904Y-57492457D02*
X228536904Y-57568647D01*
X228575000Y-57644838D01*
X228613095Y-57682933D01*
X228689285Y-57721028D01*
X228841666Y-57759123D01*
X229032142Y-57759123D01*
X229184523Y-57721028D01*
X229260714Y-57682933D01*
X229298809Y-57644838D01*
X229336904Y-57568647D01*
X229336904Y-57492457D01*
X229298809Y-57416266D01*
X229260714Y-57378171D01*
X229184523Y-57340076D01*
X229032142Y-57301980D01*
X228841666Y-57301980D01*
X228689285Y-57340076D01*
X228613095Y-57378171D01*
X228575000Y-57416266D01*
X228536904Y-57492457D01*
X226211904Y-56159123D02*
X225411904Y-56159123D01*
X225411904Y-56349600D01*
X225450000Y-56463885D01*
X225526190Y-56540076D01*
X225602380Y-56578171D01*
X225754761Y-56616266D01*
X225869047Y-56616266D01*
X226021428Y-56578171D01*
X226097619Y-56540076D01*
X226173809Y-56463885D01*
X226211904Y-56349600D01*
X226211904Y-56159123D01*
X226211904Y-56997219D02*
X226211904Y-57149600D01*
X226173809Y-57225790D01*
X226135714Y-57263885D01*
X226021428Y-57340076D01*
X225869047Y-57378171D01*
X225564285Y-57378171D01*
X225488095Y-57340076D01*
X225450000Y-57301980D01*
X225411904Y-57225790D01*
X225411904Y-57073409D01*
X225450000Y-56997219D01*
X225488095Y-56959123D01*
X225564285Y-56921028D01*
X225754761Y-56921028D01*
X225830952Y-56959123D01*
X225869047Y-56997219D01*
X225907142Y-57073409D01*
X225907142Y-57225790D01*
X225869047Y-57301980D01*
X225830952Y-57340076D01*
X225754761Y-57378171D01*
X207186904Y-58184123D02*
X206386904Y-58184123D01*
X206386904Y-58374600D01*
X206425000Y-58488885D01*
X206501190Y-58565076D01*
X206577380Y-58603171D01*
X206729761Y-58641266D01*
X206844047Y-58641266D01*
X206996428Y-58603171D01*
X207072619Y-58565076D01*
X207148809Y-58488885D01*
X207186904Y-58374600D01*
X207186904Y-58184123D01*
X206729761Y-59098409D02*
X206691666Y-59022219D01*
X206653571Y-58984123D01*
X206577380Y-58946028D01*
X206539285Y-58946028D01*
X206463095Y-58984123D01*
X206425000Y-59022219D01*
X206386904Y-59098409D01*
X206386904Y-59250790D01*
X206425000Y-59326980D01*
X206463095Y-59365076D01*
X206539285Y-59403171D01*
X206577380Y-59403171D01*
X206653571Y-59365076D01*
X206691666Y-59326980D01*
X206729761Y-59250790D01*
X206729761Y-59098409D01*
X206767857Y-59022219D01*
X206805952Y-58984123D01*
X206882142Y-58946028D01*
X207034523Y-58946028D01*
X207110714Y-58984123D01*
X207148809Y-59022219D01*
X207186904Y-59098409D01*
X207186904Y-59250790D01*
X207148809Y-59326980D01*
X207110714Y-59365076D01*
X207034523Y-59403171D01*
X206882142Y-59403171D01*
X206805952Y-59365076D01*
X206767857Y-59326980D01*
X206729761Y-59250790D01*
X188136904Y-56159123D02*
X187336904Y-56159123D01*
X187336904Y-56349600D01*
X187375000Y-56463885D01*
X187451190Y-56540076D01*
X187527380Y-56578171D01*
X187679761Y-56616266D01*
X187794047Y-56616266D01*
X187946428Y-56578171D01*
X188022619Y-56540076D01*
X188098809Y-56463885D01*
X188136904Y-56349600D01*
X188136904Y-56159123D01*
X187336904Y-56882933D02*
X187336904Y-57416266D01*
X188136904Y-57073409D01*
X172086904Y-56209123D02*
X171286904Y-56209123D01*
X171286904Y-56399600D01*
X171325000Y-56513885D01*
X171401190Y-56590076D01*
X171477380Y-56628171D01*
X171629761Y-56666266D01*
X171744047Y-56666266D01*
X171896428Y-56628171D01*
X171972619Y-56590076D01*
X172048809Y-56513885D01*
X172086904Y-56399600D01*
X172086904Y-56209123D01*
X171286904Y-57351980D02*
X171286904Y-57199600D01*
X171325000Y-57123409D01*
X171363095Y-57085314D01*
X171477380Y-57009123D01*
X171629761Y-56971028D01*
X171934523Y-56971028D01*
X172010714Y-57009123D01*
X172048809Y-57047219D01*
X172086904Y-57123409D01*
X172086904Y-57275790D01*
X172048809Y-57351980D01*
X172010714Y-57390076D01*
X171934523Y-57428171D01*
X171744047Y-57428171D01*
X171667857Y-57390076D01*
X171629761Y-57351980D01*
X171591666Y-57275790D01*
X171591666Y-57123409D01*
X171629761Y-57047219D01*
X171667857Y-57009123D01*
X171744047Y-56971028D01*
X149329904Y-56153123D02*
X148529904Y-56153123D01*
X148529904Y-56343600D01*
X148568000Y-56457885D01*
X148644190Y-56534076D01*
X148720380Y-56572171D01*
X148872761Y-56610266D01*
X148987047Y-56610266D01*
X149139428Y-56572171D01*
X149215619Y-56534076D01*
X149291809Y-56457885D01*
X149329904Y-56343600D01*
X149329904Y-56153123D01*
X148529904Y-57334076D02*
X148529904Y-56953123D01*
X148910857Y-56915028D01*
X148872761Y-56953123D01*
X148834666Y-57029314D01*
X148834666Y-57219790D01*
X148872761Y-57295980D01*
X148910857Y-57334076D01*
X148987047Y-57372171D01*
X149177523Y-57372171D01*
X149253714Y-57334076D01*
X149291809Y-57295980D01*
X149329904Y-57219790D01*
X149329904Y-57029314D01*
X149291809Y-56953123D01*
X149253714Y-56915028D01*
X130986904Y-56159123D02*
X130186904Y-56159123D01*
X130186904Y-56349600D01*
X130225000Y-56463885D01*
X130301190Y-56540076D01*
X130377380Y-56578171D01*
X130529761Y-56616266D01*
X130644047Y-56616266D01*
X130796428Y-56578171D01*
X130872619Y-56540076D01*
X130948809Y-56463885D01*
X130986904Y-56349600D01*
X130986904Y-56159123D01*
X130453571Y-57301980D02*
X130986904Y-57301980D01*
X130148809Y-57111504D02*
X130720238Y-56921028D01*
X130720238Y-57416266D01*
X111936904Y-56134123D02*
X111136904Y-56134123D01*
X111136904Y-56324600D01*
X111175000Y-56438885D01*
X111251190Y-56515076D01*
X111327380Y-56553171D01*
X111479761Y-56591266D01*
X111594047Y-56591266D01*
X111746428Y-56553171D01*
X111822619Y-56515076D01*
X111898809Y-56438885D01*
X111936904Y-56324600D01*
X111936904Y-56134123D01*
X111136904Y-56857933D02*
X111136904Y-57353171D01*
X111441666Y-57086504D01*
X111441666Y-57200790D01*
X111479761Y-57276980D01*
X111517857Y-57315076D01*
X111594047Y-57353171D01*
X111784523Y-57353171D01*
X111860714Y-57315076D01*
X111898809Y-57276980D01*
X111936904Y-57200790D01*
X111936904Y-56972219D01*
X111898809Y-56896028D01*
X111860714Y-56857933D01*
X92836904Y-58159123D02*
X92036904Y-58159123D01*
X92036904Y-58349600D01*
X92075000Y-58463885D01*
X92151190Y-58540076D01*
X92227380Y-58578171D01*
X92379761Y-58616266D01*
X92494047Y-58616266D01*
X92646428Y-58578171D01*
X92722619Y-58540076D01*
X92798809Y-58463885D01*
X92836904Y-58349600D01*
X92836904Y-58159123D01*
X92113095Y-58921028D02*
X92075000Y-58959123D01*
X92036904Y-59035314D01*
X92036904Y-59225790D01*
X92075000Y-59301980D01*
X92113095Y-59340076D01*
X92189285Y-59378171D01*
X92265476Y-59378171D01*
X92379761Y-59340076D01*
X92836904Y-58882933D01*
X92836904Y-59378171D01*
X73836904Y-56159123D02*
X73036904Y-56159123D01*
X73036904Y-56349600D01*
X73075000Y-56463885D01*
X73151190Y-56540076D01*
X73227380Y-56578171D01*
X73379761Y-56616266D01*
X73494047Y-56616266D01*
X73646428Y-56578171D01*
X73722619Y-56540076D01*
X73798809Y-56463885D01*
X73836904Y-56349600D01*
X73836904Y-56159123D01*
X73836904Y-57378171D02*
X73836904Y-56921028D01*
X73836904Y-57149600D02*
X73036904Y-57149600D01*
X73151190Y-57073409D01*
X73227380Y-56997219D01*
X73265476Y-56921028D01*
M02*
