G04 #@! TF.GenerationSoftware,KiCad,Pcbnew,(5.1.4-0-10_14)*
G04 #@! TF.CreationDate,2020-10-15T15:35:28-05:00*
G04 #@! TF.ProjectId,33,33332e6b-6963-4616-945f-706362585858,rev?*
G04 #@! TF.SameCoordinates,Original*
G04 #@! TF.FileFunction,Profile,NP*
%FSLAX46Y46*%
G04 Gerber Fmt 4.6, Leading zero omitted, Abs format (unit mm)*
G04 Created by KiCad (PCBNEW (5.1.4-0-10_14)) date 2020-10-15 15:35:28*
%MOMM*%
%LPD*%
G04 APERTURE LIST*
%ADD10C,0.200000*%
G04 APERTURE END LIST*
D10*
X60785001Y-101800000D02*
X71145001Y-101800000D01*
X60785001Y-101800000D02*
G75*
G02X58775001Y-99790000I0J2010000D01*
G01*
X58774802Y-51320000D02*
X58775001Y-99790000D01*
X58774802Y-51320000D02*
G75*
G02X61025001Y-49069801I2250199J0D01*
G01*
X91324026Y-49080000D02*
X61025001Y-49069801D01*
X99663804Y-49122989D02*
G75*
G02X91324026Y-49080000I-4169778J42990D01*
G01*
X205635001Y-49050000D02*
X99663804Y-49122991D01*
X213974779Y-49092989D02*
G75*
G02X205635001Y-49050000I-4169778J42990D01*
G01*
X244235001Y-49050000D02*
X213974779Y-49092990D01*
X244235001Y-49050000D02*
G75*
G02X246485200Y-51300199I0J-2250199D01*
G01*
X246475001Y-99790000D02*
X246485200Y-51300199D01*
X246475001Y-99790000D02*
G75*
G02X244465001Y-101800000I-2010000J0D01*
G01*
X234105001Y-101800000D02*
X244465001Y-101800000D01*
X232095001Y-103810000D02*
G75*
G02X234105001Y-101800000I2010000J0D01*
G01*
X232095001Y-120850000D02*
X232095001Y-103810000D01*
X232095001Y-120850000D02*
G75*
G02X230085001Y-122860000I-2010000J0D01*
G01*
X218735001Y-122850000D02*
X230085001Y-122860000D01*
X210395223Y-122807009D02*
G75*
G02X218735001Y-122850000I4169778J-42991D01*
G01*
X95074779Y-122840000D02*
X210395222Y-122807008D01*
X86735001Y-122797007D02*
G75*
G02X95074779Y-122840000I4169778J-42992D01*
G01*
X75165001Y-122820000D02*
X86735000Y-122797008D01*
X75165001Y-122820000D02*
G75*
G02X73155001Y-120810000I0J2010000D01*
G01*
X73155001Y-103810000D02*
X73155001Y-120810000D01*
X71145001Y-101800000D02*
G75*
G02X73155001Y-103810000I0J-2010000D01*
G01*
M02*
