G04 #@! TF.GenerationSoftware,KiCad,Pcbnew,(5.1.4-0-10_14)*
G04 #@! TF.CreationDate,2020-08-17T22:16:44-05:00*
G04 #@! TF.ProjectId,33,33332e6b-6963-4616-945f-706362585858,rev?*
G04 #@! TF.SameCoordinates,Original*
G04 #@! TF.FileFunction,Soldermask,Top*
G04 #@! TF.FilePolarity,Negative*
%FSLAX46Y46*%
G04 Gerber Fmt 4.6, Leading zero omitted, Abs format (unit mm)*
G04 Created by KiCad (PCBNEW (5.1.4-0-10_14)) date 2020-08-17 22:16:44*
%MOMM*%
%LPD*%
G04 APERTURE LIST*
%ADD10C,0.100000*%
G04 APERTURE END LIST*
D10*
G36*
X186313517Y-119240263D02*
G01*
X186465661Y-119270526D01*
X186584387Y-119319704D01*
X186752291Y-119389252D01*
X186752292Y-119389253D01*
X187010254Y-119561617D01*
X187229633Y-119780996D01*
X187344803Y-119953361D01*
X187401998Y-120038959D01*
X187471546Y-120206863D01*
X187510369Y-120300589D01*
X187520724Y-120325590D01*
X187581250Y-120629875D01*
X187581250Y-120940125D01*
X187520724Y-121244410D01*
X187401998Y-121531041D01*
X187401997Y-121531042D01*
X187229633Y-121789004D01*
X187010254Y-122008383D01*
X186837889Y-122123553D01*
X186752291Y-122180748D01*
X186584387Y-122250296D01*
X186465661Y-122299474D01*
X186161375Y-122360000D01*
X185851125Y-122360000D01*
X185546839Y-122299474D01*
X185428113Y-122250296D01*
X185260209Y-122180748D01*
X185174611Y-122123553D01*
X185002246Y-122008383D01*
X184782867Y-121789004D01*
X184610503Y-121531042D01*
X184610502Y-121531041D01*
X184491776Y-121244410D01*
X184431250Y-120940125D01*
X184431250Y-120629875D01*
X184491776Y-120325590D01*
X184502132Y-120300589D01*
X184540954Y-120206863D01*
X184610502Y-120038959D01*
X184667697Y-119953361D01*
X184782867Y-119780996D01*
X185002246Y-119561617D01*
X185260208Y-119389253D01*
X185260209Y-119389252D01*
X185428113Y-119319704D01*
X185546839Y-119270526D01*
X185698983Y-119240263D01*
X185851125Y-119210000D01*
X186161375Y-119210000D01*
X186313517Y-119240263D01*
X186313517Y-119240263D01*
G37*
G36*
X162501017Y-119240263D02*
G01*
X162653161Y-119270526D01*
X162771887Y-119319704D01*
X162939791Y-119389252D01*
X162939792Y-119389253D01*
X163197754Y-119561617D01*
X163417133Y-119780996D01*
X163532303Y-119953361D01*
X163589498Y-120038959D01*
X163659046Y-120206863D01*
X163697869Y-120300589D01*
X163708224Y-120325590D01*
X163768750Y-120629875D01*
X163768750Y-120940125D01*
X163708224Y-121244410D01*
X163589498Y-121531041D01*
X163589497Y-121531042D01*
X163417133Y-121789004D01*
X163197754Y-122008383D01*
X163025389Y-122123553D01*
X162939791Y-122180748D01*
X162771887Y-122250296D01*
X162653161Y-122299474D01*
X162348875Y-122360000D01*
X162038625Y-122360000D01*
X161734339Y-122299474D01*
X161615613Y-122250296D01*
X161447709Y-122180748D01*
X161362111Y-122123553D01*
X161189746Y-122008383D01*
X160970367Y-121789004D01*
X160798003Y-121531042D01*
X160798002Y-121531041D01*
X160679276Y-121244410D01*
X160618750Y-120940125D01*
X160618750Y-120629875D01*
X160679276Y-120325590D01*
X160689632Y-120300589D01*
X160728454Y-120206863D01*
X160798002Y-120038959D01*
X160855197Y-119953361D01*
X160970367Y-119780996D01*
X161189746Y-119561617D01*
X161447708Y-119389253D01*
X161447709Y-119389252D01*
X161615613Y-119319704D01*
X161734339Y-119270526D01*
X161886483Y-119240263D01*
X162038625Y-119210000D01*
X162348875Y-119210000D01*
X162501017Y-119240263D01*
X162501017Y-119240263D01*
G37*
G36*
X145813517Y-119240263D02*
G01*
X145965661Y-119270526D01*
X146084387Y-119319704D01*
X146252291Y-119389252D01*
X146252292Y-119389253D01*
X146510254Y-119561617D01*
X146729633Y-119780996D01*
X146844803Y-119953361D01*
X146901998Y-120038959D01*
X146971546Y-120206863D01*
X147010369Y-120300589D01*
X147020724Y-120325590D01*
X147081250Y-120629875D01*
X147081250Y-120940125D01*
X147020724Y-121244410D01*
X146901998Y-121531041D01*
X146901997Y-121531042D01*
X146729633Y-121789004D01*
X146510254Y-122008383D01*
X146337889Y-122123553D01*
X146252291Y-122180748D01*
X146084387Y-122250296D01*
X145965661Y-122299474D01*
X145661375Y-122360000D01*
X145351125Y-122360000D01*
X145046839Y-122299474D01*
X144928113Y-122250296D01*
X144760209Y-122180748D01*
X144674611Y-122123553D01*
X144502246Y-122008383D01*
X144282867Y-121789004D01*
X144110503Y-121531042D01*
X144110502Y-121531041D01*
X143991776Y-121244410D01*
X143931250Y-120940125D01*
X143931250Y-120629875D01*
X143991776Y-120325590D01*
X144002132Y-120300589D01*
X144040954Y-120206863D01*
X144110502Y-120038959D01*
X144167697Y-119953361D01*
X144282867Y-119780996D01*
X144502246Y-119561617D01*
X144760208Y-119389253D01*
X144760209Y-119389252D01*
X144928113Y-119319704D01*
X145046839Y-119270526D01*
X145198983Y-119240263D01*
X145351125Y-119210000D01*
X145661375Y-119210000D01*
X145813517Y-119240263D01*
X145813517Y-119240263D01*
G37*
G36*
X122001017Y-119240263D02*
G01*
X122153161Y-119270526D01*
X122271887Y-119319704D01*
X122439791Y-119389252D01*
X122439792Y-119389253D01*
X122697754Y-119561617D01*
X122917133Y-119780996D01*
X123032303Y-119953361D01*
X123089498Y-120038959D01*
X123159046Y-120206863D01*
X123197869Y-120300589D01*
X123208224Y-120325590D01*
X123268750Y-120629875D01*
X123268750Y-120940125D01*
X123208224Y-121244410D01*
X123089498Y-121531041D01*
X123089497Y-121531042D01*
X122917133Y-121789004D01*
X122697754Y-122008383D01*
X122525389Y-122123553D01*
X122439791Y-122180748D01*
X122271887Y-122250296D01*
X122153161Y-122299474D01*
X121848875Y-122360000D01*
X121538625Y-122360000D01*
X121234339Y-122299474D01*
X121115613Y-122250296D01*
X120947709Y-122180748D01*
X120862111Y-122123553D01*
X120689746Y-122008383D01*
X120470367Y-121789004D01*
X120298003Y-121531042D01*
X120298002Y-121531041D01*
X120179276Y-121244410D01*
X120118750Y-120940125D01*
X120118750Y-120629875D01*
X120179276Y-120325590D01*
X120189632Y-120300589D01*
X120228454Y-120206863D01*
X120298002Y-120038959D01*
X120355197Y-119953361D01*
X120470367Y-119780996D01*
X120689746Y-119561617D01*
X120947708Y-119389253D01*
X120947709Y-119389252D01*
X121115613Y-119319704D01*
X121234339Y-119270526D01*
X121386483Y-119240263D01*
X121538625Y-119210000D01*
X121848875Y-119210000D01*
X122001017Y-119240263D01*
X122001017Y-119240263D01*
G37*
G36*
X203059311Y-119245526D02*
G01*
X203119666Y-119270526D01*
X203345941Y-119364252D01*
X203431539Y-119421447D01*
X203603904Y-119536617D01*
X203823283Y-119755996D01*
X203938453Y-119928361D01*
X203995648Y-120013959D01*
X204006003Y-120038959D01*
X204114374Y-120300589D01*
X204174900Y-120604876D01*
X204174900Y-120915124D01*
X204114374Y-121219411D01*
X204065196Y-121338137D01*
X203995648Y-121506041D01*
X203978943Y-121531042D01*
X203823283Y-121764004D01*
X203603904Y-121983383D01*
X203431539Y-122098553D01*
X203345941Y-122155748D01*
X203285585Y-122180748D01*
X203059311Y-122274474D01*
X202755025Y-122335000D01*
X202444775Y-122335000D01*
X202140489Y-122274474D01*
X201914215Y-122180748D01*
X201853859Y-122155748D01*
X201768261Y-122098553D01*
X201595896Y-121983383D01*
X201376517Y-121764004D01*
X201220857Y-121531042D01*
X201204152Y-121506041D01*
X201134604Y-121338137D01*
X201085426Y-121219411D01*
X201024900Y-120915124D01*
X201024900Y-120604876D01*
X201085426Y-120300589D01*
X201193797Y-120038959D01*
X201204152Y-120013959D01*
X201261347Y-119928361D01*
X201376517Y-119755996D01*
X201595896Y-119536617D01*
X201768261Y-119421447D01*
X201853859Y-119364252D01*
X202080134Y-119270526D01*
X202140489Y-119245526D01*
X202444775Y-119185000D01*
X202755025Y-119185000D01*
X203059311Y-119245526D01*
X203059311Y-119245526D01*
G37*
G36*
X103059511Y-119245526D02*
G01*
X103119866Y-119270526D01*
X103346141Y-119364252D01*
X103431739Y-119421447D01*
X103604104Y-119536617D01*
X103823483Y-119755996D01*
X103938653Y-119928361D01*
X103995848Y-120013959D01*
X104006203Y-120038959D01*
X104114574Y-120300589D01*
X104175100Y-120604876D01*
X104175100Y-120915124D01*
X104114574Y-121219411D01*
X104065396Y-121338137D01*
X103995848Y-121506041D01*
X103979143Y-121531042D01*
X103823483Y-121764004D01*
X103604104Y-121983383D01*
X103431739Y-122098553D01*
X103346141Y-122155748D01*
X103285785Y-122180748D01*
X103059511Y-122274474D01*
X102755225Y-122335000D01*
X102444975Y-122335000D01*
X102140689Y-122274474D01*
X101914415Y-122180748D01*
X101854059Y-122155748D01*
X101768461Y-122098553D01*
X101596096Y-121983383D01*
X101376717Y-121764004D01*
X101221057Y-121531042D01*
X101204352Y-121506041D01*
X101134804Y-121338137D01*
X101085626Y-121219411D01*
X101025100Y-120915124D01*
X101025100Y-120604876D01*
X101085626Y-120300589D01*
X101193997Y-120038959D01*
X101204352Y-120013959D01*
X101261547Y-119928361D01*
X101376717Y-119755996D01*
X101596096Y-119536617D01*
X101768461Y-119421447D01*
X101854059Y-119364252D01*
X102080334Y-119270526D01*
X102140689Y-119245526D01*
X102444975Y-119185000D01*
X102755225Y-119185000D01*
X103059511Y-119245526D01*
X103059511Y-119245526D01*
G37*
G36*
X109076000Y-117951000D02*
G01*
X107374000Y-117951000D01*
X107374000Y-116249000D01*
X109076000Y-116249000D01*
X109076000Y-117951000D01*
X109076000Y-117951000D01*
G37*
G36*
X90151000Y-117951000D02*
G01*
X88449000Y-117951000D01*
X88449000Y-116249000D01*
X90151000Y-116249000D01*
X90151000Y-117951000D01*
X90151000Y-117951000D01*
G37*
G36*
X216526000Y-117926000D02*
G01*
X214824000Y-117926000D01*
X214824000Y-116224000D01*
X216526000Y-116224000D01*
X216526000Y-117926000D01*
X216526000Y-117926000D01*
G37*
G36*
X214126000Y-117926000D02*
G01*
X212424000Y-117926000D01*
X212424000Y-116224000D01*
X214126000Y-116224000D01*
X214126000Y-117926000D01*
X214126000Y-117926000D01*
G37*
G36*
X167376000Y-117901000D02*
G01*
X165674000Y-117901000D01*
X165674000Y-116199000D01*
X167376000Y-116199000D01*
X167376000Y-117901000D01*
X167376000Y-117901000D01*
G37*
G36*
X142376000Y-117901000D02*
G01*
X140674000Y-117901000D01*
X140674000Y-116199000D01*
X142376000Y-116199000D01*
X142376000Y-117901000D01*
X142376000Y-117901000D01*
G37*
G36*
X224671474Y-111833684D02*
G01*
X224852542Y-111908685D01*
X225043623Y-111987833D01*
X225224181Y-112108478D01*
X225245788Y-112120027D01*
X225269237Y-112127140D01*
X225293623Y-112129542D01*
X225318009Y-112127140D01*
X225341458Y-112120027D01*
X225363062Y-112108480D01*
X225431377Y-112062833D01*
X225612444Y-111987833D01*
X225803526Y-111908684D01*
X226198594Y-111830100D01*
X226601406Y-111830100D01*
X226996474Y-111908684D01*
X227187556Y-111987833D01*
X227368623Y-112062833D01*
X227703548Y-112286623D01*
X227988377Y-112571452D01*
X228212167Y-112906377D01*
X228294900Y-113106114D01*
X228306451Y-113127725D01*
X228321996Y-113146666D01*
X228340938Y-113162212D01*
X228362549Y-113173763D01*
X228385998Y-113180876D01*
X228410384Y-113183278D01*
X228434770Y-113180876D01*
X228458219Y-113173763D01*
X228479830Y-113162212D01*
X228498761Y-113146676D01*
X228564709Y-113080728D01*
X228716374Y-112979389D01*
X228884896Y-112909585D01*
X229063797Y-112874000D01*
X229246203Y-112874000D01*
X229425104Y-112909585D01*
X229593626Y-112979389D01*
X229745291Y-113080728D01*
X229874272Y-113209709D01*
X229975611Y-113361374D01*
X230045415Y-113529896D01*
X230081000Y-113708797D01*
X230081000Y-113891203D01*
X230045415Y-114070104D01*
X229975611Y-114238626D01*
X229874272Y-114390291D01*
X229745291Y-114519272D01*
X229593626Y-114620611D01*
X229425104Y-114690415D01*
X229246203Y-114726000D01*
X229063797Y-114726000D01*
X228884896Y-114690415D01*
X228716374Y-114620611D01*
X228564709Y-114519272D01*
X228542695Y-114497258D01*
X228523764Y-114481722D01*
X228502153Y-114470171D01*
X228478704Y-114463058D01*
X228454318Y-114460656D01*
X228429932Y-114463058D01*
X228406483Y-114470171D01*
X228384872Y-114481722D01*
X228365930Y-114497267D01*
X228350385Y-114516209D01*
X228338835Y-114537819D01*
X228212167Y-114843623D01*
X227988377Y-115178548D01*
X227703548Y-115463377D01*
X227368623Y-115687167D01*
X227237895Y-115741316D01*
X226996474Y-115841316D01*
X226601406Y-115919900D01*
X226198594Y-115919900D01*
X225803526Y-115841316D01*
X225562105Y-115741316D01*
X225431377Y-115687167D01*
X225250819Y-115566522D01*
X225229212Y-115554973D01*
X225205763Y-115547860D01*
X225181377Y-115545458D01*
X225156991Y-115547860D01*
X225133542Y-115554973D01*
X225111938Y-115566520D01*
X225043623Y-115612167D01*
X224889474Y-115676017D01*
X224671474Y-115766316D01*
X224276406Y-115844900D01*
X223873594Y-115844900D01*
X223478526Y-115766316D01*
X223260526Y-115676017D01*
X223106377Y-115612167D01*
X222771452Y-115388377D01*
X222486623Y-115103548D01*
X222262833Y-114768623D01*
X222180098Y-114568883D01*
X222168549Y-114547275D01*
X222153004Y-114528334D01*
X222134062Y-114512788D01*
X222112451Y-114501237D01*
X222089002Y-114494124D01*
X222064616Y-114491722D01*
X222040230Y-114494124D01*
X222016781Y-114501237D01*
X221995170Y-114512788D01*
X221976239Y-114528324D01*
X221910291Y-114594272D01*
X221758626Y-114695611D01*
X221590104Y-114765415D01*
X221411203Y-114801000D01*
X221228797Y-114801000D01*
X221049896Y-114765415D01*
X220881374Y-114695611D01*
X220729709Y-114594272D01*
X220600728Y-114465291D01*
X220499389Y-114313626D01*
X220429585Y-114145104D01*
X220394000Y-113966203D01*
X220394000Y-113783797D01*
X220429585Y-113604896D01*
X220499389Y-113436374D01*
X220600728Y-113284709D01*
X220729709Y-113155728D01*
X220881374Y-113054389D01*
X221049896Y-112984585D01*
X221228797Y-112949000D01*
X221411203Y-112949000D01*
X221590104Y-112984585D01*
X221758626Y-113054389D01*
X221910291Y-113155728D01*
X221932305Y-113177742D01*
X221951236Y-113193278D01*
X221972847Y-113204829D01*
X221996296Y-113211942D01*
X222020682Y-113214344D01*
X222045068Y-113211942D01*
X222068517Y-113204829D01*
X222090128Y-113193278D01*
X222109070Y-113177733D01*
X222124615Y-113158791D01*
X222136166Y-113137180D01*
X222137189Y-113134710D01*
X222262833Y-112831377D01*
X222486623Y-112496452D01*
X222771452Y-112211623D01*
X223106377Y-111987833D01*
X223297458Y-111908685D01*
X223478526Y-111833684D01*
X223873594Y-111755100D01*
X224276406Y-111755100D01*
X224671474Y-111833684D01*
X224671474Y-111833684D01*
G37*
G36*
X79421474Y-111758684D02*
G01*
X79602542Y-111833685D01*
X79793623Y-111912833D01*
X80024181Y-112066887D01*
X80045788Y-112078436D01*
X80069237Y-112085549D01*
X80093623Y-112087951D01*
X80118009Y-112085549D01*
X80141458Y-112078436D01*
X80163061Y-112066889D01*
X80281377Y-111987833D01*
X80472458Y-111908685D01*
X80653526Y-111833684D01*
X81048594Y-111755100D01*
X81451406Y-111755100D01*
X81846474Y-111833684D01*
X82027542Y-111908685D01*
X82218623Y-111987833D01*
X82553548Y-112211623D01*
X82838377Y-112496452D01*
X83062167Y-112831377D01*
X83094562Y-112909586D01*
X83115611Y-112960403D01*
X83127162Y-112982014D01*
X83142707Y-113000956D01*
X83161649Y-113016501D01*
X83183260Y-113028052D01*
X83206709Y-113035165D01*
X83231095Y-113037567D01*
X83255481Y-113035165D01*
X83278930Y-113028052D01*
X83300541Y-113016501D01*
X83309097Y-113009479D01*
X83314705Y-113005732D01*
X83314709Y-113005728D01*
X83466374Y-112904389D01*
X83634896Y-112834585D01*
X83813797Y-112799000D01*
X83996203Y-112799000D01*
X84175104Y-112834585D01*
X84343626Y-112904389D01*
X84495291Y-113005728D01*
X84624272Y-113134709D01*
X84725611Y-113286374D01*
X84795415Y-113454896D01*
X84831000Y-113633797D01*
X84831000Y-113816203D01*
X84795415Y-113995104D01*
X84725611Y-114163626D01*
X84624272Y-114315291D01*
X84495291Y-114444272D01*
X84343626Y-114545611D01*
X84175104Y-114615415D01*
X83996203Y-114651000D01*
X83813797Y-114651000D01*
X83634896Y-114615415D01*
X83466374Y-114545611D01*
X83348773Y-114467033D01*
X83327170Y-114455486D01*
X83303721Y-114448373D01*
X83279335Y-114445971D01*
X83254949Y-114448373D01*
X83231500Y-114455486D01*
X83209889Y-114467037D01*
X83190947Y-114482582D01*
X83175402Y-114501524D01*
X83163851Y-114523135D01*
X83157768Y-114537820D01*
X83062167Y-114768623D01*
X82838377Y-115103548D01*
X82553548Y-115388377D01*
X82218623Y-115612167D01*
X82064474Y-115676017D01*
X81846474Y-115766316D01*
X81451406Y-115844900D01*
X81048594Y-115844900D01*
X80653526Y-115766316D01*
X80435526Y-115676017D01*
X80281377Y-115612167D01*
X80050819Y-115458113D01*
X80029212Y-115446564D01*
X80005763Y-115439451D01*
X79981377Y-115437049D01*
X79956991Y-115439451D01*
X79933542Y-115446564D01*
X79911939Y-115458111D01*
X79793623Y-115537167D01*
X79672912Y-115587167D01*
X79421474Y-115691316D01*
X79026406Y-115769900D01*
X78623594Y-115769900D01*
X78228526Y-115691316D01*
X77977088Y-115587167D01*
X77856377Y-115537167D01*
X77521452Y-115313377D01*
X77236623Y-115028548D01*
X77012833Y-114693623D01*
X76959389Y-114564597D01*
X76947838Y-114542986D01*
X76932293Y-114524044D01*
X76913351Y-114508499D01*
X76891740Y-114496948D01*
X76868291Y-114489835D01*
X76843905Y-114487433D01*
X76819519Y-114489835D01*
X76796070Y-114496948D01*
X76774459Y-114508499D01*
X76765903Y-114515521D01*
X76760295Y-114519268D01*
X76760291Y-114519272D01*
X76608626Y-114620611D01*
X76440104Y-114690415D01*
X76261203Y-114726000D01*
X76078797Y-114726000D01*
X75899896Y-114690415D01*
X75731374Y-114620611D01*
X75579709Y-114519272D01*
X75450728Y-114390291D01*
X75349389Y-114238626D01*
X75279585Y-114070104D01*
X75244000Y-113891203D01*
X75244000Y-113708797D01*
X75279585Y-113529896D01*
X75349389Y-113361374D01*
X75450728Y-113209709D01*
X75579709Y-113080728D01*
X75731374Y-112979389D01*
X75899896Y-112909585D01*
X76078797Y-112874000D01*
X76261203Y-112874000D01*
X76440104Y-112909585D01*
X76608626Y-112979389D01*
X76726227Y-113057967D01*
X76747830Y-113069514D01*
X76771279Y-113076627D01*
X76795665Y-113079029D01*
X76820051Y-113076627D01*
X76843500Y-113069514D01*
X76865111Y-113057963D01*
X76884053Y-113042418D01*
X76899598Y-113023476D01*
X76911149Y-113001865D01*
X76949372Y-112909586D01*
X77012833Y-112756377D01*
X77236623Y-112421452D01*
X77521452Y-112136623D01*
X77856377Y-111912833D01*
X78047458Y-111833685D01*
X78228526Y-111758684D01*
X78623594Y-111680100D01*
X79026406Y-111680100D01*
X79421474Y-111758684D01*
X79421474Y-111758684D01*
G37*
G36*
X100846474Y-111833684D02*
G01*
X101027542Y-111908685D01*
X101218623Y-111987833D01*
X101553548Y-112211623D01*
X101838377Y-112496452D01*
X102062167Y-112831377D01*
X102094562Y-112909586D01*
X102216316Y-113203526D01*
X102294900Y-113598594D01*
X102294900Y-114001406D01*
X102216316Y-114396474D01*
X102154541Y-114545611D01*
X102062167Y-114768623D01*
X101838377Y-115103548D01*
X101553548Y-115388377D01*
X101218623Y-115612167D01*
X101064474Y-115676017D01*
X100846474Y-115766316D01*
X100451406Y-115844900D01*
X100048594Y-115844900D01*
X99653526Y-115766316D01*
X99435526Y-115676017D01*
X99281377Y-115612167D01*
X98946452Y-115388377D01*
X98661623Y-115103548D01*
X98437833Y-114768623D01*
X98345459Y-114545611D01*
X98283684Y-114396474D01*
X98205100Y-114001406D01*
X98205100Y-113598594D01*
X98283684Y-113203526D01*
X98405438Y-112909586D01*
X98437833Y-112831377D01*
X98661623Y-112496452D01*
X98946452Y-112211623D01*
X99281377Y-111987833D01*
X99472458Y-111908685D01*
X99653526Y-111833684D01*
X100048594Y-111755100D01*
X100451406Y-111755100D01*
X100846474Y-111833684D01*
X100846474Y-111833684D01*
G37*
G36*
X134196474Y-111833684D02*
G01*
X134377542Y-111908685D01*
X134568623Y-111987833D01*
X134903548Y-112211623D01*
X135188377Y-112496452D01*
X135412167Y-112831377D01*
X135444562Y-112909586D01*
X135566316Y-113203526D01*
X135644900Y-113598594D01*
X135644900Y-114001406D01*
X135566316Y-114396474D01*
X135504541Y-114545611D01*
X135412167Y-114768623D01*
X135188377Y-115103548D01*
X134903548Y-115388377D01*
X134568623Y-115612167D01*
X134414474Y-115676017D01*
X134196474Y-115766316D01*
X133801406Y-115844900D01*
X133398594Y-115844900D01*
X133003526Y-115766316D01*
X132785526Y-115676017D01*
X132631377Y-115612167D01*
X132296452Y-115388377D01*
X132011623Y-115103548D01*
X131787833Y-114768623D01*
X131695459Y-114545611D01*
X131633684Y-114396474D01*
X131555100Y-114001406D01*
X131555100Y-113598594D01*
X131633684Y-113203526D01*
X131755438Y-112909586D01*
X131787833Y-112831377D01*
X132011623Y-112496452D01*
X132296452Y-112211623D01*
X132631377Y-111987833D01*
X132822458Y-111908685D01*
X133003526Y-111833684D01*
X133398594Y-111755100D01*
X133801406Y-111755100D01*
X134196474Y-111833684D01*
X134196474Y-111833684D01*
G37*
G36*
X174696474Y-111833684D02*
G01*
X174877542Y-111908685D01*
X175068623Y-111987833D01*
X175403548Y-112211623D01*
X175688377Y-112496452D01*
X175912167Y-112831377D01*
X175944562Y-112909586D01*
X176066316Y-113203526D01*
X176144900Y-113598594D01*
X176144900Y-114001406D01*
X176066316Y-114396474D01*
X176004541Y-114545611D01*
X175912167Y-114768623D01*
X175688377Y-115103548D01*
X175403548Y-115388377D01*
X175068623Y-115612167D01*
X174914474Y-115676017D01*
X174696474Y-115766316D01*
X174301406Y-115844900D01*
X173898594Y-115844900D01*
X173503526Y-115766316D01*
X173285526Y-115676017D01*
X173131377Y-115612167D01*
X172796452Y-115388377D01*
X172511623Y-115103548D01*
X172287833Y-114768623D01*
X172195459Y-114545611D01*
X172133684Y-114396474D01*
X172055100Y-114001406D01*
X172055100Y-113598594D01*
X172133684Y-113203526D01*
X172255438Y-112909586D01*
X172287833Y-112831377D01*
X172511623Y-112496452D01*
X172796452Y-112211623D01*
X173131377Y-111987833D01*
X173322458Y-111908685D01*
X173503526Y-111833684D01*
X173898594Y-111755100D01*
X174301406Y-111755100D01*
X174696474Y-111833684D01*
X174696474Y-111833684D01*
G37*
G36*
X205621474Y-111833684D02*
G01*
X205802542Y-111908685D01*
X205993623Y-111987833D01*
X206328548Y-112211623D01*
X206613377Y-112496452D01*
X206837167Y-112831377D01*
X206869562Y-112909586D01*
X206991316Y-113203526D01*
X207069900Y-113598594D01*
X207069900Y-114001406D01*
X206991316Y-114396474D01*
X206929541Y-114545611D01*
X206837167Y-114768623D01*
X206613377Y-115103548D01*
X206328548Y-115388377D01*
X205993623Y-115612167D01*
X205839474Y-115676017D01*
X205621474Y-115766316D01*
X205226406Y-115844900D01*
X204823594Y-115844900D01*
X204428526Y-115766316D01*
X204210526Y-115676017D01*
X204056377Y-115612167D01*
X203721452Y-115388377D01*
X203436623Y-115103548D01*
X203212833Y-114768623D01*
X203120459Y-114545611D01*
X203058684Y-114396474D01*
X202980100Y-114001406D01*
X202980100Y-113598594D01*
X203058684Y-113203526D01*
X203180438Y-112909586D01*
X203212833Y-112831377D01*
X203436623Y-112496452D01*
X203721452Y-112211623D01*
X204056377Y-111987833D01*
X204247458Y-111908685D01*
X204428526Y-111833684D01*
X204823594Y-111755100D01*
X205226406Y-111755100D01*
X205621474Y-111833684D01*
X205621474Y-111833684D01*
G37*
G36*
X153196474Y-111808684D02*
G01*
X153414474Y-111898983D01*
X153568623Y-111962833D01*
X153903548Y-112186623D01*
X154188377Y-112471452D01*
X154412167Y-112806377D01*
X154454917Y-112909585D01*
X154566316Y-113178526D01*
X154644900Y-113573594D01*
X154644900Y-113976406D01*
X154566316Y-114371474D01*
X154506365Y-114516209D01*
X154412167Y-114743623D01*
X154188377Y-115078548D01*
X153903548Y-115363377D01*
X153568623Y-115587167D01*
X153508267Y-115612167D01*
X153196474Y-115741316D01*
X152801406Y-115819900D01*
X152398594Y-115819900D01*
X152003526Y-115741316D01*
X151691733Y-115612167D01*
X151631377Y-115587167D01*
X151296452Y-115363377D01*
X151011623Y-115078548D01*
X150787833Y-114743623D01*
X150693635Y-114516209D01*
X150633684Y-114371474D01*
X150555100Y-113976406D01*
X150555100Y-113573594D01*
X150633684Y-113178526D01*
X150745083Y-112909585D01*
X150787833Y-112806377D01*
X151011623Y-112471452D01*
X151296452Y-112186623D01*
X151631377Y-111962833D01*
X151785526Y-111898983D01*
X152003526Y-111808684D01*
X152398594Y-111730100D01*
X152801406Y-111730100D01*
X153196474Y-111808684D01*
X153196474Y-111808684D01*
G37*
G36*
X231750104Y-112984585D02*
G01*
X231918626Y-113054389D01*
X232070291Y-113155728D01*
X232199272Y-113284709D01*
X232300611Y-113436374D01*
X232370415Y-113604896D01*
X232406000Y-113783797D01*
X232406000Y-113966203D01*
X232370415Y-114145104D01*
X232300611Y-114313626D01*
X232199272Y-114465291D01*
X232070291Y-114594272D01*
X231918626Y-114695611D01*
X231750104Y-114765415D01*
X231571203Y-114801000D01*
X231388797Y-114801000D01*
X231209896Y-114765415D01*
X231041374Y-114695611D01*
X230889709Y-114594272D01*
X230760728Y-114465291D01*
X230659389Y-114313626D01*
X230589585Y-114145104D01*
X230554000Y-113966203D01*
X230554000Y-113783797D01*
X230589585Y-113604896D01*
X230659389Y-113436374D01*
X230760728Y-113284709D01*
X230889709Y-113155728D01*
X231041374Y-113054389D01*
X231209896Y-112984585D01*
X231388797Y-112949000D01*
X231571203Y-112949000D01*
X231750104Y-112984585D01*
X231750104Y-112984585D01*
G37*
G36*
X138950104Y-112909585D02*
G01*
X139118626Y-112979389D01*
X139270291Y-113080728D01*
X139399272Y-113209709D01*
X139500611Y-113361374D01*
X139570415Y-113529896D01*
X139606000Y-113708797D01*
X139606000Y-113891203D01*
X139570415Y-114070104D01*
X139500611Y-114238626D01*
X139399272Y-114390291D01*
X139270291Y-114519272D01*
X139118626Y-114620611D01*
X138950104Y-114690415D01*
X138771203Y-114726000D01*
X138588797Y-114726000D01*
X138409896Y-114690415D01*
X138241374Y-114620611D01*
X138089709Y-114519272D01*
X137960728Y-114390291D01*
X137859389Y-114238626D01*
X137789585Y-114070104D01*
X137754000Y-113891203D01*
X137754000Y-113708797D01*
X137789585Y-113529896D01*
X137859389Y-113361374D01*
X137960728Y-113209709D01*
X138089709Y-113080728D01*
X138241374Y-112979389D01*
X138409896Y-112909585D01*
X138588797Y-112874000D01*
X138771203Y-112874000D01*
X138950104Y-112909585D01*
X138950104Y-112909585D01*
G37*
G36*
X95440104Y-112909585D02*
G01*
X95608626Y-112979389D01*
X95760291Y-113080728D01*
X95889272Y-113209709D01*
X95990611Y-113361374D01*
X96060415Y-113529896D01*
X96096000Y-113708797D01*
X96096000Y-113891203D01*
X96060415Y-114070104D01*
X95990611Y-114238626D01*
X95889272Y-114390291D01*
X95760291Y-114519272D01*
X95608626Y-114620611D01*
X95440104Y-114690415D01*
X95261203Y-114726000D01*
X95078797Y-114726000D01*
X94899896Y-114690415D01*
X94731374Y-114620611D01*
X94579709Y-114519272D01*
X94450728Y-114390291D01*
X94349389Y-114238626D01*
X94279585Y-114070104D01*
X94244000Y-113891203D01*
X94244000Y-113708797D01*
X94279585Y-113529896D01*
X94349389Y-113361374D01*
X94450728Y-113209709D01*
X94579709Y-113080728D01*
X94731374Y-112979389D01*
X94899896Y-112909585D01*
X95078797Y-112874000D01*
X95261203Y-112874000D01*
X95440104Y-112909585D01*
X95440104Y-112909585D01*
G37*
G36*
X179450104Y-112909585D02*
G01*
X179618626Y-112979389D01*
X179770291Y-113080728D01*
X179899272Y-113209709D01*
X180000611Y-113361374D01*
X180070415Y-113529896D01*
X180106000Y-113708797D01*
X180106000Y-113891203D01*
X180070415Y-114070104D01*
X180000611Y-114238626D01*
X179899272Y-114390291D01*
X179770291Y-114519272D01*
X179618626Y-114620611D01*
X179450104Y-114690415D01*
X179271203Y-114726000D01*
X179088797Y-114726000D01*
X178909896Y-114690415D01*
X178741374Y-114620611D01*
X178589709Y-114519272D01*
X178460728Y-114390291D01*
X178359389Y-114238626D01*
X178289585Y-114070104D01*
X178254000Y-113891203D01*
X178254000Y-113708797D01*
X178289585Y-113529896D01*
X178359389Y-113361374D01*
X178460728Y-113209709D01*
X178589709Y-113080728D01*
X178741374Y-112979389D01*
X178909896Y-112909585D01*
X179088797Y-112874000D01*
X179271203Y-112874000D01*
X179450104Y-112909585D01*
X179450104Y-112909585D01*
G37*
G36*
X128790104Y-112909585D02*
G01*
X128958626Y-112979389D01*
X129110291Y-113080728D01*
X129239272Y-113209709D01*
X129340611Y-113361374D01*
X129410415Y-113529896D01*
X129446000Y-113708797D01*
X129446000Y-113891203D01*
X129410415Y-114070104D01*
X129340611Y-114238626D01*
X129239272Y-114390291D01*
X129110291Y-114519272D01*
X128958626Y-114620611D01*
X128790104Y-114690415D01*
X128611203Y-114726000D01*
X128428797Y-114726000D01*
X128249896Y-114690415D01*
X128081374Y-114620611D01*
X127929709Y-114519272D01*
X127800728Y-114390291D01*
X127699389Y-114238626D01*
X127629585Y-114070104D01*
X127594000Y-113891203D01*
X127594000Y-113708797D01*
X127629585Y-113529896D01*
X127699389Y-113361374D01*
X127800728Y-113209709D01*
X127929709Y-113080728D01*
X128081374Y-112979389D01*
X128249896Y-112909585D01*
X128428797Y-112874000D01*
X128611203Y-112874000D01*
X128790104Y-112909585D01*
X128790104Y-112909585D01*
G37*
G36*
X86600104Y-112909585D02*
G01*
X86768626Y-112979389D01*
X86920291Y-113080728D01*
X87049272Y-113209709D01*
X87150611Y-113361374D01*
X87220415Y-113529896D01*
X87256000Y-113708797D01*
X87256000Y-113891203D01*
X87220415Y-114070104D01*
X87150611Y-114238626D01*
X87049272Y-114390291D01*
X86920291Y-114519272D01*
X86768626Y-114620611D01*
X86600104Y-114690415D01*
X86421203Y-114726000D01*
X86238797Y-114726000D01*
X86059896Y-114690415D01*
X85891374Y-114620611D01*
X85739709Y-114519272D01*
X85610728Y-114390291D01*
X85509389Y-114238626D01*
X85439585Y-114070104D01*
X85404000Y-113891203D01*
X85404000Y-113708797D01*
X85439585Y-113529896D01*
X85509389Y-113361374D01*
X85610728Y-113209709D01*
X85739709Y-113080728D01*
X85891374Y-112979389D01*
X86059896Y-112909585D01*
X86238797Y-112874000D01*
X86421203Y-112874000D01*
X86600104Y-112909585D01*
X86600104Y-112909585D01*
G37*
G36*
X219265104Y-112909585D02*
G01*
X219433626Y-112979389D01*
X219585291Y-113080728D01*
X219714272Y-113209709D01*
X219815611Y-113361374D01*
X219885415Y-113529896D01*
X219921000Y-113708797D01*
X219921000Y-113891203D01*
X219885415Y-114070104D01*
X219815611Y-114238626D01*
X219714272Y-114390291D01*
X219585291Y-114519272D01*
X219433626Y-114620611D01*
X219265104Y-114690415D01*
X219086203Y-114726000D01*
X218903797Y-114726000D01*
X218724896Y-114690415D01*
X218556374Y-114620611D01*
X218404709Y-114519272D01*
X218275728Y-114390291D01*
X218174389Y-114238626D01*
X218104585Y-114070104D01*
X218069000Y-113891203D01*
X218069000Y-113708797D01*
X218104585Y-113529896D01*
X218174389Y-113361374D01*
X218275728Y-113209709D01*
X218404709Y-113080728D01*
X218556374Y-112979389D01*
X218724896Y-112909585D01*
X218903797Y-112874000D01*
X219086203Y-112874000D01*
X219265104Y-112909585D01*
X219265104Y-112909585D01*
G37*
G36*
X210375104Y-112909585D02*
G01*
X210543626Y-112979389D01*
X210695291Y-113080728D01*
X210824272Y-113209709D01*
X210925611Y-113361374D01*
X210995415Y-113529896D01*
X211031000Y-113708797D01*
X211031000Y-113891203D01*
X210995415Y-114070104D01*
X210925611Y-114238626D01*
X210824272Y-114390291D01*
X210695291Y-114519272D01*
X210543626Y-114620611D01*
X210375104Y-114690415D01*
X210196203Y-114726000D01*
X210013797Y-114726000D01*
X209834896Y-114690415D01*
X209666374Y-114620611D01*
X209514709Y-114519272D01*
X209385728Y-114390291D01*
X209284389Y-114238626D01*
X209214585Y-114070104D01*
X209179000Y-113891203D01*
X209179000Y-113708797D01*
X209214585Y-113529896D01*
X209284389Y-113361374D01*
X209385728Y-113209709D01*
X209514709Y-113080728D01*
X209666374Y-112979389D01*
X209834896Y-112909585D01*
X210013797Y-112874000D01*
X210196203Y-112874000D01*
X210375104Y-112909585D01*
X210375104Y-112909585D01*
G37*
G36*
X105600104Y-112909585D02*
G01*
X105768626Y-112979389D01*
X105920291Y-113080728D01*
X106049272Y-113209709D01*
X106150611Y-113361374D01*
X106220415Y-113529896D01*
X106256000Y-113708797D01*
X106256000Y-113891203D01*
X106220415Y-114070104D01*
X106150611Y-114238626D01*
X106049272Y-114390291D01*
X105920291Y-114519272D01*
X105768626Y-114620611D01*
X105600104Y-114690415D01*
X105421203Y-114726000D01*
X105238797Y-114726000D01*
X105059896Y-114690415D01*
X104891374Y-114620611D01*
X104739709Y-114519272D01*
X104610728Y-114390291D01*
X104509389Y-114238626D01*
X104439585Y-114070104D01*
X104404000Y-113891203D01*
X104404000Y-113708797D01*
X104439585Y-113529896D01*
X104509389Y-113361374D01*
X104610728Y-113209709D01*
X104739709Y-113080728D01*
X104891374Y-112979389D01*
X105059896Y-112909585D01*
X105238797Y-112874000D01*
X105421203Y-112874000D01*
X105600104Y-112909585D01*
X105600104Y-112909585D01*
G37*
G36*
X200215104Y-112909585D02*
G01*
X200383626Y-112979389D01*
X200535291Y-113080728D01*
X200664272Y-113209709D01*
X200765611Y-113361374D01*
X200835415Y-113529896D01*
X200871000Y-113708797D01*
X200871000Y-113891203D01*
X200835415Y-114070104D01*
X200765611Y-114238626D01*
X200664272Y-114390291D01*
X200535291Y-114519272D01*
X200383626Y-114620611D01*
X200215104Y-114690415D01*
X200036203Y-114726000D01*
X199853797Y-114726000D01*
X199674896Y-114690415D01*
X199506374Y-114620611D01*
X199354709Y-114519272D01*
X199225728Y-114390291D01*
X199124389Y-114238626D01*
X199054585Y-114070104D01*
X199019000Y-113891203D01*
X199019000Y-113708797D01*
X199054585Y-113529896D01*
X199124389Y-113361374D01*
X199225728Y-113209709D01*
X199354709Y-113080728D01*
X199506374Y-112979389D01*
X199674896Y-112909585D01*
X199853797Y-112874000D01*
X200036203Y-112874000D01*
X200215104Y-112909585D01*
X200215104Y-112909585D01*
G37*
G36*
X169290104Y-112909585D02*
G01*
X169458626Y-112979389D01*
X169610291Y-113080728D01*
X169739272Y-113209709D01*
X169840611Y-113361374D01*
X169910415Y-113529896D01*
X169946000Y-113708797D01*
X169946000Y-113891203D01*
X169910415Y-114070104D01*
X169840611Y-114238626D01*
X169739272Y-114390291D01*
X169610291Y-114519272D01*
X169458626Y-114620611D01*
X169290104Y-114690415D01*
X169111203Y-114726000D01*
X168928797Y-114726000D01*
X168749896Y-114690415D01*
X168581374Y-114620611D01*
X168429709Y-114519272D01*
X168300728Y-114390291D01*
X168199389Y-114238626D01*
X168129585Y-114070104D01*
X168094000Y-113891203D01*
X168094000Y-113708797D01*
X168129585Y-113529896D01*
X168199389Y-113361374D01*
X168300728Y-113209709D01*
X168429709Y-113080728D01*
X168581374Y-112979389D01*
X168749896Y-112909585D01*
X168928797Y-112874000D01*
X169111203Y-112874000D01*
X169290104Y-112909585D01*
X169290104Y-112909585D01*
G37*
G36*
X147790104Y-112884585D02*
G01*
X147958626Y-112954389D01*
X148110291Y-113055728D01*
X148239272Y-113184709D01*
X148340611Y-113336374D01*
X148410415Y-113504896D01*
X148446000Y-113683797D01*
X148446000Y-113866203D01*
X148410415Y-114045104D01*
X148340611Y-114213626D01*
X148239272Y-114365291D01*
X148110291Y-114494272D01*
X147958626Y-114595611D01*
X147790104Y-114665415D01*
X147611203Y-114701000D01*
X147428797Y-114701000D01*
X147249896Y-114665415D01*
X147081374Y-114595611D01*
X146929709Y-114494272D01*
X146800728Y-114365291D01*
X146699389Y-114213626D01*
X146629585Y-114045104D01*
X146594000Y-113866203D01*
X146594000Y-113683797D01*
X146629585Y-113504896D01*
X146699389Y-113336374D01*
X146800728Y-113184709D01*
X146929709Y-113055728D01*
X147081374Y-112954389D01*
X147249896Y-112884585D01*
X147428797Y-112849000D01*
X147611203Y-112849000D01*
X147790104Y-112884585D01*
X147790104Y-112884585D01*
G37*
G36*
X157950104Y-112884585D02*
G01*
X158118626Y-112954389D01*
X158270291Y-113055728D01*
X158399272Y-113184709D01*
X158500611Y-113336374D01*
X158570415Y-113504896D01*
X158606000Y-113683797D01*
X158606000Y-113866203D01*
X158570415Y-114045104D01*
X158500611Y-114213626D01*
X158399272Y-114365291D01*
X158270291Y-114494272D01*
X158118626Y-114595611D01*
X157950104Y-114665415D01*
X157771203Y-114701000D01*
X157588797Y-114701000D01*
X157409896Y-114665415D01*
X157241374Y-114595611D01*
X157089709Y-114494272D01*
X156960728Y-114365291D01*
X156859389Y-114213626D01*
X156789585Y-114045104D01*
X156754000Y-113866203D01*
X156754000Y-113683797D01*
X156789585Y-113504896D01*
X156859389Y-113336374D01*
X156960728Y-113184709D01*
X157089709Y-113055728D01*
X157241374Y-112954389D01*
X157409896Y-112884585D01*
X157588797Y-112849000D01*
X157771203Y-112849000D01*
X157950104Y-112884585D01*
X157950104Y-112884585D01*
G37*
G36*
X74015104Y-112834585D02*
G01*
X74183626Y-112904389D01*
X74335291Y-113005728D01*
X74464272Y-113134709D01*
X74565611Y-113286374D01*
X74635415Y-113454896D01*
X74671000Y-113633797D01*
X74671000Y-113816203D01*
X74635415Y-113995104D01*
X74565611Y-114163626D01*
X74464272Y-114315291D01*
X74335291Y-114444272D01*
X74183626Y-114545611D01*
X74015104Y-114615415D01*
X73836203Y-114651000D01*
X73653797Y-114651000D01*
X73474896Y-114615415D01*
X73306374Y-114545611D01*
X73154709Y-114444272D01*
X73025728Y-114315291D01*
X72924389Y-114163626D01*
X72854585Y-113995104D01*
X72819000Y-113816203D01*
X72819000Y-113633797D01*
X72854585Y-113454896D01*
X72924389Y-113286374D01*
X73025728Y-113134709D01*
X73154709Y-113005728D01*
X73306374Y-112904389D01*
X73474896Y-112834585D01*
X73653797Y-112799000D01*
X73836203Y-112799000D01*
X74015104Y-112834585D01*
X74015104Y-112834585D01*
G37*
G36*
X108473228Y-108481703D02*
G01*
X108628100Y-108545853D01*
X108767481Y-108638985D01*
X108886015Y-108757519D01*
X108979147Y-108896900D01*
X109043297Y-109051772D01*
X109076000Y-109216184D01*
X109076000Y-109383816D01*
X109043297Y-109548228D01*
X108979147Y-109703100D01*
X108886015Y-109842481D01*
X108767481Y-109961015D01*
X108628100Y-110054147D01*
X108473228Y-110118297D01*
X108308816Y-110151000D01*
X108141184Y-110151000D01*
X107976772Y-110118297D01*
X107821900Y-110054147D01*
X107682519Y-109961015D01*
X107563985Y-109842481D01*
X107470853Y-109703100D01*
X107406703Y-109548228D01*
X107374000Y-109383816D01*
X107374000Y-109216184D01*
X107406703Y-109051772D01*
X107470853Y-108896900D01*
X107563985Y-108757519D01*
X107682519Y-108638985D01*
X107821900Y-108545853D01*
X107976772Y-108481703D01*
X108141184Y-108449000D01*
X108308816Y-108449000D01*
X108473228Y-108481703D01*
X108473228Y-108481703D01*
G37*
G36*
X89548228Y-108481703D02*
G01*
X89703100Y-108545853D01*
X89842481Y-108638985D01*
X89961015Y-108757519D01*
X90054147Y-108896900D01*
X90118297Y-109051772D01*
X90151000Y-109216184D01*
X90151000Y-109383816D01*
X90118297Y-109548228D01*
X90054147Y-109703100D01*
X89961015Y-109842481D01*
X89842481Y-109961015D01*
X89703100Y-110054147D01*
X89548228Y-110118297D01*
X89383816Y-110151000D01*
X89216184Y-110151000D01*
X89051772Y-110118297D01*
X88896900Y-110054147D01*
X88757519Y-109961015D01*
X88638985Y-109842481D01*
X88545853Y-109703100D01*
X88481703Y-109548228D01*
X88449000Y-109383816D01*
X88449000Y-109216184D01*
X88481703Y-109051772D01*
X88545853Y-108896900D01*
X88638985Y-108757519D01*
X88757519Y-108638985D01*
X88896900Y-108545853D01*
X89051772Y-108481703D01*
X89216184Y-108449000D01*
X89383816Y-108449000D01*
X89548228Y-108481703D01*
X89548228Y-108481703D01*
G37*
G36*
X213523228Y-108456703D02*
G01*
X213678100Y-108520853D01*
X213817481Y-108613985D01*
X213936015Y-108732519D01*
X214029147Y-108871900D01*
X214093297Y-109026772D01*
X214126000Y-109191184D01*
X214126000Y-109358816D01*
X214093297Y-109523228D01*
X214029147Y-109678100D01*
X213936015Y-109817481D01*
X213817481Y-109936015D01*
X213678100Y-110029147D01*
X213523228Y-110093297D01*
X213358816Y-110126000D01*
X213191184Y-110126000D01*
X213026772Y-110093297D01*
X212871900Y-110029147D01*
X212732519Y-109936015D01*
X212613985Y-109817481D01*
X212520853Y-109678100D01*
X212456703Y-109523228D01*
X212424000Y-109358816D01*
X212424000Y-109191184D01*
X212456703Y-109026772D01*
X212520853Y-108871900D01*
X212613985Y-108732519D01*
X212732519Y-108613985D01*
X212871900Y-108520853D01*
X213026772Y-108456703D01*
X213191184Y-108424000D01*
X213358816Y-108424000D01*
X213523228Y-108456703D01*
X213523228Y-108456703D01*
G37*
G36*
X215923228Y-108456703D02*
G01*
X216078100Y-108520853D01*
X216217481Y-108613985D01*
X216336015Y-108732519D01*
X216429147Y-108871900D01*
X216493297Y-109026772D01*
X216526000Y-109191184D01*
X216526000Y-109358816D01*
X216493297Y-109523228D01*
X216429147Y-109678100D01*
X216336015Y-109817481D01*
X216217481Y-109936015D01*
X216078100Y-110029147D01*
X215923228Y-110093297D01*
X215758816Y-110126000D01*
X215591184Y-110126000D01*
X215426772Y-110093297D01*
X215271900Y-110029147D01*
X215132519Y-109936015D01*
X215013985Y-109817481D01*
X214920853Y-109678100D01*
X214856703Y-109523228D01*
X214824000Y-109358816D01*
X214824000Y-109191184D01*
X214856703Y-109026772D01*
X214920853Y-108871900D01*
X215013985Y-108732519D01*
X215132519Y-108613985D01*
X215271900Y-108520853D01*
X215426772Y-108456703D01*
X215591184Y-108424000D01*
X215758816Y-108424000D01*
X215923228Y-108456703D01*
X215923228Y-108456703D01*
G37*
G36*
X166773228Y-108431703D02*
G01*
X166928100Y-108495853D01*
X167067481Y-108588985D01*
X167186015Y-108707519D01*
X167279147Y-108846900D01*
X167343297Y-109001772D01*
X167376000Y-109166184D01*
X167376000Y-109333816D01*
X167343297Y-109498228D01*
X167279147Y-109653100D01*
X167186015Y-109792481D01*
X167067481Y-109911015D01*
X166928100Y-110004147D01*
X166773228Y-110068297D01*
X166608816Y-110101000D01*
X166441184Y-110101000D01*
X166276772Y-110068297D01*
X166121900Y-110004147D01*
X165982519Y-109911015D01*
X165863985Y-109792481D01*
X165770853Y-109653100D01*
X165706703Y-109498228D01*
X165674000Y-109333816D01*
X165674000Y-109166184D01*
X165706703Y-109001772D01*
X165770853Y-108846900D01*
X165863985Y-108707519D01*
X165982519Y-108588985D01*
X166121900Y-108495853D01*
X166276772Y-108431703D01*
X166441184Y-108399000D01*
X166608816Y-108399000D01*
X166773228Y-108431703D01*
X166773228Y-108431703D01*
G37*
G36*
X141773228Y-108431703D02*
G01*
X141928100Y-108495853D01*
X142067481Y-108588985D01*
X142186015Y-108707519D01*
X142279147Y-108846900D01*
X142343297Y-109001772D01*
X142376000Y-109166184D01*
X142376000Y-109333816D01*
X142343297Y-109498228D01*
X142279147Y-109653100D01*
X142186015Y-109792481D01*
X142067481Y-109911015D01*
X141928100Y-110004147D01*
X141773228Y-110068297D01*
X141608816Y-110101000D01*
X141441184Y-110101000D01*
X141276772Y-110068297D01*
X141121900Y-110004147D01*
X140982519Y-109911015D01*
X140863985Y-109792481D01*
X140770853Y-109653100D01*
X140706703Y-109498228D01*
X140674000Y-109333816D01*
X140674000Y-109166184D01*
X140706703Y-109001772D01*
X140770853Y-108846900D01*
X140863985Y-108707519D01*
X140982519Y-108588985D01*
X141121900Y-108495853D01*
X141276772Y-108431703D01*
X141441184Y-108399000D01*
X141608816Y-108399000D01*
X141773228Y-108431703D01*
X141773228Y-108431703D01*
G37*
G36*
X186602724Y-103578684D02*
G01*
X186820724Y-103668983D01*
X186974873Y-103732833D01*
X187309798Y-103956623D01*
X187594627Y-104241452D01*
X187818417Y-104576377D01*
X187818417Y-104576378D01*
X187972566Y-104948526D01*
X188051150Y-105343594D01*
X188051150Y-105746406D01*
X187972566Y-106141474D01*
X187882267Y-106359474D01*
X187818417Y-106513623D01*
X187594627Y-106848548D01*
X187309798Y-107133377D01*
X186974873Y-107357167D01*
X186820724Y-107421017D01*
X186602724Y-107511316D01*
X186207656Y-107589900D01*
X185804844Y-107589900D01*
X185409776Y-107511316D01*
X185191776Y-107421017D01*
X185037627Y-107357167D01*
X184702702Y-107133377D01*
X184417873Y-106848548D01*
X184194083Y-106513623D01*
X184130233Y-106359474D01*
X184039934Y-106141474D01*
X183961350Y-105746406D01*
X183961350Y-105343594D01*
X184039934Y-104948526D01*
X184194083Y-104576378D01*
X184194083Y-104576377D01*
X184417873Y-104241452D01*
X184702702Y-103956623D01*
X185037627Y-103732833D01*
X185191776Y-103668983D01*
X185409776Y-103578684D01*
X185804844Y-103500100D01*
X186207656Y-103500100D01*
X186602724Y-103578684D01*
X186602724Y-103578684D01*
G37*
G36*
X162790224Y-103578684D02*
G01*
X163008224Y-103668983D01*
X163162373Y-103732833D01*
X163497298Y-103956623D01*
X163782127Y-104241452D01*
X164005917Y-104576377D01*
X164005917Y-104576378D01*
X164160066Y-104948526D01*
X164238650Y-105343594D01*
X164238650Y-105746406D01*
X164160066Y-106141474D01*
X164069767Y-106359474D01*
X164005917Y-106513623D01*
X163782127Y-106848548D01*
X163497298Y-107133377D01*
X163162373Y-107357167D01*
X163008224Y-107421017D01*
X162790224Y-107511316D01*
X162395156Y-107589900D01*
X161992344Y-107589900D01*
X161597276Y-107511316D01*
X161379276Y-107421017D01*
X161225127Y-107357167D01*
X160890202Y-107133377D01*
X160605373Y-106848548D01*
X160381583Y-106513623D01*
X160317733Y-106359474D01*
X160227434Y-106141474D01*
X160148850Y-105746406D01*
X160148850Y-105343594D01*
X160227434Y-104948526D01*
X160381583Y-104576378D01*
X160381583Y-104576377D01*
X160605373Y-104241452D01*
X160890202Y-103956623D01*
X161225127Y-103732833D01*
X161379276Y-103668983D01*
X161597276Y-103578684D01*
X161992344Y-103500100D01*
X162395156Y-103500100D01*
X162790224Y-103578684D01*
X162790224Y-103578684D01*
G37*
G36*
X122290224Y-103578684D02*
G01*
X122508224Y-103668983D01*
X122662373Y-103732833D01*
X122997298Y-103956623D01*
X123282127Y-104241452D01*
X123505917Y-104576377D01*
X123505917Y-104576378D01*
X123660066Y-104948526D01*
X123738650Y-105343594D01*
X123738650Y-105746406D01*
X123660066Y-106141474D01*
X123569767Y-106359474D01*
X123505917Y-106513623D01*
X123282127Y-106848548D01*
X122997298Y-107133377D01*
X122662373Y-107357167D01*
X122508224Y-107421017D01*
X122290224Y-107511316D01*
X121895156Y-107589900D01*
X121492344Y-107589900D01*
X121097276Y-107511316D01*
X120879276Y-107421017D01*
X120725127Y-107357167D01*
X120390202Y-107133377D01*
X120105373Y-106848548D01*
X119881583Y-106513623D01*
X119817733Y-106359474D01*
X119727434Y-106141474D01*
X119648850Y-105746406D01*
X119648850Y-105343594D01*
X119727434Y-104948526D01*
X119881583Y-104576378D01*
X119881583Y-104576377D01*
X120105373Y-104241452D01*
X120390202Y-103956623D01*
X120725127Y-103732833D01*
X120879276Y-103668983D01*
X121097276Y-103578684D01*
X121492344Y-103500100D01*
X121895156Y-103500100D01*
X122290224Y-103578684D01*
X122290224Y-103578684D01*
G37*
G36*
X146102724Y-103578684D02*
G01*
X146320724Y-103668983D01*
X146474873Y-103732833D01*
X146809798Y-103956623D01*
X147094627Y-104241452D01*
X147318417Y-104576377D01*
X147318417Y-104576378D01*
X147472566Y-104948526D01*
X147551150Y-105343594D01*
X147551150Y-105746406D01*
X147472566Y-106141474D01*
X147382267Y-106359474D01*
X147318417Y-106513623D01*
X147094627Y-106848548D01*
X146809798Y-107133377D01*
X146474873Y-107357167D01*
X146320724Y-107421017D01*
X146102724Y-107511316D01*
X145707656Y-107589900D01*
X145304844Y-107589900D01*
X144909776Y-107511316D01*
X144691776Y-107421017D01*
X144537627Y-107357167D01*
X144202702Y-107133377D01*
X143917873Y-106848548D01*
X143694083Y-106513623D01*
X143630233Y-106359474D01*
X143539934Y-106141474D01*
X143461350Y-105746406D01*
X143461350Y-105343594D01*
X143539934Y-104948526D01*
X143694083Y-104576378D01*
X143694083Y-104576377D01*
X143917873Y-104241452D01*
X144202702Y-103956623D01*
X144537627Y-103732833D01*
X144691776Y-103668983D01*
X144909776Y-103578684D01*
X145304844Y-103500100D01*
X145707656Y-103500100D01*
X146102724Y-103578684D01*
X146102724Y-103578684D01*
G37*
G36*
X203196374Y-103553684D02*
G01*
X203414374Y-103643983D01*
X203568523Y-103707833D01*
X203903448Y-103931623D01*
X204188277Y-104216452D01*
X204412067Y-104551377D01*
X204475917Y-104705526D01*
X204566216Y-104923526D01*
X204644800Y-105318594D01*
X204644800Y-105721406D01*
X204566216Y-106116474D01*
X204555860Y-106141475D01*
X204412067Y-106488623D01*
X204188277Y-106823548D01*
X203903448Y-107108377D01*
X203568523Y-107332167D01*
X203508167Y-107357167D01*
X203196374Y-107486316D01*
X202801306Y-107564900D01*
X202398494Y-107564900D01*
X202003426Y-107486316D01*
X201691633Y-107357167D01*
X201631277Y-107332167D01*
X201296352Y-107108377D01*
X201011523Y-106823548D01*
X200787733Y-106488623D01*
X200643940Y-106141475D01*
X200633584Y-106116474D01*
X200555000Y-105721406D01*
X200555000Y-105318594D01*
X200633584Y-104923526D01*
X200723883Y-104705526D01*
X200787733Y-104551377D01*
X201011523Y-104216452D01*
X201296352Y-103931623D01*
X201631277Y-103707833D01*
X201785426Y-103643983D01*
X202003426Y-103553684D01*
X202398494Y-103475100D01*
X202801306Y-103475100D01*
X203196374Y-103553684D01*
X203196374Y-103553684D01*
G37*
G36*
X103196574Y-103553684D02*
G01*
X103414574Y-103643983D01*
X103568723Y-103707833D01*
X103903648Y-103931623D01*
X104188477Y-104216452D01*
X104412267Y-104551377D01*
X104476117Y-104705526D01*
X104566416Y-104923526D01*
X104645000Y-105318594D01*
X104645000Y-105721406D01*
X104566416Y-106116474D01*
X104556060Y-106141475D01*
X104412267Y-106488623D01*
X104188477Y-106823548D01*
X103903648Y-107108377D01*
X103568723Y-107332167D01*
X103508367Y-107357167D01*
X103196574Y-107486316D01*
X102801506Y-107564900D01*
X102398694Y-107564900D01*
X102003626Y-107486316D01*
X101691833Y-107357167D01*
X101631477Y-107332167D01*
X101296552Y-107108377D01*
X101011723Y-106823548D01*
X100787933Y-106488623D01*
X100644140Y-106141475D01*
X100633784Y-106116474D01*
X100555200Y-105721406D01*
X100555200Y-105318594D01*
X100633784Y-104923526D01*
X100724083Y-104705526D01*
X100787933Y-104551377D01*
X101011723Y-104216452D01*
X101296552Y-103931623D01*
X101631477Y-103707833D01*
X101785626Y-103643983D01*
X102003626Y-103553684D01*
X102398694Y-103475100D01*
X102801506Y-103475100D01*
X103196574Y-103553684D01*
X103196574Y-103553684D01*
G37*
G36*
X171026000Y-99626000D02*
G01*
X169324000Y-99626000D01*
X169324000Y-97924000D01*
X171026000Y-97924000D01*
X171026000Y-99626000D01*
X171026000Y-99626000D01*
G37*
G36*
X209151000Y-99626000D02*
G01*
X207449000Y-99626000D01*
X207449000Y-97924000D01*
X209151000Y-97924000D01*
X209151000Y-99626000D01*
X209151000Y-99626000D01*
G37*
G36*
X190101000Y-99626000D02*
G01*
X188399000Y-99626000D01*
X188399000Y-97924000D01*
X190101000Y-97924000D01*
X190101000Y-99626000D01*
X190101000Y-99626000D01*
G37*
G36*
X151976000Y-99626000D02*
G01*
X150274000Y-99626000D01*
X150274000Y-97924000D01*
X151976000Y-97924000D01*
X151976000Y-99626000D01*
X151976000Y-99626000D01*
G37*
G36*
X113851000Y-99626000D02*
G01*
X112149000Y-99626000D01*
X112149000Y-97924000D01*
X113851000Y-97924000D01*
X113851000Y-99626000D01*
X113851000Y-99626000D01*
G37*
G36*
X94776000Y-99626000D02*
G01*
X93074000Y-99626000D01*
X93074000Y-97924000D01*
X94776000Y-97924000D01*
X94776000Y-99626000D01*
X94776000Y-99626000D01*
G37*
G36*
X75751000Y-99626000D02*
G01*
X74049000Y-99626000D01*
X74049000Y-97924000D01*
X75751000Y-97924000D01*
X75751000Y-99626000D01*
X75751000Y-99626000D01*
G37*
G36*
X231301000Y-99626000D02*
G01*
X229599000Y-99626000D01*
X229599000Y-97924000D01*
X231301000Y-97924000D01*
X231301000Y-99626000D01*
X231301000Y-99626000D01*
G37*
G36*
X228176000Y-99576000D02*
G01*
X226474000Y-99576000D01*
X226474000Y-97874000D01*
X228176000Y-97874000D01*
X228176000Y-99576000D01*
X228176000Y-99576000D01*
G37*
G36*
X132926000Y-99576000D02*
G01*
X131224000Y-99576000D01*
X131224000Y-97874000D01*
X132926000Y-97874000D01*
X132926000Y-99576000D01*
X132926000Y-99576000D01*
G37*
G36*
X67496474Y-92783684D02*
G01*
X67714474Y-92873983D01*
X67868623Y-92937833D01*
X68203548Y-93161623D01*
X68488377Y-93446452D01*
X68712167Y-93781377D01*
X68744562Y-93859586D01*
X68866316Y-94153526D01*
X68944900Y-94548594D01*
X68944900Y-94951406D01*
X68866316Y-95346474D01*
X68815451Y-95469272D01*
X68712167Y-95718623D01*
X68488377Y-96053548D01*
X68203548Y-96338377D01*
X67868623Y-96562167D01*
X67714474Y-96626017D01*
X67496474Y-96716316D01*
X67101406Y-96794900D01*
X66698594Y-96794900D01*
X66303526Y-96716316D01*
X66085526Y-96626017D01*
X65931377Y-96562167D01*
X65596452Y-96338377D01*
X65311623Y-96053548D01*
X65087833Y-95718623D01*
X64984549Y-95469272D01*
X64933684Y-95346474D01*
X64855100Y-94951406D01*
X64855100Y-94548594D01*
X64933684Y-94153526D01*
X65055438Y-93859586D01*
X65087833Y-93781377D01*
X65311623Y-93446452D01*
X65596452Y-93161623D01*
X65931377Y-92937833D01*
X66085526Y-92873983D01*
X66303526Y-92783684D01*
X66698594Y-92705100D01*
X67101406Y-92705100D01*
X67496474Y-92783684D01*
X67496474Y-92783684D01*
G37*
G36*
X238996474Y-92783684D02*
G01*
X239214474Y-92873983D01*
X239368623Y-92937833D01*
X239703548Y-93161623D01*
X239988377Y-93446452D01*
X240212167Y-93781377D01*
X240244562Y-93859586D01*
X240366316Y-94153526D01*
X240444900Y-94548594D01*
X240444900Y-94951406D01*
X240366316Y-95346474D01*
X240315451Y-95469272D01*
X240212167Y-95718623D01*
X239988377Y-96053548D01*
X239703548Y-96338377D01*
X239368623Y-96562167D01*
X239214474Y-96626017D01*
X238996474Y-96716316D01*
X238601406Y-96794900D01*
X238198594Y-96794900D01*
X237803526Y-96716316D01*
X237585526Y-96626017D01*
X237431377Y-96562167D01*
X237096452Y-96338377D01*
X236811623Y-96053548D01*
X236587833Y-95718623D01*
X236484549Y-95469272D01*
X236433684Y-95346474D01*
X236355100Y-94951406D01*
X236355100Y-94548594D01*
X236433684Y-94153526D01*
X236555438Y-93859586D01*
X236587833Y-93781377D01*
X236811623Y-93446452D01*
X237096452Y-93161623D01*
X237431377Y-92937833D01*
X237585526Y-92873983D01*
X237803526Y-92783684D01*
X238198594Y-92705100D01*
X238601406Y-92705100D01*
X238996474Y-92783684D01*
X238996474Y-92783684D01*
G37*
G36*
X200871474Y-92783684D02*
G01*
X201089474Y-92873983D01*
X201243623Y-92937833D01*
X201578548Y-93161623D01*
X201863377Y-93446452D01*
X202087167Y-93781377D01*
X202119562Y-93859586D01*
X202241316Y-94153526D01*
X202319900Y-94548594D01*
X202319900Y-94951406D01*
X202241316Y-95346474D01*
X202190451Y-95469272D01*
X202087167Y-95718623D01*
X201863377Y-96053548D01*
X201578548Y-96338377D01*
X201243623Y-96562167D01*
X201089474Y-96626017D01*
X200871474Y-96716316D01*
X200476406Y-96794900D01*
X200073594Y-96794900D01*
X199678526Y-96716316D01*
X199460526Y-96626017D01*
X199306377Y-96562167D01*
X198971452Y-96338377D01*
X198686623Y-96053548D01*
X198462833Y-95718623D01*
X198359549Y-95469272D01*
X198308684Y-95346474D01*
X198230100Y-94951406D01*
X198230100Y-94548594D01*
X198308684Y-94153526D01*
X198430438Y-93859586D01*
X198462833Y-93781377D01*
X198686623Y-93446452D01*
X198971452Y-93161623D01*
X199306377Y-92937833D01*
X199460526Y-92873983D01*
X199678526Y-92783684D01*
X200073594Y-92705100D01*
X200476406Y-92705100D01*
X200871474Y-92783684D01*
X200871474Y-92783684D01*
G37*
G36*
X181821474Y-92783684D02*
G01*
X182039474Y-92873983D01*
X182193623Y-92937833D01*
X182528548Y-93161623D01*
X182813377Y-93446452D01*
X183037167Y-93781377D01*
X183069562Y-93859586D01*
X183191316Y-94153526D01*
X183269900Y-94548594D01*
X183269900Y-94951406D01*
X183191316Y-95346474D01*
X183140451Y-95469272D01*
X183037167Y-95718623D01*
X182813377Y-96053548D01*
X182528548Y-96338377D01*
X182193623Y-96562167D01*
X182039474Y-96626017D01*
X181821474Y-96716316D01*
X181426406Y-96794900D01*
X181023594Y-96794900D01*
X180628526Y-96716316D01*
X180410526Y-96626017D01*
X180256377Y-96562167D01*
X179921452Y-96338377D01*
X179636623Y-96053548D01*
X179412833Y-95718623D01*
X179309549Y-95469272D01*
X179258684Y-95346474D01*
X179180100Y-94951406D01*
X179180100Y-94548594D01*
X179258684Y-94153526D01*
X179380438Y-93859586D01*
X179412833Y-93781377D01*
X179636623Y-93446452D01*
X179921452Y-93161623D01*
X180256377Y-92937833D01*
X180410526Y-92873983D01*
X180628526Y-92783684D01*
X181023594Y-92705100D01*
X181426406Y-92705100D01*
X181821474Y-92783684D01*
X181821474Y-92783684D01*
G37*
G36*
X162771474Y-92783684D02*
G01*
X162989474Y-92873983D01*
X163143623Y-92937833D01*
X163478548Y-93161623D01*
X163763377Y-93446452D01*
X163987167Y-93781377D01*
X164019562Y-93859586D01*
X164141316Y-94153526D01*
X164219900Y-94548594D01*
X164219900Y-94951406D01*
X164141316Y-95346474D01*
X164090451Y-95469272D01*
X163987167Y-95718623D01*
X163763377Y-96053548D01*
X163478548Y-96338377D01*
X163143623Y-96562167D01*
X162989474Y-96626017D01*
X162771474Y-96716316D01*
X162376406Y-96794900D01*
X161973594Y-96794900D01*
X161578526Y-96716316D01*
X161360526Y-96626017D01*
X161206377Y-96562167D01*
X160871452Y-96338377D01*
X160586623Y-96053548D01*
X160362833Y-95718623D01*
X160259549Y-95469272D01*
X160208684Y-95346474D01*
X160130100Y-94951406D01*
X160130100Y-94548594D01*
X160208684Y-94153526D01*
X160330438Y-93859586D01*
X160362833Y-93781377D01*
X160586623Y-93446452D01*
X160871452Y-93161623D01*
X161206377Y-92937833D01*
X161360526Y-92873983D01*
X161578526Y-92783684D01*
X161973594Y-92705100D01*
X162376406Y-92705100D01*
X162771474Y-92783684D01*
X162771474Y-92783684D01*
G37*
G36*
X143721474Y-92783684D02*
G01*
X143939474Y-92873983D01*
X144093623Y-92937833D01*
X144428548Y-93161623D01*
X144713377Y-93446452D01*
X144937167Y-93781377D01*
X144969562Y-93859586D01*
X145091316Y-94153526D01*
X145169900Y-94548594D01*
X145169900Y-94951406D01*
X145091316Y-95346474D01*
X145040451Y-95469272D01*
X144937167Y-95718623D01*
X144713377Y-96053548D01*
X144428548Y-96338377D01*
X144093623Y-96562167D01*
X143939474Y-96626017D01*
X143721474Y-96716316D01*
X143326406Y-96794900D01*
X142923594Y-96794900D01*
X142528526Y-96716316D01*
X142310526Y-96626017D01*
X142156377Y-96562167D01*
X141821452Y-96338377D01*
X141536623Y-96053548D01*
X141312833Y-95718623D01*
X141209549Y-95469272D01*
X141158684Y-95346474D01*
X141080100Y-94951406D01*
X141080100Y-94548594D01*
X141158684Y-94153526D01*
X141280438Y-93859586D01*
X141312833Y-93781377D01*
X141536623Y-93446452D01*
X141821452Y-93161623D01*
X142156377Y-92937833D01*
X142310526Y-92873983D01*
X142528526Y-92783684D01*
X142923594Y-92705100D01*
X143326406Y-92705100D01*
X143721474Y-92783684D01*
X143721474Y-92783684D01*
G37*
G36*
X124696474Y-92783684D02*
G01*
X124914474Y-92873983D01*
X125068623Y-92937833D01*
X125403548Y-93161623D01*
X125688377Y-93446452D01*
X125912167Y-93781377D01*
X125944562Y-93859586D01*
X126066316Y-94153526D01*
X126144900Y-94548594D01*
X126144900Y-94951406D01*
X126066316Y-95346474D01*
X126015451Y-95469272D01*
X125912167Y-95718623D01*
X125688377Y-96053548D01*
X125403548Y-96338377D01*
X125068623Y-96562167D01*
X124914474Y-96626017D01*
X124696474Y-96716316D01*
X124301406Y-96794900D01*
X123898594Y-96794900D01*
X123503526Y-96716316D01*
X123285526Y-96626017D01*
X123131377Y-96562167D01*
X122796452Y-96338377D01*
X122511623Y-96053548D01*
X122287833Y-95718623D01*
X122184549Y-95469272D01*
X122133684Y-95346474D01*
X122055100Y-94951406D01*
X122055100Y-94548594D01*
X122133684Y-94153526D01*
X122255438Y-93859586D01*
X122287833Y-93781377D01*
X122511623Y-93446452D01*
X122796452Y-93161623D01*
X123131377Y-92937833D01*
X123285526Y-92873983D01*
X123503526Y-92783684D01*
X123898594Y-92705100D01*
X124301406Y-92705100D01*
X124696474Y-92783684D01*
X124696474Y-92783684D01*
G37*
G36*
X105621474Y-92783684D02*
G01*
X105839474Y-92873983D01*
X105993623Y-92937833D01*
X106328548Y-93161623D01*
X106613377Y-93446452D01*
X106837167Y-93781377D01*
X106869562Y-93859586D01*
X106991316Y-94153526D01*
X107069900Y-94548594D01*
X107069900Y-94951406D01*
X106991316Y-95346474D01*
X106940451Y-95469272D01*
X106837167Y-95718623D01*
X106613377Y-96053548D01*
X106328548Y-96338377D01*
X105993623Y-96562167D01*
X105839474Y-96626017D01*
X105621474Y-96716316D01*
X105226406Y-96794900D01*
X104823594Y-96794900D01*
X104428526Y-96716316D01*
X104210526Y-96626017D01*
X104056377Y-96562167D01*
X103721452Y-96338377D01*
X103436623Y-96053548D01*
X103212833Y-95718623D01*
X103109549Y-95469272D01*
X103058684Y-95346474D01*
X102980100Y-94951406D01*
X102980100Y-94548594D01*
X103058684Y-94153526D01*
X103180438Y-93859586D01*
X103212833Y-93781377D01*
X103436623Y-93446452D01*
X103721452Y-93161623D01*
X104056377Y-92937833D01*
X104210526Y-92873983D01*
X104428526Y-92783684D01*
X104823594Y-92705100D01*
X105226406Y-92705100D01*
X105621474Y-92783684D01*
X105621474Y-92783684D01*
G37*
G36*
X86546474Y-92783684D02*
G01*
X86764474Y-92873983D01*
X86918623Y-92937833D01*
X87253548Y-93161623D01*
X87538377Y-93446452D01*
X87762167Y-93781377D01*
X87794562Y-93859586D01*
X87916316Y-94153526D01*
X87994900Y-94548594D01*
X87994900Y-94951406D01*
X87916316Y-95346474D01*
X87865451Y-95469272D01*
X87762167Y-95718623D01*
X87538377Y-96053548D01*
X87253548Y-96338377D01*
X86918623Y-96562167D01*
X86764474Y-96626017D01*
X86546474Y-96716316D01*
X86151406Y-96794900D01*
X85748594Y-96794900D01*
X85353526Y-96716316D01*
X85135526Y-96626017D01*
X84981377Y-96562167D01*
X84646452Y-96338377D01*
X84361623Y-96053548D01*
X84137833Y-95718623D01*
X84034549Y-95469272D01*
X83983684Y-95346474D01*
X83905100Y-94951406D01*
X83905100Y-94548594D01*
X83983684Y-94153526D01*
X84105438Y-93859586D01*
X84137833Y-93781377D01*
X84361623Y-93446452D01*
X84646452Y-93161623D01*
X84981377Y-92937833D01*
X85135526Y-92873983D01*
X85353526Y-92783684D01*
X85748594Y-92705100D01*
X86151406Y-92705100D01*
X86546474Y-92783684D01*
X86546474Y-92783684D01*
G37*
G36*
X219896474Y-92758684D02*
G01*
X220114474Y-92848983D01*
X220268623Y-92912833D01*
X220603548Y-93136623D01*
X220888377Y-93421452D01*
X221112167Y-93756377D01*
X221144562Y-93834586D01*
X221266316Y-94128526D01*
X221344900Y-94523594D01*
X221344900Y-94926406D01*
X221266316Y-95321474D01*
X221215451Y-95444272D01*
X221112167Y-95693623D01*
X220888377Y-96028548D01*
X220603548Y-96313377D01*
X220268623Y-96537167D01*
X220208267Y-96562167D01*
X219896474Y-96691316D01*
X219501406Y-96769900D01*
X219098594Y-96769900D01*
X218703526Y-96691316D01*
X218391733Y-96562167D01*
X218331377Y-96537167D01*
X217996452Y-96313377D01*
X217711623Y-96028548D01*
X217487833Y-95693623D01*
X217384549Y-95444272D01*
X217333684Y-95321474D01*
X217255100Y-94926406D01*
X217255100Y-94523594D01*
X217333684Y-94128526D01*
X217455438Y-93834586D01*
X217487833Y-93756377D01*
X217711623Y-93421452D01*
X217996452Y-93136623D01*
X218331377Y-92912833D01*
X218485526Y-92848983D01*
X218703526Y-92758684D01*
X219098594Y-92680100D01*
X219501406Y-92680100D01*
X219896474Y-92758684D01*
X219896474Y-92758684D01*
G37*
G36*
X110375104Y-93859585D02*
G01*
X110543626Y-93929389D01*
X110695291Y-94030728D01*
X110824272Y-94159709D01*
X110925611Y-94311374D01*
X110995415Y-94479896D01*
X111031000Y-94658797D01*
X111031000Y-94841203D01*
X110995415Y-95020104D01*
X110925611Y-95188626D01*
X110824272Y-95340291D01*
X110695291Y-95469272D01*
X110543626Y-95570611D01*
X110375104Y-95640415D01*
X110196203Y-95676000D01*
X110013797Y-95676000D01*
X109834896Y-95640415D01*
X109666374Y-95570611D01*
X109514709Y-95469272D01*
X109385728Y-95340291D01*
X109284389Y-95188626D01*
X109214585Y-95020104D01*
X109179000Y-94841203D01*
X109179000Y-94658797D01*
X109214585Y-94479896D01*
X109284389Y-94311374D01*
X109385728Y-94159709D01*
X109514709Y-94030728D01*
X109666374Y-93929389D01*
X109834896Y-93859585D01*
X110013797Y-93824000D01*
X110196203Y-93824000D01*
X110375104Y-93859585D01*
X110375104Y-93859585D01*
G37*
G36*
X100215104Y-93859585D02*
G01*
X100383626Y-93929389D01*
X100535291Y-94030728D01*
X100664272Y-94159709D01*
X100765611Y-94311374D01*
X100835415Y-94479896D01*
X100871000Y-94658797D01*
X100871000Y-94841203D01*
X100835415Y-95020104D01*
X100765611Y-95188626D01*
X100664272Y-95340291D01*
X100535291Y-95469272D01*
X100383626Y-95570611D01*
X100215104Y-95640415D01*
X100036203Y-95676000D01*
X99853797Y-95676000D01*
X99674896Y-95640415D01*
X99506374Y-95570611D01*
X99354709Y-95469272D01*
X99225728Y-95340291D01*
X99124389Y-95188626D01*
X99054585Y-95020104D01*
X99019000Y-94841203D01*
X99019000Y-94658797D01*
X99054585Y-94479896D01*
X99124389Y-94311374D01*
X99225728Y-94159709D01*
X99354709Y-94030728D01*
X99506374Y-93929389D01*
X99674896Y-93859585D01*
X99853797Y-93824000D01*
X100036203Y-93824000D01*
X100215104Y-93859585D01*
X100215104Y-93859585D01*
G37*
G36*
X81140104Y-93859585D02*
G01*
X81308626Y-93929389D01*
X81460291Y-94030728D01*
X81589272Y-94159709D01*
X81690611Y-94311374D01*
X81760415Y-94479896D01*
X81796000Y-94658797D01*
X81796000Y-94841203D01*
X81760415Y-95020104D01*
X81690611Y-95188626D01*
X81589272Y-95340291D01*
X81460291Y-95469272D01*
X81308626Y-95570611D01*
X81140104Y-95640415D01*
X80961203Y-95676000D01*
X80778797Y-95676000D01*
X80599896Y-95640415D01*
X80431374Y-95570611D01*
X80279709Y-95469272D01*
X80150728Y-95340291D01*
X80049389Y-95188626D01*
X79979585Y-95020104D01*
X79944000Y-94841203D01*
X79944000Y-94658797D01*
X79979585Y-94479896D01*
X80049389Y-94311374D01*
X80150728Y-94159709D01*
X80279709Y-94030728D01*
X80431374Y-93929389D01*
X80599896Y-93859585D01*
X80778797Y-93824000D01*
X80961203Y-93824000D01*
X81140104Y-93859585D01*
X81140104Y-93859585D01*
G37*
G36*
X129450104Y-93859585D02*
G01*
X129618626Y-93929389D01*
X129770291Y-94030728D01*
X129899272Y-94159709D01*
X130000611Y-94311374D01*
X130070415Y-94479896D01*
X130106000Y-94658797D01*
X130106000Y-94841203D01*
X130070415Y-95020104D01*
X130000611Y-95188626D01*
X129899272Y-95340291D01*
X129770291Y-95469272D01*
X129618626Y-95570611D01*
X129450104Y-95640415D01*
X129271203Y-95676000D01*
X129088797Y-95676000D01*
X128909896Y-95640415D01*
X128741374Y-95570611D01*
X128589709Y-95469272D01*
X128460728Y-95340291D01*
X128359389Y-95188626D01*
X128289585Y-95020104D01*
X128254000Y-94841203D01*
X128254000Y-94658797D01*
X128289585Y-94479896D01*
X128359389Y-94311374D01*
X128460728Y-94159709D01*
X128589709Y-94030728D01*
X128741374Y-93929389D01*
X128909896Y-93859585D01*
X129088797Y-93824000D01*
X129271203Y-93824000D01*
X129450104Y-93859585D01*
X129450104Y-93859585D01*
G37*
G36*
X119290104Y-93859585D02*
G01*
X119458626Y-93929389D01*
X119610291Y-94030728D01*
X119739272Y-94159709D01*
X119840611Y-94311374D01*
X119910415Y-94479896D01*
X119946000Y-94658797D01*
X119946000Y-94841203D01*
X119910415Y-95020104D01*
X119840611Y-95188626D01*
X119739272Y-95340291D01*
X119610291Y-95469272D01*
X119458626Y-95570611D01*
X119290104Y-95640415D01*
X119111203Y-95676000D01*
X118928797Y-95676000D01*
X118749896Y-95640415D01*
X118581374Y-95570611D01*
X118429709Y-95469272D01*
X118300728Y-95340291D01*
X118199389Y-95188626D01*
X118129585Y-95020104D01*
X118094000Y-94841203D01*
X118094000Y-94658797D01*
X118129585Y-94479896D01*
X118199389Y-94311374D01*
X118300728Y-94159709D01*
X118429709Y-94030728D01*
X118581374Y-93929389D01*
X118749896Y-93859585D01*
X118928797Y-93824000D01*
X119111203Y-93824000D01*
X119290104Y-93859585D01*
X119290104Y-93859585D01*
G37*
G36*
X91300104Y-93859585D02*
G01*
X91468626Y-93929389D01*
X91620291Y-94030728D01*
X91749272Y-94159709D01*
X91850611Y-94311374D01*
X91920415Y-94479896D01*
X91956000Y-94658797D01*
X91956000Y-94841203D01*
X91920415Y-95020104D01*
X91850611Y-95188626D01*
X91749272Y-95340291D01*
X91620291Y-95469272D01*
X91468626Y-95570611D01*
X91300104Y-95640415D01*
X91121203Y-95676000D01*
X90938797Y-95676000D01*
X90759896Y-95640415D01*
X90591374Y-95570611D01*
X90439709Y-95469272D01*
X90310728Y-95340291D01*
X90209389Y-95188626D01*
X90139585Y-95020104D01*
X90104000Y-94841203D01*
X90104000Y-94658797D01*
X90139585Y-94479896D01*
X90209389Y-94311374D01*
X90310728Y-94159709D01*
X90439709Y-94030728D01*
X90591374Y-93929389D01*
X90759896Y-93859585D01*
X90938797Y-93824000D01*
X91121203Y-93824000D01*
X91300104Y-93859585D01*
X91300104Y-93859585D01*
G37*
G36*
X148475104Y-93859585D02*
G01*
X148643626Y-93929389D01*
X148795291Y-94030728D01*
X148924272Y-94159709D01*
X149025611Y-94311374D01*
X149095415Y-94479896D01*
X149131000Y-94658797D01*
X149131000Y-94841203D01*
X149095415Y-95020104D01*
X149025611Y-95188626D01*
X148924272Y-95340291D01*
X148795291Y-95469272D01*
X148643626Y-95570611D01*
X148475104Y-95640415D01*
X148296203Y-95676000D01*
X148113797Y-95676000D01*
X147934896Y-95640415D01*
X147766374Y-95570611D01*
X147614709Y-95469272D01*
X147485728Y-95340291D01*
X147384389Y-95188626D01*
X147314585Y-95020104D01*
X147279000Y-94841203D01*
X147279000Y-94658797D01*
X147314585Y-94479896D01*
X147384389Y-94311374D01*
X147485728Y-94159709D01*
X147614709Y-94030728D01*
X147766374Y-93929389D01*
X147934896Y-93859585D01*
X148113797Y-93824000D01*
X148296203Y-93824000D01*
X148475104Y-93859585D01*
X148475104Y-93859585D01*
G37*
G36*
X138315104Y-93859585D02*
G01*
X138483626Y-93929389D01*
X138635291Y-94030728D01*
X138764272Y-94159709D01*
X138865611Y-94311374D01*
X138935415Y-94479896D01*
X138971000Y-94658797D01*
X138971000Y-94841203D01*
X138935415Y-95020104D01*
X138865611Y-95188626D01*
X138764272Y-95340291D01*
X138635291Y-95469272D01*
X138483626Y-95570611D01*
X138315104Y-95640415D01*
X138136203Y-95676000D01*
X137953797Y-95676000D01*
X137774896Y-95640415D01*
X137606374Y-95570611D01*
X137454709Y-95469272D01*
X137325728Y-95340291D01*
X137224389Y-95188626D01*
X137154585Y-95020104D01*
X137119000Y-94841203D01*
X137119000Y-94658797D01*
X137154585Y-94479896D01*
X137224389Y-94311374D01*
X137325728Y-94159709D01*
X137454709Y-94030728D01*
X137606374Y-93929389D01*
X137774896Y-93859585D01*
X137953797Y-93824000D01*
X138136203Y-93824000D01*
X138315104Y-93859585D01*
X138315104Y-93859585D01*
G37*
G36*
X205625104Y-93859585D02*
G01*
X205793626Y-93929389D01*
X205945291Y-94030728D01*
X206074272Y-94159709D01*
X206175611Y-94311374D01*
X206245415Y-94479896D01*
X206281000Y-94658797D01*
X206281000Y-94841203D01*
X206245415Y-95020104D01*
X206175611Y-95188626D01*
X206074272Y-95340291D01*
X205945291Y-95469272D01*
X205793626Y-95570611D01*
X205625104Y-95640415D01*
X205446203Y-95676000D01*
X205263797Y-95676000D01*
X205084896Y-95640415D01*
X204916374Y-95570611D01*
X204764709Y-95469272D01*
X204635728Y-95340291D01*
X204534389Y-95188626D01*
X204464585Y-95020104D01*
X204429000Y-94841203D01*
X204429000Y-94658797D01*
X204464585Y-94479896D01*
X204534389Y-94311374D01*
X204635728Y-94159709D01*
X204764709Y-94030728D01*
X204916374Y-93929389D01*
X205084896Y-93859585D01*
X205263797Y-93824000D01*
X205446203Y-93824000D01*
X205625104Y-93859585D01*
X205625104Y-93859585D01*
G37*
G36*
X167525104Y-93859585D02*
G01*
X167693626Y-93929389D01*
X167845291Y-94030728D01*
X167974272Y-94159709D01*
X168075611Y-94311374D01*
X168145415Y-94479896D01*
X168181000Y-94658797D01*
X168181000Y-94841203D01*
X168145415Y-95020104D01*
X168075611Y-95188626D01*
X167974272Y-95340291D01*
X167845291Y-95469272D01*
X167693626Y-95570611D01*
X167525104Y-95640415D01*
X167346203Y-95676000D01*
X167163797Y-95676000D01*
X166984896Y-95640415D01*
X166816374Y-95570611D01*
X166664709Y-95469272D01*
X166535728Y-95340291D01*
X166434389Y-95188626D01*
X166364585Y-95020104D01*
X166329000Y-94841203D01*
X166329000Y-94658797D01*
X166364585Y-94479896D01*
X166434389Y-94311374D01*
X166535728Y-94159709D01*
X166664709Y-94030728D01*
X166816374Y-93929389D01*
X166984896Y-93859585D01*
X167163797Y-93824000D01*
X167346203Y-93824000D01*
X167525104Y-93859585D01*
X167525104Y-93859585D01*
G37*
G36*
X157365104Y-93859585D02*
G01*
X157533626Y-93929389D01*
X157685291Y-94030728D01*
X157814272Y-94159709D01*
X157915611Y-94311374D01*
X157985415Y-94479896D01*
X158021000Y-94658797D01*
X158021000Y-94841203D01*
X157985415Y-95020104D01*
X157915611Y-95188626D01*
X157814272Y-95340291D01*
X157685291Y-95469272D01*
X157533626Y-95570611D01*
X157365104Y-95640415D01*
X157186203Y-95676000D01*
X157003797Y-95676000D01*
X156824896Y-95640415D01*
X156656374Y-95570611D01*
X156504709Y-95469272D01*
X156375728Y-95340291D01*
X156274389Y-95188626D01*
X156204585Y-95020104D01*
X156169000Y-94841203D01*
X156169000Y-94658797D01*
X156204585Y-94479896D01*
X156274389Y-94311374D01*
X156375728Y-94159709D01*
X156504709Y-94030728D01*
X156656374Y-93929389D01*
X156824896Y-93859585D01*
X157003797Y-93824000D01*
X157186203Y-93824000D01*
X157365104Y-93859585D01*
X157365104Y-93859585D01*
G37*
G36*
X62090104Y-93859585D02*
G01*
X62258626Y-93929389D01*
X62410291Y-94030728D01*
X62539272Y-94159709D01*
X62640611Y-94311374D01*
X62710415Y-94479896D01*
X62746000Y-94658797D01*
X62746000Y-94841203D01*
X62710415Y-95020104D01*
X62640611Y-95188626D01*
X62539272Y-95340291D01*
X62410291Y-95469272D01*
X62258626Y-95570611D01*
X62090104Y-95640415D01*
X61911203Y-95676000D01*
X61728797Y-95676000D01*
X61549896Y-95640415D01*
X61381374Y-95570611D01*
X61229709Y-95469272D01*
X61100728Y-95340291D01*
X60999389Y-95188626D01*
X60929585Y-95020104D01*
X60894000Y-94841203D01*
X60894000Y-94658797D01*
X60929585Y-94479896D01*
X60999389Y-94311374D01*
X61100728Y-94159709D01*
X61229709Y-94030728D01*
X61381374Y-93929389D01*
X61549896Y-93859585D01*
X61728797Y-93824000D01*
X61911203Y-93824000D01*
X62090104Y-93859585D01*
X62090104Y-93859585D01*
G37*
G36*
X186575104Y-93859585D02*
G01*
X186743626Y-93929389D01*
X186895291Y-94030728D01*
X187024272Y-94159709D01*
X187125611Y-94311374D01*
X187195415Y-94479896D01*
X187231000Y-94658797D01*
X187231000Y-94841203D01*
X187195415Y-95020104D01*
X187125611Y-95188626D01*
X187024272Y-95340291D01*
X186895291Y-95469272D01*
X186743626Y-95570611D01*
X186575104Y-95640415D01*
X186396203Y-95676000D01*
X186213797Y-95676000D01*
X186034896Y-95640415D01*
X185866374Y-95570611D01*
X185714709Y-95469272D01*
X185585728Y-95340291D01*
X185484389Y-95188626D01*
X185414585Y-95020104D01*
X185379000Y-94841203D01*
X185379000Y-94658797D01*
X185414585Y-94479896D01*
X185484389Y-94311374D01*
X185585728Y-94159709D01*
X185714709Y-94030728D01*
X185866374Y-93929389D01*
X186034896Y-93859585D01*
X186213797Y-93824000D01*
X186396203Y-93824000D01*
X186575104Y-93859585D01*
X186575104Y-93859585D01*
G37*
G36*
X176415104Y-93859585D02*
G01*
X176583626Y-93929389D01*
X176735291Y-94030728D01*
X176864272Y-94159709D01*
X176965611Y-94311374D01*
X177035415Y-94479896D01*
X177071000Y-94658797D01*
X177071000Y-94841203D01*
X177035415Y-95020104D01*
X176965611Y-95188626D01*
X176864272Y-95340291D01*
X176735291Y-95469272D01*
X176583626Y-95570611D01*
X176415104Y-95640415D01*
X176236203Y-95676000D01*
X176053797Y-95676000D01*
X175874896Y-95640415D01*
X175706374Y-95570611D01*
X175554709Y-95469272D01*
X175425728Y-95340291D01*
X175324389Y-95188626D01*
X175254585Y-95020104D01*
X175219000Y-94841203D01*
X175219000Y-94658797D01*
X175254585Y-94479896D01*
X175324389Y-94311374D01*
X175425728Y-94159709D01*
X175554709Y-94030728D01*
X175706374Y-93929389D01*
X175874896Y-93859585D01*
X176053797Y-93824000D01*
X176236203Y-93824000D01*
X176415104Y-93859585D01*
X176415104Y-93859585D01*
G37*
G36*
X72250104Y-93859585D02*
G01*
X72418626Y-93929389D01*
X72570291Y-94030728D01*
X72699272Y-94159709D01*
X72800611Y-94311374D01*
X72870415Y-94479896D01*
X72906000Y-94658797D01*
X72906000Y-94841203D01*
X72870415Y-95020104D01*
X72800611Y-95188626D01*
X72699272Y-95340291D01*
X72570291Y-95469272D01*
X72418626Y-95570611D01*
X72250104Y-95640415D01*
X72071203Y-95676000D01*
X71888797Y-95676000D01*
X71709896Y-95640415D01*
X71541374Y-95570611D01*
X71389709Y-95469272D01*
X71260728Y-95340291D01*
X71159389Y-95188626D01*
X71089585Y-95020104D01*
X71054000Y-94841203D01*
X71054000Y-94658797D01*
X71089585Y-94479896D01*
X71159389Y-94311374D01*
X71260728Y-94159709D01*
X71389709Y-94030728D01*
X71541374Y-93929389D01*
X71709896Y-93859585D01*
X71888797Y-93824000D01*
X72071203Y-93824000D01*
X72250104Y-93859585D01*
X72250104Y-93859585D01*
G37*
G36*
X195465104Y-93859585D02*
G01*
X195633626Y-93929389D01*
X195785291Y-94030728D01*
X195914272Y-94159709D01*
X196015611Y-94311374D01*
X196085415Y-94479896D01*
X196121000Y-94658797D01*
X196121000Y-94841203D01*
X196085415Y-95020104D01*
X196015611Y-95188626D01*
X195914272Y-95340291D01*
X195785291Y-95469272D01*
X195633626Y-95570611D01*
X195465104Y-95640415D01*
X195286203Y-95676000D01*
X195103797Y-95676000D01*
X194924896Y-95640415D01*
X194756374Y-95570611D01*
X194604709Y-95469272D01*
X194475728Y-95340291D01*
X194374389Y-95188626D01*
X194304585Y-95020104D01*
X194269000Y-94841203D01*
X194269000Y-94658797D01*
X194304585Y-94479896D01*
X194374389Y-94311374D01*
X194475728Y-94159709D01*
X194604709Y-94030728D01*
X194756374Y-93929389D01*
X194924896Y-93859585D01*
X195103797Y-93824000D01*
X195286203Y-93824000D01*
X195465104Y-93859585D01*
X195465104Y-93859585D01*
G37*
G36*
X233590104Y-93859585D02*
G01*
X233758626Y-93929389D01*
X233910291Y-94030728D01*
X234039272Y-94159709D01*
X234140611Y-94311374D01*
X234210415Y-94479896D01*
X234246000Y-94658797D01*
X234246000Y-94841203D01*
X234210415Y-95020104D01*
X234140611Y-95188626D01*
X234039272Y-95340291D01*
X233910291Y-95469272D01*
X233758626Y-95570611D01*
X233590104Y-95640415D01*
X233411203Y-95676000D01*
X233228797Y-95676000D01*
X233049896Y-95640415D01*
X232881374Y-95570611D01*
X232729709Y-95469272D01*
X232600728Y-95340291D01*
X232499389Y-95188626D01*
X232429585Y-95020104D01*
X232394000Y-94841203D01*
X232394000Y-94658797D01*
X232429585Y-94479896D01*
X232499389Y-94311374D01*
X232600728Y-94159709D01*
X232729709Y-94030728D01*
X232881374Y-93929389D01*
X233049896Y-93859585D01*
X233228797Y-93824000D01*
X233411203Y-93824000D01*
X233590104Y-93859585D01*
X233590104Y-93859585D01*
G37*
G36*
X243750104Y-93859585D02*
G01*
X243918626Y-93929389D01*
X244070291Y-94030728D01*
X244199272Y-94159709D01*
X244300611Y-94311374D01*
X244370415Y-94479896D01*
X244406000Y-94658797D01*
X244406000Y-94841203D01*
X244370415Y-95020104D01*
X244300611Y-95188626D01*
X244199272Y-95340291D01*
X244070291Y-95469272D01*
X243918626Y-95570611D01*
X243750104Y-95640415D01*
X243571203Y-95676000D01*
X243388797Y-95676000D01*
X243209896Y-95640415D01*
X243041374Y-95570611D01*
X242889709Y-95469272D01*
X242760728Y-95340291D01*
X242659389Y-95188626D01*
X242589585Y-95020104D01*
X242554000Y-94841203D01*
X242554000Y-94658797D01*
X242589585Y-94479896D01*
X242659389Y-94311374D01*
X242760728Y-94159709D01*
X242889709Y-94030728D01*
X243041374Y-93929389D01*
X243209896Y-93859585D01*
X243388797Y-93824000D01*
X243571203Y-93824000D01*
X243750104Y-93859585D01*
X243750104Y-93859585D01*
G37*
G36*
X214490104Y-93834585D02*
G01*
X214658626Y-93904389D01*
X214810291Y-94005728D01*
X214939272Y-94134709D01*
X215040611Y-94286374D01*
X215110415Y-94454896D01*
X215146000Y-94633797D01*
X215146000Y-94816203D01*
X215110415Y-94995104D01*
X215040611Y-95163626D01*
X214939272Y-95315291D01*
X214810291Y-95444272D01*
X214658626Y-95545611D01*
X214490104Y-95615415D01*
X214311203Y-95651000D01*
X214128797Y-95651000D01*
X213949896Y-95615415D01*
X213781374Y-95545611D01*
X213629709Y-95444272D01*
X213500728Y-95315291D01*
X213399389Y-95163626D01*
X213329585Y-94995104D01*
X213294000Y-94816203D01*
X213294000Y-94633797D01*
X213329585Y-94454896D01*
X213399389Y-94286374D01*
X213500728Y-94134709D01*
X213629709Y-94005728D01*
X213781374Y-93904389D01*
X213949896Y-93834585D01*
X214128797Y-93799000D01*
X214311203Y-93799000D01*
X214490104Y-93834585D01*
X214490104Y-93834585D01*
G37*
G36*
X224650104Y-93834585D02*
G01*
X224818626Y-93904389D01*
X224970291Y-94005728D01*
X225099272Y-94134709D01*
X225200611Y-94286374D01*
X225270415Y-94454896D01*
X225306000Y-94633797D01*
X225306000Y-94816203D01*
X225270415Y-94995104D01*
X225200611Y-95163626D01*
X225099272Y-95315291D01*
X224970291Y-95444272D01*
X224818626Y-95545611D01*
X224650104Y-95615415D01*
X224471203Y-95651000D01*
X224288797Y-95651000D01*
X224109896Y-95615415D01*
X223941374Y-95545611D01*
X223789709Y-95444272D01*
X223660728Y-95315291D01*
X223559389Y-95163626D01*
X223489585Y-94995104D01*
X223454000Y-94816203D01*
X223454000Y-94633797D01*
X223489585Y-94454896D01*
X223559389Y-94286374D01*
X223660728Y-94134709D01*
X223789709Y-94005728D01*
X223941374Y-93904389D01*
X224109896Y-93834585D01*
X224288797Y-93799000D01*
X224471203Y-93799000D01*
X224650104Y-93834585D01*
X224650104Y-93834585D01*
G37*
G36*
X94173228Y-90156703D02*
G01*
X94328100Y-90220853D01*
X94467481Y-90313985D01*
X94586015Y-90432519D01*
X94679147Y-90571900D01*
X94743297Y-90726772D01*
X94776000Y-90891184D01*
X94776000Y-91058816D01*
X94743297Y-91223228D01*
X94679147Y-91378100D01*
X94586015Y-91517481D01*
X94467481Y-91636015D01*
X94328100Y-91729147D01*
X94173228Y-91793297D01*
X94008816Y-91826000D01*
X93841184Y-91826000D01*
X93676772Y-91793297D01*
X93521900Y-91729147D01*
X93382519Y-91636015D01*
X93263985Y-91517481D01*
X93170853Y-91378100D01*
X93106703Y-91223228D01*
X93074000Y-91058816D01*
X93074000Y-90891184D01*
X93106703Y-90726772D01*
X93170853Y-90571900D01*
X93263985Y-90432519D01*
X93382519Y-90313985D01*
X93521900Y-90220853D01*
X93676772Y-90156703D01*
X93841184Y-90124000D01*
X94008816Y-90124000D01*
X94173228Y-90156703D01*
X94173228Y-90156703D01*
G37*
G36*
X208548228Y-90156703D02*
G01*
X208703100Y-90220853D01*
X208842481Y-90313985D01*
X208961015Y-90432519D01*
X209054147Y-90571900D01*
X209118297Y-90726772D01*
X209151000Y-90891184D01*
X209151000Y-91058816D01*
X209118297Y-91223228D01*
X209054147Y-91378100D01*
X208961015Y-91517481D01*
X208842481Y-91636015D01*
X208703100Y-91729147D01*
X208548228Y-91793297D01*
X208383816Y-91826000D01*
X208216184Y-91826000D01*
X208051772Y-91793297D01*
X207896900Y-91729147D01*
X207757519Y-91636015D01*
X207638985Y-91517481D01*
X207545853Y-91378100D01*
X207481703Y-91223228D01*
X207449000Y-91058816D01*
X207449000Y-90891184D01*
X207481703Y-90726772D01*
X207545853Y-90571900D01*
X207638985Y-90432519D01*
X207757519Y-90313985D01*
X207896900Y-90220853D01*
X208051772Y-90156703D01*
X208216184Y-90124000D01*
X208383816Y-90124000D01*
X208548228Y-90156703D01*
X208548228Y-90156703D01*
G37*
G36*
X230698228Y-90156703D02*
G01*
X230853100Y-90220853D01*
X230992481Y-90313985D01*
X231111015Y-90432519D01*
X231204147Y-90571900D01*
X231268297Y-90726772D01*
X231301000Y-90891184D01*
X231301000Y-91058816D01*
X231268297Y-91223228D01*
X231204147Y-91378100D01*
X231111015Y-91517481D01*
X230992481Y-91636015D01*
X230853100Y-91729147D01*
X230698228Y-91793297D01*
X230533816Y-91826000D01*
X230366184Y-91826000D01*
X230201772Y-91793297D01*
X230046900Y-91729147D01*
X229907519Y-91636015D01*
X229788985Y-91517481D01*
X229695853Y-91378100D01*
X229631703Y-91223228D01*
X229599000Y-91058816D01*
X229599000Y-90891184D01*
X229631703Y-90726772D01*
X229695853Y-90571900D01*
X229788985Y-90432519D01*
X229907519Y-90313985D01*
X230046900Y-90220853D01*
X230201772Y-90156703D01*
X230366184Y-90124000D01*
X230533816Y-90124000D01*
X230698228Y-90156703D01*
X230698228Y-90156703D01*
G37*
G36*
X189498228Y-90156703D02*
G01*
X189653100Y-90220853D01*
X189792481Y-90313985D01*
X189911015Y-90432519D01*
X190004147Y-90571900D01*
X190068297Y-90726772D01*
X190101000Y-90891184D01*
X190101000Y-91058816D01*
X190068297Y-91223228D01*
X190004147Y-91378100D01*
X189911015Y-91517481D01*
X189792481Y-91636015D01*
X189653100Y-91729147D01*
X189498228Y-91793297D01*
X189333816Y-91826000D01*
X189166184Y-91826000D01*
X189001772Y-91793297D01*
X188846900Y-91729147D01*
X188707519Y-91636015D01*
X188588985Y-91517481D01*
X188495853Y-91378100D01*
X188431703Y-91223228D01*
X188399000Y-91058816D01*
X188399000Y-90891184D01*
X188431703Y-90726772D01*
X188495853Y-90571900D01*
X188588985Y-90432519D01*
X188707519Y-90313985D01*
X188846900Y-90220853D01*
X189001772Y-90156703D01*
X189166184Y-90124000D01*
X189333816Y-90124000D01*
X189498228Y-90156703D01*
X189498228Y-90156703D01*
G37*
G36*
X170423228Y-90156703D02*
G01*
X170578100Y-90220853D01*
X170717481Y-90313985D01*
X170836015Y-90432519D01*
X170929147Y-90571900D01*
X170993297Y-90726772D01*
X171026000Y-90891184D01*
X171026000Y-91058816D01*
X170993297Y-91223228D01*
X170929147Y-91378100D01*
X170836015Y-91517481D01*
X170717481Y-91636015D01*
X170578100Y-91729147D01*
X170423228Y-91793297D01*
X170258816Y-91826000D01*
X170091184Y-91826000D01*
X169926772Y-91793297D01*
X169771900Y-91729147D01*
X169632519Y-91636015D01*
X169513985Y-91517481D01*
X169420853Y-91378100D01*
X169356703Y-91223228D01*
X169324000Y-91058816D01*
X169324000Y-90891184D01*
X169356703Y-90726772D01*
X169420853Y-90571900D01*
X169513985Y-90432519D01*
X169632519Y-90313985D01*
X169771900Y-90220853D01*
X169926772Y-90156703D01*
X170091184Y-90124000D01*
X170258816Y-90124000D01*
X170423228Y-90156703D01*
X170423228Y-90156703D01*
G37*
G36*
X151373228Y-90156703D02*
G01*
X151528100Y-90220853D01*
X151667481Y-90313985D01*
X151786015Y-90432519D01*
X151879147Y-90571900D01*
X151943297Y-90726772D01*
X151976000Y-90891184D01*
X151976000Y-91058816D01*
X151943297Y-91223228D01*
X151879147Y-91378100D01*
X151786015Y-91517481D01*
X151667481Y-91636015D01*
X151528100Y-91729147D01*
X151373228Y-91793297D01*
X151208816Y-91826000D01*
X151041184Y-91826000D01*
X150876772Y-91793297D01*
X150721900Y-91729147D01*
X150582519Y-91636015D01*
X150463985Y-91517481D01*
X150370853Y-91378100D01*
X150306703Y-91223228D01*
X150274000Y-91058816D01*
X150274000Y-90891184D01*
X150306703Y-90726772D01*
X150370853Y-90571900D01*
X150463985Y-90432519D01*
X150582519Y-90313985D01*
X150721900Y-90220853D01*
X150876772Y-90156703D01*
X151041184Y-90124000D01*
X151208816Y-90124000D01*
X151373228Y-90156703D01*
X151373228Y-90156703D01*
G37*
G36*
X113248228Y-90156703D02*
G01*
X113403100Y-90220853D01*
X113542481Y-90313985D01*
X113661015Y-90432519D01*
X113754147Y-90571900D01*
X113818297Y-90726772D01*
X113851000Y-90891184D01*
X113851000Y-91058816D01*
X113818297Y-91223228D01*
X113754147Y-91378100D01*
X113661015Y-91517481D01*
X113542481Y-91636015D01*
X113403100Y-91729147D01*
X113248228Y-91793297D01*
X113083816Y-91826000D01*
X112916184Y-91826000D01*
X112751772Y-91793297D01*
X112596900Y-91729147D01*
X112457519Y-91636015D01*
X112338985Y-91517481D01*
X112245853Y-91378100D01*
X112181703Y-91223228D01*
X112149000Y-91058816D01*
X112149000Y-90891184D01*
X112181703Y-90726772D01*
X112245853Y-90571900D01*
X112338985Y-90432519D01*
X112457519Y-90313985D01*
X112596900Y-90220853D01*
X112751772Y-90156703D01*
X112916184Y-90124000D01*
X113083816Y-90124000D01*
X113248228Y-90156703D01*
X113248228Y-90156703D01*
G37*
G36*
X75148228Y-90156703D02*
G01*
X75303100Y-90220853D01*
X75442481Y-90313985D01*
X75561015Y-90432519D01*
X75654147Y-90571900D01*
X75718297Y-90726772D01*
X75751000Y-90891184D01*
X75751000Y-91058816D01*
X75718297Y-91223228D01*
X75654147Y-91378100D01*
X75561015Y-91517481D01*
X75442481Y-91636015D01*
X75303100Y-91729147D01*
X75148228Y-91793297D01*
X74983816Y-91826000D01*
X74816184Y-91826000D01*
X74651772Y-91793297D01*
X74496900Y-91729147D01*
X74357519Y-91636015D01*
X74238985Y-91517481D01*
X74145853Y-91378100D01*
X74081703Y-91223228D01*
X74049000Y-91058816D01*
X74049000Y-90891184D01*
X74081703Y-90726772D01*
X74145853Y-90571900D01*
X74238985Y-90432519D01*
X74357519Y-90313985D01*
X74496900Y-90220853D01*
X74651772Y-90156703D01*
X74816184Y-90124000D01*
X74983816Y-90124000D01*
X75148228Y-90156703D01*
X75148228Y-90156703D01*
G37*
G36*
X227573228Y-90106703D02*
G01*
X227728100Y-90170853D01*
X227867481Y-90263985D01*
X227986015Y-90382519D01*
X228079147Y-90521900D01*
X228143297Y-90676772D01*
X228176000Y-90841184D01*
X228176000Y-91008816D01*
X228143297Y-91173228D01*
X228079147Y-91328100D01*
X227986015Y-91467481D01*
X227867481Y-91586015D01*
X227728100Y-91679147D01*
X227573228Y-91743297D01*
X227408816Y-91776000D01*
X227241184Y-91776000D01*
X227076772Y-91743297D01*
X226921900Y-91679147D01*
X226782519Y-91586015D01*
X226663985Y-91467481D01*
X226570853Y-91328100D01*
X226506703Y-91173228D01*
X226474000Y-91008816D01*
X226474000Y-90841184D01*
X226506703Y-90676772D01*
X226570853Y-90521900D01*
X226663985Y-90382519D01*
X226782519Y-90263985D01*
X226921900Y-90170853D01*
X227076772Y-90106703D01*
X227241184Y-90074000D01*
X227408816Y-90074000D01*
X227573228Y-90106703D01*
X227573228Y-90106703D01*
G37*
G36*
X132323228Y-90106703D02*
G01*
X132478100Y-90170853D01*
X132617481Y-90263985D01*
X132736015Y-90382519D01*
X132829147Y-90521900D01*
X132893297Y-90676772D01*
X132926000Y-90841184D01*
X132926000Y-91008816D01*
X132893297Y-91173228D01*
X132829147Y-91328100D01*
X132736015Y-91467481D01*
X132617481Y-91586015D01*
X132478100Y-91679147D01*
X132323228Y-91743297D01*
X132158816Y-91776000D01*
X131991184Y-91776000D01*
X131826772Y-91743297D01*
X131671900Y-91679147D01*
X131532519Y-91586015D01*
X131413985Y-91467481D01*
X131320853Y-91328100D01*
X131256703Y-91173228D01*
X131224000Y-91008816D01*
X131224000Y-90841184D01*
X131256703Y-90676772D01*
X131320853Y-90521900D01*
X131413985Y-90382519D01*
X131532519Y-90263985D01*
X131671900Y-90170853D01*
X131826772Y-90106703D01*
X131991184Y-90074000D01*
X132158816Y-90074000D01*
X132323228Y-90106703D01*
X132323228Y-90106703D01*
G37*
G36*
X158523228Y-85681703D02*
G01*
X158678100Y-85745853D01*
X158817481Y-85838985D01*
X158936015Y-85957519D01*
X159029147Y-86096900D01*
X159093297Y-86251772D01*
X159126000Y-86416184D01*
X159126000Y-86583816D01*
X159093297Y-86748228D01*
X159029147Y-86903100D01*
X158936015Y-87042481D01*
X158817481Y-87161015D01*
X158678100Y-87254147D01*
X158523228Y-87318297D01*
X158358816Y-87351000D01*
X158191184Y-87351000D01*
X158026772Y-87318297D01*
X157871900Y-87254147D01*
X157732519Y-87161015D01*
X157613985Y-87042481D01*
X157520853Y-86903100D01*
X157456703Y-86748228D01*
X157424000Y-86583816D01*
X157424000Y-86416184D01*
X157456703Y-86251772D01*
X157520853Y-86096900D01*
X157613985Y-85957519D01*
X157732519Y-85838985D01*
X157871900Y-85745853D01*
X158026772Y-85681703D01*
X158191184Y-85649000D01*
X158358816Y-85649000D01*
X158523228Y-85681703D01*
X158523228Y-85681703D01*
G37*
G36*
X166926000Y-87351000D02*
G01*
X165224000Y-87351000D01*
X165224000Y-85649000D01*
X166926000Y-85649000D01*
X166926000Y-87351000D01*
X166926000Y-87351000D01*
G37*
G36*
X169761883Y-81528335D02*
G01*
X169930640Y-81598236D01*
X170082518Y-81699718D01*
X170211682Y-81828882D01*
X170313164Y-81980760D01*
X170383065Y-82149517D01*
X170418700Y-82328668D01*
X170418700Y-82511332D01*
X170383065Y-82690483D01*
X170313164Y-82859240D01*
X170211682Y-83011118D01*
X170082518Y-83140282D01*
X169930640Y-83241764D01*
X169761883Y-83311665D01*
X169582732Y-83347300D01*
X169400068Y-83347300D01*
X169220917Y-83311665D01*
X169052160Y-83241764D01*
X168900282Y-83140282D01*
X168771118Y-83011118D01*
X168669636Y-82859240D01*
X168599735Y-82690483D01*
X168564100Y-82511332D01*
X168564100Y-82328668D01*
X168599735Y-82149517D01*
X168669636Y-81980760D01*
X168771118Y-81828882D01*
X168900282Y-81699718D01*
X169052160Y-81598236D01*
X169220917Y-81528335D01*
X169400068Y-81492700D01*
X169582732Y-81492700D01*
X169761883Y-81528335D01*
X169761883Y-81528335D01*
G37*
G36*
X154979083Y-81528335D02*
G01*
X155147840Y-81598236D01*
X155299718Y-81699718D01*
X155428882Y-81828882D01*
X155530364Y-81980760D01*
X155600265Y-82149517D01*
X155635900Y-82328668D01*
X155635900Y-82511332D01*
X155600265Y-82690483D01*
X155530364Y-82859240D01*
X155428882Y-83011118D01*
X155299718Y-83140282D01*
X155147840Y-83241764D01*
X154979083Y-83311665D01*
X154799932Y-83347300D01*
X154617268Y-83347300D01*
X154438117Y-83311665D01*
X154269360Y-83241764D01*
X154117482Y-83140282D01*
X153988318Y-83011118D01*
X153886836Y-82859240D01*
X153816935Y-82690483D01*
X153781300Y-82511332D01*
X153781300Y-82328668D01*
X153816935Y-82149517D01*
X153886836Y-81980760D01*
X153988318Y-81828882D01*
X154117482Y-81699718D01*
X154269360Y-81598236D01*
X154438117Y-81528335D01*
X154617268Y-81492700D01*
X154799932Y-81492700D01*
X154979083Y-81528335D01*
X154979083Y-81528335D01*
G37*
G36*
X154521883Y-78988335D02*
G01*
X154690640Y-79058236D01*
X154842518Y-79159718D01*
X154971682Y-79288882D01*
X155073164Y-79440760D01*
X155143065Y-79609517D01*
X155178700Y-79788668D01*
X155178700Y-79971332D01*
X155143065Y-80150483D01*
X155073164Y-80319240D01*
X154971682Y-80471118D01*
X154842518Y-80600282D01*
X154690640Y-80701764D01*
X154521883Y-80771665D01*
X154342732Y-80807300D01*
X154160068Y-80807300D01*
X153980917Y-80771665D01*
X153812160Y-80701764D01*
X153660282Y-80600282D01*
X153531118Y-80471118D01*
X153429636Y-80319240D01*
X153359735Y-80150483D01*
X153324100Y-79971332D01*
X153324100Y-79788668D01*
X153359735Y-79609517D01*
X153429636Y-79440760D01*
X153531118Y-79288882D01*
X153660282Y-79159718D01*
X153812160Y-79058236D01*
X153980917Y-78988335D01*
X154160068Y-78952700D01*
X154342732Y-78952700D01*
X154521883Y-78988335D01*
X154521883Y-78988335D01*
G37*
G36*
X170219083Y-78988335D02*
G01*
X170387840Y-79058236D01*
X170539718Y-79159718D01*
X170668882Y-79288882D01*
X170770364Y-79440760D01*
X170840265Y-79609517D01*
X170875900Y-79788668D01*
X170875900Y-79971332D01*
X170840265Y-80150483D01*
X170770364Y-80319240D01*
X170668882Y-80471118D01*
X170539718Y-80600282D01*
X170387840Y-80701764D01*
X170219083Y-80771665D01*
X170039932Y-80807300D01*
X169857268Y-80807300D01*
X169678117Y-80771665D01*
X169509360Y-80701764D01*
X169357482Y-80600282D01*
X169228318Y-80471118D01*
X169126836Y-80319240D01*
X169056935Y-80150483D01*
X169021300Y-79971332D01*
X169021300Y-79788668D01*
X169056935Y-79609517D01*
X169126836Y-79440760D01*
X169228318Y-79288882D01*
X169357482Y-79159718D01*
X169509360Y-79058236D01*
X169678117Y-78988335D01*
X169857268Y-78952700D01*
X170039932Y-78952700D01*
X170219083Y-78988335D01*
X170219083Y-78988335D01*
G37*
G36*
X113851000Y-80601000D02*
G01*
X112149000Y-80601000D01*
X112149000Y-78899000D01*
X113851000Y-78899000D01*
X113851000Y-80601000D01*
X113851000Y-80601000D01*
G37*
G36*
X136001000Y-80551000D02*
G01*
X134299000Y-80551000D01*
X134299000Y-78849000D01*
X136001000Y-78849000D01*
X136001000Y-80551000D01*
X136001000Y-80551000D01*
G37*
G36*
X132926000Y-80551000D02*
G01*
X131224000Y-80551000D01*
X131224000Y-78849000D01*
X132926000Y-78849000D01*
X132926000Y-80551000D01*
X132926000Y-80551000D01*
G37*
G36*
X94801000Y-80551000D02*
G01*
X93099000Y-80551000D01*
X93099000Y-78849000D01*
X94801000Y-78849000D01*
X94801000Y-80551000D01*
X94801000Y-80551000D01*
G37*
G36*
X75776000Y-80526000D02*
G01*
X74074000Y-80526000D01*
X74074000Y-78824000D01*
X75776000Y-78824000D01*
X75776000Y-80526000D01*
X75776000Y-80526000D01*
G37*
G36*
X231101000Y-80251000D02*
G01*
X229399000Y-80251000D01*
X229399000Y-78549000D01*
X231101000Y-78549000D01*
X231101000Y-80251000D01*
X231101000Y-80251000D01*
G37*
G36*
X190201000Y-80251000D02*
G01*
X188499000Y-80251000D01*
X188499000Y-78549000D01*
X190201000Y-78549000D01*
X190201000Y-80251000D01*
X190201000Y-80251000D01*
G37*
G36*
X228201000Y-80151000D02*
G01*
X226499000Y-80151000D01*
X226499000Y-78449000D01*
X228201000Y-78449000D01*
X228201000Y-80151000D01*
X228201000Y-80151000D01*
G37*
G36*
X209226000Y-80126000D02*
G01*
X207524000Y-80126000D01*
X207524000Y-78424000D01*
X209226000Y-78424000D01*
X209226000Y-80126000D01*
X209226000Y-80126000D01*
G37*
G36*
X154979083Y-76448335D02*
G01*
X155147840Y-76518236D01*
X155299718Y-76619718D01*
X155428882Y-76748882D01*
X155530364Y-76900760D01*
X155600265Y-77069517D01*
X155635900Y-77248668D01*
X155635900Y-77431332D01*
X155600265Y-77610483D01*
X155530364Y-77779240D01*
X155428882Y-77931118D01*
X155299718Y-78060282D01*
X155147840Y-78161764D01*
X154979083Y-78231665D01*
X154799932Y-78267300D01*
X154617268Y-78267300D01*
X154438117Y-78231665D01*
X154269360Y-78161764D01*
X154117482Y-78060282D01*
X153988318Y-77931118D01*
X153886836Y-77779240D01*
X153816935Y-77610483D01*
X153781300Y-77431332D01*
X153781300Y-77248668D01*
X153816935Y-77069517D01*
X153886836Y-76900760D01*
X153988318Y-76748882D01*
X154117482Y-76619718D01*
X154269360Y-76518236D01*
X154438117Y-76448335D01*
X154617268Y-76412700D01*
X154799932Y-76412700D01*
X154979083Y-76448335D01*
X154979083Y-76448335D01*
G37*
G36*
X169761883Y-76448335D02*
G01*
X169930640Y-76518236D01*
X170082518Y-76619718D01*
X170211682Y-76748882D01*
X170313164Y-76900760D01*
X170383065Y-77069517D01*
X170418700Y-77248668D01*
X170418700Y-77431332D01*
X170383065Y-77610483D01*
X170313164Y-77779240D01*
X170211682Y-77931118D01*
X170082518Y-78060282D01*
X169930640Y-78161764D01*
X169761883Y-78231665D01*
X169582732Y-78267300D01*
X169400068Y-78267300D01*
X169220917Y-78231665D01*
X169052160Y-78161764D01*
X168900282Y-78060282D01*
X168771118Y-77931118D01*
X168669636Y-77779240D01*
X168599735Y-77610483D01*
X168564100Y-77431332D01*
X168564100Y-77248668D01*
X168599735Y-77069517D01*
X168669636Y-76900760D01*
X168771118Y-76748882D01*
X168900282Y-76619718D01*
X169052160Y-76518236D01*
X169220917Y-76448335D01*
X169400068Y-76412700D01*
X169582732Y-76412700D01*
X169761883Y-76448335D01*
X169761883Y-76448335D01*
G37*
G36*
X67496474Y-73733684D02*
G01*
X67714474Y-73823983D01*
X67868623Y-73887833D01*
X68203548Y-74111623D01*
X68488377Y-74396452D01*
X68712167Y-74731377D01*
X68744562Y-74809586D01*
X68866316Y-75103526D01*
X68944900Y-75498594D01*
X68944900Y-75901406D01*
X68866316Y-76296474D01*
X68815451Y-76419272D01*
X68712167Y-76668623D01*
X68488377Y-77003548D01*
X68203548Y-77288377D01*
X67868623Y-77512167D01*
X67714474Y-77576017D01*
X67496474Y-77666316D01*
X67101406Y-77744900D01*
X66698594Y-77744900D01*
X66303526Y-77666316D01*
X66085526Y-77576017D01*
X65931377Y-77512167D01*
X65596452Y-77288377D01*
X65311623Y-77003548D01*
X65087833Y-76668623D01*
X64984549Y-76419272D01*
X64933684Y-76296474D01*
X64855100Y-75901406D01*
X64855100Y-75498594D01*
X64933684Y-75103526D01*
X65055438Y-74809586D01*
X65087833Y-74731377D01*
X65311623Y-74396452D01*
X65596452Y-74111623D01*
X65931377Y-73887833D01*
X66085526Y-73823983D01*
X66303526Y-73733684D01*
X66698594Y-73655100D01*
X67101406Y-73655100D01*
X67496474Y-73733684D01*
X67496474Y-73733684D01*
G37*
G36*
X124671474Y-73733684D02*
G01*
X124889474Y-73823983D01*
X125043623Y-73887833D01*
X125378548Y-74111623D01*
X125663377Y-74396452D01*
X125887167Y-74731377D01*
X125919562Y-74809586D01*
X126041316Y-75103526D01*
X126119900Y-75498594D01*
X126119900Y-75901406D01*
X126041316Y-76296474D01*
X125990451Y-76419272D01*
X125887167Y-76668623D01*
X125663377Y-77003548D01*
X125378548Y-77288377D01*
X125043623Y-77512167D01*
X124889474Y-77576017D01*
X124671474Y-77666316D01*
X124276406Y-77744900D01*
X123873594Y-77744900D01*
X123478526Y-77666316D01*
X123260526Y-77576017D01*
X123106377Y-77512167D01*
X122771452Y-77288377D01*
X122486623Y-77003548D01*
X122262833Y-76668623D01*
X122159549Y-76419272D01*
X122108684Y-76296474D01*
X122030100Y-75901406D01*
X122030100Y-75498594D01*
X122108684Y-75103526D01*
X122230438Y-74809586D01*
X122262833Y-74731377D01*
X122486623Y-74396452D01*
X122771452Y-74111623D01*
X123106377Y-73887833D01*
X123260526Y-73823983D01*
X123478526Y-73733684D01*
X123873594Y-73655100D01*
X124276406Y-73655100D01*
X124671474Y-73733684D01*
X124671474Y-73733684D01*
G37*
G36*
X86546474Y-73733684D02*
G01*
X86764474Y-73823983D01*
X86918623Y-73887833D01*
X87253548Y-74111623D01*
X87538377Y-74396452D01*
X87762167Y-74731377D01*
X87794562Y-74809586D01*
X87916316Y-75103526D01*
X87994900Y-75498594D01*
X87994900Y-75901406D01*
X87916316Y-76296474D01*
X87865451Y-76419272D01*
X87762167Y-76668623D01*
X87538377Y-77003548D01*
X87253548Y-77288377D01*
X86918623Y-77512167D01*
X86764474Y-77576017D01*
X86546474Y-77666316D01*
X86151406Y-77744900D01*
X85748594Y-77744900D01*
X85353526Y-77666316D01*
X85135526Y-77576017D01*
X84981377Y-77512167D01*
X84646452Y-77288377D01*
X84361623Y-77003548D01*
X84137833Y-76668623D01*
X84034549Y-76419272D01*
X83983684Y-76296474D01*
X83905100Y-75901406D01*
X83905100Y-75498594D01*
X83983684Y-75103526D01*
X84105438Y-74809586D01*
X84137833Y-74731377D01*
X84361623Y-74396452D01*
X84646452Y-74111623D01*
X84981377Y-73887833D01*
X85135526Y-73823983D01*
X85353526Y-73733684D01*
X85748594Y-73655100D01*
X86151406Y-73655100D01*
X86546474Y-73733684D01*
X86546474Y-73733684D01*
G37*
G36*
X238971474Y-73733684D02*
G01*
X239189474Y-73823983D01*
X239343623Y-73887833D01*
X239678548Y-74111623D01*
X239963377Y-74396452D01*
X240187167Y-74731377D01*
X240219562Y-74809586D01*
X240341316Y-75103526D01*
X240419900Y-75498594D01*
X240419900Y-75901406D01*
X240341316Y-76296474D01*
X240290451Y-76419272D01*
X240187167Y-76668623D01*
X239963377Y-77003548D01*
X239678548Y-77288377D01*
X239343623Y-77512167D01*
X239189474Y-77576017D01*
X238971474Y-77666316D01*
X238576406Y-77744900D01*
X238173594Y-77744900D01*
X237778526Y-77666316D01*
X237560526Y-77576017D01*
X237406377Y-77512167D01*
X237071452Y-77288377D01*
X236786623Y-77003548D01*
X236562833Y-76668623D01*
X236459549Y-76419272D01*
X236408684Y-76296474D01*
X236330100Y-75901406D01*
X236330100Y-75498594D01*
X236408684Y-75103526D01*
X236530438Y-74809586D01*
X236562833Y-74731377D01*
X236786623Y-74396452D01*
X237071452Y-74111623D01*
X237406377Y-73887833D01*
X237560526Y-73823983D01*
X237778526Y-73733684D01*
X238173594Y-73655100D01*
X238576406Y-73655100D01*
X238971474Y-73733684D01*
X238971474Y-73733684D01*
G37*
G36*
X219921474Y-73733684D02*
G01*
X220139474Y-73823983D01*
X220293623Y-73887833D01*
X220628548Y-74111623D01*
X220913377Y-74396452D01*
X221137167Y-74731377D01*
X221169562Y-74809586D01*
X221291316Y-75103526D01*
X221369900Y-75498594D01*
X221369900Y-75901406D01*
X221291316Y-76296474D01*
X221240451Y-76419272D01*
X221137167Y-76668623D01*
X220913377Y-77003548D01*
X220628548Y-77288377D01*
X220293623Y-77512167D01*
X220139474Y-77576017D01*
X219921474Y-77666316D01*
X219526406Y-77744900D01*
X219123594Y-77744900D01*
X218728526Y-77666316D01*
X218510526Y-77576017D01*
X218356377Y-77512167D01*
X218021452Y-77288377D01*
X217736623Y-77003548D01*
X217512833Y-76668623D01*
X217409549Y-76419272D01*
X217358684Y-76296474D01*
X217280100Y-75901406D01*
X217280100Y-75498594D01*
X217358684Y-75103526D01*
X217480438Y-74809586D01*
X217512833Y-74731377D01*
X217736623Y-74396452D01*
X218021452Y-74111623D01*
X218356377Y-73887833D01*
X218510526Y-73823983D01*
X218728526Y-73733684D01*
X219123594Y-73655100D01*
X219526406Y-73655100D01*
X219921474Y-73733684D01*
X219921474Y-73733684D01*
G37*
G36*
X200871474Y-73733684D02*
G01*
X201089474Y-73823983D01*
X201243623Y-73887833D01*
X201578548Y-74111623D01*
X201863377Y-74396452D01*
X202087167Y-74731377D01*
X202119562Y-74809586D01*
X202241316Y-75103526D01*
X202319900Y-75498594D01*
X202319900Y-75901406D01*
X202241316Y-76296474D01*
X202190451Y-76419272D01*
X202087167Y-76668623D01*
X201863377Y-77003548D01*
X201578548Y-77288377D01*
X201243623Y-77512167D01*
X201089474Y-77576017D01*
X200871474Y-77666316D01*
X200476406Y-77744900D01*
X200073594Y-77744900D01*
X199678526Y-77666316D01*
X199460526Y-77576017D01*
X199306377Y-77512167D01*
X198971452Y-77288377D01*
X198686623Y-77003548D01*
X198462833Y-76668623D01*
X198359549Y-76419272D01*
X198308684Y-76296474D01*
X198230100Y-75901406D01*
X198230100Y-75498594D01*
X198308684Y-75103526D01*
X198430438Y-74809586D01*
X198462833Y-74731377D01*
X198686623Y-74396452D01*
X198971452Y-74111623D01*
X199306377Y-73887833D01*
X199460526Y-73823983D01*
X199678526Y-73733684D01*
X200073594Y-73655100D01*
X200476406Y-73655100D01*
X200871474Y-73733684D01*
X200871474Y-73733684D01*
G37*
G36*
X143721474Y-73733684D02*
G01*
X143939474Y-73823983D01*
X144093623Y-73887833D01*
X144428548Y-74111623D01*
X144713377Y-74396452D01*
X144937167Y-74731377D01*
X144969562Y-74809586D01*
X145091316Y-75103526D01*
X145169900Y-75498594D01*
X145169900Y-75901406D01*
X145091316Y-76296474D01*
X145040451Y-76419272D01*
X144937167Y-76668623D01*
X144713377Y-77003548D01*
X144428548Y-77288377D01*
X144093623Y-77512167D01*
X143939474Y-77576017D01*
X143721474Y-77666316D01*
X143326406Y-77744900D01*
X142923594Y-77744900D01*
X142528526Y-77666316D01*
X142310526Y-77576017D01*
X142156377Y-77512167D01*
X141821452Y-77288377D01*
X141536623Y-77003548D01*
X141312833Y-76668623D01*
X141209549Y-76419272D01*
X141158684Y-76296474D01*
X141080100Y-75901406D01*
X141080100Y-75498594D01*
X141158684Y-75103526D01*
X141280438Y-74809586D01*
X141312833Y-74731377D01*
X141536623Y-74396452D01*
X141821452Y-74111623D01*
X142156377Y-73887833D01*
X142310526Y-73823983D01*
X142528526Y-73733684D01*
X142923594Y-73655100D01*
X143326406Y-73655100D01*
X143721474Y-73733684D01*
X143721474Y-73733684D01*
G37*
G36*
X162746474Y-73733684D02*
G01*
X162964474Y-73823983D01*
X163118623Y-73887833D01*
X163453548Y-74111623D01*
X163738377Y-74396452D01*
X163962167Y-74731377D01*
X163994562Y-74809586D01*
X164116316Y-75103526D01*
X164194900Y-75498594D01*
X164194900Y-75901406D01*
X164116316Y-76296474D01*
X164065451Y-76419272D01*
X163962167Y-76668623D01*
X163738377Y-77003548D01*
X163453548Y-77288377D01*
X163118623Y-77512167D01*
X162964474Y-77576017D01*
X162746474Y-77666316D01*
X162351406Y-77744900D01*
X161948594Y-77744900D01*
X161553526Y-77666316D01*
X161335526Y-77576017D01*
X161181377Y-77512167D01*
X160846452Y-77288377D01*
X160561623Y-77003548D01*
X160337833Y-76668623D01*
X160234549Y-76419272D01*
X160183684Y-76296474D01*
X160105100Y-75901406D01*
X160105100Y-75498594D01*
X160183684Y-75103526D01*
X160305438Y-74809586D01*
X160337833Y-74731377D01*
X160561623Y-74396452D01*
X160846452Y-74111623D01*
X161181377Y-73887833D01*
X161335526Y-73823983D01*
X161553526Y-73733684D01*
X161948594Y-73655100D01*
X162351406Y-73655100D01*
X162746474Y-73733684D01*
X162746474Y-73733684D01*
G37*
G36*
X105621474Y-73733684D02*
G01*
X105839474Y-73823983D01*
X105993623Y-73887833D01*
X106328548Y-74111623D01*
X106613377Y-74396452D01*
X106837167Y-74731377D01*
X106869562Y-74809586D01*
X106991316Y-75103526D01*
X107069900Y-75498594D01*
X107069900Y-75901406D01*
X106991316Y-76296474D01*
X106940451Y-76419272D01*
X106837167Y-76668623D01*
X106613377Y-77003548D01*
X106328548Y-77288377D01*
X105993623Y-77512167D01*
X105839474Y-77576017D01*
X105621474Y-77666316D01*
X105226406Y-77744900D01*
X104823594Y-77744900D01*
X104428526Y-77666316D01*
X104210526Y-77576017D01*
X104056377Y-77512167D01*
X103721452Y-77288377D01*
X103436623Y-77003548D01*
X103212833Y-76668623D01*
X103109549Y-76419272D01*
X103058684Y-76296474D01*
X102980100Y-75901406D01*
X102980100Y-75498594D01*
X103058684Y-75103526D01*
X103180438Y-74809586D01*
X103212833Y-74731377D01*
X103436623Y-74396452D01*
X103721452Y-74111623D01*
X104056377Y-73887833D01*
X104210526Y-73823983D01*
X104428526Y-73733684D01*
X104823594Y-73655100D01*
X105226406Y-73655100D01*
X105621474Y-73733684D01*
X105621474Y-73733684D01*
G37*
G36*
X181821474Y-73708684D02*
G01*
X182039474Y-73798983D01*
X182193623Y-73862833D01*
X182528548Y-74086623D01*
X182813377Y-74371452D01*
X183037167Y-74706377D01*
X183069562Y-74784586D01*
X183191316Y-75078526D01*
X183269900Y-75473594D01*
X183269900Y-75876406D01*
X183191316Y-76271474D01*
X183140451Y-76394272D01*
X183037167Y-76643623D01*
X182813377Y-76978548D01*
X182528548Y-77263377D01*
X182193623Y-77487167D01*
X182133267Y-77512167D01*
X181821474Y-77641316D01*
X181426406Y-77719900D01*
X181023594Y-77719900D01*
X180628526Y-77641316D01*
X180316733Y-77512167D01*
X180256377Y-77487167D01*
X179921452Y-77263377D01*
X179636623Y-76978548D01*
X179412833Y-76643623D01*
X179309549Y-76394272D01*
X179258684Y-76271474D01*
X179180100Y-75876406D01*
X179180100Y-75473594D01*
X179258684Y-75078526D01*
X179380438Y-74784586D01*
X179412833Y-74706377D01*
X179636623Y-74371452D01*
X179921452Y-74086623D01*
X180256377Y-73862833D01*
X180410526Y-73798983D01*
X180628526Y-73708684D01*
X181023594Y-73630100D01*
X181426406Y-73630100D01*
X181821474Y-73708684D01*
X181821474Y-73708684D01*
G37*
G36*
X72250104Y-74809585D02*
G01*
X72418626Y-74879389D01*
X72570291Y-74980728D01*
X72699272Y-75109709D01*
X72800611Y-75261374D01*
X72870415Y-75429896D01*
X72906000Y-75608797D01*
X72906000Y-75791203D01*
X72870415Y-75970104D01*
X72800611Y-76138626D01*
X72699272Y-76290291D01*
X72570291Y-76419272D01*
X72418626Y-76520611D01*
X72250104Y-76590415D01*
X72071203Y-76626000D01*
X71888797Y-76626000D01*
X71709896Y-76590415D01*
X71541374Y-76520611D01*
X71389709Y-76419272D01*
X71260728Y-76290291D01*
X71159389Y-76138626D01*
X71089585Y-75970104D01*
X71054000Y-75791203D01*
X71054000Y-75608797D01*
X71089585Y-75429896D01*
X71159389Y-75261374D01*
X71260728Y-75109709D01*
X71389709Y-74980728D01*
X71541374Y-74879389D01*
X71709896Y-74809585D01*
X71888797Y-74774000D01*
X72071203Y-74774000D01*
X72250104Y-74809585D01*
X72250104Y-74809585D01*
G37*
G36*
X138315104Y-74809585D02*
G01*
X138483626Y-74879389D01*
X138635291Y-74980728D01*
X138764272Y-75109709D01*
X138865611Y-75261374D01*
X138935415Y-75429896D01*
X138971000Y-75608797D01*
X138971000Y-75791203D01*
X138935415Y-75970104D01*
X138865611Y-76138626D01*
X138764272Y-76290291D01*
X138635291Y-76419272D01*
X138483626Y-76520611D01*
X138315104Y-76590415D01*
X138136203Y-76626000D01*
X137953797Y-76626000D01*
X137774896Y-76590415D01*
X137606374Y-76520611D01*
X137454709Y-76419272D01*
X137325728Y-76290291D01*
X137224389Y-76138626D01*
X137154585Y-75970104D01*
X137119000Y-75791203D01*
X137119000Y-75608797D01*
X137154585Y-75429896D01*
X137224389Y-75261374D01*
X137325728Y-75109709D01*
X137454709Y-74980728D01*
X137606374Y-74879389D01*
X137774896Y-74809585D01*
X137953797Y-74774000D01*
X138136203Y-74774000D01*
X138315104Y-74809585D01*
X138315104Y-74809585D01*
G37*
G36*
X62090104Y-74809585D02*
G01*
X62258626Y-74879389D01*
X62410291Y-74980728D01*
X62539272Y-75109709D01*
X62640611Y-75261374D01*
X62710415Y-75429896D01*
X62746000Y-75608797D01*
X62746000Y-75791203D01*
X62710415Y-75970104D01*
X62640611Y-76138626D01*
X62539272Y-76290291D01*
X62410291Y-76419272D01*
X62258626Y-76520611D01*
X62090104Y-76590415D01*
X61911203Y-76626000D01*
X61728797Y-76626000D01*
X61549896Y-76590415D01*
X61381374Y-76520611D01*
X61229709Y-76419272D01*
X61100728Y-76290291D01*
X60999389Y-76138626D01*
X60929585Y-75970104D01*
X60894000Y-75791203D01*
X60894000Y-75608797D01*
X60929585Y-75429896D01*
X60999389Y-75261374D01*
X61100728Y-75109709D01*
X61229709Y-74980728D01*
X61381374Y-74879389D01*
X61549896Y-74809585D01*
X61728797Y-74774000D01*
X61911203Y-74774000D01*
X62090104Y-74809585D01*
X62090104Y-74809585D01*
G37*
G36*
X224675104Y-74809585D02*
G01*
X224843626Y-74879389D01*
X224995291Y-74980728D01*
X225124272Y-75109709D01*
X225225611Y-75261374D01*
X225295415Y-75429896D01*
X225331000Y-75608797D01*
X225331000Y-75791203D01*
X225295415Y-75970104D01*
X225225611Y-76138626D01*
X225124272Y-76290291D01*
X224995291Y-76419272D01*
X224843626Y-76520611D01*
X224675104Y-76590415D01*
X224496203Y-76626000D01*
X224313797Y-76626000D01*
X224134896Y-76590415D01*
X223966374Y-76520611D01*
X223814709Y-76419272D01*
X223685728Y-76290291D01*
X223584389Y-76138626D01*
X223514585Y-75970104D01*
X223479000Y-75791203D01*
X223479000Y-75608797D01*
X223514585Y-75429896D01*
X223584389Y-75261374D01*
X223685728Y-75109709D01*
X223814709Y-74980728D01*
X223966374Y-74879389D01*
X224134896Y-74809585D01*
X224313797Y-74774000D01*
X224496203Y-74774000D01*
X224675104Y-74809585D01*
X224675104Y-74809585D01*
G37*
G36*
X91300104Y-74809585D02*
G01*
X91468626Y-74879389D01*
X91620291Y-74980728D01*
X91749272Y-75109709D01*
X91850611Y-75261374D01*
X91920415Y-75429896D01*
X91956000Y-75608797D01*
X91956000Y-75791203D01*
X91920415Y-75970104D01*
X91850611Y-76138626D01*
X91749272Y-76290291D01*
X91620291Y-76419272D01*
X91468626Y-76520611D01*
X91300104Y-76590415D01*
X91121203Y-76626000D01*
X90938797Y-76626000D01*
X90759896Y-76590415D01*
X90591374Y-76520611D01*
X90439709Y-76419272D01*
X90310728Y-76290291D01*
X90209389Y-76138626D01*
X90139585Y-75970104D01*
X90104000Y-75791203D01*
X90104000Y-75608797D01*
X90139585Y-75429896D01*
X90209389Y-75261374D01*
X90310728Y-75109709D01*
X90439709Y-74980728D01*
X90591374Y-74879389D01*
X90759896Y-74809585D01*
X90938797Y-74774000D01*
X91121203Y-74774000D01*
X91300104Y-74809585D01*
X91300104Y-74809585D01*
G37*
G36*
X243725104Y-74809585D02*
G01*
X243893626Y-74879389D01*
X244045291Y-74980728D01*
X244174272Y-75109709D01*
X244275611Y-75261374D01*
X244345415Y-75429896D01*
X244381000Y-75608797D01*
X244381000Y-75791203D01*
X244345415Y-75970104D01*
X244275611Y-76138626D01*
X244174272Y-76290291D01*
X244045291Y-76419272D01*
X243893626Y-76520611D01*
X243725104Y-76590415D01*
X243546203Y-76626000D01*
X243363797Y-76626000D01*
X243184896Y-76590415D01*
X243016374Y-76520611D01*
X242864709Y-76419272D01*
X242735728Y-76290291D01*
X242634389Y-76138626D01*
X242564585Y-75970104D01*
X242529000Y-75791203D01*
X242529000Y-75608797D01*
X242564585Y-75429896D01*
X242634389Y-75261374D01*
X242735728Y-75109709D01*
X242864709Y-74980728D01*
X243016374Y-74879389D01*
X243184896Y-74809585D01*
X243363797Y-74774000D01*
X243546203Y-74774000D01*
X243725104Y-74809585D01*
X243725104Y-74809585D01*
G37*
G36*
X167500104Y-74809585D02*
G01*
X167668626Y-74879389D01*
X167820291Y-74980728D01*
X167949272Y-75109709D01*
X168050611Y-75261374D01*
X168120415Y-75429896D01*
X168156000Y-75608797D01*
X168156000Y-75791203D01*
X168120415Y-75970104D01*
X168050611Y-76138626D01*
X167949272Y-76290291D01*
X167820291Y-76419272D01*
X167668626Y-76520611D01*
X167500104Y-76590415D01*
X167321203Y-76626000D01*
X167138797Y-76626000D01*
X166959896Y-76590415D01*
X166791374Y-76520611D01*
X166639709Y-76419272D01*
X166510728Y-76290291D01*
X166409389Y-76138626D01*
X166339585Y-75970104D01*
X166304000Y-75791203D01*
X166304000Y-75608797D01*
X166339585Y-75429896D01*
X166409389Y-75261374D01*
X166510728Y-75109709D01*
X166639709Y-74980728D01*
X166791374Y-74879389D01*
X166959896Y-74809585D01*
X167138797Y-74774000D01*
X167321203Y-74774000D01*
X167500104Y-74809585D01*
X167500104Y-74809585D01*
G37*
G36*
X157340104Y-74809585D02*
G01*
X157508626Y-74879389D01*
X157660291Y-74980728D01*
X157789272Y-75109709D01*
X157890611Y-75261374D01*
X157960415Y-75429896D01*
X157996000Y-75608797D01*
X157996000Y-75791203D01*
X157960415Y-75970104D01*
X157890611Y-76138626D01*
X157789272Y-76290291D01*
X157660291Y-76419272D01*
X157508626Y-76520611D01*
X157340104Y-76590415D01*
X157161203Y-76626000D01*
X156978797Y-76626000D01*
X156799896Y-76590415D01*
X156631374Y-76520611D01*
X156479709Y-76419272D01*
X156350728Y-76290291D01*
X156249389Y-76138626D01*
X156179585Y-75970104D01*
X156144000Y-75791203D01*
X156144000Y-75608797D01*
X156179585Y-75429896D01*
X156249389Y-75261374D01*
X156350728Y-75109709D01*
X156479709Y-74980728D01*
X156631374Y-74879389D01*
X156799896Y-74809585D01*
X156978797Y-74774000D01*
X157161203Y-74774000D01*
X157340104Y-74809585D01*
X157340104Y-74809585D01*
G37*
G36*
X214515104Y-74809585D02*
G01*
X214683626Y-74879389D01*
X214835291Y-74980728D01*
X214964272Y-75109709D01*
X215065611Y-75261374D01*
X215135415Y-75429896D01*
X215171000Y-75608797D01*
X215171000Y-75791203D01*
X215135415Y-75970104D01*
X215065611Y-76138626D01*
X214964272Y-76290291D01*
X214835291Y-76419272D01*
X214683626Y-76520611D01*
X214515104Y-76590415D01*
X214336203Y-76626000D01*
X214153797Y-76626000D01*
X213974896Y-76590415D01*
X213806374Y-76520611D01*
X213654709Y-76419272D01*
X213525728Y-76290291D01*
X213424389Y-76138626D01*
X213354585Y-75970104D01*
X213319000Y-75791203D01*
X213319000Y-75608797D01*
X213354585Y-75429896D01*
X213424389Y-75261374D01*
X213525728Y-75109709D01*
X213654709Y-74980728D01*
X213806374Y-74879389D01*
X213974896Y-74809585D01*
X214153797Y-74774000D01*
X214336203Y-74774000D01*
X214515104Y-74809585D01*
X214515104Y-74809585D01*
G37*
G36*
X148475104Y-74809585D02*
G01*
X148643626Y-74879389D01*
X148795291Y-74980728D01*
X148924272Y-75109709D01*
X149025611Y-75261374D01*
X149095415Y-75429896D01*
X149131000Y-75608797D01*
X149131000Y-75791203D01*
X149095415Y-75970104D01*
X149025611Y-76138626D01*
X148924272Y-76290291D01*
X148795291Y-76419272D01*
X148643626Y-76520611D01*
X148475104Y-76590415D01*
X148296203Y-76626000D01*
X148113797Y-76626000D01*
X147934896Y-76590415D01*
X147766374Y-76520611D01*
X147614709Y-76419272D01*
X147485728Y-76290291D01*
X147384389Y-76138626D01*
X147314585Y-75970104D01*
X147279000Y-75791203D01*
X147279000Y-75608797D01*
X147314585Y-75429896D01*
X147384389Y-75261374D01*
X147485728Y-75109709D01*
X147614709Y-74980728D01*
X147766374Y-74879389D01*
X147934896Y-74809585D01*
X148113797Y-74774000D01*
X148296203Y-74774000D01*
X148475104Y-74809585D01*
X148475104Y-74809585D01*
G37*
G36*
X81140104Y-74809585D02*
G01*
X81308626Y-74879389D01*
X81460291Y-74980728D01*
X81589272Y-75109709D01*
X81690611Y-75261374D01*
X81760415Y-75429896D01*
X81796000Y-75608797D01*
X81796000Y-75791203D01*
X81760415Y-75970104D01*
X81690611Y-76138626D01*
X81589272Y-76290291D01*
X81460291Y-76419272D01*
X81308626Y-76520611D01*
X81140104Y-76590415D01*
X80961203Y-76626000D01*
X80778797Y-76626000D01*
X80599896Y-76590415D01*
X80431374Y-76520611D01*
X80279709Y-76419272D01*
X80150728Y-76290291D01*
X80049389Y-76138626D01*
X79979585Y-75970104D01*
X79944000Y-75791203D01*
X79944000Y-75608797D01*
X79979585Y-75429896D01*
X80049389Y-75261374D01*
X80150728Y-75109709D01*
X80279709Y-74980728D01*
X80431374Y-74879389D01*
X80599896Y-74809585D01*
X80778797Y-74774000D01*
X80961203Y-74774000D01*
X81140104Y-74809585D01*
X81140104Y-74809585D01*
G37*
G36*
X205625104Y-74809585D02*
G01*
X205793626Y-74879389D01*
X205945291Y-74980728D01*
X206074272Y-75109709D01*
X206175611Y-75261374D01*
X206245415Y-75429896D01*
X206281000Y-75608797D01*
X206281000Y-75791203D01*
X206245415Y-75970104D01*
X206175611Y-76138626D01*
X206074272Y-76290291D01*
X205945291Y-76419272D01*
X205793626Y-76520611D01*
X205625104Y-76590415D01*
X205446203Y-76626000D01*
X205263797Y-76626000D01*
X205084896Y-76590415D01*
X204916374Y-76520611D01*
X204764709Y-76419272D01*
X204635728Y-76290291D01*
X204534389Y-76138626D01*
X204464585Y-75970104D01*
X204429000Y-75791203D01*
X204429000Y-75608797D01*
X204464585Y-75429896D01*
X204534389Y-75261374D01*
X204635728Y-75109709D01*
X204764709Y-74980728D01*
X204916374Y-74879389D01*
X205084896Y-74809585D01*
X205263797Y-74774000D01*
X205446203Y-74774000D01*
X205625104Y-74809585D01*
X205625104Y-74809585D01*
G37*
G36*
X100215104Y-74809585D02*
G01*
X100383626Y-74879389D01*
X100535291Y-74980728D01*
X100664272Y-75109709D01*
X100765611Y-75261374D01*
X100835415Y-75429896D01*
X100871000Y-75608797D01*
X100871000Y-75791203D01*
X100835415Y-75970104D01*
X100765611Y-76138626D01*
X100664272Y-76290291D01*
X100535291Y-76419272D01*
X100383626Y-76520611D01*
X100215104Y-76590415D01*
X100036203Y-76626000D01*
X99853797Y-76626000D01*
X99674896Y-76590415D01*
X99506374Y-76520611D01*
X99354709Y-76419272D01*
X99225728Y-76290291D01*
X99124389Y-76138626D01*
X99054585Y-75970104D01*
X99019000Y-75791203D01*
X99019000Y-75608797D01*
X99054585Y-75429896D01*
X99124389Y-75261374D01*
X99225728Y-75109709D01*
X99354709Y-74980728D01*
X99506374Y-74879389D01*
X99674896Y-74809585D01*
X99853797Y-74774000D01*
X100036203Y-74774000D01*
X100215104Y-74809585D01*
X100215104Y-74809585D01*
G37*
G36*
X110375104Y-74809585D02*
G01*
X110543626Y-74879389D01*
X110695291Y-74980728D01*
X110824272Y-75109709D01*
X110925611Y-75261374D01*
X110995415Y-75429896D01*
X111031000Y-75608797D01*
X111031000Y-75791203D01*
X110995415Y-75970104D01*
X110925611Y-76138626D01*
X110824272Y-76290291D01*
X110695291Y-76419272D01*
X110543626Y-76520611D01*
X110375104Y-76590415D01*
X110196203Y-76626000D01*
X110013797Y-76626000D01*
X109834896Y-76590415D01*
X109666374Y-76520611D01*
X109514709Y-76419272D01*
X109385728Y-76290291D01*
X109284389Y-76138626D01*
X109214585Y-75970104D01*
X109179000Y-75791203D01*
X109179000Y-75608797D01*
X109214585Y-75429896D01*
X109284389Y-75261374D01*
X109385728Y-75109709D01*
X109514709Y-74980728D01*
X109666374Y-74879389D01*
X109834896Y-74809585D01*
X110013797Y-74774000D01*
X110196203Y-74774000D01*
X110375104Y-74809585D01*
X110375104Y-74809585D01*
G37*
G36*
X195465104Y-74809585D02*
G01*
X195633626Y-74879389D01*
X195785291Y-74980728D01*
X195914272Y-75109709D01*
X196015611Y-75261374D01*
X196085415Y-75429896D01*
X196121000Y-75608797D01*
X196121000Y-75791203D01*
X196085415Y-75970104D01*
X196015611Y-76138626D01*
X195914272Y-76290291D01*
X195785291Y-76419272D01*
X195633626Y-76520611D01*
X195465104Y-76590415D01*
X195286203Y-76626000D01*
X195103797Y-76626000D01*
X194924896Y-76590415D01*
X194756374Y-76520611D01*
X194604709Y-76419272D01*
X194475728Y-76290291D01*
X194374389Y-76138626D01*
X194304585Y-75970104D01*
X194269000Y-75791203D01*
X194269000Y-75608797D01*
X194304585Y-75429896D01*
X194374389Y-75261374D01*
X194475728Y-75109709D01*
X194604709Y-74980728D01*
X194756374Y-74879389D01*
X194924896Y-74809585D01*
X195103797Y-74774000D01*
X195286203Y-74774000D01*
X195465104Y-74809585D01*
X195465104Y-74809585D01*
G37*
G36*
X129425104Y-74809585D02*
G01*
X129593626Y-74879389D01*
X129745291Y-74980728D01*
X129874272Y-75109709D01*
X129975611Y-75261374D01*
X130045415Y-75429896D01*
X130081000Y-75608797D01*
X130081000Y-75791203D01*
X130045415Y-75970104D01*
X129975611Y-76138626D01*
X129874272Y-76290291D01*
X129745291Y-76419272D01*
X129593626Y-76520611D01*
X129425104Y-76590415D01*
X129246203Y-76626000D01*
X129063797Y-76626000D01*
X128884896Y-76590415D01*
X128716374Y-76520611D01*
X128564709Y-76419272D01*
X128435728Y-76290291D01*
X128334389Y-76138626D01*
X128264585Y-75970104D01*
X128229000Y-75791203D01*
X128229000Y-75608797D01*
X128264585Y-75429896D01*
X128334389Y-75261374D01*
X128435728Y-75109709D01*
X128564709Y-74980728D01*
X128716374Y-74879389D01*
X128884896Y-74809585D01*
X129063797Y-74774000D01*
X129246203Y-74774000D01*
X129425104Y-74809585D01*
X129425104Y-74809585D01*
G37*
G36*
X119265104Y-74809585D02*
G01*
X119433626Y-74879389D01*
X119585291Y-74980728D01*
X119714272Y-75109709D01*
X119815611Y-75261374D01*
X119885415Y-75429896D01*
X119921000Y-75608797D01*
X119921000Y-75791203D01*
X119885415Y-75970104D01*
X119815611Y-76138626D01*
X119714272Y-76290291D01*
X119585291Y-76419272D01*
X119433626Y-76520611D01*
X119265104Y-76590415D01*
X119086203Y-76626000D01*
X118903797Y-76626000D01*
X118724896Y-76590415D01*
X118556374Y-76520611D01*
X118404709Y-76419272D01*
X118275728Y-76290291D01*
X118174389Y-76138626D01*
X118104585Y-75970104D01*
X118069000Y-75791203D01*
X118069000Y-75608797D01*
X118104585Y-75429896D01*
X118174389Y-75261374D01*
X118275728Y-75109709D01*
X118404709Y-74980728D01*
X118556374Y-74879389D01*
X118724896Y-74809585D01*
X118903797Y-74774000D01*
X119086203Y-74774000D01*
X119265104Y-74809585D01*
X119265104Y-74809585D01*
G37*
G36*
X233565104Y-74809585D02*
G01*
X233733626Y-74879389D01*
X233885291Y-74980728D01*
X234014272Y-75109709D01*
X234115611Y-75261374D01*
X234185415Y-75429896D01*
X234221000Y-75608797D01*
X234221000Y-75791203D01*
X234185415Y-75970104D01*
X234115611Y-76138626D01*
X234014272Y-76290291D01*
X233885291Y-76419272D01*
X233733626Y-76520611D01*
X233565104Y-76590415D01*
X233386203Y-76626000D01*
X233203797Y-76626000D01*
X233024896Y-76590415D01*
X232856374Y-76520611D01*
X232704709Y-76419272D01*
X232575728Y-76290291D01*
X232474389Y-76138626D01*
X232404585Y-75970104D01*
X232369000Y-75791203D01*
X232369000Y-75608797D01*
X232404585Y-75429896D01*
X232474389Y-75261374D01*
X232575728Y-75109709D01*
X232704709Y-74980728D01*
X232856374Y-74879389D01*
X233024896Y-74809585D01*
X233203797Y-74774000D01*
X233386203Y-74774000D01*
X233565104Y-74809585D01*
X233565104Y-74809585D01*
G37*
G36*
X176415104Y-74784585D02*
G01*
X176583626Y-74854389D01*
X176735291Y-74955728D01*
X176864272Y-75084709D01*
X176965611Y-75236374D01*
X177035415Y-75404896D01*
X177071000Y-75583797D01*
X177071000Y-75766203D01*
X177035415Y-75945104D01*
X176965611Y-76113626D01*
X176864272Y-76265291D01*
X176735291Y-76394272D01*
X176583626Y-76495611D01*
X176415104Y-76565415D01*
X176236203Y-76601000D01*
X176053797Y-76601000D01*
X175874896Y-76565415D01*
X175706374Y-76495611D01*
X175554709Y-76394272D01*
X175425728Y-76265291D01*
X175324389Y-76113626D01*
X175254585Y-75945104D01*
X175219000Y-75766203D01*
X175219000Y-75583797D01*
X175254585Y-75404896D01*
X175324389Y-75236374D01*
X175425728Y-75084709D01*
X175554709Y-74955728D01*
X175706374Y-74854389D01*
X175874896Y-74784585D01*
X176053797Y-74749000D01*
X176236203Y-74749000D01*
X176415104Y-74784585D01*
X176415104Y-74784585D01*
G37*
G36*
X186575104Y-74784585D02*
G01*
X186743626Y-74854389D01*
X186895291Y-74955728D01*
X187024272Y-75084709D01*
X187125611Y-75236374D01*
X187195415Y-75404896D01*
X187231000Y-75583797D01*
X187231000Y-75766203D01*
X187195415Y-75945104D01*
X187125611Y-76113626D01*
X187024272Y-76265291D01*
X186895291Y-76394272D01*
X186743626Y-76495611D01*
X186575104Y-76565415D01*
X186396203Y-76601000D01*
X186213797Y-76601000D01*
X186034896Y-76565415D01*
X185866374Y-76495611D01*
X185714709Y-76394272D01*
X185585728Y-76265291D01*
X185484389Y-76113626D01*
X185414585Y-75945104D01*
X185379000Y-75766203D01*
X185379000Y-75583797D01*
X185414585Y-75404896D01*
X185484389Y-75236374D01*
X185585728Y-75084709D01*
X185714709Y-74955728D01*
X185866374Y-74854389D01*
X186034896Y-74784585D01*
X186213797Y-74749000D01*
X186396203Y-74749000D01*
X186575104Y-74784585D01*
X186575104Y-74784585D01*
G37*
G36*
X170219083Y-73908335D02*
G01*
X170387840Y-73978236D01*
X170539718Y-74079718D01*
X170668882Y-74208882D01*
X170770364Y-74360760D01*
X170840265Y-74529517D01*
X170875900Y-74708668D01*
X170875900Y-74891332D01*
X170840265Y-75070483D01*
X170770364Y-75239240D01*
X170668882Y-75391118D01*
X170539718Y-75520282D01*
X170387840Y-75621764D01*
X170219083Y-75691665D01*
X170039932Y-75727300D01*
X169857268Y-75727300D01*
X169678117Y-75691665D01*
X169509360Y-75621764D01*
X169357482Y-75520282D01*
X169228318Y-75391118D01*
X169126836Y-75239240D01*
X169056935Y-75070483D01*
X169021300Y-74891332D01*
X169021300Y-74708668D01*
X169056935Y-74529517D01*
X169126836Y-74360760D01*
X169228318Y-74208882D01*
X169357482Y-74079718D01*
X169509360Y-73978236D01*
X169678117Y-73908335D01*
X169857268Y-73872700D01*
X170039932Y-73872700D01*
X170219083Y-73908335D01*
X170219083Y-73908335D01*
G37*
G36*
X154521883Y-73908335D02*
G01*
X154690640Y-73978236D01*
X154842518Y-74079718D01*
X154971682Y-74208882D01*
X155073164Y-74360760D01*
X155143065Y-74529517D01*
X155178700Y-74708668D01*
X155178700Y-74891332D01*
X155143065Y-75070483D01*
X155073164Y-75239240D01*
X154971682Y-75391118D01*
X154842518Y-75520282D01*
X154690640Y-75621764D01*
X154521883Y-75691665D01*
X154342732Y-75727300D01*
X154160068Y-75727300D01*
X153980917Y-75691665D01*
X153812160Y-75621764D01*
X153660282Y-75520282D01*
X153531118Y-75391118D01*
X153429636Y-75239240D01*
X153359735Y-75070483D01*
X153324100Y-74891332D01*
X153324100Y-74708668D01*
X153359735Y-74529517D01*
X153429636Y-74360760D01*
X153531118Y-74208882D01*
X153660282Y-74079718D01*
X153812160Y-73978236D01*
X153980917Y-73908335D01*
X154160068Y-73872700D01*
X154342732Y-73872700D01*
X154521883Y-73908335D01*
X154521883Y-73908335D01*
G37*
G36*
X169761883Y-71368335D02*
G01*
X169930640Y-71438236D01*
X170082518Y-71539718D01*
X170211682Y-71668882D01*
X170313164Y-71820760D01*
X170383065Y-71989517D01*
X170418700Y-72168668D01*
X170418700Y-72351332D01*
X170383065Y-72530483D01*
X170313164Y-72699240D01*
X170211682Y-72851118D01*
X170082518Y-72980282D01*
X169930640Y-73081764D01*
X169761883Y-73151665D01*
X169582732Y-73187300D01*
X169400068Y-73187300D01*
X169220917Y-73151665D01*
X169052160Y-73081764D01*
X168900282Y-72980282D01*
X168771118Y-72851118D01*
X168669636Y-72699240D01*
X168599735Y-72530483D01*
X168564100Y-72351332D01*
X168564100Y-72168668D01*
X168599735Y-71989517D01*
X168669636Y-71820760D01*
X168771118Y-71668882D01*
X168900282Y-71539718D01*
X169052160Y-71438236D01*
X169220917Y-71368335D01*
X169400068Y-71332700D01*
X169582732Y-71332700D01*
X169761883Y-71368335D01*
X169761883Y-71368335D01*
G37*
G36*
X154979083Y-71368335D02*
G01*
X155147840Y-71438236D01*
X155299718Y-71539718D01*
X155428882Y-71668882D01*
X155530364Y-71820760D01*
X155600265Y-71989517D01*
X155635900Y-72168668D01*
X155635900Y-72351332D01*
X155600265Y-72530483D01*
X155530364Y-72699240D01*
X155428882Y-72851118D01*
X155299718Y-72980282D01*
X155147840Y-73081764D01*
X154979083Y-73151665D01*
X154799932Y-73187300D01*
X154617268Y-73187300D01*
X154438117Y-73151665D01*
X154269360Y-73081764D01*
X154117482Y-72980282D01*
X153988318Y-72851118D01*
X153886836Y-72699240D01*
X153816935Y-72530483D01*
X153781300Y-72351332D01*
X153781300Y-72168668D01*
X153816935Y-71989517D01*
X153886836Y-71820760D01*
X153988318Y-71668882D01*
X154117482Y-71539718D01*
X154269360Y-71438236D01*
X154438117Y-71368335D01*
X154617268Y-71332700D01*
X154799932Y-71332700D01*
X154979083Y-71368335D01*
X154979083Y-71368335D01*
G37*
G36*
X113248228Y-71131703D02*
G01*
X113403100Y-71195853D01*
X113542481Y-71288985D01*
X113661015Y-71407519D01*
X113754147Y-71546900D01*
X113818297Y-71701772D01*
X113851000Y-71866184D01*
X113851000Y-72033816D01*
X113818297Y-72198228D01*
X113754147Y-72353100D01*
X113661015Y-72492481D01*
X113542481Y-72611015D01*
X113403100Y-72704147D01*
X113248228Y-72768297D01*
X113083816Y-72801000D01*
X112916184Y-72801000D01*
X112751772Y-72768297D01*
X112596900Y-72704147D01*
X112457519Y-72611015D01*
X112338985Y-72492481D01*
X112245853Y-72353100D01*
X112181703Y-72198228D01*
X112149000Y-72033816D01*
X112149000Y-71866184D01*
X112181703Y-71701772D01*
X112245853Y-71546900D01*
X112338985Y-71407519D01*
X112457519Y-71288985D01*
X112596900Y-71195853D01*
X112751772Y-71131703D01*
X112916184Y-71099000D01*
X113083816Y-71099000D01*
X113248228Y-71131703D01*
X113248228Y-71131703D01*
G37*
G36*
X94198228Y-71081703D02*
G01*
X94353100Y-71145853D01*
X94492481Y-71238985D01*
X94611015Y-71357519D01*
X94704147Y-71496900D01*
X94768297Y-71651772D01*
X94801000Y-71816184D01*
X94801000Y-71983816D01*
X94768297Y-72148228D01*
X94704147Y-72303100D01*
X94611015Y-72442481D01*
X94492481Y-72561015D01*
X94353100Y-72654147D01*
X94198228Y-72718297D01*
X94033816Y-72751000D01*
X93866184Y-72751000D01*
X93701772Y-72718297D01*
X93546900Y-72654147D01*
X93407519Y-72561015D01*
X93288985Y-72442481D01*
X93195853Y-72303100D01*
X93131703Y-72148228D01*
X93099000Y-71983816D01*
X93099000Y-71816184D01*
X93131703Y-71651772D01*
X93195853Y-71496900D01*
X93288985Y-71357519D01*
X93407519Y-71238985D01*
X93546900Y-71145853D01*
X93701772Y-71081703D01*
X93866184Y-71049000D01*
X94033816Y-71049000D01*
X94198228Y-71081703D01*
X94198228Y-71081703D01*
G37*
G36*
X132323228Y-71081703D02*
G01*
X132478100Y-71145853D01*
X132617481Y-71238985D01*
X132736015Y-71357519D01*
X132829147Y-71496900D01*
X132893297Y-71651772D01*
X132926000Y-71816184D01*
X132926000Y-71983816D01*
X132893297Y-72148228D01*
X132829147Y-72303100D01*
X132736015Y-72442481D01*
X132617481Y-72561015D01*
X132478100Y-72654147D01*
X132323228Y-72718297D01*
X132158816Y-72751000D01*
X131991184Y-72751000D01*
X131826772Y-72718297D01*
X131671900Y-72654147D01*
X131532519Y-72561015D01*
X131413985Y-72442481D01*
X131320853Y-72303100D01*
X131256703Y-72148228D01*
X131224000Y-71983816D01*
X131224000Y-71816184D01*
X131256703Y-71651772D01*
X131320853Y-71496900D01*
X131413985Y-71357519D01*
X131532519Y-71238985D01*
X131671900Y-71145853D01*
X131826772Y-71081703D01*
X131991184Y-71049000D01*
X132158816Y-71049000D01*
X132323228Y-71081703D01*
X132323228Y-71081703D01*
G37*
G36*
X135398228Y-71081703D02*
G01*
X135553100Y-71145853D01*
X135692481Y-71238985D01*
X135811015Y-71357519D01*
X135904147Y-71496900D01*
X135968297Y-71651772D01*
X136001000Y-71816184D01*
X136001000Y-71983816D01*
X135968297Y-72148228D01*
X135904147Y-72303100D01*
X135811015Y-72442481D01*
X135692481Y-72561015D01*
X135553100Y-72654147D01*
X135398228Y-72718297D01*
X135233816Y-72751000D01*
X135066184Y-72751000D01*
X134901772Y-72718297D01*
X134746900Y-72654147D01*
X134607519Y-72561015D01*
X134488985Y-72442481D01*
X134395853Y-72303100D01*
X134331703Y-72148228D01*
X134299000Y-71983816D01*
X134299000Y-71816184D01*
X134331703Y-71651772D01*
X134395853Y-71496900D01*
X134488985Y-71357519D01*
X134607519Y-71238985D01*
X134746900Y-71145853D01*
X134901772Y-71081703D01*
X135066184Y-71049000D01*
X135233816Y-71049000D01*
X135398228Y-71081703D01*
X135398228Y-71081703D01*
G37*
G36*
X75173228Y-71056703D02*
G01*
X75328100Y-71120853D01*
X75467481Y-71213985D01*
X75586015Y-71332519D01*
X75679147Y-71471900D01*
X75743297Y-71626772D01*
X75776000Y-71791184D01*
X75776000Y-71958816D01*
X75743297Y-72123228D01*
X75679147Y-72278100D01*
X75586015Y-72417481D01*
X75467481Y-72536015D01*
X75328100Y-72629147D01*
X75173228Y-72693297D01*
X75008816Y-72726000D01*
X74841184Y-72726000D01*
X74676772Y-72693297D01*
X74521900Y-72629147D01*
X74382519Y-72536015D01*
X74263985Y-72417481D01*
X74170853Y-72278100D01*
X74106703Y-72123228D01*
X74074000Y-71958816D01*
X74074000Y-71791184D01*
X74106703Y-71626772D01*
X74170853Y-71471900D01*
X74263985Y-71332519D01*
X74382519Y-71213985D01*
X74521900Y-71120853D01*
X74676772Y-71056703D01*
X74841184Y-71024000D01*
X75008816Y-71024000D01*
X75173228Y-71056703D01*
X75173228Y-71056703D01*
G37*
G36*
X189598228Y-70781703D02*
G01*
X189753100Y-70845853D01*
X189892481Y-70938985D01*
X190011015Y-71057519D01*
X190104147Y-71196900D01*
X190168297Y-71351772D01*
X190201000Y-71516184D01*
X190201000Y-71683816D01*
X190168297Y-71848228D01*
X190104147Y-72003100D01*
X190011015Y-72142481D01*
X189892481Y-72261015D01*
X189753100Y-72354147D01*
X189598228Y-72418297D01*
X189433816Y-72451000D01*
X189266184Y-72451000D01*
X189101772Y-72418297D01*
X188946900Y-72354147D01*
X188807519Y-72261015D01*
X188688985Y-72142481D01*
X188595853Y-72003100D01*
X188531703Y-71848228D01*
X188499000Y-71683816D01*
X188499000Y-71516184D01*
X188531703Y-71351772D01*
X188595853Y-71196900D01*
X188688985Y-71057519D01*
X188807519Y-70938985D01*
X188946900Y-70845853D01*
X189101772Y-70781703D01*
X189266184Y-70749000D01*
X189433816Y-70749000D01*
X189598228Y-70781703D01*
X189598228Y-70781703D01*
G37*
G36*
X230498228Y-70781703D02*
G01*
X230653100Y-70845853D01*
X230792481Y-70938985D01*
X230911015Y-71057519D01*
X231004147Y-71196900D01*
X231068297Y-71351772D01*
X231101000Y-71516184D01*
X231101000Y-71683816D01*
X231068297Y-71848228D01*
X231004147Y-72003100D01*
X230911015Y-72142481D01*
X230792481Y-72261015D01*
X230653100Y-72354147D01*
X230498228Y-72418297D01*
X230333816Y-72451000D01*
X230166184Y-72451000D01*
X230001772Y-72418297D01*
X229846900Y-72354147D01*
X229707519Y-72261015D01*
X229588985Y-72142481D01*
X229495853Y-72003100D01*
X229431703Y-71848228D01*
X229399000Y-71683816D01*
X229399000Y-71516184D01*
X229431703Y-71351772D01*
X229495853Y-71196900D01*
X229588985Y-71057519D01*
X229707519Y-70938985D01*
X229846900Y-70845853D01*
X230001772Y-70781703D01*
X230166184Y-70749000D01*
X230333816Y-70749000D01*
X230498228Y-70781703D01*
X230498228Y-70781703D01*
G37*
G36*
X227598228Y-70681703D02*
G01*
X227753100Y-70745853D01*
X227892481Y-70838985D01*
X228011015Y-70957519D01*
X228104147Y-71096900D01*
X228168297Y-71251772D01*
X228201000Y-71416184D01*
X228201000Y-71583816D01*
X228168297Y-71748228D01*
X228104147Y-71903100D01*
X228011015Y-72042481D01*
X227892481Y-72161015D01*
X227753100Y-72254147D01*
X227598228Y-72318297D01*
X227433816Y-72351000D01*
X227266184Y-72351000D01*
X227101772Y-72318297D01*
X226946900Y-72254147D01*
X226807519Y-72161015D01*
X226688985Y-72042481D01*
X226595853Y-71903100D01*
X226531703Y-71748228D01*
X226499000Y-71583816D01*
X226499000Y-71416184D01*
X226531703Y-71251772D01*
X226595853Y-71096900D01*
X226688985Y-70957519D01*
X226807519Y-70838985D01*
X226946900Y-70745853D01*
X227101772Y-70681703D01*
X227266184Y-70649000D01*
X227433816Y-70649000D01*
X227598228Y-70681703D01*
X227598228Y-70681703D01*
G37*
G36*
X208623228Y-70656703D02*
G01*
X208778100Y-70720853D01*
X208917481Y-70813985D01*
X209036015Y-70932519D01*
X209129147Y-71071900D01*
X209193297Y-71226772D01*
X209226000Y-71391184D01*
X209226000Y-71558816D01*
X209193297Y-71723228D01*
X209129147Y-71878100D01*
X209036015Y-72017481D01*
X208917481Y-72136015D01*
X208778100Y-72229147D01*
X208623228Y-72293297D01*
X208458816Y-72326000D01*
X208291184Y-72326000D01*
X208126772Y-72293297D01*
X207971900Y-72229147D01*
X207832519Y-72136015D01*
X207713985Y-72017481D01*
X207620853Y-71878100D01*
X207556703Y-71723228D01*
X207524000Y-71558816D01*
X207524000Y-71391184D01*
X207556703Y-71226772D01*
X207620853Y-71071900D01*
X207713985Y-70932519D01*
X207832519Y-70813985D01*
X207971900Y-70720853D01*
X208126772Y-70656703D01*
X208291184Y-70624000D01*
X208458816Y-70624000D01*
X208623228Y-70656703D01*
X208623228Y-70656703D01*
G37*
G36*
X170219083Y-68828335D02*
G01*
X170387840Y-68898236D01*
X170539718Y-68999718D01*
X170668882Y-69128882D01*
X170770364Y-69280760D01*
X170840265Y-69449517D01*
X170875900Y-69628668D01*
X170875900Y-69811332D01*
X170840265Y-69990483D01*
X170770364Y-70159240D01*
X170668882Y-70311118D01*
X170539718Y-70440282D01*
X170387840Y-70541764D01*
X170219083Y-70611665D01*
X170039932Y-70647300D01*
X169857268Y-70647300D01*
X169678117Y-70611665D01*
X169509360Y-70541764D01*
X169357482Y-70440282D01*
X169228318Y-70311118D01*
X169126836Y-70159240D01*
X169056935Y-69990483D01*
X169021300Y-69811332D01*
X169021300Y-69628668D01*
X169056935Y-69449517D01*
X169126836Y-69280760D01*
X169228318Y-69128882D01*
X169357482Y-68999718D01*
X169509360Y-68898236D01*
X169678117Y-68828335D01*
X169857268Y-68792700D01*
X170039932Y-68792700D01*
X170219083Y-68828335D01*
X170219083Y-68828335D01*
G37*
G36*
X154521883Y-68828335D02*
G01*
X154690640Y-68898236D01*
X154842518Y-68999718D01*
X154971682Y-69128882D01*
X155073164Y-69280760D01*
X155143065Y-69449517D01*
X155178700Y-69628668D01*
X155178700Y-69811332D01*
X155143065Y-69990483D01*
X155073164Y-70159240D01*
X154971682Y-70311118D01*
X154842518Y-70440282D01*
X154690640Y-70541764D01*
X154521883Y-70611665D01*
X154342732Y-70647300D01*
X154160068Y-70647300D01*
X153980917Y-70611665D01*
X153812160Y-70541764D01*
X153660282Y-70440282D01*
X153531118Y-70311118D01*
X153429636Y-70159240D01*
X153359735Y-69990483D01*
X153324100Y-69811332D01*
X153324100Y-69628668D01*
X153359735Y-69449517D01*
X153429636Y-69280760D01*
X153531118Y-69128882D01*
X153660282Y-68999718D01*
X153812160Y-68898236D01*
X153980917Y-68828335D01*
X154160068Y-68792700D01*
X154342732Y-68792700D01*
X154521883Y-68828335D01*
X154521883Y-68828335D01*
G37*
G36*
X169761883Y-66288335D02*
G01*
X169930640Y-66358236D01*
X170082518Y-66459718D01*
X170211682Y-66588882D01*
X170313164Y-66740760D01*
X170383065Y-66909517D01*
X170418700Y-67088668D01*
X170418700Y-67271332D01*
X170383065Y-67450483D01*
X170313164Y-67619240D01*
X170211682Y-67771118D01*
X170082518Y-67900282D01*
X169930640Y-68001764D01*
X169761883Y-68071665D01*
X169582732Y-68107300D01*
X169400068Y-68107300D01*
X169220917Y-68071665D01*
X169052160Y-68001764D01*
X168900282Y-67900282D01*
X168771118Y-67771118D01*
X168669636Y-67619240D01*
X168599735Y-67450483D01*
X168564100Y-67271332D01*
X168564100Y-67088668D01*
X168599735Y-66909517D01*
X168669636Y-66740760D01*
X168771118Y-66588882D01*
X168900282Y-66459718D01*
X169052160Y-66358236D01*
X169220917Y-66288335D01*
X169400068Y-66252700D01*
X169582732Y-66252700D01*
X169761883Y-66288335D01*
X169761883Y-66288335D01*
G37*
G36*
X154979083Y-66288335D02*
G01*
X155147840Y-66358236D01*
X155299718Y-66459718D01*
X155428882Y-66588882D01*
X155530364Y-66740760D01*
X155600265Y-66909517D01*
X155635900Y-67088668D01*
X155635900Y-67271332D01*
X155600265Y-67450483D01*
X155530364Y-67619240D01*
X155428882Y-67771118D01*
X155299718Y-67900282D01*
X155147840Y-68001764D01*
X154979083Y-68071665D01*
X154799932Y-68107300D01*
X154617268Y-68107300D01*
X154438117Y-68071665D01*
X154269360Y-68001764D01*
X154117482Y-67900282D01*
X153988318Y-67771118D01*
X153886836Y-67619240D01*
X153816935Y-67450483D01*
X153781300Y-67271332D01*
X153781300Y-67088668D01*
X153816935Y-66909517D01*
X153886836Y-66740760D01*
X153988318Y-66588882D01*
X154117482Y-66459718D01*
X154269360Y-66358236D01*
X154438117Y-66288335D01*
X154617268Y-66252700D01*
X154799932Y-66252700D01*
X154979083Y-66288335D01*
X154979083Y-66288335D01*
G37*
G36*
X170219083Y-63748335D02*
G01*
X170387840Y-63818236D01*
X170539718Y-63919718D01*
X170668882Y-64048882D01*
X170770364Y-64200760D01*
X170840265Y-64369517D01*
X170875900Y-64548668D01*
X170875900Y-64731332D01*
X170840265Y-64910483D01*
X170770364Y-65079240D01*
X170668882Y-65231118D01*
X170539718Y-65360282D01*
X170387840Y-65461764D01*
X170219083Y-65531665D01*
X170039932Y-65567300D01*
X169857268Y-65567300D01*
X169678117Y-65531665D01*
X169509360Y-65461764D01*
X169357482Y-65360282D01*
X169228318Y-65231118D01*
X169126836Y-65079240D01*
X169056935Y-64910483D01*
X169021300Y-64731332D01*
X169021300Y-64548668D01*
X169056935Y-64369517D01*
X169126836Y-64200760D01*
X169228318Y-64048882D01*
X169357482Y-63919718D01*
X169509360Y-63818236D01*
X169678117Y-63748335D01*
X169857268Y-63712700D01*
X170039932Y-63712700D01*
X170219083Y-63748335D01*
X170219083Y-63748335D01*
G37*
G36*
X154521883Y-63748335D02*
G01*
X154690640Y-63818236D01*
X154842518Y-63919718D01*
X154971682Y-64048882D01*
X155073164Y-64200760D01*
X155143065Y-64369517D01*
X155178700Y-64548668D01*
X155178700Y-64731332D01*
X155143065Y-64910483D01*
X155073164Y-65079240D01*
X154971682Y-65231118D01*
X154842518Y-65360282D01*
X154690640Y-65461764D01*
X154521883Y-65531665D01*
X154342732Y-65567300D01*
X154160068Y-65567300D01*
X153980917Y-65531665D01*
X153812160Y-65461764D01*
X153660282Y-65360282D01*
X153531118Y-65231118D01*
X153429636Y-65079240D01*
X153359735Y-64910483D01*
X153324100Y-64731332D01*
X153324100Y-64548668D01*
X153359735Y-64369517D01*
X153429636Y-64200760D01*
X153531118Y-64048882D01*
X153660282Y-63919718D01*
X153812160Y-63818236D01*
X153980917Y-63748335D01*
X154160068Y-63712700D01*
X154342732Y-63712700D01*
X154521883Y-63748335D01*
X154521883Y-63748335D01*
G37*
G36*
X209076000Y-63551000D02*
G01*
X207374000Y-63551000D01*
X207374000Y-61849000D01*
X209076000Y-61849000D01*
X209076000Y-63551000D01*
X209076000Y-63551000D01*
G37*
G36*
X94726000Y-63526000D02*
G01*
X93024000Y-63526000D01*
X93024000Y-61824000D01*
X94726000Y-61824000D01*
X94726000Y-63526000D01*
X94726000Y-63526000D01*
G37*
G36*
X169761883Y-61208335D02*
G01*
X169930640Y-61278236D01*
X170082518Y-61379718D01*
X170211682Y-61508882D01*
X170313164Y-61660760D01*
X170383065Y-61829517D01*
X170418700Y-62008668D01*
X170418700Y-62191332D01*
X170383065Y-62370483D01*
X170313164Y-62539240D01*
X170211682Y-62691118D01*
X170082518Y-62820282D01*
X169930640Y-62921764D01*
X169761883Y-62991665D01*
X169582732Y-63027300D01*
X169400068Y-63027300D01*
X169220917Y-62991665D01*
X169052160Y-62921764D01*
X168900282Y-62820282D01*
X168771118Y-62691118D01*
X168669636Y-62539240D01*
X168599735Y-62370483D01*
X168564100Y-62191332D01*
X168564100Y-62008668D01*
X168599735Y-61829517D01*
X168669636Y-61660760D01*
X168771118Y-61508882D01*
X168900282Y-61379718D01*
X169052160Y-61278236D01*
X169220917Y-61208335D01*
X169400068Y-61172700D01*
X169582732Y-61172700D01*
X169761883Y-61208335D01*
X169761883Y-61208335D01*
G37*
G36*
X154979083Y-61208335D02*
G01*
X155147840Y-61278236D01*
X155299718Y-61379718D01*
X155428882Y-61508882D01*
X155530364Y-61660760D01*
X155600265Y-61829517D01*
X155635900Y-62008668D01*
X155635900Y-62191332D01*
X155600265Y-62370483D01*
X155530364Y-62539240D01*
X155428882Y-62691118D01*
X155299718Y-62820282D01*
X155147840Y-62921764D01*
X154979083Y-62991665D01*
X154799932Y-63027300D01*
X154617268Y-63027300D01*
X154438117Y-62991665D01*
X154269360Y-62921764D01*
X154117482Y-62820282D01*
X153988318Y-62691118D01*
X153886836Y-62539240D01*
X153816935Y-62370483D01*
X153781300Y-62191332D01*
X153781300Y-62008668D01*
X153816935Y-61829517D01*
X153886836Y-61660760D01*
X153988318Y-61508882D01*
X154117482Y-61379718D01*
X154269360Y-61278236D01*
X154438117Y-61208335D01*
X154617268Y-61172700D01*
X154799932Y-61172700D01*
X154979083Y-61208335D01*
X154979083Y-61208335D01*
G37*
G36*
X173976000Y-61576000D02*
G01*
X172274000Y-61576000D01*
X172274000Y-59874000D01*
X173976000Y-59874000D01*
X173976000Y-61576000D01*
X173976000Y-61576000D01*
G37*
G36*
X228101000Y-61526000D02*
G01*
X226399000Y-61526000D01*
X226399000Y-59824000D01*
X228101000Y-59824000D01*
X228101000Y-61526000D01*
X228101000Y-61526000D01*
G37*
G36*
X75726000Y-61526000D02*
G01*
X74024000Y-61526000D01*
X74024000Y-59824000D01*
X75726000Y-59824000D01*
X75726000Y-61526000D01*
X75726000Y-61526000D01*
G37*
G36*
X151926000Y-61526000D02*
G01*
X150224000Y-61526000D01*
X150224000Y-59824000D01*
X151926000Y-59824000D01*
X151926000Y-61526000D01*
X151926000Y-61526000D01*
G37*
G36*
X190026000Y-61526000D02*
G01*
X188324000Y-61526000D01*
X188324000Y-59824000D01*
X190026000Y-59824000D01*
X190026000Y-61526000D01*
X190026000Y-61526000D01*
G37*
G36*
X231226000Y-61526000D02*
G01*
X229524000Y-61526000D01*
X229524000Y-59824000D01*
X231226000Y-59824000D01*
X231226000Y-61526000D01*
X231226000Y-61526000D01*
G37*
G36*
X132876000Y-61526000D02*
G01*
X131174000Y-61526000D01*
X131174000Y-59824000D01*
X132876000Y-59824000D01*
X132876000Y-61526000D01*
X132876000Y-61526000D01*
G37*
G36*
X113826000Y-61501000D02*
G01*
X112124000Y-61501000D01*
X112124000Y-59799000D01*
X113826000Y-59799000D01*
X113826000Y-61501000D01*
X113826000Y-61501000D01*
G37*
G36*
X170219083Y-58668335D02*
G01*
X170387840Y-58738236D01*
X170539718Y-58839718D01*
X170668882Y-58968882D01*
X170770364Y-59120760D01*
X170840265Y-59289517D01*
X170875900Y-59468668D01*
X170875900Y-59651332D01*
X170840265Y-59830483D01*
X170770364Y-59999240D01*
X170668882Y-60151118D01*
X170539718Y-60280282D01*
X170387840Y-60381764D01*
X170219083Y-60451665D01*
X170039932Y-60487300D01*
X169857268Y-60487300D01*
X169678117Y-60451665D01*
X169509360Y-60381764D01*
X169357482Y-60280282D01*
X169228318Y-60151118D01*
X169126836Y-59999240D01*
X169056935Y-59830483D01*
X169021300Y-59651332D01*
X169021300Y-59468668D01*
X169056935Y-59289517D01*
X169126836Y-59120760D01*
X169228318Y-58968882D01*
X169357482Y-58839718D01*
X169509360Y-58738236D01*
X169678117Y-58668335D01*
X169857268Y-58632700D01*
X170039932Y-58632700D01*
X170219083Y-58668335D01*
X170219083Y-58668335D01*
G37*
G36*
X154521883Y-58668335D02*
G01*
X154690640Y-58738236D01*
X154842518Y-58839718D01*
X154971682Y-58968882D01*
X155073164Y-59120760D01*
X155143065Y-59289517D01*
X155178700Y-59468668D01*
X155178700Y-59651332D01*
X155143065Y-59830483D01*
X155073164Y-59999240D01*
X154971682Y-60151118D01*
X154842518Y-60280282D01*
X154690640Y-60381764D01*
X154521883Y-60451665D01*
X154342732Y-60487300D01*
X154160068Y-60487300D01*
X153980917Y-60451665D01*
X153812160Y-60381764D01*
X153660282Y-60280282D01*
X153531118Y-60151118D01*
X153429636Y-59999240D01*
X153359735Y-59830483D01*
X153324100Y-59651332D01*
X153324100Y-59468668D01*
X153359735Y-59289517D01*
X153429636Y-59120760D01*
X153531118Y-58968882D01*
X153660282Y-58839718D01*
X153812160Y-58738236D01*
X153980917Y-58668335D01*
X154160068Y-58632700D01*
X154342732Y-58632700D01*
X154521883Y-58668335D01*
X154521883Y-58668335D01*
G37*
G36*
X181821474Y-54683684D02*
G01*
X182039474Y-54773983D01*
X182193623Y-54837833D01*
X182528548Y-55061623D01*
X182813377Y-55346452D01*
X183037167Y-55681377D01*
X183069562Y-55759586D01*
X183191316Y-56053526D01*
X183269900Y-56448594D01*
X183269900Y-56851406D01*
X183191316Y-57246474D01*
X183140451Y-57369272D01*
X183037167Y-57618623D01*
X182813377Y-57953548D01*
X182528548Y-58238377D01*
X182193623Y-58462167D01*
X182039474Y-58526017D01*
X181821474Y-58616316D01*
X181426406Y-58694900D01*
X181023594Y-58694900D01*
X180628526Y-58616316D01*
X180410526Y-58526017D01*
X180256377Y-58462167D01*
X179921452Y-58238377D01*
X179636623Y-57953548D01*
X179412833Y-57618623D01*
X179309549Y-57369272D01*
X179258684Y-57246474D01*
X179180100Y-56851406D01*
X179180100Y-56448594D01*
X179258684Y-56053526D01*
X179380438Y-55759586D01*
X179412833Y-55681377D01*
X179636623Y-55346452D01*
X179921452Y-55061623D01*
X180256377Y-54837833D01*
X180410526Y-54773983D01*
X180628526Y-54683684D01*
X181023594Y-54605100D01*
X181426406Y-54605100D01*
X181821474Y-54683684D01*
X181821474Y-54683684D01*
G37*
G36*
X162796474Y-54683684D02*
G01*
X163014474Y-54773983D01*
X163168623Y-54837833D01*
X163503548Y-55061623D01*
X163788377Y-55346452D01*
X164012167Y-55681377D01*
X164044562Y-55759586D01*
X164166316Y-56053526D01*
X164244900Y-56448594D01*
X164244900Y-56851406D01*
X164166316Y-57246474D01*
X164115451Y-57369272D01*
X164012167Y-57618623D01*
X163788377Y-57953548D01*
X163503548Y-58238377D01*
X163168623Y-58462167D01*
X163014474Y-58526017D01*
X162796474Y-58616316D01*
X162401406Y-58694900D01*
X161998594Y-58694900D01*
X161603526Y-58616316D01*
X161385526Y-58526017D01*
X161231377Y-58462167D01*
X160896452Y-58238377D01*
X160611623Y-57953548D01*
X160387833Y-57618623D01*
X160284549Y-57369272D01*
X160233684Y-57246474D01*
X160155100Y-56851406D01*
X160155100Y-56448594D01*
X160233684Y-56053526D01*
X160355438Y-55759586D01*
X160387833Y-55681377D01*
X160611623Y-55346452D01*
X160896452Y-55061623D01*
X161231377Y-54837833D01*
X161385526Y-54773983D01*
X161603526Y-54683684D01*
X161998594Y-54605100D01*
X162401406Y-54605100D01*
X162796474Y-54683684D01*
X162796474Y-54683684D01*
G37*
G36*
X238971474Y-54683684D02*
G01*
X239189474Y-54773983D01*
X239343623Y-54837833D01*
X239678548Y-55061623D01*
X239963377Y-55346452D01*
X240187167Y-55681377D01*
X240219562Y-55759586D01*
X240341316Y-56053526D01*
X240419900Y-56448594D01*
X240419900Y-56851406D01*
X240341316Y-57246474D01*
X240290451Y-57369272D01*
X240187167Y-57618623D01*
X239963377Y-57953548D01*
X239678548Y-58238377D01*
X239343623Y-58462167D01*
X239189474Y-58526017D01*
X238971474Y-58616316D01*
X238576406Y-58694900D01*
X238173594Y-58694900D01*
X237778526Y-58616316D01*
X237560526Y-58526017D01*
X237406377Y-58462167D01*
X237071452Y-58238377D01*
X236786623Y-57953548D01*
X236562833Y-57618623D01*
X236459549Y-57369272D01*
X236408684Y-57246474D01*
X236330100Y-56851406D01*
X236330100Y-56448594D01*
X236408684Y-56053526D01*
X236530438Y-55759586D01*
X236562833Y-55681377D01*
X236786623Y-55346452D01*
X237071452Y-55061623D01*
X237406377Y-54837833D01*
X237560526Y-54773983D01*
X237778526Y-54683684D01*
X238173594Y-54605100D01*
X238576406Y-54605100D01*
X238971474Y-54683684D01*
X238971474Y-54683684D01*
G37*
G36*
X219946474Y-54683684D02*
G01*
X220164474Y-54773983D01*
X220318623Y-54837833D01*
X220653548Y-55061623D01*
X220938377Y-55346452D01*
X221162167Y-55681377D01*
X221194562Y-55759586D01*
X221316316Y-56053526D01*
X221394900Y-56448594D01*
X221394900Y-56851406D01*
X221316316Y-57246474D01*
X221265451Y-57369272D01*
X221162167Y-57618623D01*
X220938377Y-57953548D01*
X220653548Y-58238377D01*
X220318623Y-58462167D01*
X220164474Y-58526017D01*
X219946474Y-58616316D01*
X219551406Y-58694900D01*
X219148594Y-58694900D01*
X218753526Y-58616316D01*
X218535526Y-58526017D01*
X218381377Y-58462167D01*
X218046452Y-58238377D01*
X217761623Y-57953548D01*
X217537833Y-57618623D01*
X217434549Y-57369272D01*
X217383684Y-57246474D01*
X217305100Y-56851406D01*
X217305100Y-56448594D01*
X217383684Y-56053526D01*
X217505438Y-55759586D01*
X217537833Y-55681377D01*
X217761623Y-55346452D01*
X218046452Y-55061623D01*
X218381377Y-54837833D01*
X218535526Y-54773983D01*
X218753526Y-54683684D01*
X219148594Y-54605100D01*
X219551406Y-54605100D01*
X219946474Y-54683684D01*
X219946474Y-54683684D01*
G37*
G36*
X143721474Y-54683684D02*
G01*
X143939474Y-54773983D01*
X144093623Y-54837833D01*
X144428548Y-55061623D01*
X144713377Y-55346452D01*
X144937167Y-55681377D01*
X144969562Y-55759586D01*
X145091316Y-56053526D01*
X145169900Y-56448594D01*
X145169900Y-56851406D01*
X145091316Y-57246474D01*
X145040451Y-57369272D01*
X144937167Y-57618623D01*
X144713377Y-57953548D01*
X144428548Y-58238377D01*
X144093623Y-58462167D01*
X143939474Y-58526017D01*
X143721474Y-58616316D01*
X143326406Y-58694900D01*
X142923594Y-58694900D01*
X142528526Y-58616316D01*
X142310526Y-58526017D01*
X142156377Y-58462167D01*
X141821452Y-58238377D01*
X141536623Y-57953548D01*
X141312833Y-57618623D01*
X141209549Y-57369272D01*
X141158684Y-57246474D01*
X141080100Y-56851406D01*
X141080100Y-56448594D01*
X141158684Y-56053526D01*
X141280438Y-55759586D01*
X141312833Y-55681377D01*
X141536623Y-55346452D01*
X141821452Y-55061623D01*
X142156377Y-54837833D01*
X142310526Y-54773983D01*
X142528526Y-54683684D01*
X142923594Y-54605100D01*
X143326406Y-54605100D01*
X143721474Y-54683684D01*
X143721474Y-54683684D01*
G37*
G36*
X124696474Y-54683684D02*
G01*
X124914474Y-54773983D01*
X125068623Y-54837833D01*
X125403548Y-55061623D01*
X125688377Y-55346452D01*
X125912167Y-55681377D01*
X125944562Y-55759586D01*
X126066316Y-56053526D01*
X126144900Y-56448594D01*
X126144900Y-56851406D01*
X126066316Y-57246474D01*
X126015451Y-57369272D01*
X125912167Y-57618623D01*
X125688377Y-57953548D01*
X125403548Y-58238377D01*
X125068623Y-58462167D01*
X124914474Y-58526017D01*
X124696474Y-58616316D01*
X124301406Y-58694900D01*
X123898594Y-58694900D01*
X123503526Y-58616316D01*
X123285526Y-58526017D01*
X123131377Y-58462167D01*
X122796452Y-58238377D01*
X122511623Y-57953548D01*
X122287833Y-57618623D01*
X122184549Y-57369272D01*
X122133684Y-57246474D01*
X122055100Y-56851406D01*
X122055100Y-56448594D01*
X122133684Y-56053526D01*
X122255438Y-55759586D01*
X122287833Y-55681377D01*
X122511623Y-55346452D01*
X122796452Y-55061623D01*
X123131377Y-54837833D01*
X123285526Y-54773983D01*
X123503526Y-54683684D01*
X123898594Y-54605100D01*
X124301406Y-54605100D01*
X124696474Y-54683684D01*
X124696474Y-54683684D01*
G37*
G36*
X105621474Y-54683684D02*
G01*
X105839474Y-54773983D01*
X105993623Y-54837833D01*
X106328548Y-55061623D01*
X106613377Y-55346452D01*
X106837167Y-55681377D01*
X106869562Y-55759586D01*
X106991316Y-56053526D01*
X107069900Y-56448594D01*
X107069900Y-56851406D01*
X106991316Y-57246474D01*
X106940451Y-57369272D01*
X106837167Y-57618623D01*
X106613377Y-57953548D01*
X106328548Y-58238377D01*
X105993623Y-58462167D01*
X105839474Y-58526017D01*
X105621474Y-58616316D01*
X105226406Y-58694900D01*
X104823594Y-58694900D01*
X104428526Y-58616316D01*
X104210526Y-58526017D01*
X104056377Y-58462167D01*
X103721452Y-58238377D01*
X103436623Y-57953548D01*
X103212833Y-57618623D01*
X103109549Y-57369272D01*
X103058684Y-57246474D01*
X102980100Y-56851406D01*
X102980100Y-56448594D01*
X103058684Y-56053526D01*
X103180438Y-55759586D01*
X103212833Y-55681377D01*
X103436623Y-55346452D01*
X103721452Y-55061623D01*
X104056377Y-54837833D01*
X104210526Y-54773983D01*
X104428526Y-54683684D01*
X104823594Y-54605100D01*
X105226406Y-54605100D01*
X105621474Y-54683684D01*
X105621474Y-54683684D01*
G37*
G36*
X86571474Y-54683684D02*
G01*
X86789474Y-54773983D01*
X86943623Y-54837833D01*
X87278548Y-55061623D01*
X87563377Y-55346452D01*
X87787167Y-55681377D01*
X87819562Y-55759586D01*
X87941316Y-56053526D01*
X88019900Y-56448594D01*
X88019900Y-56851406D01*
X87941316Y-57246474D01*
X87890451Y-57369272D01*
X87787167Y-57618623D01*
X87563377Y-57953548D01*
X87278548Y-58238377D01*
X86943623Y-58462167D01*
X86789474Y-58526017D01*
X86571474Y-58616316D01*
X86176406Y-58694900D01*
X85773594Y-58694900D01*
X85378526Y-58616316D01*
X85160526Y-58526017D01*
X85006377Y-58462167D01*
X84671452Y-58238377D01*
X84386623Y-57953548D01*
X84162833Y-57618623D01*
X84059549Y-57369272D01*
X84008684Y-57246474D01*
X83930100Y-56851406D01*
X83930100Y-56448594D01*
X84008684Y-56053526D01*
X84130438Y-55759586D01*
X84162833Y-55681377D01*
X84386623Y-55346452D01*
X84671452Y-55061623D01*
X85006377Y-54837833D01*
X85160526Y-54773983D01*
X85378526Y-54683684D01*
X85773594Y-54605100D01*
X86176406Y-54605100D01*
X86571474Y-54683684D01*
X86571474Y-54683684D01*
G37*
G36*
X67521474Y-54683684D02*
G01*
X67739474Y-54773983D01*
X67893623Y-54837833D01*
X68228548Y-55061623D01*
X68513377Y-55346452D01*
X68737167Y-55681377D01*
X68769562Y-55759586D01*
X68891316Y-56053526D01*
X68969900Y-56448594D01*
X68969900Y-56851406D01*
X68891316Y-57246474D01*
X68840451Y-57369272D01*
X68737167Y-57618623D01*
X68513377Y-57953548D01*
X68228548Y-58238377D01*
X67893623Y-58462167D01*
X67739474Y-58526017D01*
X67521474Y-58616316D01*
X67126406Y-58694900D01*
X66723594Y-58694900D01*
X66328526Y-58616316D01*
X66110526Y-58526017D01*
X65956377Y-58462167D01*
X65621452Y-58238377D01*
X65336623Y-57953548D01*
X65112833Y-57618623D01*
X65009549Y-57369272D01*
X64958684Y-57246474D01*
X64880100Y-56851406D01*
X64880100Y-56448594D01*
X64958684Y-56053526D01*
X65080438Y-55759586D01*
X65112833Y-55681377D01*
X65336623Y-55346452D01*
X65621452Y-55061623D01*
X65956377Y-54837833D01*
X66110526Y-54773983D01*
X66328526Y-54683684D01*
X66723594Y-54605100D01*
X67126406Y-54605100D01*
X67521474Y-54683684D01*
X67521474Y-54683684D01*
G37*
G36*
X200871474Y-54658684D02*
G01*
X201089474Y-54748983D01*
X201243623Y-54812833D01*
X201578548Y-55036623D01*
X201863377Y-55321452D01*
X202087167Y-55656377D01*
X202119562Y-55734586D01*
X202241316Y-56028526D01*
X202319900Y-56423594D01*
X202319900Y-56826406D01*
X202241316Y-57221474D01*
X202190451Y-57344272D01*
X202087167Y-57593623D01*
X201863377Y-57928548D01*
X201578548Y-58213377D01*
X201243623Y-58437167D01*
X201183267Y-58462167D01*
X200871474Y-58591316D01*
X200476406Y-58669900D01*
X200073594Y-58669900D01*
X199678526Y-58591316D01*
X199366733Y-58462167D01*
X199306377Y-58437167D01*
X198971452Y-58213377D01*
X198686623Y-57928548D01*
X198462833Y-57593623D01*
X198359549Y-57344272D01*
X198308684Y-57221474D01*
X198230100Y-56826406D01*
X198230100Y-56423594D01*
X198308684Y-56028526D01*
X198430438Y-55734586D01*
X198462833Y-55656377D01*
X198686623Y-55321452D01*
X198971452Y-55036623D01*
X199306377Y-54812833D01*
X199460526Y-54748983D01*
X199678526Y-54658684D01*
X200073594Y-54580100D01*
X200476406Y-54580100D01*
X200871474Y-54658684D01*
X200871474Y-54658684D01*
G37*
G36*
X169761883Y-56128335D02*
G01*
X169930640Y-56198236D01*
X170082518Y-56299718D01*
X170211682Y-56428882D01*
X170313164Y-56580760D01*
X170383065Y-56749517D01*
X170418700Y-56928668D01*
X170418700Y-57111332D01*
X170383065Y-57290483D01*
X170313164Y-57459240D01*
X170211682Y-57611118D01*
X170082518Y-57740282D01*
X169930640Y-57841764D01*
X169761883Y-57911665D01*
X169582732Y-57947300D01*
X169400068Y-57947300D01*
X169220917Y-57911665D01*
X169052160Y-57841764D01*
X168900282Y-57740282D01*
X168771118Y-57611118D01*
X168669636Y-57459240D01*
X168599735Y-57290483D01*
X168564100Y-57111332D01*
X168564100Y-56928668D01*
X168599735Y-56749517D01*
X168669636Y-56580760D01*
X168771118Y-56428882D01*
X168900282Y-56299718D01*
X169052160Y-56198236D01*
X169220917Y-56128335D01*
X169400068Y-56092700D01*
X169582732Y-56092700D01*
X169761883Y-56128335D01*
X169761883Y-56128335D01*
G37*
G36*
X154979083Y-56128335D02*
G01*
X155147840Y-56198236D01*
X155299718Y-56299718D01*
X155428882Y-56428882D01*
X155530364Y-56580760D01*
X155600265Y-56749517D01*
X155635900Y-56928668D01*
X155635900Y-57111332D01*
X155600265Y-57290483D01*
X155530364Y-57459240D01*
X155428882Y-57611118D01*
X155299718Y-57740282D01*
X155147840Y-57841764D01*
X154979083Y-57911665D01*
X154799932Y-57947300D01*
X154617268Y-57947300D01*
X154438117Y-57911665D01*
X154269360Y-57841764D01*
X154117482Y-57740282D01*
X153988318Y-57611118D01*
X153886836Y-57459240D01*
X153816935Y-57290483D01*
X153781300Y-57111332D01*
X153781300Y-56928668D01*
X153816935Y-56749517D01*
X153886836Y-56580760D01*
X153988318Y-56428882D01*
X154117482Y-56299718D01*
X154269360Y-56198236D01*
X154438117Y-56128335D01*
X154617268Y-56092700D01*
X154799932Y-56092700D01*
X154979083Y-56128335D01*
X154979083Y-56128335D01*
G37*
G36*
X224700104Y-55759585D02*
G01*
X224868626Y-55829389D01*
X225020291Y-55930728D01*
X225149272Y-56059709D01*
X225250611Y-56211374D01*
X225320415Y-56379896D01*
X225356000Y-56558797D01*
X225356000Y-56741203D01*
X225320415Y-56920104D01*
X225250611Y-57088626D01*
X225149272Y-57240291D01*
X225020291Y-57369272D01*
X224868626Y-57470611D01*
X224700104Y-57540415D01*
X224521203Y-57576000D01*
X224338797Y-57576000D01*
X224159896Y-57540415D01*
X223991374Y-57470611D01*
X223839709Y-57369272D01*
X223710728Y-57240291D01*
X223609389Y-57088626D01*
X223539585Y-56920104D01*
X223504000Y-56741203D01*
X223504000Y-56558797D01*
X223539585Y-56379896D01*
X223609389Y-56211374D01*
X223710728Y-56059709D01*
X223839709Y-55930728D01*
X223991374Y-55829389D01*
X224159896Y-55759585D01*
X224338797Y-55724000D01*
X224521203Y-55724000D01*
X224700104Y-55759585D01*
X224700104Y-55759585D01*
G37*
G36*
X233565104Y-55759585D02*
G01*
X233733626Y-55829389D01*
X233885291Y-55930728D01*
X234014272Y-56059709D01*
X234115611Y-56211374D01*
X234185415Y-56379896D01*
X234221000Y-56558797D01*
X234221000Y-56741203D01*
X234185415Y-56920104D01*
X234115611Y-57088626D01*
X234014272Y-57240291D01*
X233885291Y-57369272D01*
X233733626Y-57470611D01*
X233565104Y-57540415D01*
X233386203Y-57576000D01*
X233203797Y-57576000D01*
X233024896Y-57540415D01*
X232856374Y-57470611D01*
X232704709Y-57369272D01*
X232575728Y-57240291D01*
X232474389Y-57088626D01*
X232404585Y-56920104D01*
X232369000Y-56741203D01*
X232369000Y-56558797D01*
X232404585Y-56379896D01*
X232474389Y-56211374D01*
X232575728Y-56059709D01*
X232704709Y-55930728D01*
X232856374Y-55829389D01*
X233024896Y-55759585D01*
X233203797Y-55724000D01*
X233386203Y-55724000D01*
X233565104Y-55759585D01*
X233565104Y-55759585D01*
G37*
G36*
X176415104Y-55759585D02*
G01*
X176583626Y-55829389D01*
X176735291Y-55930728D01*
X176864272Y-56059709D01*
X176965611Y-56211374D01*
X177035415Y-56379896D01*
X177071000Y-56558797D01*
X177071000Y-56741203D01*
X177035415Y-56920104D01*
X176965611Y-57088626D01*
X176864272Y-57240291D01*
X176735291Y-57369272D01*
X176583626Y-57470611D01*
X176415104Y-57540415D01*
X176236203Y-57576000D01*
X176053797Y-57576000D01*
X175874896Y-57540415D01*
X175706374Y-57470611D01*
X175554709Y-57369272D01*
X175425728Y-57240291D01*
X175324389Y-57088626D01*
X175254585Y-56920104D01*
X175219000Y-56741203D01*
X175219000Y-56558797D01*
X175254585Y-56379896D01*
X175324389Y-56211374D01*
X175425728Y-56059709D01*
X175554709Y-55930728D01*
X175706374Y-55829389D01*
X175874896Y-55759585D01*
X176053797Y-55724000D01*
X176236203Y-55724000D01*
X176415104Y-55759585D01*
X176415104Y-55759585D01*
G37*
G36*
X243725104Y-55759585D02*
G01*
X243893626Y-55829389D01*
X244045291Y-55930728D01*
X244174272Y-56059709D01*
X244275611Y-56211374D01*
X244345415Y-56379896D01*
X244381000Y-56558797D01*
X244381000Y-56741203D01*
X244345415Y-56920104D01*
X244275611Y-57088626D01*
X244174272Y-57240291D01*
X244045291Y-57369272D01*
X243893626Y-57470611D01*
X243725104Y-57540415D01*
X243546203Y-57576000D01*
X243363797Y-57576000D01*
X243184896Y-57540415D01*
X243016374Y-57470611D01*
X242864709Y-57369272D01*
X242735728Y-57240291D01*
X242634389Y-57088626D01*
X242564585Y-56920104D01*
X242529000Y-56741203D01*
X242529000Y-56558797D01*
X242564585Y-56379896D01*
X242634389Y-56211374D01*
X242735728Y-56059709D01*
X242864709Y-55930728D01*
X243016374Y-55829389D01*
X243184896Y-55759585D01*
X243363797Y-55724000D01*
X243546203Y-55724000D01*
X243725104Y-55759585D01*
X243725104Y-55759585D01*
G37*
G36*
X214540104Y-55759585D02*
G01*
X214708626Y-55829389D01*
X214860291Y-55930728D01*
X214989272Y-56059709D01*
X215090611Y-56211374D01*
X215160415Y-56379896D01*
X215196000Y-56558797D01*
X215196000Y-56741203D01*
X215160415Y-56920104D01*
X215090611Y-57088626D01*
X214989272Y-57240291D01*
X214860291Y-57369272D01*
X214708626Y-57470611D01*
X214540104Y-57540415D01*
X214361203Y-57576000D01*
X214178797Y-57576000D01*
X213999896Y-57540415D01*
X213831374Y-57470611D01*
X213679709Y-57369272D01*
X213550728Y-57240291D01*
X213449389Y-57088626D01*
X213379585Y-56920104D01*
X213344000Y-56741203D01*
X213344000Y-56558797D01*
X213379585Y-56379896D01*
X213449389Y-56211374D01*
X213550728Y-56059709D01*
X213679709Y-55930728D01*
X213831374Y-55829389D01*
X213999896Y-55759585D01*
X214178797Y-55724000D01*
X214361203Y-55724000D01*
X214540104Y-55759585D01*
X214540104Y-55759585D01*
G37*
G36*
X186575104Y-55759585D02*
G01*
X186743626Y-55829389D01*
X186895291Y-55930728D01*
X187024272Y-56059709D01*
X187125611Y-56211374D01*
X187195415Y-56379896D01*
X187231000Y-56558797D01*
X187231000Y-56741203D01*
X187195415Y-56920104D01*
X187125611Y-57088626D01*
X187024272Y-57240291D01*
X186895291Y-57369272D01*
X186743626Y-57470611D01*
X186575104Y-57540415D01*
X186396203Y-57576000D01*
X186213797Y-57576000D01*
X186034896Y-57540415D01*
X185866374Y-57470611D01*
X185714709Y-57369272D01*
X185585728Y-57240291D01*
X185484389Y-57088626D01*
X185414585Y-56920104D01*
X185379000Y-56741203D01*
X185379000Y-56558797D01*
X185414585Y-56379896D01*
X185484389Y-56211374D01*
X185585728Y-56059709D01*
X185714709Y-55930728D01*
X185866374Y-55829389D01*
X186034896Y-55759585D01*
X186213797Y-55724000D01*
X186396203Y-55724000D01*
X186575104Y-55759585D01*
X186575104Y-55759585D01*
G37*
G36*
X157390104Y-55759585D02*
G01*
X157558626Y-55829389D01*
X157710291Y-55930728D01*
X157839272Y-56059709D01*
X157940611Y-56211374D01*
X158010415Y-56379896D01*
X158046000Y-56558797D01*
X158046000Y-56741203D01*
X158010415Y-56920104D01*
X157940611Y-57088626D01*
X157839272Y-57240291D01*
X157710291Y-57369272D01*
X157558626Y-57470611D01*
X157390104Y-57540415D01*
X157211203Y-57576000D01*
X157028797Y-57576000D01*
X156849896Y-57540415D01*
X156681374Y-57470611D01*
X156529709Y-57369272D01*
X156400728Y-57240291D01*
X156299389Y-57088626D01*
X156229585Y-56920104D01*
X156194000Y-56741203D01*
X156194000Y-56558797D01*
X156229585Y-56379896D01*
X156299389Y-56211374D01*
X156400728Y-56059709D01*
X156529709Y-55930728D01*
X156681374Y-55829389D01*
X156849896Y-55759585D01*
X157028797Y-55724000D01*
X157211203Y-55724000D01*
X157390104Y-55759585D01*
X157390104Y-55759585D01*
G37*
G36*
X167550104Y-55759585D02*
G01*
X167718626Y-55829389D01*
X167870291Y-55930728D01*
X167999272Y-56059709D01*
X168100611Y-56211374D01*
X168170415Y-56379896D01*
X168206000Y-56558797D01*
X168206000Y-56741203D01*
X168170415Y-56920104D01*
X168100611Y-57088626D01*
X167999272Y-57240291D01*
X167870291Y-57369272D01*
X167718626Y-57470611D01*
X167550104Y-57540415D01*
X167371203Y-57576000D01*
X167188797Y-57576000D01*
X167009896Y-57540415D01*
X166841374Y-57470611D01*
X166689709Y-57369272D01*
X166560728Y-57240291D01*
X166459389Y-57088626D01*
X166389585Y-56920104D01*
X166354000Y-56741203D01*
X166354000Y-56558797D01*
X166389585Y-56379896D01*
X166459389Y-56211374D01*
X166560728Y-56059709D01*
X166689709Y-55930728D01*
X166841374Y-55829389D01*
X167009896Y-55759585D01*
X167188797Y-55724000D01*
X167371203Y-55724000D01*
X167550104Y-55759585D01*
X167550104Y-55759585D01*
G37*
G36*
X138315104Y-55759585D02*
G01*
X138483626Y-55829389D01*
X138635291Y-55930728D01*
X138764272Y-56059709D01*
X138865611Y-56211374D01*
X138935415Y-56379896D01*
X138971000Y-56558797D01*
X138971000Y-56741203D01*
X138935415Y-56920104D01*
X138865611Y-57088626D01*
X138764272Y-57240291D01*
X138635291Y-57369272D01*
X138483626Y-57470611D01*
X138315104Y-57540415D01*
X138136203Y-57576000D01*
X137953797Y-57576000D01*
X137774896Y-57540415D01*
X137606374Y-57470611D01*
X137454709Y-57369272D01*
X137325728Y-57240291D01*
X137224389Y-57088626D01*
X137154585Y-56920104D01*
X137119000Y-56741203D01*
X137119000Y-56558797D01*
X137154585Y-56379896D01*
X137224389Y-56211374D01*
X137325728Y-56059709D01*
X137454709Y-55930728D01*
X137606374Y-55829389D01*
X137774896Y-55759585D01*
X137953797Y-55724000D01*
X138136203Y-55724000D01*
X138315104Y-55759585D01*
X138315104Y-55759585D01*
G37*
G36*
X62115104Y-55759585D02*
G01*
X62283626Y-55829389D01*
X62435291Y-55930728D01*
X62564272Y-56059709D01*
X62665611Y-56211374D01*
X62735415Y-56379896D01*
X62771000Y-56558797D01*
X62771000Y-56741203D01*
X62735415Y-56920104D01*
X62665611Y-57088626D01*
X62564272Y-57240291D01*
X62435291Y-57369272D01*
X62283626Y-57470611D01*
X62115104Y-57540415D01*
X61936203Y-57576000D01*
X61753797Y-57576000D01*
X61574896Y-57540415D01*
X61406374Y-57470611D01*
X61254709Y-57369272D01*
X61125728Y-57240291D01*
X61024389Y-57088626D01*
X60954585Y-56920104D01*
X60919000Y-56741203D01*
X60919000Y-56558797D01*
X60954585Y-56379896D01*
X61024389Y-56211374D01*
X61125728Y-56059709D01*
X61254709Y-55930728D01*
X61406374Y-55829389D01*
X61574896Y-55759585D01*
X61753797Y-55724000D01*
X61936203Y-55724000D01*
X62115104Y-55759585D01*
X62115104Y-55759585D01*
G37*
G36*
X72275104Y-55759585D02*
G01*
X72443626Y-55829389D01*
X72595291Y-55930728D01*
X72724272Y-56059709D01*
X72825611Y-56211374D01*
X72895415Y-56379896D01*
X72931000Y-56558797D01*
X72931000Y-56741203D01*
X72895415Y-56920104D01*
X72825611Y-57088626D01*
X72724272Y-57240291D01*
X72595291Y-57369272D01*
X72443626Y-57470611D01*
X72275104Y-57540415D01*
X72096203Y-57576000D01*
X71913797Y-57576000D01*
X71734896Y-57540415D01*
X71566374Y-57470611D01*
X71414709Y-57369272D01*
X71285728Y-57240291D01*
X71184389Y-57088626D01*
X71114585Y-56920104D01*
X71079000Y-56741203D01*
X71079000Y-56558797D01*
X71114585Y-56379896D01*
X71184389Y-56211374D01*
X71285728Y-56059709D01*
X71414709Y-55930728D01*
X71566374Y-55829389D01*
X71734896Y-55759585D01*
X71913797Y-55724000D01*
X72096203Y-55724000D01*
X72275104Y-55759585D01*
X72275104Y-55759585D01*
G37*
G36*
X81165104Y-55759585D02*
G01*
X81333626Y-55829389D01*
X81485291Y-55930728D01*
X81614272Y-56059709D01*
X81715611Y-56211374D01*
X81785415Y-56379896D01*
X81821000Y-56558797D01*
X81821000Y-56741203D01*
X81785415Y-56920104D01*
X81715611Y-57088626D01*
X81614272Y-57240291D01*
X81485291Y-57369272D01*
X81333626Y-57470611D01*
X81165104Y-57540415D01*
X80986203Y-57576000D01*
X80803797Y-57576000D01*
X80624896Y-57540415D01*
X80456374Y-57470611D01*
X80304709Y-57369272D01*
X80175728Y-57240291D01*
X80074389Y-57088626D01*
X80004585Y-56920104D01*
X79969000Y-56741203D01*
X79969000Y-56558797D01*
X80004585Y-56379896D01*
X80074389Y-56211374D01*
X80175728Y-56059709D01*
X80304709Y-55930728D01*
X80456374Y-55829389D01*
X80624896Y-55759585D01*
X80803797Y-55724000D01*
X80986203Y-55724000D01*
X81165104Y-55759585D01*
X81165104Y-55759585D01*
G37*
G36*
X91325104Y-55759585D02*
G01*
X91493626Y-55829389D01*
X91645291Y-55930728D01*
X91774272Y-56059709D01*
X91875611Y-56211374D01*
X91945415Y-56379896D01*
X91981000Y-56558797D01*
X91981000Y-56741203D01*
X91945415Y-56920104D01*
X91875611Y-57088626D01*
X91774272Y-57240291D01*
X91645291Y-57369272D01*
X91493626Y-57470611D01*
X91325104Y-57540415D01*
X91146203Y-57576000D01*
X90963797Y-57576000D01*
X90784896Y-57540415D01*
X90616374Y-57470611D01*
X90464709Y-57369272D01*
X90335728Y-57240291D01*
X90234389Y-57088626D01*
X90164585Y-56920104D01*
X90129000Y-56741203D01*
X90129000Y-56558797D01*
X90164585Y-56379896D01*
X90234389Y-56211374D01*
X90335728Y-56059709D01*
X90464709Y-55930728D01*
X90616374Y-55829389D01*
X90784896Y-55759585D01*
X90963797Y-55724000D01*
X91146203Y-55724000D01*
X91325104Y-55759585D01*
X91325104Y-55759585D01*
G37*
G36*
X100215104Y-55759585D02*
G01*
X100383626Y-55829389D01*
X100535291Y-55930728D01*
X100664272Y-56059709D01*
X100765611Y-56211374D01*
X100835415Y-56379896D01*
X100871000Y-56558797D01*
X100871000Y-56741203D01*
X100835415Y-56920104D01*
X100765611Y-57088626D01*
X100664272Y-57240291D01*
X100535291Y-57369272D01*
X100383626Y-57470611D01*
X100215104Y-57540415D01*
X100036203Y-57576000D01*
X99853797Y-57576000D01*
X99674896Y-57540415D01*
X99506374Y-57470611D01*
X99354709Y-57369272D01*
X99225728Y-57240291D01*
X99124389Y-57088626D01*
X99054585Y-56920104D01*
X99019000Y-56741203D01*
X99019000Y-56558797D01*
X99054585Y-56379896D01*
X99124389Y-56211374D01*
X99225728Y-56059709D01*
X99354709Y-55930728D01*
X99506374Y-55829389D01*
X99674896Y-55759585D01*
X99853797Y-55724000D01*
X100036203Y-55724000D01*
X100215104Y-55759585D01*
X100215104Y-55759585D01*
G37*
G36*
X110375104Y-55759585D02*
G01*
X110543626Y-55829389D01*
X110695291Y-55930728D01*
X110824272Y-56059709D01*
X110925611Y-56211374D01*
X110995415Y-56379896D01*
X111031000Y-56558797D01*
X111031000Y-56741203D01*
X110995415Y-56920104D01*
X110925611Y-57088626D01*
X110824272Y-57240291D01*
X110695291Y-57369272D01*
X110543626Y-57470611D01*
X110375104Y-57540415D01*
X110196203Y-57576000D01*
X110013797Y-57576000D01*
X109834896Y-57540415D01*
X109666374Y-57470611D01*
X109514709Y-57369272D01*
X109385728Y-57240291D01*
X109284389Y-57088626D01*
X109214585Y-56920104D01*
X109179000Y-56741203D01*
X109179000Y-56558797D01*
X109214585Y-56379896D01*
X109284389Y-56211374D01*
X109385728Y-56059709D01*
X109514709Y-55930728D01*
X109666374Y-55829389D01*
X109834896Y-55759585D01*
X110013797Y-55724000D01*
X110196203Y-55724000D01*
X110375104Y-55759585D01*
X110375104Y-55759585D01*
G37*
G36*
X119290104Y-55759585D02*
G01*
X119458626Y-55829389D01*
X119610291Y-55930728D01*
X119739272Y-56059709D01*
X119840611Y-56211374D01*
X119910415Y-56379896D01*
X119946000Y-56558797D01*
X119946000Y-56741203D01*
X119910415Y-56920104D01*
X119840611Y-57088626D01*
X119739272Y-57240291D01*
X119610291Y-57369272D01*
X119458626Y-57470611D01*
X119290104Y-57540415D01*
X119111203Y-57576000D01*
X118928797Y-57576000D01*
X118749896Y-57540415D01*
X118581374Y-57470611D01*
X118429709Y-57369272D01*
X118300728Y-57240291D01*
X118199389Y-57088626D01*
X118129585Y-56920104D01*
X118094000Y-56741203D01*
X118094000Y-56558797D01*
X118129585Y-56379896D01*
X118199389Y-56211374D01*
X118300728Y-56059709D01*
X118429709Y-55930728D01*
X118581374Y-55829389D01*
X118749896Y-55759585D01*
X118928797Y-55724000D01*
X119111203Y-55724000D01*
X119290104Y-55759585D01*
X119290104Y-55759585D01*
G37*
G36*
X129450104Y-55759585D02*
G01*
X129618626Y-55829389D01*
X129770291Y-55930728D01*
X129899272Y-56059709D01*
X130000611Y-56211374D01*
X130070415Y-56379896D01*
X130106000Y-56558797D01*
X130106000Y-56741203D01*
X130070415Y-56920104D01*
X130000611Y-57088626D01*
X129899272Y-57240291D01*
X129770291Y-57369272D01*
X129618626Y-57470611D01*
X129450104Y-57540415D01*
X129271203Y-57576000D01*
X129088797Y-57576000D01*
X128909896Y-57540415D01*
X128741374Y-57470611D01*
X128589709Y-57369272D01*
X128460728Y-57240291D01*
X128359389Y-57088626D01*
X128289585Y-56920104D01*
X128254000Y-56741203D01*
X128254000Y-56558797D01*
X128289585Y-56379896D01*
X128359389Y-56211374D01*
X128460728Y-56059709D01*
X128589709Y-55930728D01*
X128741374Y-55829389D01*
X128909896Y-55759585D01*
X129088797Y-55724000D01*
X129271203Y-55724000D01*
X129450104Y-55759585D01*
X129450104Y-55759585D01*
G37*
G36*
X148475104Y-55759585D02*
G01*
X148643626Y-55829389D01*
X148795291Y-55930728D01*
X148924272Y-56059709D01*
X149025611Y-56211374D01*
X149095415Y-56379896D01*
X149131000Y-56558797D01*
X149131000Y-56741203D01*
X149095415Y-56920104D01*
X149025611Y-57088626D01*
X148924272Y-57240291D01*
X148795291Y-57369272D01*
X148643626Y-57470611D01*
X148475104Y-57540415D01*
X148296203Y-57576000D01*
X148113797Y-57576000D01*
X147934896Y-57540415D01*
X147766374Y-57470611D01*
X147614709Y-57369272D01*
X147485728Y-57240291D01*
X147384389Y-57088626D01*
X147314585Y-56920104D01*
X147279000Y-56741203D01*
X147279000Y-56558797D01*
X147314585Y-56379896D01*
X147384389Y-56211374D01*
X147485728Y-56059709D01*
X147614709Y-55930728D01*
X147766374Y-55829389D01*
X147934896Y-55759585D01*
X148113797Y-55724000D01*
X148296203Y-55724000D01*
X148475104Y-55759585D01*
X148475104Y-55759585D01*
G37*
G36*
X205625104Y-55734585D02*
G01*
X205793626Y-55804389D01*
X205945291Y-55905728D01*
X206074272Y-56034709D01*
X206175611Y-56186374D01*
X206245415Y-56354896D01*
X206281000Y-56533797D01*
X206281000Y-56716203D01*
X206245415Y-56895104D01*
X206175611Y-57063626D01*
X206074272Y-57215291D01*
X205945291Y-57344272D01*
X205793626Y-57445611D01*
X205625104Y-57515415D01*
X205446203Y-57551000D01*
X205263797Y-57551000D01*
X205084896Y-57515415D01*
X204916374Y-57445611D01*
X204764709Y-57344272D01*
X204635728Y-57215291D01*
X204534389Y-57063626D01*
X204464585Y-56895104D01*
X204429000Y-56716203D01*
X204429000Y-56533797D01*
X204464585Y-56354896D01*
X204534389Y-56186374D01*
X204635728Y-56034709D01*
X204764709Y-55905728D01*
X204916374Y-55804389D01*
X205084896Y-55734585D01*
X205263797Y-55699000D01*
X205446203Y-55699000D01*
X205625104Y-55734585D01*
X205625104Y-55734585D01*
G37*
G36*
X195465104Y-55734585D02*
G01*
X195633626Y-55804389D01*
X195785291Y-55905728D01*
X195914272Y-56034709D01*
X196015611Y-56186374D01*
X196085415Y-56354896D01*
X196121000Y-56533797D01*
X196121000Y-56716203D01*
X196085415Y-56895104D01*
X196015611Y-57063626D01*
X195914272Y-57215291D01*
X195785291Y-57344272D01*
X195633626Y-57445611D01*
X195465104Y-57515415D01*
X195286203Y-57551000D01*
X195103797Y-57551000D01*
X194924896Y-57515415D01*
X194756374Y-57445611D01*
X194604709Y-57344272D01*
X194475728Y-57215291D01*
X194374389Y-57063626D01*
X194304585Y-56895104D01*
X194269000Y-56716203D01*
X194269000Y-56533797D01*
X194304585Y-56354896D01*
X194374389Y-56186374D01*
X194475728Y-56034709D01*
X194604709Y-55905728D01*
X194756374Y-55804389D01*
X194924896Y-55734585D01*
X195103797Y-55699000D01*
X195286203Y-55699000D01*
X195465104Y-55734585D01*
X195465104Y-55734585D01*
G37*
G36*
X208473228Y-54081703D02*
G01*
X208628100Y-54145853D01*
X208767481Y-54238985D01*
X208886015Y-54357519D01*
X208979147Y-54496900D01*
X209043297Y-54651772D01*
X209076000Y-54816184D01*
X209076000Y-54983816D01*
X209043297Y-55148228D01*
X208979147Y-55303100D01*
X208886015Y-55442481D01*
X208767481Y-55561015D01*
X208628100Y-55654147D01*
X208473228Y-55718297D01*
X208308816Y-55751000D01*
X208141184Y-55751000D01*
X207976772Y-55718297D01*
X207821900Y-55654147D01*
X207682519Y-55561015D01*
X207563985Y-55442481D01*
X207470853Y-55303100D01*
X207406703Y-55148228D01*
X207374000Y-54983816D01*
X207374000Y-54816184D01*
X207406703Y-54651772D01*
X207470853Y-54496900D01*
X207563985Y-54357519D01*
X207682519Y-54238985D01*
X207821900Y-54145853D01*
X207976772Y-54081703D01*
X208141184Y-54049000D01*
X208308816Y-54049000D01*
X208473228Y-54081703D01*
X208473228Y-54081703D01*
G37*
G36*
X94123228Y-54056703D02*
G01*
X94278100Y-54120853D01*
X94417481Y-54213985D01*
X94536015Y-54332519D01*
X94629147Y-54471900D01*
X94693297Y-54626772D01*
X94726000Y-54791184D01*
X94726000Y-54958816D01*
X94693297Y-55123228D01*
X94629147Y-55278100D01*
X94536015Y-55417481D01*
X94417481Y-55536015D01*
X94278100Y-55629147D01*
X94123228Y-55693297D01*
X93958816Y-55726000D01*
X93791184Y-55726000D01*
X93626772Y-55693297D01*
X93471900Y-55629147D01*
X93332519Y-55536015D01*
X93213985Y-55417481D01*
X93120853Y-55278100D01*
X93056703Y-55123228D01*
X93024000Y-54958816D01*
X93024000Y-54791184D01*
X93056703Y-54626772D01*
X93120853Y-54471900D01*
X93213985Y-54332519D01*
X93332519Y-54213985D01*
X93471900Y-54120853D01*
X93626772Y-54056703D01*
X93791184Y-54024000D01*
X93958816Y-54024000D01*
X94123228Y-54056703D01*
X94123228Y-54056703D01*
G37*
G36*
X170219083Y-53588335D02*
G01*
X170387840Y-53658236D01*
X170539718Y-53759718D01*
X170668882Y-53888882D01*
X170770364Y-54040760D01*
X170840265Y-54209517D01*
X170875900Y-54388668D01*
X170875900Y-54571332D01*
X170840265Y-54750483D01*
X170770364Y-54919240D01*
X170668882Y-55071118D01*
X170539718Y-55200282D01*
X170387840Y-55301764D01*
X170219083Y-55371665D01*
X170039932Y-55407300D01*
X169857268Y-55407300D01*
X169678117Y-55371665D01*
X169509360Y-55301764D01*
X169357482Y-55200282D01*
X169228318Y-55071118D01*
X169126836Y-54919240D01*
X169056935Y-54750483D01*
X169021300Y-54571332D01*
X169021300Y-54388668D01*
X169056935Y-54209517D01*
X169126836Y-54040760D01*
X169228318Y-53888882D01*
X169357482Y-53759718D01*
X169509360Y-53658236D01*
X169678117Y-53588335D01*
X169857268Y-53552700D01*
X170039932Y-53552700D01*
X170219083Y-53588335D01*
X170219083Y-53588335D01*
G37*
G36*
X155178700Y-55407300D02*
G01*
X153324100Y-55407300D01*
X153324100Y-53552700D01*
X155178700Y-53552700D01*
X155178700Y-55407300D01*
X155178700Y-55407300D01*
G37*
G36*
X173373228Y-52106703D02*
G01*
X173528100Y-52170853D01*
X173667481Y-52263985D01*
X173786015Y-52382519D01*
X173879147Y-52521900D01*
X173943297Y-52676772D01*
X173976000Y-52841184D01*
X173976000Y-53008816D01*
X173943297Y-53173228D01*
X173879147Y-53328100D01*
X173786015Y-53467481D01*
X173667481Y-53586015D01*
X173528100Y-53679147D01*
X173373228Y-53743297D01*
X173208816Y-53776000D01*
X173041184Y-53776000D01*
X172876772Y-53743297D01*
X172721900Y-53679147D01*
X172582519Y-53586015D01*
X172463985Y-53467481D01*
X172370853Y-53328100D01*
X172306703Y-53173228D01*
X172274000Y-53008816D01*
X172274000Y-52841184D01*
X172306703Y-52676772D01*
X172370853Y-52521900D01*
X172463985Y-52382519D01*
X172582519Y-52263985D01*
X172721900Y-52170853D01*
X172876772Y-52106703D01*
X173041184Y-52074000D01*
X173208816Y-52074000D01*
X173373228Y-52106703D01*
X173373228Y-52106703D01*
G37*
G36*
X227498228Y-52056703D02*
G01*
X227653100Y-52120853D01*
X227792481Y-52213985D01*
X227911015Y-52332519D01*
X228004147Y-52471900D01*
X228068297Y-52626772D01*
X228101000Y-52791184D01*
X228101000Y-52958816D01*
X228068297Y-53123228D01*
X228004147Y-53278100D01*
X227911015Y-53417481D01*
X227792481Y-53536015D01*
X227653100Y-53629147D01*
X227498228Y-53693297D01*
X227333816Y-53726000D01*
X227166184Y-53726000D01*
X227001772Y-53693297D01*
X226846900Y-53629147D01*
X226707519Y-53536015D01*
X226588985Y-53417481D01*
X226495853Y-53278100D01*
X226431703Y-53123228D01*
X226399000Y-52958816D01*
X226399000Y-52791184D01*
X226431703Y-52626772D01*
X226495853Y-52471900D01*
X226588985Y-52332519D01*
X226707519Y-52213985D01*
X226846900Y-52120853D01*
X227001772Y-52056703D01*
X227166184Y-52024000D01*
X227333816Y-52024000D01*
X227498228Y-52056703D01*
X227498228Y-52056703D01*
G37*
G36*
X230623228Y-52056703D02*
G01*
X230778100Y-52120853D01*
X230917481Y-52213985D01*
X231036015Y-52332519D01*
X231129147Y-52471900D01*
X231193297Y-52626772D01*
X231226000Y-52791184D01*
X231226000Y-52958816D01*
X231193297Y-53123228D01*
X231129147Y-53278100D01*
X231036015Y-53417481D01*
X230917481Y-53536015D01*
X230778100Y-53629147D01*
X230623228Y-53693297D01*
X230458816Y-53726000D01*
X230291184Y-53726000D01*
X230126772Y-53693297D01*
X229971900Y-53629147D01*
X229832519Y-53536015D01*
X229713985Y-53417481D01*
X229620853Y-53278100D01*
X229556703Y-53123228D01*
X229524000Y-52958816D01*
X229524000Y-52791184D01*
X229556703Y-52626772D01*
X229620853Y-52471900D01*
X229713985Y-52332519D01*
X229832519Y-52213985D01*
X229971900Y-52120853D01*
X230126772Y-52056703D01*
X230291184Y-52024000D01*
X230458816Y-52024000D01*
X230623228Y-52056703D01*
X230623228Y-52056703D01*
G37*
G36*
X189423228Y-52056703D02*
G01*
X189578100Y-52120853D01*
X189717481Y-52213985D01*
X189836015Y-52332519D01*
X189929147Y-52471900D01*
X189993297Y-52626772D01*
X190026000Y-52791184D01*
X190026000Y-52958816D01*
X189993297Y-53123228D01*
X189929147Y-53278100D01*
X189836015Y-53417481D01*
X189717481Y-53536015D01*
X189578100Y-53629147D01*
X189423228Y-53693297D01*
X189258816Y-53726000D01*
X189091184Y-53726000D01*
X188926772Y-53693297D01*
X188771900Y-53629147D01*
X188632519Y-53536015D01*
X188513985Y-53417481D01*
X188420853Y-53278100D01*
X188356703Y-53123228D01*
X188324000Y-52958816D01*
X188324000Y-52791184D01*
X188356703Y-52626772D01*
X188420853Y-52471900D01*
X188513985Y-52332519D01*
X188632519Y-52213985D01*
X188771900Y-52120853D01*
X188926772Y-52056703D01*
X189091184Y-52024000D01*
X189258816Y-52024000D01*
X189423228Y-52056703D01*
X189423228Y-52056703D01*
G37*
G36*
X75123228Y-52056703D02*
G01*
X75278100Y-52120853D01*
X75417481Y-52213985D01*
X75536015Y-52332519D01*
X75629147Y-52471900D01*
X75693297Y-52626772D01*
X75726000Y-52791184D01*
X75726000Y-52958816D01*
X75693297Y-53123228D01*
X75629147Y-53278100D01*
X75536015Y-53417481D01*
X75417481Y-53536015D01*
X75278100Y-53629147D01*
X75123228Y-53693297D01*
X74958816Y-53726000D01*
X74791184Y-53726000D01*
X74626772Y-53693297D01*
X74471900Y-53629147D01*
X74332519Y-53536015D01*
X74213985Y-53417481D01*
X74120853Y-53278100D01*
X74056703Y-53123228D01*
X74024000Y-52958816D01*
X74024000Y-52791184D01*
X74056703Y-52626772D01*
X74120853Y-52471900D01*
X74213985Y-52332519D01*
X74332519Y-52213985D01*
X74471900Y-52120853D01*
X74626772Y-52056703D01*
X74791184Y-52024000D01*
X74958816Y-52024000D01*
X75123228Y-52056703D01*
X75123228Y-52056703D01*
G37*
G36*
X151323228Y-52056703D02*
G01*
X151478100Y-52120853D01*
X151617481Y-52213985D01*
X151736015Y-52332519D01*
X151829147Y-52471900D01*
X151893297Y-52626772D01*
X151926000Y-52791184D01*
X151926000Y-52958816D01*
X151893297Y-53123228D01*
X151829147Y-53278100D01*
X151736015Y-53417481D01*
X151617481Y-53536015D01*
X151478100Y-53629147D01*
X151323228Y-53693297D01*
X151158816Y-53726000D01*
X150991184Y-53726000D01*
X150826772Y-53693297D01*
X150671900Y-53629147D01*
X150532519Y-53536015D01*
X150413985Y-53417481D01*
X150320853Y-53278100D01*
X150256703Y-53123228D01*
X150224000Y-52958816D01*
X150224000Y-52791184D01*
X150256703Y-52626772D01*
X150320853Y-52471900D01*
X150413985Y-52332519D01*
X150532519Y-52213985D01*
X150671900Y-52120853D01*
X150826772Y-52056703D01*
X150991184Y-52024000D01*
X151158816Y-52024000D01*
X151323228Y-52056703D01*
X151323228Y-52056703D01*
G37*
G36*
X132273228Y-52056703D02*
G01*
X132428100Y-52120853D01*
X132567481Y-52213985D01*
X132686015Y-52332519D01*
X132779147Y-52471900D01*
X132843297Y-52626772D01*
X132876000Y-52791184D01*
X132876000Y-52958816D01*
X132843297Y-53123228D01*
X132779147Y-53278100D01*
X132686015Y-53417481D01*
X132567481Y-53536015D01*
X132428100Y-53629147D01*
X132273228Y-53693297D01*
X132108816Y-53726000D01*
X131941184Y-53726000D01*
X131776772Y-53693297D01*
X131621900Y-53629147D01*
X131482519Y-53536015D01*
X131363985Y-53417481D01*
X131270853Y-53278100D01*
X131206703Y-53123228D01*
X131174000Y-52958816D01*
X131174000Y-52791184D01*
X131206703Y-52626772D01*
X131270853Y-52471900D01*
X131363985Y-52332519D01*
X131482519Y-52213985D01*
X131621900Y-52120853D01*
X131776772Y-52056703D01*
X131941184Y-52024000D01*
X132108816Y-52024000D01*
X132273228Y-52056703D01*
X132273228Y-52056703D01*
G37*
G36*
X113223228Y-52031703D02*
G01*
X113378100Y-52095853D01*
X113517481Y-52188985D01*
X113636015Y-52307519D01*
X113729147Y-52446900D01*
X113793297Y-52601772D01*
X113826000Y-52766184D01*
X113826000Y-52933816D01*
X113793297Y-53098228D01*
X113729147Y-53253100D01*
X113636015Y-53392481D01*
X113517481Y-53511015D01*
X113378100Y-53604147D01*
X113223228Y-53668297D01*
X113058816Y-53701000D01*
X112891184Y-53701000D01*
X112726772Y-53668297D01*
X112571900Y-53604147D01*
X112432519Y-53511015D01*
X112313985Y-53392481D01*
X112220853Y-53253100D01*
X112156703Y-53098228D01*
X112124000Y-52933816D01*
X112124000Y-52766184D01*
X112156703Y-52601772D01*
X112220853Y-52446900D01*
X112313985Y-52307519D01*
X112432519Y-52188985D01*
X112571900Y-52095853D01*
X112726772Y-52031703D01*
X112891184Y-51999000D01*
X113058816Y-51999000D01*
X113223228Y-52031703D01*
X113223228Y-52031703D01*
G37*
G36*
X160526000Y-51176000D02*
G01*
X157224000Y-51176000D01*
X157224000Y-49574000D01*
X160526000Y-49574000D01*
X160526000Y-51176000D01*
X160526000Y-51176000D01*
G37*
M02*
