M48
; DRILL file {KiCad (5.1.4-0-10_14)} date Thursday, October 15, 2020 at 03:35:31 PM
; FORMAT={-:-/ absolute / metric / decimal}
; #@! TF.CreationDate,2020-10-15T15:35:31-05:00
; #@! TF.GenerationSoftware,Kicad,Pcbnew,(5.1.4-0-10_14)
FMAT,2
METRIC
T1C0.400
T2C1.000
T3C1.092
T4C1.470
T5C1.750
T6C3.048
T7C3.988
%
G90
G05
T1
X61.475Y-70.275
X117.6Y-112.725
X122.5Y-52.025
X132.65Y-119.15
X148.9Y-54.25
X150.775Y-78.7
X152.375Y-66.225
X152.45Y-81.95
X160.725Y-80.45
X163.925Y-63.6
X187.775Y-112.325
X195.575Y-59.775
X201.625Y-64.425
T2
X132.075Y-90.925
X112.975Y-52.85
X112.975Y-60.65
X132.025Y-52.875
X132.025Y-60.675
X151.075Y-52.875
X151.075Y-60.675
X132.075Y-98.725
X189.175Y-52.875
X189.175Y-60.675
X208.225Y-54.9
X208.225Y-62.7
X227.25Y-52.875
X227.25Y-60.675
X230.375Y-52.875
X230.375Y-60.675
X74.925Y-71.875
X74.925Y-79.675
X135.15Y-71.9
X135.15Y-79.7
X93.95Y-71.9
X93.95Y-79.7
X113.0Y-71.95
X113.0Y-79.75
X173.125Y-52.925
X173.125Y-60.725
X74.875Y-52.875
X74.875Y-60.675
X166.525Y-109.25
X93.875Y-54.875
X93.875Y-62.675
X166.525Y-117.05
X89.3Y-109.3
X89.3Y-117.1
X213.275Y-109.275
X213.275Y-117.075
X108.225Y-109.3
X108.225Y-117.1
X215.675Y-109.275
X215.675Y-117.075
X93.925Y-90.975
X93.925Y-98.775
X74.9Y-90.975
X74.9Y-98.775
X141.525Y-109.25
X141.525Y-117.05
X170.175Y-90.975
X170.175Y-98.775
X151.125Y-90.975
X151.125Y-98.775
X113.0Y-90.975
X113.0Y-98.775
X189.25Y-90.975
X189.25Y-98.775
X208.3Y-90.975
X230.25Y-79.4
X227.325Y-90.925
X227.325Y-98.725
X208.3Y-98.775
X230.45Y-90.975
X230.45Y-98.775
X230.25Y-71.6
X227.35Y-71.5
X227.35Y-79.3
X208.375Y-71.475
X208.375Y-79.275
X189.35Y-71.6
X189.35Y-79.4
X158.275Y-86.5
X166.075Y-86.5
X132.075Y-71.9
X132.075Y-79.7
T3
X154.251Y-54.48
X154.251Y-59.56
X154.251Y-64.64
X154.251Y-69.72
X154.251Y-74.8
X154.251Y-79.88
X154.709Y-57.02
X154.709Y-62.1
X154.709Y-67.18
X154.709Y-72.26
X154.709Y-77.34
X154.709Y-82.42
X169.491Y-57.02
X169.491Y-62.1
X169.491Y-67.18
X169.491Y-72.26
X169.491Y-77.34
X169.491Y-82.42
X169.949Y-54.48
X169.949Y-59.56
X169.949Y-64.64
X169.949Y-69.72
X169.949Y-74.8
X169.949Y-79.88
T4
X234.565Y-73.16
X240.915Y-70.62
X101.215Y-73.16
X183.765Y-51.57
X196.465Y-92.21
X82.14Y-92.21
X164.74Y-51.57
X155.14Y-108.695
X202.815Y-89.67
X88.49Y-89.67
X220.265Y-111.26
X177.415Y-54.11
X226.615Y-108.72
X107.565Y-70.62
X148.79Y-111.235
X77.44Y-111.26
X83.79Y-108.72
X215.515Y-73.16
X221.865Y-70.62
X82.14Y-73.16
X88.49Y-70.62
X158.39Y-54.11
X139.315Y-54.11
X145.665Y-51.57
X177.415Y-92.21
X69.44Y-89.67
X183.765Y-89.67
X63.09Y-92.21
X196.465Y-73.16
X202.815Y-70.62
X63.09Y-73.16
X69.44Y-70.62
X120.29Y-54.11
X126.64Y-51.57
X96.44Y-111.26
X102.79Y-108.72
X75.015Y-111.185
X81.365Y-108.645
X158.365Y-92.21
X164.715Y-89.67
X177.415Y-73.135
X183.765Y-70.595
X234.565Y-54.11
X240.915Y-51.57
X221.89Y-51.57
X222.59Y-111.335
X228.94Y-108.795
X139.315Y-92.21
X145.665Y-89.67
X120.29Y-92.21
X126.64Y-89.67
X136.14Y-108.72
X215.54Y-54.11
X202.815Y-51.545
X129.79Y-111.26
X107.565Y-51.57
X158.34Y-73.16
X164.69Y-70.62
X101.215Y-54.11
X139.315Y-73.16
X145.665Y-70.62
X196.465Y-54.085
X215.49Y-92.185
X101.215Y-92.21
X234.59Y-92.21
X240.94Y-89.67
X82.165Y-54.11
X88.515Y-51.57
X120.265Y-73.16
X126.615Y-70.62
X221.84Y-89.645
X170.29Y-111.26
X176.64Y-108.72
X201.215Y-111.26
X207.565Y-108.72
X107.565Y-89.67
X63.115Y-54.11
X69.465Y-51.57
T5
X76.17Y-113.8
X86.33Y-113.8
X138.045Y-56.65
X138.045Y-75.7
X233.32Y-94.75
X243.48Y-94.75
X119.02Y-94.75
X129.18Y-94.75
X148.205Y-75.7
X80.895Y-56.65
X91.055Y-56.65
X118.995Y-75.7
X243.455Y-56.65
X233.295Y-56.65
X148.205Y-56.65
X221.32Y-113.875
X214.27Y-56.65
X224.43Y-56.65
X231.48Y-113.875
X95.17Y-113.8
X105.33Y-113.8
X176.145Y-75.675
X186.305Y-75.675
X167.23Y-75.7
X138.68Y-113.8
X99.945Y-56.65
X110.105Y-56.65
X157.07Y-75.7
X129.18Y-56.65
X157.095Y-94.75
X119.02Y-56.65
X167.255Y-94.75
X138.045Y-94.75
X73.745Y-113.725
X83.905Y-113.725
X148.205Y-94.75
X128.52Y-113.8
X129.155Y-75.7
X199.945Y-113.8
X210.105Y-113.8
X195.195Y-56.625
X205.355Y-56.625
X99.945Y-94.75
X110.105Y-94.75
X233.295Y-75.7
X243.455Y-75.7
X186.305Y-56.65
X99.945Y-75.7
X176.145Y-56.65
X214.22Y-94.725
X224.38Y-94.725
X61.845Y-56.65
X72.005Y-56.65
X110.105Y-75.7
X195.195Y-94.75
X205.355Y-94.75
X147.52Y-113.775
X157.68Y-113.775
X179.18Y-113.8
X218.995Y-113.8
X229.155Y-113.8
X80.87Y-94.75
X169.02Y-113.8
X91.03Y-94.75
X176.145Y-94.75
X186.305Y-94.75
X61.82Y-94.75
X71.98Y-94.75
X214.245Y-75.7
X224.405Y-75.7
X195.195Y-75.7
X205.355Y-75.7
X157.12Y-56.65
X167.28Y-56.65
X80.87Y-75.7
X91.03Y-75.7
X61.82Y-75.7
X71.98Y-75.7
T6
X162.194Y-120.785
X121.694Y-120.785
X145.506Y-120.785
X186.006Y-120.785
X102.6Y-120.76
X202.6Y-120.76
T7
X105.025Y-94.75
X105.025Y-75.7
X85.95Y-94.75
X200.275Y-75.7
X85.95Y-75.7
X66.9Y-94.75
X102.6Y-105.52
X162.194Y-105.545
X238.375Y-75.7
X219.3Y-94.725
X66.925Y-56.65
X200.275Y-94.75
X174.1Y-113.8
X186.006Y-105.545
X205.025Y-113.8
X224.075Y-113.8
X181.225Y-56.65
X162.2Y-56.65
X152.6Y-113.775
X219.325Y-75.7
X143.125Y-56.65
X181.225Y-94.75
X66.9Y-75.7
X81.25Y-113.8
X124.1Y-56.65
X162.175Y-94.75
X145.506Y-105.545
X219.35Y-56.65
X226.4Y-113.875
X100.25Y-113.8
X181.225Y-75.675
X143.125Y-94.75
X238.4Y-94.75
X85.975Y-56.65
X200.275Y-56.625
X121.694Y-105.545
X133.6Y-113.8
X124.1Y-94.75
X105.025Y-56.65
X162.15Y-75.7
X238.375Y-56.65
X78.825Y-113.725
X143.125Y-75.7
X124.075Y-75.7
X202.6Y-105.52
T0
M30
