G04 #@! TF.GenerationSoftware,KiCad,Pcbnew,(5.1.4-0-10_14)*
G04 #@! TF.CreationDate,2020-08-17T22:30:30-05:00*
G04 #@! TF.ProjectId,33_skeleton_top_plate,33335f73-6b65-46c6-9574-6f6e5f746f70,rev?*
G04 #@! TF.SameCoordinates,Original*
G04 #@! TF.FileFunction,Profile,NP*
%FSLAX46Y46*%
G04 Gerber Fmt 4.6, Leading zero omitted, Abs format (unit mm)*
G04 Created by KiCad (PCBNEW (5.1.4-0-10_14)) date 2020-08-17 22:30:30*
%MOMM*%
%LPD*%
G04 APERTURE LIST*
%ADD10C,0.200000*%
G04 APERTURE END LIST*
D10*
X144550001Y-109400000D02*
G75*
G02X144050000Y-109900001I-500001J0D01*
G01*
X131049999Y-109900001D02*
X144050000Y-109900001D01*
X106737500Y-115450001D02*
G75*
G02X107237500Y-114950001I500000J0D01*
G01*
X92450000Y-96400001D02*
G75*
G02X92950000Y-95900001I500000J0D01*
G01*
X105949999Y-95900000D02*
X92950000Y-95900001D01*
X105949999Y-95900000D02*
G75*
G02X106450000Y-96400001I0J-500001D01*
G01*
X106449999Y-109400001D02*
X106450000Y-96400001D01*
X106449999Y-109400001D02*
G75*
G02X105949999Y-109900001I-500000J0D01*
G01*
X201200000Y-76850001D02*
G75*
G02X201700000Y-77350001I0J-500000D01*
G01*
X201700000Y-90350000D02*
X201700000Y-77350001D01*
X140075000Y-115450001D02*
G75*
G02X140575000Y-114950001I500000J0D01*
G01*
X85806250Y-128950001D02*
X101187500Y-128950001D01*
X105512500Y-129240001D02*
G75*
G03X105512500Y-129240001I-1300000J0D01*
G01*
X124999999Y-109900001D02*
X111999999Y-109900001D01*
X125499999Y-109400001D02*
G75*
G02X124999999Y-109900001I-500000J0D01*
G01*
X125500000Y-96400001D02*
X125499999Y-109400001D01*
X153575000Y-114950001D02*
X140575000Y-114950001D01*
X153575000Y-114950001D02*
G75*
G02X154075000Y-115450001I0J-500000D01*
G01*
X154075000Y-128450001D02*
X154075000Y-115450001D01*
X154075000Y-128450001D02*
G75*
G02X153575000Y-128950001I-500000J0D01*
G01*
X140575000Y-128950001D02*
X153575000Y-128950001D01*
X140574999Y-128950002D02*
G75*
G02X140075000Y-128450001I1J500000D01*
G01*
X140075000Y-115450001D02*
X140075000Y-128450001D01*
X131762000Y-114450001D02*
G75*
G02X132262000Y-113950001I500000J0D01*
G01*
X138012000Y-113950001D02*
X132262000Y-113950001D01*
X138012000Y-113950001D02*
G75*
G02X138512000Y-114450001I0J-500000D01*
G01*
X138511999Y-127450000D02*
X138512000Y-114450001D01*
X138511999Y-127450000D02*
G75*
G02X138012000Y-127950001I-500000J-1D01*
G01*
X220250000Y-90850001D02*
X207250000Y-90850001D01*
X220750000Y-90350001D02*
G75*
G02X220250000Y-90850001I-500000J0D01*
G01*
X220750000Y-77350001D02*
X220749999Y-90350001D01*
X220250000Y-76850001D02*
G75*
G02X220750000Y-77350001I0J-500000D01*
G01*
X207249999Y-76850001D02*
X220250000Y-76850001D01*
X206750001Y-77350001D02*
G75*
G02X207249999Y-76850001I499999J1D01*
G01*
X144550000Y-71300000D02*
G75*
G02X144050000Y-71800000I-500000J0D01*
G01*
X131050000Y-71800000D02*
X144050000Y-71800000D01*
X131050000Y-71800000D02*
G75*
G02X130550000Y-71300000I0J500000D01*
G01*
X130550000Y-58300001D02*
X130550000Y-71300000D01*
X130550000Y-58300001D02*
G75*
G02X131050000Y-57800001I500000J0D01*
G01*
X144050000Y-57800001D02*
X131050000Y-57800001D01*
X144049999Y-57800002D02*
G75*
G02X144550000Y-58300001I1J-500000D01*
G01*
X144550000Y-71300000D02*
X144550000Y-58300001D01*
X149600000Y-71800000D02*
X149600000Y-58300001D01*
X163100000Y-71800000D02*
X149600000Y-71800000D01*
X163600000Y-71300000D02*
G75*
G02X163100000Y-71800000I-500000J0D01*
G01*
X163600000Y-58300001D02*
X163600000Y-71300000D01*
X163099999Y-57800002D02*
G75*
G02X163600000Y-58300001I1J-500000D01*
G01*
X150100000Y-57800001D02*
X163100000Y-57800001D01*
X149600000Y-58300001D02*
G75*
G02X150100000Y-57800001I500000J0D01*
G01*
X112000000Y-57800001D02*
X124999999Y-57800000D01*
X111499999Y-58300002D02*
G75*
G02X112000000Y-57800001I500001J0D01*
G01*
X111500000Y-71300000D02*
X111500000Y-58300001D01*
X112000000Y-71800000D02*
G75*
G02X111500000Y-71300000I0J500000D01*
G01*
X124999999Y-71800000D02*
X112000000Y-71800000D01*
X124999999Y-76850000D02*
X112000000Y-76850001D01*
X206750000Y-90350000D02*
X206750001Y-77350001D01*
X207249999Y-90850001D02*
G75*
G02X206750000Y-90350000I1J500000D01*
G01*
X112750000Y-114950001D02*
X107237500Y-114950001D01*
X112750000Y-114450001D02*
X112750000Y-114950001D01*
X112749999Y-114450002D02*
G75*
G02X113250000Y-113950001I500001J0D01*
G01*
X119000000Y-113950001D02*
X113250000Y-113950001D01*
X118999999Y-113950002D02*
G75*
G02X119500000Y-114450001I1J-500000D01*
G01*
X119500000Y-114950001D02*
X119500000Y-114450001D01*
X120237500Y-114950001D02*
X119500000Y-114950001D01*
X120237500Y-114950001D02*
G75*
G02X120737500Y-115450001I0J-500000D01*
G01*
X120737499Y-128450000D02*
X120737500Y-115450001D01*
X120737499Y-128450000D02*
G75*
G02X120237500Y-128950001I-500000J-1D01*
G01*
X106737500Y-128950001D02*
X120237500Y-128950001D01*
X106737500Y-115450001D02*
X106737500Y-128950001D01*
X178993250Y-114450001D02*
X178993249Y-127450000D01*
X178493250Y-113950001D02*
G75*
G02X178993250Y-114450001I0J-500000D01*
G01*
X73400000Y-71300000D02*
X73399999Y-58300000D01*
X73900000Y-71800000D02*
G75*
G02X73400000Y-71300000I0J500000D01*
G01*
X86900000Y-109900001D02*
X73899999Y-109900001D01*
X87399999Y-109400000D02*
G75*
G02X86900000Y-109900001I-500000J-1D01*
G01*
X87400000Y-96400001D02*
X87399999Y-109400000D01*
X86899999Y-95900000D02*
G75*
G02X87400000Y-96400001I0J-500001D01*
G01*
X73900000Y-95900001D02*
X86899999Y-95900000D01*
X73400000Y-96400001D02*
G75*
G02X73900000Y-95900001I500000J0D01*
G01*
X73400000Y-109400000D02*
X73400000Y-96400001D01*
X73899999Y-109900001D02*
G75*
G02X73400000Y-109400000I1J500000D01*
G01*
X73399999Y-77350002D02*
G75*
G02X73900000Y-76850001I500001J0D01*
G01*
X86900000Y-76850001D02*
X73900000Y-76850001D01*
X86900000Y-76850001D02*
G75*
G02X87400000Y-77350001I0J-500000D01*
G01*
X87399999Y-90349999D02*
X87400000Y-77350001D01*
X87400000Y-90349999D02*
G75*
G02X86900000Y-90850001I-500001J-1D01*
G01*
X73900000Y-90850000D02*
X86900000Y-90850001D01*
X73900000Y-90850000D02*
G75*
G02X73400000Y-90350000I0J500000D01*
G01*
X73400000Y-77350001D02*
X73400000Y-90350000D01*
X169150000Y-76850001D02*
X182150000Y-76850001D01*
X168649999Y-77350002D02*
G75*
G02X169150000Y-76850001I500001J0D01*
G01*
X168650000Y-90350000D02*
X168650000Y-77350001D01*
X169150000Y-90850000D02*
G75*
G02X168650000Y-90350000I0J500000D01*
G01*
X182150000Y-90850001D02*
X169150000Y-90850001D01*
X182650000Y-90350001D02*
G75*
G02X182150000Y-90850001I-500000J0D01*
G01*
X182650000Y-77350001D02*
X182650000Y-90350000D01*
X182150000Y-76850001D02*
G75*
G02X182650000Y-77350001I0J-500000D01*
G01*
X85806250Y-128950001D02*
G75*
G02X85306250Y-128450001I0J500000D01*
G01*
X85306250Y-115450001D02*
X85306250Y-128450001D01*
X85306250Y-115450001D02*
G75*
G02X85806250Y-114950001I500000J0D01*
G01*
X101187499Y-114950000D02*
X85806250Y-114950001D01*
X101187499Y-114950000D02*
G75*
G02X101687500Y-115450001I0J-500001D01*
G01*
X101687500Y-128450001D02*
X101687500Y-115450001D01*
X101687500Y-128450001D02*
G75*
G02X101187500Y-128950001I-500000J0D01*
G01*
X125499999Y-71300000D02*
G75*
G02X124999999Y-71800000I-500000J0D01*
G01*
X125500000Y-58300001D02*
X125499999Y-71300000D01*
X124999999Y-57800000D02*
G75*
G02X125500000Y-58300001I0J-500001D01*
G01*
X168650000Y-58300001D02*
G75*
G02X169150000Y-57800001I500000J0D01*
G01*
X182150000Y-57800001D02*
X169150000Y-57800001D01*
X182150000Y-57800001D02*
G75*
G02X182650000Y-58300001I0J-500000D01*
G01*
X182650000Y-71300000D02*
X182650000Y-58300001D01*
X182650000Y-71300000D02*
G75*
G02X182150000Y-71800000I-500000J0D01*
G01*
X169150000Y-71800000D02*
X182150000Y-71800000D01*
X169150000Y-71800000D02*
G75*
G02X168650000Y-71300000I0J500000D01*
G01*
X168650000Y-58300001D02*
X168650000Y-71300000D01*
X187700000Y-58300000D02*
G75*
G02X188199999Y-57800001I499999J0D01*
G01*
X201200000Y-57800001D02*
X188199999Y-57800001D01*
X201200000Y-57800001D02*
G75*
G02X201700000Y-58300001I0J-500000D01*
G01*
X201700000Y-71300000D02*
X201700000Y-58300001D01*
X201700000Y-71300000D02*
G75*
G02X201200000Y-71800000I-500000J0D01*
G01*
X188200000Y-71800000D02*
X201200000Y-71800000D01*
X188200000Y-71800000D02*
G75*
G02X187700000Y-71300000I0J500000D01*
G01*
X187700000Y-58300000D02*
X187700000Y-71300000D01*
X206750000Y-71300000D02*
X206750001Y-58300001D01*
X207250000Y-71800000D02*
G75*
G02X206750000Y-71300000I0J500000D01*
G01*
X220250000Y-71800000D02*
X207250000Y-71800000D01*
X220749999Y-71300001D02*
G75*
G02X220250000Y-71800000I-499999J0D01*
G01*
X220750000Y-58300001D02*
X220749999Y-71300001D01*
X220250000Y-57800001D02*
G75*
G02X220750000Y-58300001I0J-500000D01*
G01*
X207249999Y-57800001D02*
X220250000Y-57800001D01*
X206750001Y-58300001D02*
G75*
G02X207249999Y-57800001I499999J1D01*
G01*
X224575000Y-57800001D02*
G75*
G03X224575000Y-57800001I-1300000J0D01*
G01*
X86900000Y-71800000D02*
X73900000Y-71800000D01*
X87400000Y-71300000D02*
G75*
G02X86900000Y-71800000I-500000J0D01*
G01*
X92949999Y-109900001D02*
X105949999Y-109900001D01*
X92949999Y-109900001D02*
G75*
G02X92450000Y-109400000I1J500000D01*
G01*
X92450000Y-96400001D02*
X92450000Y-109400000D01*
X149600000Y-77350001D02*
G75*
G02X150100000Y-76850001I500000J0D01*
G01*
X163100000Y-76850001D02*
X150100000Y-76850001D01*
X163099999Y-76850002D02*
G75*
G02X163600000Y-77350001I1J-500000D01*
G01*
X163600000Y-90350000D02*
X163600000Y-77350001D01*
X163600001Y-90350000D02*
G75*
G02X163100000Y-90850001I-500001J0D01*
G01*
X150100000Y-90850000D02*
X163100000Y-90850001D01*
X150100000Y-90850000D02*
G75*
G02X149600000Y-90350000I0J500000D01*
G01*
X149600000Y-77350001D02*
X149600000Y-90350000D01*
X105949999Y-90850001D02*
X92950000Y-90850001D01*
X132262000Y-127950001D02*
X138012000Y-127950001D01*
X132261999Y-127950002D02*
G75*
G02X131762000Y-127450001I1J500000D01*
G01*
X131762000Y-114450001D02*
X131762000Y-127450001D01*
X131049999Y-109900001D02*
G75*
G02X130550000Y-109400000I1J500000D01*
G01*
X130550000Y-96400001D02*
X130550000Y-109400000D01*
X130550000Y-96400001D02*
G75*
G02X131050000Y-95900001I500000J0D01*
G01*
X106450000Y-90350000D02*
G75*
G02X105949999Y-90850001I-500001J0D01*
G01*
X106450000Y-77350001D02*
X106449999Y-90350000D01*
X105949999Y-76850000D02*
G75*
G02X106450000Y-77350001I0J-500001D01*
G01*
X92950000Y-76850001D02*
X105949999Y-76850001D01*
X92449999Y-77350002D02*
G75*
G02X92950000Y-76850001I500001J0D01*
G01*
X92450000Y-90350000D02*
X92450000Y-77350001D01*
X92950000Y-90850000D02*
G75*
G02X92450000Y-90350000I0J500000D01*
G01*
X131050000Y-76850001D02*
X144050000Y-76850001D01*
X130550000Y-77350001D02*
G75*
G02X131050000Y-76850001I500000J0D01*
G01*
X130550000Y-90350000D02*
X130550000Y-77350001D01*
X131049999Y-90850001D02*
G75*
G02X130550000Y-90350000I1J500000D01*
G01*
X144050000Y-90850001D02*
X131050000Y-90850001D01*
X144550001Y-90350000D02*
G75*
G02X144050000Y-90850001I-500001J0D01*
G01*
X144550000Y-77350001D02*
X144550000Y-90350000D01*
X144049999Y-76850002D02*
G75*
G02X144550000Y-77350001I1J-500000D01*
G01*
X201700000Y-90350001D02*
G75*
G02X201200000Y-90850001I-500000J0D01*
G01*
X188200000Y-90850000D02*
X201200000Y-90850001D01*
X188200000Y-90850000D02*
G75*
G02X187700000Y-90350000I0J500000D01*
G01*
X187700000Y-77350000D02*
X187700000Y-90350000D01*
X187700000Y-77350000D02*
G75*
G02X188199999Y-76850001I499999J0D01*
G01*
X201200000Y-76850001D02*
X188199999Y-76850001D01*
X144050000Y-95900001D02*
X131050000Y-95900001D01*
X144050000Y-95900001D02*
G75*
G02X144550000Y-96400001I0J-500000D01*
G01*
X144550001Y-109400000D02*
X144550000Y-96400001D01*
X92450000Y-58300001D02*
X92450000Y-71300000D01*
X124999999Y-76850000D02*
G75*
G02X125500000Y-77350001I0J-500001D01*
G01*
X125499999Y-90350000D02*
X125500000Y-77350001D01*
X125500000Y-90350000D02*
G75*
G02X124999999Y-90850001I-500001J0D01*
G01*
X112000000Y-90850000D02*
X124999999Y-90850001D01*
X112000000Y-90850000D02*
G75*
G02X111500000Y-90350000I0J500000D01*
G01*
X111500000Y-77350001D02*
X111500000Y-90350000D01*
X111499999Y-77350002D02*
G75*
G02X112000000Y-76850001I500001J0D01*
G01*
X110344001Y-57800001D02*
G75*
G03X110344001Y-57800001I-1300000J0D01*
G01*
X92449999Y-58300002D02*
G75*
G02X92950000Y-57800001I500001J0D01*
G01*
X105949999Y-57800000D02*
X92950000Y-57800001D01*
X105949999Y-57800000D02*
G75*
G02X106450000Y-58300001I0J-500001D01*
G01*
X106449999Y-71300000D02*
X106450000Y-58300001D01*
X106449999Y-71300000D02*
G75*
G02X105949999Y-71800000I-500000J0D01*
G01*
X92950000Y-71800000D02*
X105949999Y-71800000D01*
X92950000Y-71800000D02*
G75*
G02X92450000Y-71300000I0J500000D01*
G01*
X219000000Y-113950001D02*
G75*
G02X219500000Y-114450001I0J-500000D01*
G01*
X213250000Y-113950001D02*
X219000000Y-113950001D01*
X212750002Y-114450001D02*
G75*
G02X213250000Y-113950001I499999J1D01*
G01*
X212750000Y-114950001D02*
X212750002Y-114450000D01*
X212012499Y-114950001D02*
X212750000Y-114950001D01*
X211512500Y-115450002D02*
G75*
G02X212012499Y-114950001I500000J1D01*
G01*
X211512499Y-128450001D02*
X211512500Y-115450002D01*
X212012499Y-128950001D02*
G75*
G02X211512499Y-128450001I0J500000D01*
G01*
X225512500Y-128950001D02*
X212012499Y-128950001D01*
X225512500Y-115450001D02*
X225512500Y-128950001D01*
X225012499Y-114950000D02*
G75*
G02X225512500Y-115450001I0J-500001D01*
G01*
X220750000Y-109400001D02*
G75*
G02X220250000Y-109900001I-500000J0D01*
G01*
X207249999Y-109900001D02*
X220250000Y-109900001D01*
X207249999Y-109900001D02*
G75*
G02X206750000Y-109400000I1J500000D01*
G01*
X206750001Y-96400001D02*
X206750000Y-109400000D01*
X206750001Y-96400001D02*
G75*
G02X207249999Y-95900001I499999J1D01*
G01*
X220250000Y-95900001D02*
X207249999Y-95900001D01*
X220250000Y-95900001D02*
G75*
G02X220750000Y-96400001I0J-500000D01*
G01*
X220750000Y-109400001D02*
X220750000Y-96400001D01*
X229337500Y-129240001D02*
G75*
G03X229337500Y-129240001I-1300000J0D01*
G01*
X219500000Y-114950001D02*
X225012499Y-114950000D01*
X219500000Y-114450001D02*
X219500000Y-114950001D01*
X231062500Y-128950001D02*
G75*
G02X230562500Y-128450001I0J500000D01*
G01*
X246443750Y-128950001D02*
X231062500Y-128950001D01*
X246943750Y-128450001D02*
G75*
G02X246443750Y-128950001I-500000J0D01*
G01*
X246943750Y-115450001D02*
X246943750Y-128450001D01*
X246443750Y-114950001D02*
G75*
G02X246943750Y-115450001I0J-500000D01*
G01*
X231062500Y-114950001D02*
X246443750Y-114950001D01*
X230562500Y-115450001D02*
G75*
G02X231062500Y-114950001I500000J0D01*
G01*
X226299999Y-76850001D02*
X239300000Y-76850001D01*
X225800001Y-77350001D02*
G75*
G02X226299999Y-76850001I499999J1D01*
G01*
X225800000Y-90350000D02*
X225800001Y-77350001D01*
X226300000Y-90850002D02*
G75*
G02X225800000Y-90350000I1J500001D01*
G01*
X239300000Y-90850001D02*
X226300000Y-90850001D01*
X239799999Y-90350002D02*
G75*
G02X239300000Y-90850001I-499999J0D01*
G01*
X239800000Y-77350001D02*
X239799999Y-90350001D01*
X239300000Y-76850001D02*
G75*
G02X239800000Y-77350001I0J-500000D01*
G01*
X230562500Y-128450001D02*
X230562500Y-115450002D01*
X245350000Y-57800001D02*
X258350000Y-57800001D01*
X244850001Y-58300000D02*
G75*
G02X245350000Y-57800001I499999J0D01*
G01*
X244850000Y-71300000D02*
X244850001Y-58300000D01*
X245350001Y-71800001D02*
G75*
G02X244850000Y-71300000I0J500001D01*
G01*
X258350000Y-71800000D02*
X245350000Y-71800000D01*
X258849999Y-71300001D02*
G75*
G02X258350000Y-71800000I-499999J0D01*
G01*
X258850000Y-58300001D02*
X258849999Y-71300001D01*
X258350000Y-57800001D02*
G75*
G02X258850000Y-58300001I0J-500000D01*
G01*
X258850000Y-77350001D02*
X258849999Y-90350001D01*
X258350000Y-76850001D02*
G75*
G02X258850000Y-77350001I0J-500000D01*
G01*
X245350000Y-76850001D02*
X258350000Y-76850001D01*
X244850001Y-77350000D02*
G75*
G02X245350000Y-76850001I499999J0D01*
G01*
X244850000Y-90350000D02*
X244850001Y-77350000D01*
X245350000Y-90850002D02*
G75*
G02X244850000Y-90350000I1J500001D01*
G01*
X258350000Y-90850001D02*
X245350000Y-90850001D01*
X258850000Y-90350001D02*
G75*
G02X258350000Y-90850001I-500000J0D01*
G01*
X226299999Y-57800001D02*
X239300000Y-57800001D01*
X225800001Y-58300001D02*
G75*
G02X226299999Y-57800001I499999J1D01*
G01*
X225800000Y-71300000D02*
X225800001Y-58300001D01*
X226300001Y-71800001D02*
G75*
G02X225800000Y-71300000I0J500001D01*
G01*
X239300000Y-71800000D02*
X226300000Y-71800000D01*
X239799998Y-71300002D02*
G75*
G02X239300000Y-71800000I-499998J0D01*
G01*
X239800000Y-58300001D02*
X239799999Y-71300001D01*
X239300000Y-57800001D02*
G75*
G02X239800000Y-58300001I0J-500000D01*
G01*
X245350000Y-95900001D02*
X258350000Y-95900001D01*
X244850001Y-96400000D02*
G75*
G02X245350000Y-95900001I499999J0D01*
G01*
X244850000Y-109400000D02*
X244850001Y-96400000D01*
X245350000Y-109900002D02*
G75*
G02X244850000Y-109400000I1J500001D01*
G01*
X258350000Y-109900001D02*
X245349999Y-109900001D01*
X258850000Y-109400001D02*
G75*
G02X258350000Y-109900001I-500000J0D01*
G01*
X258850000Y-96400001D02*
X258850000Y-109400001D01*
X258350000Y-95900001D02*
G75*
G02X258850000Y-96400001I0J-500000D01*
G01*
X239300000Y-95900001D02*
G75*
G02X239800000Y-96400001I0J-500000D01*
G01*
X239800000Y-109400001D02*
X239800000Y-96400001D01*
X239800000Y-109400001D02*
G75*
G02X239300000Y-109900001I-500000J0D01*
G01*
X226299999Y-109900001D02*
X239300000Y-109900001D01*
X226299999Y-109900001D02*
G75*
G02X225800000Y-109400000I1J500000D01*
G01*
X225800001Y-96400001D02*
X225800000Y-109400000D01*
X225800001Y-96400001D02*
G75*
G02X226299999Y-95900001I499999J1D01*
G01*
X239300000Y-95900001D02*
X226299999Y-95900001D01*
X124999999Y-95900000D02*
G75*
G02X125500000Y-96400001I0J-500001D01*
G01*
X112000000Y-95900001D02*
X124999999Y-95900000D01*
X111500000Y-96400001D02*
G75*
G02X112000000Y-95900001I500000J0D01*
G01*
X111500000Y-109400000D02*
X111500000Y-96400001D01*
X111999999Y-109900001D02*
G75*
G02X111500000Y-109400000I1J500000D01*
G01*
X249053026Y-130700000D02*
X249053025Y-112650001D01*
X87400000Y-58300001D02*
X87400000Y-71300000D01*
X86900000Y-57800001D02*
G75*
G02X87400000Y-58300001I0J-500000D01*
G01*
X73900000Y-57800001D02*
X86900000Y-57800001D01*
X73399999Y-58300000D02*
G75*
G02X73900000Y-57800001I500000J-1D01*
G01*
X83696975Y-131200000D02*
X248553025Y-131200001D01*
X194556250Y-128449999D02*
X194556250Y-115450001D01*
X194556250Y-128449999D02*
G75*
G02X194056250Y-128950001I-500001J-1D01*
G01*
X181056250Y-128950001D02*
X194056250Y-128950001D01*
X181056250Y-128950001D02*
G75*
G02X180556250Y-128450001I0J500000D01*
G01*
X180556250Y-115450001D02*
X180556250Y-128450001D01*
X159125000Y-127950001D02*
X156138000Y-127950001D01*
X159125000Y-128450001D02*
X159125000Y-127950001D01*
X159625000Y-128950001D02*
G75*
G02X159125000Y-128450001I0J500000D01*
G01*
X172625000Y-128950001D02*
X159625000Y-128950001D01*
X173125000Y-128450001D02*
G75*
G02X172625000Y-128950001I-500000J0D01*
G01*
X163600000Y-109400001D02*
X163600000Y-96400001D01*
X163600000Y-109400001D02*
G75*
G02X163100000Y-109900001I-500000J0D01*
G01*
X150099999Y-109900001D02*
X163100000Y-109900001D01*
X260600000Y-55550001D02*
X71650000Y-55550001D01*
X260600000Y-55550001D02*
G75*
G02X261100000Y-56050001I0J-500000D01*
G01*
X188199999Y-109900001D02*
G75*
G02X187700000Y-109400000I1J500000D01*
G01*
X187700000Y-96400000D02*
X187700000Y-109400000D01*
X187700000Y-96400000D02*
G75*
G02X188199999Y-95900001I499999J0D01*
G01*
X201200000Y-95900001D02*
X188199999Y-95900001D01*
X201200000Y-95900001D02*
G75*
G02X201700000Y-96400001I0J-500000D01*
G01*
X201700000Y-109400001D02*
X201700000Y-96400001D01*
X150099998Y-109900002D02*
G75*
G02X149600000Y-109400000I2J500000D01*
G01*
X149600000Y-96400001D02*
X149600000Y-109400000D01*
X201699999Y-109400002D02*
G75*
G02X201200000Y-109900001I-499999J0D01*
G01*
X188199999Y-109900001D02*
X201200000Y-109900001D01*
X173125000Y-127950001D02*
X173125000Y-128450001D01*
X178493250Y-127950001D02*
X173125000Y-127950001D01*
X178993249Y-127450000D02*
G75*
G02X178493250Y-127950001I-500000J-1D01*
G01*
X202369250Y-113950001D02*
G75*
G02X202869250Y-114450001I0J-500000D01*
G01*
X202869250Y-127450001D02*
X202869250Y-114450001D01*
X202869250Y-127450001D02*
G75*
G02X202369250Y-127950001I-500000J0D01*
G01*
X196619250Y-127950001D02*
X202369250Y-127950001D01*
X196619250Y-127950001D02*
G75*
G02X196119250Y-127450001I0J500000D01*
G01*
X196119251Y-114450000D02*
X196119250Y-127450001D01*
X249053026Y-130700000D02*
G75*
G02X248553025Y-131200001I-500001J0D01*
G01*
X83696975Y-131200000D02*
G75*
G02X83196974Y-130700001I-1J500000D01*
G01*
X83196974Y-112650001D02*
X83196974Y-130700001D01*
X82696974Y-112150001D02*
G75*
G02X83196974Y-112650001I0J-500000D01*
G01*
X249553025Y-112150001D02*
X260600000Y-112150001D01*
X249053025Y-112650001D02*
G75*
G02X249553025Y-112150001I500000J0D01*
G01*
X172743250Y-113950001D02*
X178493250Y-113950001D01*
X172243250Y-114450001D02*
G75*
G02X172743250Y-113950001I500000J0D01*
G01*
X172243250Y-114950001D02*
X172243250Y-114450001D01*
X162388000Y-114950001D02*
X172243250Y-114950001D01*
X162388000Y-114450001D02*
X162388000Y-114950001D01*
X161888000Y-113950001D02*
G75*
G02X162388000Y-114450001I0J-500000D01*
G01*
X156138000Y-113950001D02*
X161888001Y-113950000D01*
X155638000Y-114450001D02*
G75*
G02X156138000Y-113950001I500000J0D01*
G01*
X155638000Y-127450001D02*
X155638000Y-114450001D01*
X156138000Y-127950001D02*
G75*
G02X155638000Y-127450001I0J500000D01*
G01*
X182150000Y-95900001D02*
G75*
G02X182650000Y-96400001I0J-500000D01*
G01*
X169150000Y-95900001D02*
X182150000Y-95900001D01*
X168650000Y-96400001D02*
G75*
G02X169150000Y-95900001I500000J0D01*
G01*
X149600000Y-96400001D02*
G75*
G02X150100000Y-95900001I500000J0D01*
G01*
X163100000Y-95900001D02*
X150100000Y-95900001D01*
X163100000Y-95900001D02*
G75*
G02X163600000Y-96400001I0J-500000D01*
G01*
X71150000Y-56050001D02*
X71150000Y-111650000D01*
X71150000Y-56050001D02*
G75*
G02X71650000Y-55550001I500000J0D01*
G01*
X196119251Y-114450000D02*
G75*
G02X196619250Y-113950001I499999J0D01*
G01*
X202369250Y-113950001D02*
X196619250Y-113950001D01*
X180556250Y-115450001D02*
G75*
G02X181056250Y-114950001I500000J0D01*
G01*
X194056250Y-114950001D02*
X181056250Y-114950001D01*
X194056249Y-114950002D02*
G75*
G02X194556250Y-115450001I1J-500000D01*
G01*
X168650000Y-109400000D02*
X168650000Y-96400001D01*
X169149999Y-109900001D02*
G75*
G02X168650000Y-109400000I1J500000D01*
G01*
X182150000Y-109900001D02*
X169149999Y-109900001D01*
X182650000Y-109400001D02*
G75*
G02X182150000Y-109900001I-500000J0D01*
G01*
X182650000Y-96400001D02*
X182650000Y-109400001D01*
X71650000Y-112150001D02*
X82696974Y-112150001D01*
X71650000Y-112150000D02*
G75*
G02X71150000Y-111650000I0J500000D01*
G01*
X261100000Y-111650000D02*
X261100000Y-56050001D01*
X261100001Y-111650000D02*
G75*
G02X260600000Y-112150001I-500001J0D01*
G01*
M02*
