G04 #@! TF.GenerationSoftware,KiCad,Pcbnew,(5.1.4-0-10_14)*
G04 #@! TF.CreationDate,2020-08-17T22:30:30-05:00*
G04 #@! TF.ProjectId,33_skeleton_top_plate,33335f73-6b65-46c6-9574-6f6e5f746f70,rev?*
G04 #@! TF.SameCoordinates,Original*
G04 #@! TF.FileFunction,Soldermask,Top*
G04 #@! TF.FilePolarity,Negative*
%FSLAX46Y46*%
G04 Gerber Fmt 4.6, Leading zero omitted, Abs format (unit mm)*
G04 Created by KiCad (PCBNEW (5.1.4-0-10_14)) date 2020-08-17 22:30:30*
%MOMM*%
%LPD*%
G04 APERTURE LIST*
%ADD10C,0.100000*%
G04 APERTURE END LIST*
D10*
G36*
X166758626Y-92931723D02*
G01*
X166758627Y-92931723D01*
X166758630Y-92931724D01*
X166795209Y-92946876D01*
X166828130Y-92968873D01*
X166856127Y-92996870D01*
X166878124Y-93029791D01*
X166893276Y-93066370D01*
X166901000Y-93105203D01*
X166901000Y-93144797D01*
X166893276Y-93183630D01*
X166878124Y-93220209D01*
X166856127Y-93253130D01*
X166828130Y-93281127D01*
X166795209Y-93303124D01*
X166758630Y-93318276D01*
X166758627Y-93318277D01*
X166758626Y-93318277D01*
X166719798Y-93326000D01*
X166680202Y-93326000D01*
X166641374Y-93318277D01*
X166641373Y-93318277D01*
X166641370Y-93318276D01*
X166604791Y-93303124D01*
X166571870Y-93281127D01*
X166543873Y-93253130D01*
X166521876Y-93220209D01*
X166506724Y-93183630D01*
X166499000Y-93144797D01*
X166499000Y-93105203D01*
X166506724Y-93066370D01*
X166521876Y-93029791D01*
X166543873Y-92996870D01*
X166571870Y-92968873D01*
X166604791Y-92946876D01*
X166641370Y-92931724D01*
X166641373Y-92931723D01*
X166641374Y-92931723D01*
X166680202Y-92924000D01*
X166719798Y-92924000D01*
X166758626Y-92931723D01*
X166758626Y-92931723D01*
G37*
G36*
X165858626Y-92931723D02*
G01*
X165858627Y-92931723D01*
X165858630Y-92931724D01*
X165895209Y-92946876D01*
X165928130Y-92968873D01*
X165956127Y-92996870D01*
X165978124Y-93029791D01*
X165993276Y-93066370D01*
X166001000Y-93105203D01*
X166001000Y-93144797D01*
X165993276Y-93183630D01*
X165978124Y-93220209D01*
X165956127Y-93253130D01*
X165928130Y-93281127D01*
X165895209Y-93303124D01*
X165858630Y-93318276D01*
X165858627Y-93318277D01*
X165858626Y-93318277D01*
X165819798Y-93326000D01*
X165780202Y-93326000D01*
X165741374Y-93318277D01*
X165741373Y-93318277D01*
X165741370Y-93318276D01*
X165704791Y-93303124D01*
X165671870Y-93281127D01*
X165643873Y-93253130D01*
X165621876Y-93220209D01*
X165606724Y-93183630D01*
X165599000Y-93144797D01*
X165599000Y-93105203D01*
X165606724Y-93066370D01*
X165621876Y-93029791D01*
X165643873Y-92996870D01*
X165671870Y-92968873D01*
X165704791Y-92946876D01*
X165741370Y-92931724D01*
X165741373Y-92931723D01*
X165741374Y-92931723D01*
X165780202Y-92924000D01*
X165819798Y-92924000D01*
X165858626Y-92931723D01*
X165858626Y-92931723D01*
G37*
M02*
