G04 #@! TF.GenerationSoftware,KiCad,Pcbnew,(5.1.4-0-10_14)*
G04 #@! TF.CreationDate,2020-08-17T14:15:21-05:00*
G04 #@! TF.ProjectId,33_skeleton_bottom_plate,33335f73-6b65-46c6-9574-6f6e5f626f74,rev?*
G04 #@! TF.SameCoordinates,Original*
G04 #@! TF.FileFunction,Soldermask,Top*
G04 #@! TF.FilePolarity,Negative*
%FSLAX46Y46*%
G04 Gerber Fmt 4.6, Leading zero omitted, Abs format (unit mm)*
G04 Created by KiCad (PCBNEW (5.1.4-0-10_14)) date 2020-08-17 14:15:21*
%MOMM*%
%LPD*%
G04 APERTURE LIST*
%ADD10C,0.100000*%
G04 APERTURE END LIST*
D10*
G36*
X242144059Y-62817860D02*
G01*
X242280732Y-62874472D01*
X242403735Y-62956660D01*
X242508340Y-63061265D01*
X242590528Y-63184268D01*
X242647140Y-63320941D01*
X242676000Y-63466033D01*
X242676000Y-63613967D01*
X242647140Y-63759059D01*
X242590528Y-63895732D01*
X242508340Y-64018735D01*
X242403735Y-64123340D01*
X242280732Y-64205528D01*
X242280731Y-64205529D01*
X242280730Y-64205529D01*
X242144059Y-64262140D01*
X241998968Y-64291000D01*
X241851032Y-64291000D01*
X241705941Y-64262140D01*
X241569270Y-64205529D01*
X241569269Y-64205529D01*
X241569268Y-64205528D01*
X241446265Y-64123340D01*
X241341660Y-64018735D01*
X241259472Y-63895732D01*
X241202860Y-63759059D01*
X241174000Y-63613967D01*
X241174000Y-63466033D01*
X241202860Y-63320941D01*
X241259472Y-63184268D01*
X241341660Y-63061265D01*
X241446265Y-62956660D01*
X241569268Y-62874472D01*
X241705941Y-62817860D01*
X241851032Y-62789000D01*
X241998968Y-62789000D01*
X242144059Y-62817860D01*
X242144059Y-62817860D01*
G37*
G36*
X242144059Y-60277860D02*
G01*
X242280732Y-60334472D01*
X242403735Y-60416660D01*
X242508340Y-60521265D01*
X242590528Y-60644268D01*
X242647140Y-60780941D01*
X242676000Y-60926033D01*
X242676000Y-61073967D01*
X242647140Y-61219059D01*
X242590528Y-61355732D01*
X242508340Y-61478735D01*
X242403735Y-61583340D01*
X242280732Y-61665528D01*
X242280731Y-61665529D01*
X242280730Y-61665529D01*
X242144059Y-61722140D01*
X241998968Y-61751000D01*
X241851032Y-61751000D01*
X241705941Y-61722140D01*
X241569270Y-61665529D01*
X241569269Y-61665529D01*
X241569268Y-61665528D01*
X241446265Y-61583340D01*
X241341660Y-61478735D01*
X241259472Y-61355732D01*
X241202860Y-61219059D01*
X241174000Y-61073967D01*
X241174000Y-60926033D01*
X241202860Y-60780941D01*
X241259472Y-60644268D01*
X241341660Y-60521265D01*
X241446265Y-60416660D01*
X241569268Y-60334472D01*
X241705941Y-60277860D01*
X241851032Y-60249000D01*
X241998968Y-60249000D01*
X242144059Y-60277860D01*
X242144059Y-60277860D01*
G37*
M02*
