0
SECTION
2
HEADER
9
$INSUNITS
70
4
9
$ACADVER
1
AC1014
9
$HANDSEED
5
FFFF
0
ENDSEC
0
SECTION
2
TABLES
0
TABLE
2
VPORT
5
8
100
AcDbSymbolTable
0
ENDTAB
0
TABLE
2
LTYPE
5
5
100
AcDbSymbolTable
0
LTYPE
5
14
100
AcDbSymbolTableRecord
100
AcDbLinetypeTableRecord
2
BYBLOCK
70
0
0
LTYPE
5
15
100
AcDbSymbolTableRecord
100
AcDbLinetypeTableRecord
2
BYLAYER
70
0
0
ENDTAB
0
TABLE
2
LAYER
5
2
100
AcDbSymbolTable
70
2
0
LAYER
5
50
100
AcDbSymbolTableRecord
100
AcDbLayerTableRecord
2
0
70
0
6
CONTINUOUS
0
ENDTAB
0
TABLE
2
STYLE
5
3
100
AcDbSymbolTable
70
1
0
STYLE
5
11
100
AcDbSymbolTableRecord
100
AcDbTextStyleTableRecord
2
STANDARD
70
0
0
ENDTAB
0
TABLE
2
VIEW
5
6
100
AcDbSymbolTable
70
0
0
ENDTAB
0
TABLE
2
UCS
5
7
100
AcDbSymbolTable
70
0
0
ENDTAB
0
TABLE
2
APPID
5
9
100
AcDbSymbolTable
70
2
0
APPID
5
12
100
AcDbSymbolTableRecord
100
AcDbRegAppTableRecord
2
ACAD
70
0
0
ENDTAB
0
TABLE
2
DIMSTYLE
5
A
100
AcDbSymbolTable
70
1
0
ENDTAB
0
TABLE
2
BLOCK_RECORD
5
1
100
AcDbSymbolTable
70
1
0
BLOCK_RECORD
5
1F
100
AcDbSymbolTableRecord
100
AcDbBlockTableRecord
2
*MODEL_SPACE
0
BLOCK_RECORD
5
1B
100
AcDbSymbolTableRecord
100
AcDbBlockTableRecord
2
*PAPER_SPACE
0
ENDTAB
0
ENDSEC
0
SECTION
2
BLOCKS
0
BLOCK
5
20
100
AcDbEntity
100
AcDbBlockBegin
2
*MODEL_SPACE
0
ENDBLK
5
21
100
AcDbEntity
100
AcDbBlockEnd
0
BLOCK
5
1C
100
AcDbEntity
100
AcDbBlockBegin
2
*PAPER_SPACE
0
ENDBLK
5
1D
100
AcDbEntity
100
AcDbBlockEnd
0
ENDSEC
0
SECTION
2
ENTITIES
0
LINE
5
100
100
AcDbEntity
8
0
100
AcDbLine
10
-232.59677500000004
20
47.750000999999997
30
0
11
-67.740724999999998
21
47.75
31
0
0
ARC
5
101
100
AcDbEntity
8
0
100
AcDbCircle
10
-67.740724999999998
20
48.250001000000005
30
0
40
0.50000100000000103
210
-0
220
0
230
1
100
AcDbArc
50
-90
51
0
0
LINE
5
102
100
AcDbEntity
8
0
100
AcDbLine
10
-67.240724
20
48.250001000000005
30
0
11
-67.240725499771372
21
66.299999999999997
31
0
0
ARC
5
103
100
AcDbEntity
8
0
100
AcDbCircle
10
-66.740724999999998
20
66.299999999999997
30
0
40
0.50000100000000103
210
0
220
-0
230
1
100
AcDbArc
50
90
51
180
0
LINE
5
104
100
AcDbEntity
8
0
100
AcDbLine
10
-66.740724999999998
20
66.800000999999995
30
0
11
-55.693750000000009
21
66.800000999999995
31
0
0
ARC
5
105
100
AcDbEntity
8
0
100
AcDbCircle
10
-55.693750000000009
20
67.300000999999995
30
0
40
0.49999999999999822
210
-0
220
0
230
1
100
AcDbArc
50
-90
51
0
0
LINE
5
106
100
AcDbEntity
8
0
100
AcDbLine
10
-55.193750000000009
20
67.300000999999995
30
0
11
-55.193750000000001
21
122.90000000000001
31
0
0
ARC
5
107
100
AcDbEntity
8
0
100
AcDbCircle
10
-55.693750000000009
20
122.90000000000001
30
0
40
0.50000000000000711
210
0
220
0
230
1
100
AcDbArc
50
0
51
90
0
LINE
5
108
100
AcDbEntity
8
0
100
AcDbLine
10
-55.693750000000009
20
123.40000000000002
30
0
11
-244.64375000000004
21
123.40000000000002
31
0
0
ARC
5
109
100
AcDbEntity
8
0
100
AcDbCircle
10
-244.64375000000004
20
122.90000000000001
30
0
40
0.50000000000000711
210
0
220
-0
230
1
100
AcDbArc
50
90
51
180
0
LINE
5
110
100
AcDbEntity
8
0
100
AcDbLine
10
-245.14375000000004
20
122.90000000000001
30
0
11
-245.14375000000001
21
67.300000999999995
31
0
0
ARC
5
111
100
AcDbEntity
8
0
100
AcDbCircle
10
-244.64375000000004
20
67.300000999999995
30
0
40
0.49999999999997158
210
0
220
0
230
1
100
AcDbArc
50
180
51
270
0
LINE
5
112
100
AcDbEntity
8
0
100
AcDbLine
10
-244.64375000000004
20
66.800000999999995
30
0
11
-233.59677600000001
21
66.80000050022862
31
0
0
ARC
5
113
100
AcDbEntity
8
0
100
AcDbCircle
10
-233.59677600000001
20
66.299999999999997
30
0
40
0.50000000000000711
210
0
220
0
230
1
100
AcDbArc
50
0
51
90
0
LINE
5
114
100
AcDbEntity
8
0
100
AcDbLine
10
-233.09677600000001
20
66.299999999999997
30
0
11
-233.09677600000001
21
48.25
31
0
0
ARC
5
115
100
AcDbEntity
8
0
100
AcDbCircle
10
-232.59677600000003
20
48.250001000000005
30
0
40
0.50000000000097167
210
0
220
0
230
1
100
AcDbArc
50
180.00011459029153
51
270.00011459155871
0
LWPOLYLINE
5
116
100
AcDbEntity
8
0
100
AcDbPolyline
90
8
70
1
43
0.0
10
-114.59375000000001
20
69.549999999999997
10
-114.59375000000001
20
82.550000000000011
42
0.41421356237309509
10
-115.09375
20
83.049999999999997
10
-128.093751
20
83.049999999999997
42
0.41421356237309509
10
-128.59375
20
82.550001000000009
10
-128.59375000000003
20
69.550000999999995
42
0.41421356237309509
10
-128.093751
20
69.049999999999997
10
-115.09375
20
69.049999999999997
42
0.41421356237309509
0
LWPOLYLINE
5
117
100
AcDbEntity
8
0
100
AcDbPolyline
90
8
70
1
43
0.0
10
-166.69374999999999
20
82.550000000000011
10
-166.69374999999999
20
69.550000999999995
42
0.41421356237310542
10
-166.19375099999999
20
69.049999999999997
10
-153.19375000000002
20
69.049999999999997
42
0.41421356237309509
10
-152.69374999999999
20
69.549999999999997
10
-152.69374999999999
20
82.550000000000011
42
0.41421356237309509
10
-153.19375000000002
20
83.049999999999997
10
-166.19375000000002
20
83.050000000000011
42
0.41421356237309509
0
LWPOLYLINE
5
118
100
AcDbEntity
8
0
100
AcDbPolyline
90
8
70
1
43
0.0
10
-147.64375000000004
20
82.550000000000011
42
-0.41421356237309509
10
-147.14375000000001
20
83.050000000000011
10
-134.14375000000001
20
83.050000000000011
42
-0.41421356237309509
10
-133.64375000000001
20
82.550000000000011
10
-133.64375000000001
20
69.549999999999997
42
-0.41421356237309509
10
-134.14375000000001
20
69.049999999999997
10
-147.14375100000001
20
69.049999999999997
42
-0.41421356237309509
10
-147.64375000000004
20
69.550000999999995
0
LWPOLYLINE
5
119
100
AcDbEntity
8
0
100
AcDbPolyline
90
8
70
1
43
0.0
10
-135.73750000000001
20
63.500000000000007
10
-135.73750000000001
20
50.500000000000007
42
0.41421356237309509
10
-135.23750000000001
20
50
10
-122.23750000000001
20
50
42
0.4142135623731002
10
-121.7375
20
50.500002000000002
10
-121.7375
20
63.500000000000007
42
0.41421356237309509
10
-122.23750000000001
20
64
10
-135.23750000000001
20
64
42
0.41421356237309509
0
LWPOLYLINE
5
120
100
AcDbEntity
8
0
100
AcDbPolyline
90
8
70
1
43
0.0
10
-113.92449999999999
20
65
10
-119.67449999999999
20
65
42
0.41421356237309509
10
-120.17449900000001
20
64.500000999999997
10
-120.17449999999999
20
51.5
42
0.41421356237309509
10
-119.67449999999999
20
51.000000000000007
10
-113.92449999999999
20
51.000000000000007
42
0.41421356237309509
10
-113.42449999999999
20
51.5
10
-113.42449999999999
20
64.5
42
0.41421356237309509
0
LWPOLYLINE
5
121
100
AcDbEntity
8
0
100
AcDbPolyline
90
20
70
1
43
0.0
10
-137.300501
20
51.500000999999997
42
-0.41421356237309509
10
-137.8005
20
51.000000000000007
10
-143.16874999999999
20
51.000000000000007
10
-143.16874999999999
20
50.500000000000007
42
-0.41421356237309509
10
-143.66874999999999
20
50.000000000000007
10
-156.66874999999999
20
50
42
-0.41421356237309509
10
-157.16874999999999
20
50.500000000000007
10
-157.16874999999999
20
51.000000000000007
10
-160.15575000000001
20
51
42
-0.41421356237309509
10
-160.65575000000001
20
51.5
10
-160.65575000000001
20
64.5
42
-0.41421356237309509
10
-160.15575000000001
20
65
10
-154.40574900000001
20
65.000001000000012
42
-0.41421356237307944
10
-153.90575000000001
20
64.5
10
-153.90575000000001
20
64
10
-144.0505
20
64
10
-144.0505
20
64.5
42
-0.41421356237309509
10
-143.5505
20
65
10
-137.8005
20
65.000000000000014
42
-0.41421356237309509
10
-137.3005
20
64.5
0
LWPOLYLINE
5
122
100
AcDbEntity
8
0
100
AcDbPolyline
90
13
70
1
43
0.0
10
-209.55625000000001
20
63.500000000000007
10
-209.55625000000001
20
50
10
-196.05625000000003
20
50.000000000000007
42
0.41421356237310542
10
-195.556251
20
50.500000999999997
10
-195.55625000000003
20
63.500000000000007
42
0.41421356237309509
10
-196.05625000000003
20
64
10
-196.79374999999999
20
64
10
-196.79374999999999
20
64.5
42
0.41421356237309509
10
-197.29375000000002
20
65
10
-203.04374999999999
20
65
42
0.41421356237309509
10
-203.54375000000002
20
64.5
10
-203.54375000000002
20
64
10
-209.05625000000001
20
64
42
0.41421356237309509
0
LWPOLYLINE
5
123
100
AcDbEntity
8
0
100
AcDbPolyline
90
8
70
1
43
0.0
10
-185.243751
20
69.049999999999997
10
-172.24375000000003
20
69.049999999999997
42
0.41421356237309509
10
-171.74374900000001
20
69.550000999999995
10
-171.74375000000001
20
82.550000000000011
42
0.41421356237309509
10
-172.24375000000003
20
83.049999999999997
10
-185.24375000000003
20
83.050000000000011
42
0.41421356237309509
10
-185.74375000000001
20
82.550000000000011
10
-185.74375000000003
20
69.550000999999995
42
0.41421356237310542
0
LWPOLYLINE
5
124
100
AcDbEntity
8
0
100
AcDbPolyline
90
8
70
1
43
0.0
10
-184.53174999999999
20
64.5
10
-184.53174999999999
20
51.5
42
0.41421356237309509
10
-184.03175000000002
20
51.000000000000007
10
-178.28174999999999
20
51.000000000000007
42
0.41421356237306384
10
-177.78175100000001
20
51.500000999999997
10
-177.78174999999999
20
64.5
42
0.41421356237309509
10
-178.28174999999999
20
65
10
-184.03175000000002
20
65
42
0.41421356237309509
0
LWPOLYLINE
5
125
100
AcDbEntity
8
0
100
AcDbPolyline
90
8
70
1
43
0.0
10
-176.21875
20
63.500000000000007
10
-176.21875
20
50.500000000000007
42
0.41421356237309509
10
-175.71875000000003
20
50
10
-162.71875
20
50.000000000000007
42
0.41421356237309509
10
-162.21875
20
50.500000000000007
10
-162.21875
20
63.500000000000007
42
0.41421356237309509
10
-162.71875
20
64
10
-175.71875000000003
20
64
42
0.41421356237309509
0
LWPOLYLINE
5
126
100
AcDbEntity
8
0
100
AcDbPolyline
90
8
70
1
43
0.0
10
-114.59375000000001
20
88.600001000000006
10
-114.59375000000001
20
101.59999999999999
42
0.41421356237309509
10
-115.09375
20
102.10000000000001
10
-128.093751
20
102.10000000000001
42
0.41421356237309509
10
-128.59375
20
101.60000100000002
10
-128.59375000000003
20
88.600001000000006
42
0.41421356237309509
10
-128.09375
20
88.10000100000002
10
-115.09375
20
88.100000999999992
42
0.41421356237309509
0
LWPOLYLINE
5
127
100
AcDbEntity
8
0
100
AcDbPolyline
90
8
70
1
43
0.0
10
-172.24375000000003
20
102.10000000000001
42
-0.41421356237309509
10
-171.74375000000001
20
101.59999999999999
10
-171.74375000000001
20
88.600001000000006
42
-0.41421356237309509
10
-172.24375000000003
20
88.100000999999992
10
-185.24375000000003
20
88.100000999999992
42
-0.41421356237309509
10
-185.74375000000003
20
88.600001000000006
10
-185.74375000000003
20
101.59999999999999
42
-0.41421356237309509
10
-185.24375000000003
20
102.10000000000001
0
LWPOLYLINE
5
128
100
AcDbEntity
8
0
100
AcDbPolyline
90
8
70
1
43
0.0
10
-223.34375
20
88.100000999999992
42
-0.41421356237309509
10
-223.84375000000003
20
88.600001000000006
10
-223.84375000000003
20
101.59999999999999
42
-0.41421356237309509
10
-223.34375
20
102.10000000000001
10
-210.34375100000003
20
102.10000099999999
42
-0.41421356237309509
10
-209.84375000000003
20
101.59999999999999
10
-209.843751
20
88.600001000000006
42
-0.41421356237309509
10
-210.34375100000003
20
88.100000999999992
0
LWPOLYLINE
5
129
100
AcDbEntity
8
0
100
AcDbPolyline
90
8
70
1
43
0.0
10
-166.69374999999999
20
101.59999999999999
10
-166.69374999999999
20
88.600001000000006
42
0.41421356237309509
10
-166.19375000000002
20
88.10000100000002
10
-153.19375000000002
20
88.100000999999992
42
0.41421356237309509
10
-152.69374999999999
20
88.600001000000006
10
-152.69374999999999
20
101.59999999999999
42
0.41421356237309509
10
-153.19375000000002
20
102.10000000000001
10
-166.19375000000002
20
102.10000000000001
42
0.41421356237309509
0
LWPOLYLINE
5
130
100
AcDbEntity
8
0
100
AcDbPolyline
90
8
70
1
43
0.0
10
-223.84375000000003
20
82.550000000000011
10
-223.84375000000003
20
69.550000999999995
42
0.41421356237308465
10
-223.34375100000003
20
69.049999999999997
10
-210.34375100000003
20
69.049999999999997
42
0.41421356237309509
10
-209.843751
20
69.549999999999997
10
-209.84375000000003
20
82.550000000000011
42
0.41421356237309509
10
-210.34375100000003
20
83.050000999999995
10
-223.34375
20
83.050000000000011
42
0.41421356237309509
0
LWPOLYLINE
5
131
100
AcDbEntity
8
0
100
AcDbPolyline
90
8
70
1
43
0.0
10
-204.29375099999999
20
69.049999999999997
42
-0.41421356237308465
10
-204.79375000000002
20
69.550000999999995
10
-204.79375000000002
20
82.550000000000011
42
-0.41421356237309509
10
-204.29374999999999
20
83.050000000000011
10
-191.29375100000001
20
83.050000999999995
42
-0.41421356237309509
10
-190.79375000000002
20
82.550000000000011
10
-190.79375099999999
20
69.549999999999997
42
-0.41421356237309509
10
-191.29375100000001
20
69.049999999999997
0
CIRCLE
5
132
100
AcDbEntity
8
0
100
AcDbCircle
10
-212.08125000000001
20
49.710000000000001
30
0
40
1.3
210
-1.0542197943230523e-81
220
6.4971311035280663e-114
230
1
0
LWPOLYLINE
5
133
100
AcDbEntity
8
0
100
AcDbPolyline
90
8
70
1
43
0.0
10
-230.48750000000001
20
50
10
-215.10625000000002
20
50
42
0.41421356237309509
10
-214.60624999999999
20
50.500000000000007
10
-214.60624999999999
20
63.500000000000007
42
0.41421356237309509
10
-215.10625099999999
20
64.000000999999997
10
-230.48750000000001
20
64
42
0.41421356237309509
10
-230.98750000000001
20
63.500000000000007
10
-230.98750000000001
20
50.500000000000007
42
0.41421356237309509
0
LWPOLYLINE
5
134
100
AcDbEntity
8
0
100
AcDbPolyline
90
8
70
1
43
0.0
10
-134.14375000000001
20
102.10000000000001
42
-0.41421356237309509
10
-133.64375000000001
20
101.59999999999999
10
-133.64375000000001
20
88.600001000000006
42
-0.41421356237309509
10
-134.14375000000001
20
88.100000999999992
10
-147.14375000000001
20
88.100000999999992
42
-0.41421356237309509
10
-147.64375000000004
20
88.600001000000006
10
-147.64375000000004
20
101.59999999999999
42
-0.41421356237309509
10
-147.14375000000001
20
102.10000000000001
0
LWPOLYLINE
5
135
100
AcDbEntity
8
0
100
AcDbPolyline
90
8
70
1
43
0.0
10
-242.89375000000004
20
101.59999999999999
10
-242.89375000000004
20
88.600001000000006
42
0.41421356237309509
10
-242.39375000000001
20
88.10000100000002
10
-229.39375000000001
20
88.100000999999992
42
0.41421356237308465
10
-228.89375100000001
20
88.600002000000003
10
-228.89375000000001
20
101.59999999999999
42
0.41421356237309509
10
-229.39375000000001
20
102.10000000000001
10
-242.39375000000001
20
102.10000000000001
42
0.41421356237309509
0
LWPOLYLINE
5
136
100
AcDbEntity
8
0
100
AcDbPolyline
90
8
70
1
43
0.0
10
-242.39375100000001
20
69.049999999999997
42
-0.41421356237308465
10
-242.89375000000004
20
69.550000999999995
10
-242.89375000000004
20
82.550000000000011
42
-0.41421356237309509
10
-242.39375000000001
20
83.050000000000011
10
-229.39375100000004
20
83.050000999999995
42
-0.41421356237309509
10
-228.89375000000004
20
82.550000000000011
10
-228.89375100000001
20
69.550000999999995
42
-0.41421356237308465
10
-229.39375000000001
20
69.049999999999997
0
LWPOLYLINE
5
137
100
AcDbEntity
8
0
100
AcDbPolyline
90
8
70
1
43
0.0
10
-242.39375000000001
20
107.150001
42
-0.41421356237309509
10
-242.89375000000004
20
107.65000100000002
10
-242.89375100000004
20
120.650001
42
-0.41421356237310542
10
-242.39375000000001
20
121.15000000000002
10
-229.39375000000001
20
121.15000000000002
42
-0.41421356237309509
10
-228.89375000000001
20
120.65000000000001
10
-228.89375000000001
20
107.65000100000002
42
-0.41421356237309509
10
-229.39375000000001
20
107.150001
0
CIRCLE
5
138
100
AcDbEntity
8
0
100
AcDbCircle
10
-93.018750000000011
20
121.15000000000002
30
0
40
1.3
210
-1.0542197943230523e-81
220
6.4971311035280663e-114
230
1
0
LWPOLYLINE
5
139
100
AcDbEntity
8
0
100
AcDbPolyline
90
8
70
1
43
0.0
10
-109.54374900000002
20
120.65000000000001
42
-0.41421356237309509
10
-109.04375100000001
20
121.15000000000001
10
-96.043750000000017
20
121.15000000000002
42
-0.41421356237309509
10
-95.543750000000003
20
120.65000000000001
10
-95.543751000000015
20
107.65000000000001
42
-0.41421356237309509
10
-96.043750000000017
20
107.150001
10
-109.04375000000002
20
107.150001
42
-0.41421356237309509
10
-109.54375000000002
20
107.65000100000002
0
LWPOLYLINE
5
140
100
AcDbEntity
8
0
100
AcDbPolyline
90
8
70
1
43
0.0
10
-128.59375
20
120.650001
10
-128.59375
20
107.65000100000002
42
0.41421356237309509
10
-128.09375
20
107.150001
10
-115.09375
20
107.150001
42
0.41421356237309509
10
-114.59375000000001
20
107.65000100000002
10
-114.59375
20
120.65000000000001
42
0.41421356237309509
10
-115.09375
20
121.15000000000002
10
-128.093751
20
121.15000000000001
42
0.41421356237309509
0
LWPOLYLINE
5
141
100
AcDbEntity
8
0
100
AcDbPolyline
90
8
70
1
43
0.0
10
-147.64375000000001
20
120.65000000000001
10
-147.64375000000001
20
107.65000100000002
42
0.41421356237309509
10
-147.14375000000001
20
107.150001
10
-134.14375000000001
20
107.150001
42
0.41421356237309509
10
-133.64375000000001
20
107.65000100000002
10
-133.64375000000001
20
120.65000000000001
42
0.41421356237309509
10
-134.14375000000001
20
121.15000000000002
10
-147.14375000000001
20
121.15000000000002
42
0.41421356237309509
0
LWPOLYLINE
5
142
100
AcDbEntity
8
0
100
AcDbPolyline
90
8
70
1
43
0.0
10
-191.29375100000001
20
121.150001
42
-0.41421356237309509
10
-190.79375000000002
20
120.65000000000001
10
-190.79375099999999
20
107.65000100000002
42
-0.41421356237309509
10
-191.29375100000001
20
107.150001
10
-204.29374999999999
20
107.150001
42
-0.41421356237309509
10
-204.79375000000002
20
107.65000100000002
10
-204.79375000000002
20
120.65000000000001
42
-0.41421356237309509
10
-204.29374999999999
20
121.15000000000002
0
LWPOLYLINE
5
143
100
AcDbEntity
8
0
100
AcDbPolyline
90
7
70
1
43
0.0
10
-166.69375000000002
20
120.65000000000001
42
-0.41421356237309509
10
-166.19375000000002
20
121.15000000000002
10
-153.19375000000002
20
121.15000000000002
42
-0.41421356237309509
10
-152.69374999999999
20
120.65000000000001
10
-152.69374999999999
20
107.65000100000002
42
-0.41421356237309509
10
-153.19375000000002
20
107.150001
10
-166.69374999999999
20
107.150001
0
LWPOLYLINE
5
144
100
AcDbEntity
8
0
100
AcDbPolyline
90
8
70
1
43
0.0
10
-171.74375000000001
20
107.65000100000002
10
-171.74375000000001
20
120.65000000000001
42
0.41421356237309509
10
-172.24375000000003
20
121.15000000000002
10
-185.24375000000003
20
121.15000000000002
42
0.41421356237309509
10
-185.74375000000001
20
120.65000000000001
10
-185.74375000000003
20
107.65000100000002
42
0.41421356237309509
10
-185.24375000000003
20
107.150001
10
-172.24375000000003
20
107.150001
42
0.41421356237309509
0
LWPOLYLINE
5
145
100
AcDbEntity
8
0
100
AcDbPolyline
90
8
70
1
43
0.0
10
-109.54374900000002
20
101.59999999999999
42
-0.41421356237310542
10
-109.04375100000001
20
102.10000000000001
10
-96.043750000000017
20
102.10000000000001
42
-0.41421356237309509
10
-95.543750000000003
20
101.59999999999999
10
-95.543751000000015
20
88.599999999999994
42
-0.41421356237309509
10
-96.043750000000017
20
88.100000999999992
10
-109.04375000000002
20
88.100000999999992
42
-0.41421356237309509
10
-109.54375000000002
20
88.600001000000006
0
LWPOLYLINE
5
146
100
AcDbEntity
8
0
100
AcDbPolyline
90
8
70
1
43
0.0
10
-191.29375100000001
20
102.10000100000002
10
-204.29374999999999
20
102.10000000000001
42
0.41421356237309509
10
-204.79375000000002
20
101.59999999999999
10
-204.79375000000002
20
88.600001000000006
42
0.41421356237309509
10
-204.29374999999999
20
88.10000100000002
10
-191.29375100000001
20
88.100000999999992
42
0.41421356237309509
10
-190.79375099999999
20
88.600001000000006
10
-190.79375000000002
20
101.59999999999999
42
0.41421356237309509
0
LWPOLYLINE
5
147
100
AcDbEntity
8
0
100
AcDbPolyline
90
8
70
1
43
0.0
10
-223.84375000000003
20
120.65000000000001
10
-223.84375000000003
20
107.65000100000002
42
0.41421356237309509
10
-223.34375
20
107.150001
10
-210.34375100000003
20
107.150001
42
0.41421356237309509
10
-209.843751
20
107.65000100000002
10
-209.84375000000003
20
120.65000000000001
42
0.41421356237309509
10
-210.34375100000003
20
121.15000100000002
10
-223.34375
20
121.15000000000002
42
0.41421356237309509
0
CIRCLE
5
148
100
AcDbEntity
8
0
100
AcDbCircle
10
-207.24974900000004
20
121.15000000000002
30
0
40
1.3
210
-1.0542197943230523e-81
220
6.4971311035280663e-114
230
1
0
LWPOLYLINE
5
149
100
AcDbEntity
8
0
100
AcDbPolyline
90
8
70
1
43
0.0
10
-95.543750000000003
20
69.549999999999997
10
-95.543750000000003
20
82.550000000000011
42
0.41421356237309509
10
-96.043750000000017
20
83.049999999999997
10
-109.04375100000001
20
83.049999999999997
42
0.41421356237309509
10
-109.54374900000002
20
82.550000000000011
10
-109.54375000000002
20
69.550000999999995
42
0.41421356237309509
10
-109.04375100000001
20
69.049999999999997
10
-96.043750000000017
20
69.049999999999997
42
0.41421356237309509
0
LWPOLYLINE
5
150
100
AcDbEntity
8
0
100
AcDbPolyline
90
13
70
1
43
0.0
10
-91.281250999999997
20
64.000001000000012
42
-0.41421356237309509
10
-90.78125
20
63.500000000000007
10
-90.78125
20
50
10
-104.28125100000001
20
50
42
-0.41421356237309509
10
-104.78125100000001
20
50.500000000000007
10
-104.78125000000003
20
63.499999000000003
42
-0.4142135623731002
10
-104.28125100000001
20
64
10
-103.54375000000002
20
64
10
-103.54374899999999
20
64.500000999999997
42
-0.41421356237309509
10
-103.04375
20
65.000000000000014
10
-97.293750000000017
20
65.000000000000014
42
-0.41421356237309509
10
-96.793750000000003
20
64.5
10
-96.793750000000003
20
64
0
CIRCLE
5
151
100
AcDbEntity
8
0
100
AcDbCircle
10
-88.256250000000009
20
49.710000000000001
30
0
40
1.3
210
-1.0542197943230523e-81
220
6.4971311035280663e-114
230
1
0
ARC
5
152
100
AcDbEntity
8
0
100
AcDbCircle
10
-85.231250000000003
20
63.500000000000007
30
0
40
0.49999999999999822
210
0
220
-0
230
1
100
AcDbArc
50
90
51
180
0
LINE
5
153
100
AcDbEntity
8
0
100
AcDbLine
10
-85.231250000000003
20
64
30
0
11
-69.850000000000051
21
64.000000500228637
31
0
0
ARC
5
154
100
AcDbEntity
8
0
100
AcDbCircle
10
-69.849999999999994
20
63.500000000000007
30
0
40
0.49999999999999822
210
0
220
0
230
1
100
AcDbArc
50
0
51
90.000000000006523
0
LINE
5
155
100
AcDbEntity
8
0
100
AcDbLine
10
-69.349999999999994
20
63.500000000000007
30
0
11
-69.349999999999994
21
50.500000000000007
31
0
0
ARC
5
156
100
AcDbEntity
8
0
100
AcDbCircle
10
-69.849999999999994
20
50.500000000000007
30
0
40
0.49999999999999822
210
-0
220
0
230
1
100
AcDbArc
50
-90
51
0
0
LINE
5
157
100
AcDbEntity
8
0
100
AcDbLine
10
-69.849999999999994
20
50.000000000000007
30
0
11
-85.231250000000003
21
50
31
0
0
ARC
5
158
100
AcDbEntity
8
0
100
AcDbCircle
10
-85.231250000000003
20
50.500000000000007
30
0
40
0.50000000000000711
210
0
220
0
230
1
100
AcDbArc
50
180
51
270
0
LINE
5
159
100
AcDbEntity
8
0
100
AcDbLine
10
-85.731250000000017
20
50.500000000000007
30
0
11
-85.731250000000017
21
63.499999999999936
31
0
0
LWPOLYLINE
5
160
100
AcDbEntity
8
0
100
AcDbPolyline
90
8
70
1
43
0.0
10
-76.993750000000006
20
102.10000000000001
42
-0.41421356237309509
10
-76.493750000000006
20
101.59999999999999
10
-76.493751000000017
20
88.599999999999994
42
-0.41421356237309509
10
-76.993750000000006
20
88.100000999999992
10
-89.993750000000006
20
88.100000999999992
42
-0.41421356237309509
10
-90.493750000000006
20
88.600001000000006
10
-90.493749000000008
20
101.59999999999999
42
-0.41421356237310542
10
-89.993751000000003
20
102.10000000000001
0
LWPOLYLINE
5
161
100
AcDbEntity
8
0
100
AcDbPolyline
90
8
70
1
43
0.0
10
-76.993750000000006
20
83.049999999999997
10
-89.993751000000003
20
83.049999999999997
42
0.41421356237309509
10
-90.493749000000008
20
82.550000000000011
10
-90.493750000000006
20
69.550000999999995
42
0.41421356237309509
10
-89.993751000000003
20
69.049999999999997
10
-76.993750000000006
20
69.049999999999997
42
0.41421356237309509
10
-76.493750000000006
20
69.549999999999997
10
-76.493750000000006
20
82.550000000000011
42
0.41421356237309509
0
LWPOLYLINE
5
162
100
AcDbEntity
8
0
100
AcDbPolyline
90
8
70
1
43
0.0
10
-57.943750000000009
20
83.049999999999997
42
-0.41421356237309509
10
-57.443750000000009
20
82.550000000000011
10
-57.443750000000009
20
69.549999999999997
42
-0.41421356237309509
10
-57.943750000000009
20
69.049999999999997
10
-70.943751000000006
20
69.049999999999997
42
-0.41421356237308465
10
-71.443749999999994
20
69.550000999999995
10
-71.443748999999997
20
82.550001000000009
42
-0.41421356237309509
10
-70.943749999999994
20
83.049999999999997
0
LWPOLYLINE
5
163
100
AcDbEntity
8
0
100
AcDbPolyline
90
8
70
1
43
0.0
10
-76.993750000000006
20
121.15000000000002
42
-0.41421356237309509
10
-76.493750000000006
20
120.65000000000001
10
-76.493751000000017
20
107.65000000000001
42
-0.41421356237309509
10
-76.993750000000006
20
107.150001
10
-89.993750000000006
20
107.150001
42
-0.41421356237309509
10
-90.493750000000006
20
107.65000100000002
10
-90.493749000000008
20
120.65000000000001
42
-0.41421356237309509
10
-89.993751000000003
20
121.15000000000001
0
LWPOLYLINE
5
164
100
AcDbEntity
8
0
100
AcDbPolyline
90
8
70
1
43
0.0
10
-57.443751000000006
20
88.599999999999994
42
-0.41421356237309509
10
-57.943750000000009
20
88.100000999999992
10
-70.943749999999994
20
88.100000999999992
42
-0.41421356237309509
10
-71.443749999999994
20
88.600001000000006
10
-71.443748999999997
20
101.60000100000002
42
-0.41421356237309509
10
-70.943749999999994
20
102.10000000000001
10
-57.943750000000009
20
102.10000000000001
42
-0.41421356237309509
10
-57.443750000000009
20
101.59999999999999
0
LWPOLYLINE
5
165
100
AcDbEntity
8
0
100
AcDbPolyline
90
8
70
1
43
0.0
10
-57.943750000000009
20
121.15000000000002
42
-0.41421356237309509
10
-57.443750000000009
20
120.65000000000001
10
-57.443751000000006
20
107.65000000000001
42
-0.41421356237309509
10
-57.943750000000009
20
107.150001
10
-70.943749999999994
20
107.150001
42
-0.41421356237309509
10
-71.443749999999994
20
107.65000100000002
10
-71.443748999999997
20
120.650001
42
-0.41421356237309509
10
-70.943749999999994
20
121.15000000000001
0
LINE
5
166
100
AcDbEntity
8
0
100
AcDbLine
10
-235.89375000000004
20
121.15000000000002
30
0
11
-235.89375000000004
21
114.15000050000002
31
0
0
LINE
5
167
100
AcDbEntity
8
0
100
AcDbLine
10
-235.89375000000004
20
114.15000050000002
30
0
11
-228.89375000000001
21
114.15000050000002
31
0
0
ENDSEC
0
SECTION
2
OBJECTS
0
DICTIONARY
5
C
100
AcDbDictionary
3
ACAD_GROUP
350
D
3
ACAD_MLINESTYLE
350
17
0
DICTIONARY
5
D
100
AcDbDictionary
0
DICTIONARY
5
1A
330
C
100
AcDbDictionary
0
DICTIONARY
5
17
100
AcDbDictionary
0
ENDSEC
0
EOF
