0
SECTION
2
HEADER
9
$INSUNITS
70
4
9
$ACADVER
1
AC1014
9
$HANDSEED
5
FFFF
0
ENDSEC
0
SECTION
2
TABLES
0
TABLE
2
VPORT
5
8
100
AcDbSymbolTable
0
ENDTAB
0
TABLE
2
LTYPE
5
5
100
AcDbSymbolTable
0
LTYPE
5
14
100
AcDbSymbolTableRecord
100
AcDbLinetypeTableRecord
2
BYBLOCK
70
0
0
LTYPE
5
15
100
AcDbSymbolTableRecord
100
AcDbLinetypeTableRecord
2
BYLAYER
70
0
0
ENDTAB
0
TABLE
2
LAYER
5
2
100
AcDbSymbolTable
70
2
0
LAYER
5
50
100
AcDbSymbolTableRecord
100
AcDbLayerTableRecord
2
0
70
0
6
CONTINUOUS
0
ENDTAB
0
TABLE
2
STYLE
5
3
100
AcDbSymbolTable
70
1
0
STYLE
5
11
100
AcDbSymbolTableRecord
100
AcDbTextStyleTableRecord
2
STANDARD
70
0
0
ENDTAB
0
TABLE
2
VIEW
5
6
100
AcDbSymbolTable
70
0
0
ENDTAB
0
TABLE
2
UCS
5
7
100
AcDbSymbolTable
70
0
0
ENDTAB
0
TABLE
2
APPID
5
9
100
AcDbSymbolTable
70
2
0
APPID
5
12
100
AcDbSymbolTableRecord
100
AcDbRegAppTableRecord
2
ACAD
70
0
0
ENDTAB
0
TABLE
2
DIMSTYLE
5
A
100
AcDbSymbolTable
70
1
0
ENDTAB
0
TABLE
2
BLOCK_RECORD
5
1
100
AcDbSymbolTable
70
1
0
BLOCK_RECORD
5
1F
100
AcDbSymbolTableRecord
100
AcDbBlockTableRecord
2
*MODEL_SPACE
0
BLOCK_RECORD
5
1B
100
AcDbSymbolTableRecord
100
AcDbBlockTableRecord
2
*PAPER_SPACE
0
ENDTAB
0
ENDSEC
0
SECTION
2
BLOCKS
0
BLOCK
5
20
100
AcDbEntity
100
AcDbBlockBegin
2
*MODEL_SPACE
0
ENDBLK
5
21
100
AcDbEntity
100
AcDbBlockEnd
0
BLOCK
5
1C
100
AcDbEntity
100
AcDbBlockBegin
2
*PAPER_SPACE
0
ENDBLK
5
1D
100
AcDbEntity
100
AcDbBlockEnd
0
ENDSEC
0
SECTION
2
ENTITIES
0
LWPOLYLINE
5
100
100
AcDbEntity
8
0
100
AcDbPolyline
90
8
70
1
43
0.0
10
185.74000000000007
20
-100.34000049999997
10
185.74000000000007
20
-87.340000499999974
42
0.41421356237309509
10
185.24000000000007
20
-86.840000499999974
10
172.23999900000007
20
-86.840000499999974
42
0.41421356237309509
10
171.74000000000007
20
-87.339999499999976
10
171.74000000000004
20
-100.33999949999996
42
0.41421356237310542
10
172.23999900000007
20
-100.84000049999997
10
185.24000000000007
20
-100.84000049999997
42
0.41421356237308465
0
LWPOLYLINE
5
101
100
AcDbEntity
8
0
100
AcDbPolyline
90
8
70
1
43
0.0
10
133.64000000000007
20
-87.340000499999974
10
133.64000000000007
20
-100.33999949999998
42
0.41421356237310542
10
134.13999900000007
20
-100.84000049999997
10
147.14000000000004
20
-100.84000049999999
42
0.41421356237309509
10
147.64000000000007
20
-100.34000049999997
10
147.64000000000007
20
-87.340000499999974
42
0.41421356237309509
10
147.14000000000004
20
-86.840000499999974
10
134.14000000000004
20
-86.84000049999996
42
0.41421356237309509
0
LWPOLYLINE
5
102
100
AcDbEntity
8
0
100
AcDbPolyline
90
8
70
1
43
0.0
10
152.69000000000003
20
-87.340000499999974
42
-0.41421356237309509
10
153.19000000000005
20
-86.84000049999996
10
166.19000000000005
20
-86.84000049999996
42
-0.41421356237309509
10
166.69000000000008
20
-87.340000499999974
10
166.69000000000008
20
-100.34000049999997
42
-0.41421356237308465
10
166.19000000000005
20
-100.84000049999997
10
153.18999900000006
20
-100.84000049999999
42
-0.41421356237310542
10
152.69000000000003
20
-100.33999949999998
0
LWPOLYLINE
5
103
100
AcDbEntity
8
0
100
AcDbPolyline
90
8
70
1
43
0.0
10
164.59625000000003
20
-106.39000049999996
10
164.59625000000003
20
-119.39000049999997
42
0.41421356237307422
10
165.09625000000003
20
-119.89000049999999
10
178.09625000000008
20
-119.89000049999999
42
0.41421356237309509
10
178.59625000000008
20
-119.38999849999996
10
178.59625000000005
20
-106.39000049999996
42
0.41421356237307422
10
178.09625000000008
20
-105.89000049999996
10
165.09625000000005
20
-105.89000049999996
42
0.41421356237309509
0
LWPOLYLINE
5
104
100
AcDbEntity
8
0
100
AcDbPolyline
90
8
70
1
43
0.0
10
186.40925000000007
20
-104.89000049999999
10
180.65925000000007
20
-104.89000049999999
42
0.41421356237309509
10
180.15925100000004
20
-105.38999949999997
10
180.15925000000007
20
-118.39000049999997
42
0.41421356237311585
10
180.6592500000001
20
-118.89000049999996
10
186.4092500000001
20
-118.89000049999999
42
0.41421356237309509
10
186.90925000000007
20
-118.39000049999997
10
186.9092500000001
20
-105.39000049999997
42
0.41421356237311585
0
LWPOLYLINE
5
105
100
AcDbEntity
8
0
100
AcDbPolyline
90
20
70
1
43
0.0
10
163.03324900000007
20
-118.3899995
42
-0.41421356237308465
10
162.53325000000007
20
-118.8900005
10
157.16500000000005
20
-118.89000049999999
10
157.16500000000008
20
-119.39000049999999
42
-0.41421356237308465
10
156.66500000000008
20
-119.89000049999999
10
143.66500000000008
20
-119.89000049999999
42
-0.41421356237309509
10
143.16500000000008
20
-119.39000049999997
10
143.16500000000008
20
-118.89000049999996
10
140.17800000000005
20
-118.8900005
42
-0.41421356237309509
10
139.67800000000005
20
-118.39000049999999
10
139.67800000000005
20
-105.39000049999999
42
-0.41421356237309509
10
140.17800000000005
20
-104.89000049999999
10
145.92800100000008
20
-104.88999949999996
42
-0.41421356237307422
10
146.42800000000005
20
-105.39000049999997
10
146.42800000000005
20
-105.89000049999999
10
156.28325000000007
20
-105.89000049999997
10
156.28325000000007
20
-105.39000049999997
42
-0.41421356237308465
10
156.78325000000007
20
-104.89000049999999
10
162.53325000000007
20
-104.89000049999999
42
-0.41421356237307422
10
163.03325000000004
20
-105.39000049999999
0
LWPOLYLINE
5
106
100
AcDbEntity
8
0
100
AcDbPolyline
90
13
70
1
43
0.0
10
90.77750000000006
20
-106.39000049999996
10
90.77750000000006
20
-119.89000049999999
10
104.27750000000003
20
-119.89000049999999
42
0.41421356237310542
10
104.77749900000006
20
-119.38999949999997
10
104.77750000000003
20
-106.39000049999996
42
0.41421356237309509
10
104.27750000000003
20
-105.89000049999997
10
103.54000000000006
20
-105.89000049999999
10
103.54000000000006
20
-105.39000049999999
42
0.41421356237309509
10
103.04000000000005
20
-104.89000049999999
10
97.290000000000063
20
-104.89000049999999
42
0.41421356237308465
10
96.790000000000049
20
-105.39000049999997
10
96.790000000000049
20
-105.89000049999997
10
91.27750000000006
20
-105.89000049999996
42
0.41421356237309509
0
LWPOLYLINE
5
107
100
AcDbEntity
8
0
100
AcDbPolyline
90
8
70
1
43
0.0
10
115.08999900000006
20
-100.84000049999997
10
128.09000000000003
20
-100.84000049999997
42
0.41421356237309509
10
128.59000100000006
20
-100.33999949999998
10
128.59000000000006
20
-87.340000499999974
42
0.41421356237309509
10
128.09000000000003
20
-86.840000499999974
10
115.09000000000003
20
-86.84000049999996
42
0.41421356237309509
10
114.59000000000006
20
-87.340000499999974
10
114.59000000000003
20
-100.33999949999998
42
0.41421356237310542
0
LWPOLYLINE
5
108
100
AcDbEntity
8
0
100
AcDbPolyline
90
8
70
1
43
0.0
10
115.80200000000008
20
-105.39000049999999
10
115.80200000000008
20
-118.39000049999999
42
0.41421356237309509
10
116.30200000000005
20
-118.89000049999999
10
122.05200000000008
20
-118.8900005
42
0.41421356237306384
10
122.55199900000005
20
-118.3899995
10
122.55200000000009
20
-105.39000049999999
42
0.41421356237309509
10
122.05200000000008
20
-104.89000049999999
10
116.30200000000005
20
-104.89000049999999
42
0.41421356237309509
0
LWPOLYLINE
5
109
100
AcDbEntity
8
0
100
AcDbPolyline
90
8
70
1
43
0.0
10
124.11500000000007
20
-106.39000049999996
10
124.11500000000007
20
-119.39000049999997
42
0.41421356237309509
10
124.61500000000004
20
-119.89000049999999
10
137.61500000000007
20
-119.89000049999999
42
0.41421356237309509
10
138.11500000000007
20
-119.39000049999997
10
138.11500000000007
20
-106.39000049999996
42
0.41421356237309509
10
137.61500000000007
20
-105.89000049999997
10
124.61500000000004
20
-105.89000049999996
42
0.41421356237309509
0
LWPOLYLINE
5
110
100
AcDbEntity
8
0
100
AcDbPolyline
90
8
70
1
43
0.0
10
185.74000000000007
20
-81.289999499999965
10
185.74000000000007
20
-68.290000499999977
42
0.41421356237311585
10
185.24000000000004
20
-67.790000499999962
10
172.23999900000001
20
-67.790000499999962
42
0.41421356237309509
10
171.74000000000007
20
-68.289999499999965
10
171.74000000000004
20
-81.289999499999965
42
0.41421356237311585
10
172.24000000000007
20
-81.789999499999965
10
185.24000000000007
20
-81.789999499999979
42
0.41421356237309509
0
LWPOLYLINE
5
111
100
AcDbEntity
8
0
100
AcDbPolyline
90
8
70
1
43
0.0
10
128.09000000000003
20
-67.790000499999962
42
-0.41421356237309509
10
128.59000000000006
20
-68.290000499999977
10
128.59000000000006
20
-81.289999499999965
42
-0.41421356237309509
10
128.09000000000003
20
-81.789999499999979
10
115.09000000000003
20
-81.789999499999979
42
-0.41421356237309509
10
114.59000000000003
20
-81.289999499999965
10
114.59000000000003
20
-68.290000499999977
42
-0.41421356237309509
10
115.09000000000003
20
-67.790000499999977
0
LWPOLYLINE
5
112
100
AcDbEntity
8
0
100
AcDbPolyline
90
8
70
1
43
0.0
10
76.990000000000052
20
-81.789999499999979
42
-0.41421356237309509
10
76.490000000000052
20
-81.289999499999965
10
76.490000000000052
20
-68.290000499999977
42
-0.41421356237309509
10
76.990000000000052
20
-67.790000499999977
10
89.98999900000004
20
-67.789999499999979
42
-0.41421356237309509
10
90.490000000000052
20
-68.290000499999977
10
90.489999000000054
20
-81.289999499999965
42
-0.41421356237309509
10
89.98999900000004
20
-81.789999499999979
0
LWPOLYLINE
5
113
100
AcDbEntity
8
0
100
AcDbPolyline
90
8
70
1
43
0.0
10
133.64000000000007
20
-68.290000499999977
10
133.64000000000007
20
-81.289999499999965
42
0.41421356237309509
10
134.14000000000004
20
-81.789999499999965
10
147.14000000000004
20
-81.789999499999979
42
0.41421356237309509
10
147.64000000000004
20
-81.289999499999965
10
147.64000000000004
20
-68.290000499999977
42
0.41421356237308465
10
147.14000000000004
20
-67.790000499999962
10
134.14000000000004
20
-67.790000499999977
42
0.41421356237309509
0
LWPOLYLINE
5
114
100
AcDbEntity
8
0
100
AcDbPolyline
90
8
70
1
43
0.0
10
76.490000000000038
20
-87.340000499999974
10
76.490000000000038
20
-100.33999949999998
42
0.41421356237308465
10
76.98999900000004
20
-100.84000049999997
10
89.98999900000004
20
-100.84000049999999
42
0.41421356237309509
10
90.489999000000054
20
-100.34000049999997
10
90.490000000000052
20
-87.340000499999974
42
0.41421356237309509
10
89.98999900000004
20
-86.83999949999999
10
76.990000000000052
20
-86.84000049999996
42
0.41421356237309509
0
LWPOLYLINE
5
115
100
AcDbEntity
8
0
100
AcDbPolyline
90
8
70
1
43
0.0
10
96.039999000000051
20
-100.84000049999999
42
-0.41421356237308465
10
95.540000000000049
20
-100.33999949999998
10
95.540000000000049
20
-87.340000499999974
42
-0.41421356237309509
10
96.040000000000063
20
-86.84000049999996
10
109.03999900000005
20
-86.839999499999976
42
-0.41421356237309509
10
109.54000000000006
20
-87.340000499999974
10
109.53999900000007
20
-100.34000049999997
42
-0.41421356237309509
10
109.03999900000005
20
-100.84000049999999
0
LWPOLYLINE
5
116
100
AcDbEntity
8
0
100
AcDbPolyline
90
8
70
1
43
0.0
10
69.846250000000055
20
-119.89000049999999
10
85.227500000000049
20
-119.89000049999999
42
0.41421356237309509
10
85.727500000000063
20
-119.39000049999997
10
85.727500000000077
20
-106.39000049999996
42
0.41421356237309509
10
85.22749900000008
20
-105.8899995
10
69.846250000000055
20
-105.89000049999997
42
0.41421356237309509
10
69.34625000000004
20
-106.39000049999999
10
69.346250000000055
20
-119.39000049999999
42
0.41421356237309509
0
LWPOLYLINE
5
117
100
AcDbEntity
8
0
100
AcDbPolyline
90
8
70
1
43
0.0
10
166.19000000000003
20
-67.790000499999962
42
-0.41421356237309509
10
166.69000000000005
20
-68.290000499999977
10
166.69000000000008
20
-81.289999499999965
42
-0.41421356237309509
10
166.19000000000005
20
-81.789999499999979
10
153.19000000000005
20
-81.789999499999979
42
-0.41421356237310542
10
152.69000000000003
20
-81.289999499999965
10
152.69000000000003
20
-68.290000499999977
42
-0.41421356237309509
10
153.19000000000003
20
-67.790000499999977
0
LWPOLYLINE
5
118
100
AcDbEntity
8
0
100
AcDbPolyline
90
8
70
1
43
0.0
10
57.439999999999998
20
-68.290000499999977
10
57.439999999999998
20
-81.289999499999965
42
0.41421356237311585
10
57.94000000000004
20
-81.789999499999965
10
70.940000000000055
20
-81.789999499999979
42
0.41421356237308465
10
71.439999000000043
20
-81.289998499999982
10
71.44000000000004
20
-68.290000499999977
42
0.41421356237311585
10
70.940000000000012
20
-67.790000499999962
10
57.940000000000005
20
-67.790000499999977
42
0.41421356237309509
0
LWPOLYLINE
5
119
100
AcDbEntity
8
0
100
AcDbPolyline
90
8
70
1
43
0.0
10
57.939998999999993
20
-100.8400005
42
-0.41421356237308465
10
57.440000000000005
20
-100.3399995
10
57.439999999999998
20
-87.340000499999974
42
-0.41421356237309509
10
57.940000000000005
20
-86.84000049999996
10
70.939999
20
-86.839999499999976
42
-0.41421356237311585
10
71.44000000000004
20
-87.340000499999974
10
71.439999000000043
20
-100.33999949999998
42
-0.41421356237309509
10
70.940000000000055
20
-100.8400005
0
LWPOLYLINE
5
120
100
AcDbEntity
8
0
100
AcDbPolyline
90
8
70
1
43
0.0
10
57.940000000000005
20
-62.739999499999961
42
-0.41421356237309509
10
57.440000000000005
20
-62.239999499999961
10
57.439998999999993
20
-49.239999499999968
42
-0.41421356237311585
10
57.940000000000005
20
-48.740000499999951
10
70.940000000000012
20
-48.740000499999951
42
-0.41421356237311585
10
71.44000000000004
20
-49.240000499999951
10
71.44000000000004
20
-62.239999499999939
42
-0.41421356237310542
10
70.940000000000055
20
-62.739999499999961
0
LWPOLYLINE
5
121
100
AcDbEntity
8
0
100
AcDbPolyline
90
8
70
1
43
0.0
10
190.79000100000005
20
-49.240000499999951
42
-0.41421356237308465
10
191.28999900000002
20
-48.740000499999951
10
204.29000000000005
20
-48.740000499999937
42
-0.41421356237309509
10
204.79000000000008
20
-49.240000499999951
10
204.78999900000005
20
-62.240000499999951
42
-0.41421356237310542
10
204.29000000000005
20
-62.739999499999975
10
191.29000000000005
20
-62.739999499999968
42
-0.41421356237309509
10
190.79000000000005
20
-62.239999499999961
0
LWPOLYLINE
5
122
100
AcDbEntity
8
0
100
AcDbPolyline
90
8
70
1
43
0.0
10
171.74000000000007
20
-49.239999499999968
10
171.74000000000007
20
-62.239999499999961
42
0.41421356237311585
10
172.24000000000007
20
-62.739999499999968
10
185.24000000000007
20
-62.739999499999961
42
0.41421356237310542
10
185.74000000000007
20
-62.239999499999939
10
185.74000000000009
20
-49.240000499999951
42
0.41421356237311585
10
185.24000000000004
20
-48.740000499999937
10
172.23999900000001
20
-48.740000499999951
42
0.41421356237310542
0
LWPOLYLINE
5
123
100
AcDbEntity
8
0
100
AcDbPolyline
90
8
70
1
43
0.0
10
152.69000000000003
20
-49.240000499999965
10
152.69000000000003
20
-62.239999499999961
42
0.41421356237309509
10
153.19000000000003
20
-62.739999499999968
10
166.19000000000003
20
-62.739999499999961
42
0.41421356237310542
10
166.69000000000005
20
-62.239999499999939
10
166.69000000000005
20
-49.240000499999951
42
0.41421356237309509
10
166.19000000000003
20
-48.740000499999937
10
153.19000000000003
20
-48.740000499999951
42
0.41421356237310542
0
LWPOLYLINE
5
124
100
AcDbEntity
8
0
100
AcDbPolyline
90
8
70
1
43
0.0
10
109.03999900000005
20
-48.739999499999946
42
-0.41421356237309509
10
109.54000000000006
20
-49.240000499999951
10
109.53999900000007
20
-62.239999499999939
42
-0.41421356237310542
10
109.03999900000005
20
-62.739999499999961
10
96.040000000000063
20
-62.739999499999968
42
-0.41421356237309509
10
95.540000000000049
20
-62.239999499999961
10
95.540000000000049
20
-49.240000499999965
42
-0.41421356237310542
10
96.040000000000063
20
-48.740000499999951
0
LWPOLYLINE
5
125
100
AcDbEntity
8
0
100
AcDbPolyline
90
7
70
1
43
0.0
10
133.64000000000004
20
-49.240000499999951
42
-0.41421356237309509
10
134.14000000000004
20
-48.740000499999951
10
147.14000000000004
20
-48.740000499999937
42
-0.41421356237308465
10
147.64000000000004
20
-49.240000499999951
10
147.64000000000004
20
-62.239999499999939
42
-0.41421356237310542
10
147.14000000000004
20
-62.739999499999961
10
133.64000000000007
20
-62.739999499999968
0
LWPOLYLINE
5
126
100
AcDbEntity
8
0
100
AcDbPolyline
90
8
70
1
43
0.0
10
128.59000000000006
20
-62.239999499999939
10
128.59000000000006
20
-49.240000499999951
42
0.41421356237309509
10
128.09000000000003
20
-48.740000499999937
10
115.09000000000003
20
-48.740000499999951
42
0.41421356237310542
10
114.59000000000006
20
-49.240000499999965
10
114.59000000000003
20
-62.239999499999961
42
0.41421356237309509
10
115.09000000000003
20
-62.739999499999968
10
128.09000000000003
20
-62.739999499999961
42
0.41421356237310542
0
LWPOLYLINE
5
127
100
AcDbEntity
8
0
100
AcDbPolyline
90
8
70
1
43
0.0
10
190.79000100000005
20
-68.290000499999977
42
-0.41421356237309509
10
191.28999900000002
20
-67.790000499999962
10
204.29000000000005
20
-67.790000499999962
42
-0.41421356237309509
10
204.79000000000008
20
-68.290000499999977
10
204.78999900000008
20
-81.290000499999991
42
-0.41421356237309509
10
204.29000000000008
20
-81.789999499999979
10
191.29000000000008
20
-81.789999499999979
42
-0.41421356237311585
10
190.79000000000005
20
-81.289999499999965
0
LWPOLYLINE
5
128
100
AcDbEntity
8
0
100
AcDbPolyline
90
8
70
1
43
0.0
10
109.03999900000005
20
-67.789999499999965
10
96.040000000000063
20
-67.790000499999962
42
0.41421356237309509
10
95.540000000000049
20
-68.290000499999977
10
95.540000000000049
20
-81.289999499999965
42
0.41421356237309509
10
96.040000000000063
20
-81.789999499999965
10
109.03999900000005
20
-81.789999499999979
42
0.41421356237309509
10
109.53999900000007
20
-81.289999499999965
10
109.54000000000006
20
-68.290000499999977
42
0.41421356237309509
0
LWPOLYLINE
5
129
100
AcDbEntity
8
0
100
AcDbPolyline
90
8
70
1
43
0.0
10
76.490000000000038
20
-49.240000499999965
10
76.490000000000038
20
-62.239999499999961
42
0.41421356237309509
10
76.990000000000052
20
-62.739999499999968
10
89.98999900000004
20
-62.739999499999961
42
0.41421356237310542
10
90.489999000000054
20
-62.239999499999939
10
90.490000000000052
20
-49.240000499999951
42
0.41421356237309509
10
89.98999900000004
20
-48.739999499999946
10
76.990000000000052
20
-48.740000499999951
42
0.41421356237310542
0
LWPOLYLINE
5
130
100
AcDbEntity
8
0
100
AcDbPolyline
90
8
70
1
43
0.0
10
204.79000000000008
20
-100.34000049999997
10
204.79000000000008
20
-87.340000499999974
42
0.41421356237309509
10
204.29000000000008
20
-86.840000499999974
10
191.28999900000002
20
-86.840000499999974
42
0.41421356237308465
10
190.79000100000005
20
-87.340000499999974
10
190.79000000000005
20
-100.33999949999996
42
0.41421356237310542
10
191.28999900000008
20
-100.84000049999997
10
204.29000000000008
20
-100.84000049999997
42
0.41421356237308465
0
LWPOLYLINE
5
131
100
AcDbEntity
8
0
100
AcDbPolyline
90
13
70
1
43
0.0
10
209.05249900000007
20
-105.88999949999999
42
-0.41421356237309509
10
209.55250000000007
20
-106.39000049999996
10
209.55250000000007
20
-119.89000049999999
10
196.05249900000004
20
-119.89000049999999
42
-0.41421356237307422
10
195.55249900000007
20
-119.39000049999997
10
195.55250000000004
20
-106.39000149999998
42
-0.41421356237309509
10
196.05249900000004
20
-105.89000049999996
10
196.79000000000008
20
-105.89000049999996
10
196.79000100000007
20
-105.38999949999996
42
-0.41421356237308465
10
197.29000000000008
20
-104.89000049999999
10
203.04000000000005
20
-104.89000049999996
42
-0.41421356237311585
10
203.54000000000011
20
-105.39000049999997
10
203.54000000000008
20
-105.89000049999997
0
ARC
5
132
100
AcDbEntity
8
0
100
AcDbCircle
10
215.10250000000008
20
-106.39000049999996
30
-2.2204460492503131e-15
40
0.50000000000000711
210
2.7091460345762556e-65
220
-0
230
1
100
AcDbArc
50
90
51
180
0
LINE
5
133
100
AcDbEntity
8
0
100
AcDbLine
10
215.10250000000008
20
-105.89000049999996
30
-2.2204460492503131e-15
11
230.48374999999999
21
-105.88999999977132
31
-2.2204460492503131e-15
0
ARC
5
134
100
AcDbEntity
8
0
100
AcDbCircle
10
230.48375000000007
20
-106.39000049999996
30
1.1102230246251565e-15
40
0.50000000000000711
210
0
220
-6.8422776578360193e-49
230
1
100
AcDbArc
50
0
51
90.000000000009777
0
LINE
5
135
100
AcDbEntity
8
0
100
AcDbLine
10
230.98375000000007
20
-106.39000049999996
30
1.1102230246251565e-15
11
230.98375000000007
21
-119.39000049999997
31
1.1102230246251565e-15
0
ARC
5
136
100
AcDbEntity
8
0
100
AcDbCircle
10
230.48375000000007
20
-119.39000049999997
30
1.1102230246251565e-15
40
0.50000000000000711
210
-0
220
0
230
1
100
AcDbArc
50
-90
51
0
0
LINE
5
137
100
AcDbEntity
8
0
100
AcDbLine
10
230.48375000000007
20
-119.89000049999999
30
1.1102230246251565e-15
11
215.10250000000008
21
-119.89000049999999
31
1.1102230246251565e-15
0
ARC
5
138
100
AcDbEntity
8
0
100
AcDbCircle
10
215.10250000000008
20
-119.39000049999997
30
-2.2204460492503131e-15
40
0.50000000000000711
210
0
220
-8.5528470722950242e-50
230
1
100
AcDbArc
50
180
51
270
0
LINE
5
139
100
AcDbEntity
8
0
100
AcDbLine
10
214.60250000000005
20
-119.39000049999997
30
-2.2204460492503131e-15
11
214.60250000000005
21
-106.39000050000004
31
-2.2204460492503131e-15
0
LWPOLYLINE
5
140
100
AcDbEntity
8
0
100
AcDbPolyline
90
8
70
1
43
0.0
10
223.34000000000006
20
-67.790000499999948
42
-0.41421356237309509
10
223.84000000000009
20
-68.290000499999962
10
223.83999900000006
20
-81.290000499999962
42
-0.41421356237309509
10
223.34000000000006
20
-81.789999499999965
10
210.34000000000006
20
-81.789999499999965
42
-0.41421356237309509
10
209.84000000000006
20
-81.289999499999951
10
209.84000100000006
20
-68.290000499999962
42
-0.41421356237309509
10
210.33999900000003
20
-67.790000499999948
0
LWPOLYLINE
5
141
100
AcDbEntity
8
0
100
AcDbPolyline
90
8
70
1
43
0.0
10
223.34000000000006
20
-86.84000049999996
10
210.33999900000009
20
-86.84000049999996
42
0.41421356237311585
10
209.84000100000009
20
-87.340000499999974
10
209.84000000000006
20
-100.33999949999996
42
0.41421356237310542
10
210.33999900000009
20
-100.84000049999997
10
223.34000000000006
20
-100.84000049999997
42
0.41421356237309509
10
223.84000000000009
20
-100.34000049999996
10
223.84000000000009
20
-87.340000499999945
42
0.41421356237309509
0
LWPOLYLINE
5
142
100
AcDbEntity
8
0
100
AcDbPolyline
90
8
70
1
43
0.0
10
242.39000000000007
20
-86.840000499999945
42
-0.41421356237309509
10
242.8900000000001
20
-87.340000499999945
10
242.8900000000001
20
-100.34000049999996
42
-0.41421356237309509
10
242.39000000000007
20
-100.84000049999997
10
229.3899990000001
20
-100.84000049999997
42
-0.41421356237308465
10
228.89000000000007
20
-100.33999949999996
10
228.89000100000007
20
-87.339999499999976
42
-0.41421356237310542
10
229.39000000000007
20
-86.84000049999996
0
LWPOLYLINE
5
143
100
AcDbEntity
8
0
100
AcDbPolyline
90
8
70
1
43
0.0
10
223.34000000000006
20
-48.740000499999923
42
-0.41421356237309509
10
223.84000000000009
20
-49.24000049999993
10
223.83999900000006
20
-62.240000499999937
42
-0.41421356237310542
10
223.34000000000006
20
-62.739999499999961
10
210.34000000000006
20
-62.739999499999954
42
-0.41421356237309509
10
209.84000000000006
20
-62.239999499999939
10
209.84000100000006
20
-49.240000499999951
42
-0.41421356237309509
10
210.33999900000003
20
-48.74000049999993
0
LWPOLYLINE
5
144
100
AcDbEntity
8
0
100
AcDbPolyline
90
8
70
1
43
0.0
10
242.88999900000007
20
-81.290000499999962
42
-0.41421356237309509
10
242.39000000000007
20
-81.789999499999965
10
229.39000000000007
20
-81.789999499999965
42
-0.41421356237309509
10
228.89000000000007
20
-81.289999499999951
10
228.89000100000007
20
-68.289999499999951
42
-0.41421356237309509
10
229.39000000000007
20
-67.790000499999948
10
242.39000000000007
20
-67.790000499999948
42
-0.41421356237309509
10
242.8900000000001
20
-68.290000499999962
0
LWPOLYLINE
5
145
100
AcDbEntity
8
0
100
AcDbPolyline
90
8
70
1
43
0.0
10
242.39000000000007
20
-48.740000499999923
42
-0.41421356237309509
10
242.8900000000001
20
-49.24000049999993
10
242.88999900000007
20
-62.240000499999937
42
-0.41421356237310542
10
242.39000000000007
20
-62.739999499999961
10
229.39000000000007
20
-62.739999499999954
42
-0.41421356237309509
10
228.89000000000007
20
-62.239999499999939
10
228.89000100000007
20
-49.239999499999954
42
-0.41421356237310542
10
229.39000000000007
20
-48.74000049999993
0
LWPOLYLINE
5
146
100
AcDbEntity
8
0
100
AcDbPolyline
90
24
70
1
43
0.0
10
68.659999999999997
20
-100.89
42
-0.41421356237309509
10
70.670000000000002
20
-102.90000000000001
10
70.670000000000016
20
-119.90000000000002
42
0.41421356237309509
10
72.680000000000007
20
-121.91000000000001
10
84.249999615735916
20
-121.88700899949993
42
-0.99485835337673145
10
92.589777999999995
20
-121.93000000000001
10
207.91022161573594
20
-121.89700899950004
42
-0.99485835337674755
10
216.25
20
-121.94000000000001
10
227.60000000000002
20
-121.95
42
0.41421356237309509
10
229.61000000000001
20
-119.94
10
229.61000000000001
20
-102.90000000000001
42
-0.41421356237309509
10
231.62000000000003
20
-100.89
10
241.98000000000002
20
-100.89
42
0.41421356237309509
10
243.99000000000001
20
-98.879999999999995
10
244.00019900000001
20
-50.390199000000003
42
0.41421356237309509
10
241.75
20
-48.140000000000001
10
211.48977838621505
20
-48.182990811270095
42
-0.99485837595101789
10
203.15000000000001
20
-48.140000000000001
10
97.178803384264171
20
-48.212991000489993
42
-0.99485835337793693
10
88.839025000000021
20
-48.170000000000002
10
58.539999999999999
20
-48.159801000000002
42
0.41421356237309509
10
56.289800999999997
20
-50.410000000000004
10
56.290000000000006
20
-98.879999999999995
42
0.41421356237309509
10
58.299999999999997
20
-100.89
0
ENDSEC
0
SECTION
2
OBJECTS
0
DICTIONARY
5
C
100
AcDbDictionary
3
ACAD_GROUP
350
D
3
ACAD_MLINESTYLE
350
17
0
DICTIONARY
5
D
100
AcDbDictionary
0
DICTIONARY
5
1A
330
C
100
AcDbDictionary
0
DICTIONARY
5
17
100
AcDbDictionary
0
ENDSEC
0
EOF
